<svg viewBox="0 0 600 400" xmlns="http://www.w3.org/2000/svg">
<g transform="translate(72, 364)">
<g>
<g>
<path d="M0,-75.55556 L0,-75.55556 L10.212766,-54.245014 L20.425531,-30.99715 L30.638298,-30.99715 L40.851063,-54.245014 L51.06383,-64.90028 L61.276596,-86.21082 L71.489365,-96.8661 L81.702126,-116.23932 L91.914894,0 L102.12766,-96.8661 L112.34042,-116.23932 L122.55319,-54.245014 L132.76596,-74.58689 L142.97873,-85.242165 L153.19148,-52.307693 L163.40425,0 L173.61702,-44.558403 L183.82979,-94.92877 L194.04256,-53.276352 L204.25533,-96.8661 L214.46808,-116.23932 L224.68085,-106.552704 L234.89362,-97.834755 L245.10638,-85.242165 L255.31915,-75.55556 L265.53192,-94.92877 L275.7447,-62.962963 L285.95746,-48.43305 L296.17023,-64.90028 L306.38297,-53.276352 L316.59573,0 L326.8085,-96.8661 L337.02127,-97.834755 L347.23404,-99.77208 L357.4468,-116.23932" fill="none" stroke="#000000" stroke-linejoin="round" stroke-width="2"/>
</g>
<g>
<circle cx="0" cy="-75.55555555555556" fill="#000000" r="5"/>
<circle cx="10.212765957446809" cy="-54.24501424501425" fill="#000000" r="5"/>
<circle cx="20.425531914893618" cy="-30.997150997150996" fill="#000000" r="5"/>
<circle cx="30.638297872340427" cy="-30.997150997150996" fill="#000000" r="5"/>
<circle cx="40.851063829787236" cy="-54.24501424501425" fill="#000000" r="5"/>
<circle cx="51.06382978723404" cy="-64.9002849002849" fill="#000000" r="5"/>
<circle cx="61.276595744680854" cy="-86.21082621082621" fill="#000000" r="5"/>
<circle cx="71.48936170212765" cy="-96.86609686609687" fill="#000000" r="5"/>
<circle cx="81.70212765957447" cy="-116.23931623931624" fill="#000000" r="5"/>
<circle cx="91.91489361702128" cy="0" fill="#000000" r="5"/>
<circle cx="102.12765957446808" cy="-96.86609686609687" fill="#000000" r="5"/>
<circle cx="112.34042553191489" cy="-116.23931623931624" fill="#000000" r="5"/>
<circle cx="122.55319148936171" cy="-54.24501424501425" fill="#000000" r="5"/>
<circle cx="132.7659574468085" cy="-74.58689458689459" fill="#000000" r="5"/>
<circle cx="142.9787234042553" cy="-85.24216524216524" fill="#000000" r="5"/>
<circle cx="153.19148936170214" cy="-52.30769230769231" fill="#000000" r="5"/>
<circle cx="163.40425531914894" cy="0" fill="#000000" r="5"/>
<circle cx="173.61702127659575" cy="-44.55840455840456" fill="#000000" r="5"/>
<circle cx="183.82978723404256" cy="-94.92877492877493" fill="#000000" r="5"/>
<circle cx="194.04255319148936" cy="-53.27635327635328" fill="#000000" r="5"/>
<circle cx="204.25531914893617" cy="-96.86609686609687" fill="#000000" r="5"/>
<circle cx="214.46808510638297" cy="-116.23931623931624" fill="#000000" r="5"/>
<circle cx="224.68085106382978" cy="-106.55270655270655" fill="#000000" r="5"/>
<circle cx="234.89361702127658" cy="-97.83475783475784" fill="#000000" r="5"/>
<circle cx="245.10638297872342" cy="-85.24216524216524" fill="#000000" r="5"/>
<circle cx="255.31914893617022" cy="-75.55555555555556" fill="#000000" r="5"/>
<circle cx="265.531914893617" cy="-94.92877492877493" fill="#000000" r="5"/>
<circle cx="275.74468085106383" cy="-62.96296296296296" fill="#000000" r="5"/>
<circle cx="285.9574468085106" cy="-48.433048433048434" fill="#000000" r="5"/>
<circle cx="296.17021276595744" cy="-64.9002849002849" fill="#000000" r="5"/>
<circle cx="306.3829787234043" cy="-53.27635327635328" fill="#000000" r="5"/>
<circle cx="316.59574468085106" cy="0" fill="#000000" r="5"/>
<circle cx="326.8085106382979" cy="-96.86609686609687" fill="#000000" r="5"/>
<circle cx="337.02127659574467" cy="-97.83475783475784" fill="#000000" r="5"/>
<circle cx="347.2340425531915" cy="-99.77207977207978" fill="#000000" r="5"/>
<circle cx="357.4468085106383" cy="-116.23931623931624" fill="#000000" r="5"/>
</g>
</g>
<g>
<g>
<path d="M10.212766,-75.55556 L10.212766,-75.55556 L20.425531,-67.03134 L30.638298,-52.617664 L40.851063,-43.96946 L51.06383,-48.07968 L61.276596,-54.807922 L71.489365,-67.36909 L81.702126,-79.16789 L91.914894,-93.99646 L102.12766,-56.397877 L112.34042,-72.58517 L122.55319,-90.04682 L132.76596,-75.7261 L142.97873,-75.27042 L153.19148,-79.25912 L163.40425,-68.478546 L173.61702,-41.087128 L183.82979,-42.47564 L194.04256,-63.456894 L204.25533,-59.384678 L214.46808,-74.37724 L224.68085,-91.12207 L234.89362,-97.29433 L245.10638,-97.5105 L255.31915,-92.603165 L265.53192,-85.78412 L275.7447,-89.441986 L285.95746,-78.85037 L296.17023,-66.68344 L306.38297,-65.970184 L316.59573,-60.89265 L326.8085,-36.53559 L337.02127,-60.667793 L347.23404,-75.53458 L357.4468,-85.229576" fill="none" stroke="#af0af6" stroke-linejoin="round" stroke-width="2"/>
</g>
<g>
<circle cx="10.212765957446809" cy="-75.55555555555556" fill="#af0af6" r="5"/>
<circle cx="20.425531914893618" cy="-67.03133903133903" fill="#af0af6" r="5"/>
<circle cx="30.638297872340427" cy="-52.617663817663825" fill="#af0af6" r="5"/>
<circle cx="40.851063829787236" cy="-43.969458689458705" fill="#af0af6" r="5"/>
<circle cx="51.06382978723404" cy="-48.079680911680924" fill="#af0af6" r="5"/>
<circle cx="61.276595744680854" cy="-54.80792250712252" fill="#af0af6" r="5"/>
<circle cx="71.48936170212765" cy="-67.369083988604" fill="#af0af6" r="5"/>
<circle cx="81.70212765957447" cy="-79.16788913960114" fill="#af0af6" r="5"/>
<circle cx="91.91489361702128" cy="-93.99645997948717" fill="#af0af6" r="5"/>
<circle cx="102.12765957446808" cy="-56.3978759876923" fill="#af0af6" r="5"/>
<circle cx="112.34042553191489" cy="-72.58516433905413" fill="#af0af6" r="5"/>
<circle cx="122.55319148936171" cy="-90.04682509915898" fill="#af0af6" r="5"/>
<circle cx="132.7659574468085" cy="-75.72610075750109" fill="#af0af6" r="5"/>
<circle cx="142.9787234042553" cy="-75.27041828925849" fill="#af0af6" r="5"/>
<circle cx="153.19148936170214" cy="-79.25911707042118" fill="#af0af6" r="5"/>
<circle cx="163.40425531914894" cy="-68.47854716532963" fill="#af0af6" r="5"/>
<circle cx="173.61702127659575" cy="-41.08712829919777" fill="#af0af6" r="5"/>
<circle cx="183.82978723404256" cy="-42.47563880288049" fill="#af0af6" r="5"/>
<circle cx="194.04255319148936" cy="-63.45689325323826" fill="#af0af6" r="5"/>
<circle cx="204.25531914893617" cy="-59.38467726248427" fill="#af0af6" r="5"/>
<circle cx="214.46808510638297" cy="-74.37724510392931" fill="#af0af6" r="5"/>
<circle cx="224.68085106382978" cy="-91.12207355808408" fill="#af0af6" r="5"/>
<circle cx="234.89361702127658" cy="-97.29432675593307" fill="#af0af6" r="5"/>
<circle cx="245.10638297872342" cy="-97.51049918746298" fill="#af0af6" r="5"/>
<circle cx="255.31914893617022" cy="-92.60316560934389" fill="#af0af6" r="5"/>
<circle cx="265.531914893617" cy="-85.78412158782857" fill="#af0af6" r="5"/>
<circle cx="275.74468085106383" cy="-89.4419829242071" fill="#af0af6" r="5"/>
<circle cx="285.9574468085106" cy="-78.85037493970944" fill="#af0af6" r="5"/>
<circle cx="296.17021276595744" cy="-66.68344433704503" fill="#af0af6" r="5"/>
<circle cx="306.3829787234043" cy="-65.97018056234099" fill="#af0af6" r="5"/>
<circle cx="316.59574468085106" cy="-60.892649647945895" fill="#af0af6" r="5"/>
<circle cx="326.8085106382979" cy="-36.53558978876753" fill="#af0af6" r="5"/>
<circle cx="337.02127659574467" cy="-60.66779261969927" fill="#af0af6" r="5"/>
<circle cx="347.2340425531915" cy="-75.53457870572271" fill="#af0af6" r="5"/>
<circle cx="357.4468085106383" cy="-85.22957913226553" fill="#af0af6" r="5"/>
</g>
</g>
<g>
<g>
<path d="M0,-60.980553 L0,-60.980553 L10.212766,-61.616604 L20.425531,-62.252655 L30.638298,-62.888702 L40.851063,-63.524754 L51.06383,-64.160805 L61.276596,-64.79685 L71.489365,-65.4329 L81.702126,-66.068954 L91.914894,-66.705 L102.12766,-67.34105 L112.34042,-67.977104 L122.55319,-68.61315 L132.76596,-69.24921 L142.97873,-69.885254 L153.19148,-70.5213 L163.40425,-71.15736 L173.61702,-71.7934 L183.82979,-72.42945 L194.04256,-73.065506 L204.25533,-73.70155 L214.46808,-74.3376 L224.68085,-74.973656 L234.89362,-75.6097 L245.10638,-76.24575 L255.31915,-76.881805 L265.53192,-77.51785 L275.7447,-78.1539 L285.95746,-78.789955 L296.17023,-79.426 L306.38297,-80.06205 L316.59573,-80.698105 L326.8085,-81.33415 L337.02127,-81.9702 L347.23404,-82.606255 L357.4468,-83.2423" fill="none" stroke="#87faa4" stroke-linejoin="round" stroke-width="2"/>
</g>
<g>
<circle cx="0" cy="-60.980553202775425" fill="#87faa4" r="5"/>
<circle cx="10.212765957446809" cy="-61.61660317215873" fill="#87faa4" r="5"/>
<circle cx="20.425531914893618" cy="-62.252653141542034" fill="#87faa4" r="5"/>
<circle cx="30.638297872340427" cy="-62.888703110925334" fill="#87faa4" r="5"/>
<circle cx="40.851063829787236" cy="-63.524753080308635" fill="#87faa4" r="5"/>
<circle cx="51.06382978723404" cy="-64.16080304969194" fill="#87faa4" r="5"/>
<circle cx="61.276595744680854" cy="-64.79685301907524" fill="#87faa4" r="5"/>
<circle cx="71.48936170212765" cy="-65.43290298845855" fill="#87faa4" r="5"/>
<circle cx="81.70212765957447" cy="-66.06895295784186" fill="#87faa4" r="5"/>
<circle cx="91.91489361702128" cy="-66.70500292722515" fill="#87faa4" r="5"/>
<circle cx="102.12765957446808" cy="-67.34105289660846" fill="#87faa4" r="5"/>
<circle cx="112.34042553191489" cy="-67.97710286599175" fill="#87faa4" r="5"/>
<circle cx="122.55319148936171" cy="-68.61315283537506" fill="#87faa4" r="5"/>
<circle cx="132.7659574468085" cy="-69.24920280475837" fill="#87faa4" r="5"/>
<circle cx="142.9787234042553" cy="-69.88525277414166" fill="#87faa4" r="5"/>
<circle cx="153.19148936170214" cy="-70.52130274352497" fill="#87faa4" r="5"/>
<circle cx="163.40425531914894" cy="-71.15735271290828" fill="#87faa4" r="5"/>
<circle cx="173.61702127659575" cy="-71.79340268229157" fill="#87faa4" r="5"/>
<circle cx="183.82978723404256" cy="-72.42945265167488" fill="#87faa4" r="5"/>
<circle cx="194.04255319148936" cy="-73.06550262105817" fill="#87faa4" r="5"/>
<circle cx="204.25531914893617" cy="-73.70155259044148" fill="#87faa4" r="5"/>
<circle cx="214.46808510638297" cy="-74.33760255982479" fill="#87faa4" r="5"/>
<circle cx="224.68085106382978" cy="-74.97365252920808" fill="#87faa4" r="5"/>
<circle cx="234.89361702127658" cy="-75.60970249859139" fill="#87faa4" r="5"/>
<circle cx="245.10638297872342" cy="-76.2457524679747" fill="#87faa4" r="5"/>
<circle cx="255.31914893617022" cy="-76.88180243735799" fill="#87faa4" r="5"/>
<circle cx="265.531914893617" cy="-77.5178524067413" fill="#87faa4" r="5"/>
<circle cx="275.74468085106383" cy="-78.15390237612459" fill="#87faa4" r="5"/>
<circle cx="285.9574468085106" cy="-78.7899523455079" fill="#87faa4" r="5"/>
<circle cx="296.17021276595744" cy="-79.4260023148912" fill="#87faa4" r="5"/>
<circle cx="306.3829787234043" cy="-80.0620522842745" fill="#87faa4" r="5"/>
<circle cx="316.59574468085106" cy="-80.69810225365781" fill="#87faa4" r="5"/>
<circle cx="326.8085106382979" cy="-81.33415222304112" fill="#87faa4" r="5"/>
<circle cx="337.02127659574467" cy="-81.97020219242441" fill="#87faa4" r="5"/>
<circle cx="347.2340425531915" cy="-82.60625216180773" fill="#87faa4" r="5"/>
<circle cx="357.4468085106383" cy="-83.24230213119102" fill="#87faa4" r="5"/>
</g>
</g>
<g>
<g>
<path d="M367.65958,-75.53458 L367.65958,-75.53458 L377.87234,-126.894585 L388.0851,-104.61539 L398.29788,-103.64672 L408.51065,-85.242165 L418.72342,-61.9943 L428.93616,-46.495728 L439.14893,-98.80342 L449.3617,-19.373219 L459.57446,-340 L469.78723,-87.17949 L480,-98.80342" fill="none" stroke="#ff00a2" stroke-linejoin="round" stroke-width="2"/>
</g>
<g>
<circle cx="367.6595744680851" cy="-75.53457870572271" fill="#ff00a2" r="5"/>
<circle cx="377.8723404255319" cy="-126.8945868945869" fill="#ff00a2" r="5"/>
<circle cx="388.0851063829787" cy="-104.61538461538461" fill="#ff00a2" r="5"/>
<circle cx="398.29787234042556" cy="-103.64672364672364" fill="#ff00a2" r="5"/>
<circle cx="408.51063829787233" cy="-85.24216524216524" fill="#ff00a2" r="5"/>
<circle cx="418.72340425531917" cy="-61.99430199430199" fill="#ff00a2" r="5"/>
<circle cx="428.93617021276594" cy="-46.495726495726494" fill="#ff00a2" r="5"/>
<circle cx="439.1489361702128" cy="-98.80341880341881" fill="#ff00a2" r="5"/>
<circle cx="449.36170212765956" cy="-19.373219373219374" fill="#ff00a2" r="5"/>
<circle cx="459.5744680851064" cy="-340" fill="#ff00a2" r="5"/>
<circle cx="469.78723404255317" cy="-87.17948717948718" fill="#ff00a2" r="5"/>
<circle cx="480" cy="-98.80341880341881" fill="#ff00a2" r="5"/>
</g>
</g>
<g>
<g>
<line stroke="black" stroke-width="1" x1="0" x2="0" y1="0" y2="10"/>
<line stroke="black" stroke-width="1" x1="102.12765957446808" x2="102.12765957446808" y1="0" y2="10"/>
<line stroke="black" stroke-width="1" x1="204.25531914893617" x2="204.25531914893617" y1="0" y2="10"/>
<line stroke="black" stroke-width="1" x1="306.3829787234043" x2="306.3829787234043" y1="0" y2="10"/>
<line stroke="black" stroke-width="1" x1="408.51063829787233" x2="408.51063829787233" y1="0" y2="10"/>
</g>
<line stroke="black" stroke-width="1" x1="0" x2="480" y1="0" y2="0"/>
<g>
<text font-size="12" text-anchor="middle" x="0" y="20">
1
</text>
<text font-size="12" text-anchor="middle" x="102.12765957446808" y="20">
11
</text>
<text font-size="12" text-anchor="middle" x="204.25531914893617" y="20">
21
</text>
<text font-size="12" text-anchor="middle" x="306.3829787234043" y="20">
31
</text>
<text font-size="12" text-anchor="middle" x="408.51063829787233" y="20">
41
</text>
</g>
<text font-size="12" text-anchor="middle" x="240" y="30">

</text>
</g>
<g>
<g>
<line stroke="black" stroke-width="1" x1="0" x2="-10" y1="0" y2="0"/>
<line stroke="black" stroke-width="1" x1="0" x2="-10" y1="-96.86609686609687" y2="-96.86609686609687"/>
<line stroke="black" stroke-width="1" x1="0" x2="-10" y1="-193.73219373219374" y2="-193.73219373219374"/>
<line stroke="black" stroke-width="1" x1="0" x2="-10" y1="-290.5982905982906" y2="-290.5982905982906"/>
</g>
<line stroke="black" stroke-width="1" x1="0" x2="0" y1="0" y2="-340"/>
<g>
<text dominant-baseline="middle" font-size="12" text-anchor="end" x="-15" y="0">
0
</text>
<text dominant-baseline="middle" font-size="12" text-anchor="end" x="-15" y="-96.86609686609687">
100
</text>
<text dominant-baseline="middle" font-size="12" text-anchor="end" x="-15" y="-193.73219373219374">
200
</text>
<text dominant-baseline="middle" font-size="12" text-anchor="end" x="-15" y="-290.5982905982906">
300
</text>
</g>
<text font-size="12" text-anchor="middle" transform="rotate(-90 -36 -170)" x="-36" y="-182">

</text>
</g>
</g>
</svg>