<svg viewBox="0 0 600 400" xmlns="http://www.w3.org/2000/svg">
<g transform="translate(72, 364)">
<g>
<g>
<path d="M0,-16.643356 L0,-16.643356 L10.212766,-53.100235 L20.425531,-44.382286 L30.638298,-35.664337 L40.851063,-25.361305 L51.06383,-69.74359 L61.276596,-18.228437 L71.489365,-35.664337 L81.702126,-41.21212 L91.914894,-25.361305 L102.12766,-25.361305 L112.34042,-16.643356 L122.55319,-16.643356 L132.76596,-34.871796 L142.97873,-51.515152 L153.19148,-25.361305 L163.40425,-36.456875 L173.61702,-44.382286 L183.82979,-26.946386 L194.04256,-68.95105 L204.25533,-34.079254 L214.46808,0 L224.68085,-35.664337 L234.89362,-25.361305 L245.10638,-16.643356 L255.31915,-42.797203 L265.53192,-61.025642 L275.7447,-34.871796 L285.95746,-25.361305 L296.17023,-51.515152 L306.38297,-34.871796 L316.59573,-9.510489 L326.8085,-26.153847 L337.02127,-43.589745 L347.23404,-52.307693 L357.4468,-157.71562" fill="none" stroke="#000000" stroke-linejoin="round" stroke-width="2"/>
</g>
<g>
<circle cx="0" cy="-16.643356643356643" fill="#000000" r="5"/>
<circle cx="10.212765957446809" cy="-53.1002331002331" fill="#000000" r="5"/>
<circle cx="20.425531914893618" cy="-44.38228438228438" fill="#000000" r="5"/>
<circle cx="30.638297872340427" cy="-35.66433566433567" fill="#000000" r="5"/>
<circle cx="40.851063829787236" cy="-25.361305361305362" fill="#000000" r="5"/>
<circle cx="51.06382978723404" cy="-69.74358974358974" fill="#000000" r="5"/>
<circle cx="61.276595744680854" cy="-18.22843822843823" fill="#000000" r="5"/>
<circle cx="71.48936170212765" cy="-35.66433566433567" fill="#000000" r="5"/>
<circle cx="81.70212765957447" cy="-41.21212121212121" fill="#000000" r="5"/>
<circle cx="91.91489361702128" cy="-25.361305361305362" fill="#000000" r="5"/>
<circle cx="102.12765957446808" cy="-25.361305361305362" fill="#000000" r="5"/>
<circle cx="112.34042553191489" cy="-16.643356643356643" fill="#000000" r="5"/>
<circle cx="122.55319148936171" cy="-16.643356643356643" fill="#000000" r="5"/>
<circle cx="132.7659574468085" cy="-34.87179487179487" fill="#000000" r="5"/>
<circle cx="142.9787234042553" cy="-51.515151515151516" fill="#000000" r="5"/>
<circle cx="153.19148936170214" cy="-25.361305361305362" fill="#000000" r="5"/>
<circle cx="163.40425531914894" cy="-36.45687645687646" fill="#000000" r="5"/>
<circle cx="173.61702127659575" cy="-44.38228438228438" fill="#000000" r="5"/>
<circle cx="183.82978723404256" cy="-26.946386946386948" fill="#000000" r="5"/>
<circle cx="194.04255319148936" cy="-68.95104895104895" fill="#000000" r="5"/>
<circle cx="204.25531914893617" cy="-34.07925407925408" fill="#000000" r="5"/>
<circle cx="214.46808510638297" cy="0" fill="#000000" r="5"/>
<circle cx="224.68085106382978" cy="-35.66433566433567" fill="#000000" r="5"/>
<circle cx="234.89361702127658" cy="-25.361305361305362" fill="#000000" r="5"/>
<circle cx="245.10638297872342" cy="-16.643356643356643" fill="#000000" r="5"/>
<circle cx="255.31914893617022" cy="-42.7972027972028" fill="#000000" r="5"/>
<circle cx="265.531914893617" cy="-61.02564102564103" fill="#000000" r="5"/>
<circle cx="275.74468085106383" cy="-34.87179487179487" fill="#000000" r="5"/>
<circle cx="285.9574468085106" cy="-25.361305361305362" fill="#000000" r="5"/>
<circle cx="296.17021276595744" cy="-51.515151515151516" fill="#000000" r="5"/>
<circle cx="306.3829787234043" cy="-34.87179487179487" fill="#000000" r="5"/>
<circle cx="316.59574468085106" cy="-9.51048951048951" fill="#000000" r="5"/>
<circle cx="326.8085106382979" cy="-26.153846153846153" fill="#000000" r="5"/>
<circle cx="337.02127659574467" cy="-43.58974358974359" fill="#000000" r="5"/>
<circle cx="347.2340425531915" cy="-52.30769230769231" fill="#000000" r="5"/>
<circle cx="357.4468085106383" cy="-157.71561771561773" fill="#000000" r="5"/>
</g>
</g>
<g>
<g>
<path d="M10.212766,-16.643356 L10.212766,-16.643356 L20.425531,-31.226107 L30.638298,-36.48858 L40.851063,-36.158882 L51.06383,-31.839851 L61.276596,-47.001347 L71.489365,-35.492184 L81.702126,-35.561043 L91.914894,-37.821476 L102.12766,-32.837406 L112.34042,-29.846966 L122.55319,-24.565523 L132.76596,-21.396656 L142.97873,-26.78671 L153.19148,-36.67809 L163.40425,-32.151375 L173.61702,-33.873577 L183.82979,-38.07706 L194.04256,-33.62479 L204.25533,-47.755295 L214.46808,-42.284878 L224.68085,-25.370926 L234.89362,-29.48829 L245.10638,-27.837496 L255.31915,-23.35984 L265.53192,-31.134785 L275.7447,-43.09113 L285.95746,-39.803394 L296.17023,-34.026558 L306.38297,-41.021996 L316.59573,-38.561916 L326.8085,-26.941345 L337.02127,-26.626345 L347.23404,-33.411705 L357.4468,-40.9701" fill="none" stroke="#af0af6" stroke-linejoin="round" stroke-width="2"/>
</g>
<g>
<circle cx="10.212765957446809" cy="-16.643356643356643" fill="#af0af6" r="5"/>
<circle cx="20.425531914893618" cy="-31.22610722610723" fill="#af0af6" r="5"/>
<circle cx="30.638297872340427" cy="-36.488578088578095" fill="#af0af6" r="5"/>
<circle cx="40.851063829787236" cy="-36.158881118881126" fill="#af0af6" r="5"/>
<circle cx="51.06382978723404" cy="-31.83985081585082" fill="#af0af6" r="5"/>
<circle cx="61.276595744680854" cy="-47.00134638694639" fill="#af0af6" r="5"/>
<circle cx="71.48936170212765" cy="-35.49218312354313" fill="#af0af6" r="5"/>
<circle cx="81.70212765957447" cy="-35.561044139860144" fill="#af0af6" r="5"/>
<circle cx="91.91489361702128" cy="-37.82147496876457" fill="#af0af6" r="5"/>
<circle cx="102.12765957446808" cy="-32.837407125780885" fill="#af0af6" r="5"/>
<circle cx="112.34042553191489" cy="-29.846966419990675" fill="#af0af6" r="5"/>
<circle cx="122.55319148936171" cy="-24.56552250933706" fill="#af0af6" r="5"/>
<circle cx="132.7659574468085" cy="-21.396656162944893" fill="#af0af6" r="5"/>
<circle cx="142.9787234042553" cy="-26.786711646484886" fill="#af0af6" r="5"/>
<circle cx="153.19148936170214" cy="-36.67808759395154" fill="#af0af6" r="5"/>
<circle cx="163.40425531914894" cy="-32.151374700893065" fill="#af0af6" r="5"/>
<circle cx="173.61702127659575" cy="-33.87357540328642" fill="#af0af6" r="5"/>
<circle cx="183.82978723404256" cy="-38.077058994885604" fill="#af0af6" r="5"/>
<circle cx="194.04255319148936" cy="-33.62479017548614" fill="#af0af6" r="5"/>
<circle cx="204.25531914893617" cy="-47.75529368571127" fill="#af0af6" r="5"/>
<circle cx="214.46808510638297" cy="-42.28487784312839" fill="#af0af6" r="5"/>
<circle cx="224.68085106382978" cy="-25.370926705877036" fill="#af0af6" r="5"/>
<circle cx="234.89361702127658" cy="-29.488290289260483" fill="#af0af6" r="5"/>
<circle cx="245.10638297872342" cy="-27.837496318078433" fill="#af0af6" r="5"/>
<circle cx="255.31914893617022" cy="-23.35984044818972" fill="#af0af6" r="5"/>
<circle cx="265.531914893617" cy="-31.13478538779495" fill="#af0af6" r="5"/>
<circle cx="275.74468085106383" cy="-43.09112764293338" fill="#af0af6" r="5"/>
<circle cx="285.9574468085106" cy="-39.803394534477974" fill="#af0af6" r="5"/>
<circle cx="296.17021276595744" cy="-34.02655886520892" fill="#af0af6" r="5"/>
<circle cx="306.3829787234043" cy="-41.021995925185955" fill="#af0af6" r="5"/>
<circle cx="316.59574468085106" cy="-38.56191550382952" fill="#af0af6" r="5"/>
<circle cx="326.8085106382979" cy="-26.94134510649352" fill="#af0af6" r="5"/>
<circle cx="337.02127659574467" cy="-26.626345525434576" fill="#af0af6" r="5"/>
<circle cx="347.2340425531915" cy="-33.41170475115818" fill="#af0af6" r="5"/>
<circle cx="357.4468085106383" cy="-40.970099773771835" fill="#af0af6" r="5"/>
</g>
</g>
<g>
<g>
<path d="M0,-27.811518 L0,-27.811518 L10.212766,-28.387308 L20.425531,-28.963099 L30.638298,-29.538889 L40.851063,-30.11468 L51.06383,-30.69047 L61.276596,-31.266262 L71.489365,-31.842052 L81.702126,-32.417843 L91.914894,-32.993633 L102.12766,-33.569424 L112.34042,-34.145214 L122.55319,-34.721004 L132.76596,-35.296795 L142.97873,-35.872585 L153.19148,-36.448376 L163.40425,-37.024166 L173.61702,-37.599957 L183.82979,-38.175747 L194.04256,-38.751537 L204.25533,-39.327328 L214.46808,-39.90312 L224.68085,-40.478912 L234.89362,-41.054703 L245.10638,-41.630493 L255.31915,-42.206284 L265.53192,-42.782074 L275.7447,-43.357864 L285.95746,-43.933655 L296.17023,-44.509445 L306.38297,-45.085236 L316.59573,-45.661026 L326.8085,-46.236816 L337.02127,-46.812607 L347.23404,-47.388397 L357.4468,-47.964188" fill="none" stroke="#87faa4" stroke-linejoin="round" stroke-width="2"/>
</g>
<g>
<circle cx="0" cy="-27.811517811517817" fill="#87faa4" r="5"/>
<circle cx="10.212765957446809" cy="-28.38730838730839" fill="#87faa4" r="5"/>
<circle cx="20.425531914893618" cy="-28.963098963098965" fill="#87faa4" r="5"/>
<circle cx="30.638297872340427" cy="-29.538889538889542" fill="#87faa4" r="5"/>
<circle cx="40.851063829787236" cy="-30.114680114680112" fill="#87faa4" r="5"/>
<circle cx="51.06382978723404" cy="-30.690470690470693" fill="#87faa4" r="5"/>
<circle cx="61.276595744680854" cy="-31.266261266261267" fill="#87faa4" r="5"/>
<circle cx="71.48936170212765" cy="-31.84205184205184" fill="#87faa4" r="5"/>
<circle cx="81.70212765957447" cy="-32.417842417842415" fill="#87faa4" r="5"/>
<circle cx="91.91489361702128" cy="-32.993632993633" fill="#87faa4" r="5"/>
<circle cx="102.12765957446808" cy="-33.56942356942357" fill="#87faa4" r="5"/>
<circle cx="112.34042553191489" cy="-34.14521414521415" fill="#87faa4" r="5"/>
<circle cx="122.55319148936171" cy="-34.72100472100472" fill="#87faa4" r="5"/>
<circle cx="132.7659574468085" cy="-35.296795296795295" fill="#87faa4" r="5"/>
<circle cx="142.9787234042553" cy="-35.87258587258587" fill="#87faa4" r="5"/>
<circle cx="153.19148936170214" cy="-36.44837644837645" fill="#87faa4" r="5"/>
<circle cx="163.40425531914894" cy="-37.02416702416703" fill="#87faa4" r="5"/>
<circle cx="173.61702127659575" cy="-37.5999575999576" fill="#87faa4" r="5"/>
<circle cx="183.82978723404256" cy="-38.17574817574818" fill="#87faa4" r="5"/>
<circle cx="194.04255319148936" cy="-38.75153875153875" fill="#87faa4" r="5"/>
<circle cx="204.25531914893617" cy="-39.32732932732933" fill="#87faa4" r="5"/>
<circle cx="214.46808510638297" cy="-39.90311990311991" fill="#87faa4" r="5"/>
<circle cx="224.68085106382978" cy="-40.47891047891048" fill="#87faa4" r="5"/>
<circle cx="234.89361702127658" cy="-41.054701054701056" fill="#87faa4" r="5"/>
<circle cx="245.10638297872342" cy="-41.63049163049164" fill="#87faa4" r="5"/>
<circle cx="255.31914893617022" cy="-42.2062822062822" fill="#87faa4" r="5"/>
<circle cx="265.531914893617" cy="-42.782072782072774" fill="#87faa4" r="5"/>
<circle cx="275.74468085106383" cy="-43.35786335786336" fill="#87faa4" r="5"/>
<circle cx="285.9574468085106" cy="-43.93365393365393" fill="#87faa4" r="5"/>
<circle cx="296.17021276595744" cy="-44.509444509444506" fill="#87faa4" r="5"/>
<circle cx="306.3829787234043" cy="-45.085235085235084" fill="#87faa4" r="5"/>
<circle cx="316.59574468085106" cy="-45.66102566102566" fill="#87faa4" r="5"/>
<circle cx="326.8085106382979" cy="-46.23681623681623" fill="#87faa4" r="5"/>
<circle cx="337.02127659574467" cy="-46.81260681260681" fill="#87faa4" r="5"/>
<circle cx="347.2340425531915" cy="-47.38839738839739" fill="#87faa4" r="5"/>
<circle cx="357.4468085106383" cy="-47.96418796418797" fill="#87faa4" r="5"/>
</g>
</g>
<g>
<g>
<path d="M367.65958,-33.411705 L367.65958,-33.411705 L377.87234,-4.7552447 L388.0851,-60.2331 L398.29788,-49.137527 L408.51065,-48.34499 L418.72342,-33.286713 L428.93616,-76.083916 L439.14893,-47.55245 L449.3617,-53.892773 L459.57446,-173.56644 L469.78723,-340 L480,-34.079254" fill="none" stroke="#ff00a2" stroke-linejoin="round" stroke-width="2"/>
</g>
<g>
<circle cx="367.6595744680851" cy="-33.41170475115818" fill="#ff00a2" r="5"/>
<circle cx="377.8723404255319" cy="-4.755244755244755" fill="#ff00a2" r="5"/>
<circle cx="388.0851063829787" cy="-60.23310023310023" fill="#ff00a2" r="5"/>
<circle cx="398.29787234042556" cy="-49.137529137529135" fill="#ff00a2" r="5"/>
<circle cx="408.51063829787233" cy="-48.344988344988344" fill="#ff00a2" r="5"/>
<circle cx="418.72340425531917" cy="-33.28671328671329" fill="#ff00a2" r="5"/>
<circle cx="428.93617021276594" cy="-76.08391608391608" fill="#ff00a2" r="5"/>
<circle cx="439.1489361702128" cy="-47.55244755244755" fill="#ff00a2" r="5"/>
<circle cx="449.36170212765956" cy="-53.892773892773896" fill="#ff00a2" r="5"/>
<circle cx="459.5744680851064" cy="-173.56643356643357" fill="#ff00a2" r="5"/>
<circle cx="469.78723404255317" cy="-340" fill="#ff00a2" r="5"/>
<circle cx="480" cy="-34.07925407925408" fill="#ff00a2" r="5"/>
</g>
</g>
<g>
<g>
<line stroke="black" stroke-width="1" x1="0" x2="0" y1="0" y2="10"/>
<line stroke="black" stroke-width="1" x1="102.12765957446808" x2="102.12765957446808" y1="0" y2="10"/>
<line stroke="black" stroke-width="1" x1="204.25531914893617" x2="204.25531914893617" y1="0" y2="10"/>
<line stroke="black" stroke-width="1" x1="306.3829787234043" x2="306.3829787234043" y1="0" y2="10"/>
<line stroke="black" stroke-width="1" x1="408.51063829787233" x2="408.51063829787233" y1="0" y2="10"/>
</g>
<line stroke="black" stroke-width="1" x1="0" x2="480" y1="0" y2="0"/>
<g>
<text font-size="12" text-anchor="middle" x="0" y="20">
1
</text>
<text font-size="12" text-anchor="middle" x="102.12765957446808" y="20">
11
</text>
<text font-size="12" text-anchor="middle" x="204.25531914893617" y="20">
21
</text>
<text font-size="12" text-anchor="middle" x="306.3829787234043" y="20">
31
</text>
<text font-size="12" text-anchor="middle" x="408.51063829787233" y="20">
41
</text>
</g>
<text font-size="12" text-anchor="middle" x="240" y="30">

</text>
</g>
<g>
<g>
<line stroke="black" stroke-width="1" x1="0" x2="-10" y1="0" y2="0"/>
<line stroke="black" stroke-width="1" x1="0" x2="-10" y1="-79.25407925407926" y2="-79.25407925407926"/>
<line stroke="black" stroke-width="1" x1="0" x2="-10" y1="-158.50815850815852" y2="-158.50815850815852"/>
<line stroke="black" stroke-width="1" x1="0" x2="-10" y1="-237.76223776223776" y2="-237.76223776223776"/>
<line stroke="black" stroke-width="1" x1="0" x2="-10" y1="-317.01631701631703" y2="-317.01631701631703"/>
</g>
<line stroke="black" stroke-width="1" x1="0" x2="0" y1="0" y2="-340"/>
<g>
<text dominant-baseline="middle" font-size="12" text-anchor="end" x="-15" y="0">
11
</text>
<text dominant-baseline="middle" font-size="12" text-anchor="end" x="-15" y="-79.25407925407926">
111
</text>
<text dominant-baseline="middle" font-size="12" text-anchor="end" x="-15" y="-158.50815850815852">
211
</text>
<text dominant-baseline="middle" font-size="12" text-anchor="end" x="-15" y="-237.76223776223776">
311
</text>
<text dominant-baseline="middle" font-size="12" text-anchor="end" x="-15" y="-317.01631701631703">
411
</text>
</g>
<text font-size="12" text-anchor="middle" transform="rotate(-90 -36 -170)" x="-36" y="-182">

</text>
</g>
</g>
</svg>