<svg viewBox="0 0 600 400" xmlns="http://www.w3.org/2000/svg">
<g transform="translate(72, 364)">
<g>
<g>
<path d="M0,0 L0,0 L10.212766,-37.77778 L20.425531,-75.55556 L30.638298,-113.333336 L40.851063,0 L51.06383,-37.77778 L61.276596,-151.11111 L71.489365,-188.88889 L81.702126,-37.77778 L91.914894,-151.11111 L102.12766,-226.66667 L112.34042,-264.44446 L122.55319,-37.77778 L132.76596,-75.55556 L142.97873,-113.333336 L153.19148,-151.11111 L163.40425,-37.77778 L173.61702,-75.55556 L183.82979,-188.88889 L194.04256,-226.66667 L204.25533,-75.55556 L214.46808,-188.88889 L224.68085,-264.44446 L234.89362,-302.22223 L245.10638,-75.55556 L255.31915,-113.333336 L265.53192,-151.11111 L275.7447,-188.88889 L285.95746,-75.55556 L296.17023,-113.333336 L306.38297,-226.66667 L316.59573,-264.44446 L326.8085,-113.333336 L337.02127,-226.66667 L347.23404,-302.22223 L357.4468,-340" fill="none" stroke="#000000" stroke-linejoin="round" stroke-width="2"/>
</g>
<g>
<circle cx="0" cy="0" fill="#000000" r="5"/>
<circle cx="10.212765957446809" cy="-37.77777777777778" fill="#000000" r="5"/>
<circle cx="20.425531914893618" cy="-75.55555555555556" fill="#000000" r="5"/>
<circle cx="30.638297872340427" cy="-113.33333333333333" fill="#000000" r="5"/>
<circle cx="40.851063829787236" cy="0" fill="#000000" r="5"/>
<circle cx="51.06382978723404" cy="-37.77777777777778" fill="#000000" r="5"/>
<circle cx="61.276595744680854" cy="-151.11111111111111" fill="#000000" r="5"/>
<circle cx="71.48936170212765" cy="-188.88888888888889" fill="#000000" r="5"/>
<circle cx="81.70212765957447" cy="-37.77777777777778" fill="#000000" r="5"/>
<circle cx="91.91489361702128" cy="-151.11111111111111" fill="#000000" r="5"/>
<circle cx="102.12765957446808" cy="-226.66666666666666" fill="#000000" r="5"/>
<circle cx="112.34042553191489" cy="-264.44444444444446" fill="#000000" r="5"/>
<circle cx="122.55319148936171" cy="-37.77777777777778" fill="#000000" r="5"/>
<circle cx="132.7659574468085" cy="-75.55555555555556" fill="#000000" r="5"/>
<circle cx="142.9787234042553" cy="-113.33333333333333" fill="#000000" r="5"/>
<circle cx="153.19148936170214" cy="-151.11111111111111" fill="#000000" r="5"/>
<circle cx="163.40425531914894" cy="-37.77777777777778" fill="#000000" r="5"/>
<circle cx="173.61702127659575" cy="-75.55555555555556" fill="#000000" r="5"/>
<circle cx="183.82978723404256" cy="-188.88888888888889" fill="#000000" r="5"/>
<circle cx="194.04255319148936" cy="-226.66666666666666" fill="#000000" r="5"/>
<circle cx="204.25531914893617" cy="-75.55555555555556" fill="#000000" r="5"/>
<circle cx="214.46808510638297" cy="-188.88888888888889" fill="#000000" r="5"/>
<circle cx="224.68085106382978" cy="-264.44444444444446" fill="#000000" r="5"/>
<circle cx="234.89361702127658" cy="-302.22222222222223" fill="#000000" r="5"/>
<circle cx="245.10638297872342" cy="-75.55555555555556" fill="#000000" r="5"/>
<circle cx="255.31914893617022" cy="-113.33333333333333" fill="#000000" r="5"/>
<circle cx="265.531914893617" cy="-151.11111111111111" fill="#000000" r="5"/>
<circle cx="275.74468085106383" cy="-188.88888888888889" fill="#000000" r="5"/>
<circle cx="285.9574468085106" cy="-75.55555555555556" fill="#000000" r="5"/>
<circle cx="296.17021276595744" cy="-113.33333333333333" fill="#000000" r="5"/>
<circle cx="306.3829787234043" cy="-226.66666666666666" fill="#000000" r="5"/>
<circle cx="316.59574468085106" cy="-264.44444444444446" fill="#000000" r="5"/>
<circle cx="326.8085106382979" cy="-113.33333333333333" fill="#000000" r="5"/>
<circle cx="337.02127659574467" cy="-226.66666666666666" fill="#000000" r="5"/>
<circle cx="347.2340425531915" cy="-302.22222222222223" fill="#000000" r="5"/>
<circle cx="357.4468085106383" cy="-340" fill="#000000" r="5"/>
</g>
</g>
<g>
<g>
<path d="M10.212766,0 L10.212766,0 L20.425531,-15.111111 L30.638298,-39.288887 L40.851063,-68.90667 L51.06383,-41.344 L61.276596,-39.91751 L71.489365,-84.39495 L81.702126,-126.19253 L91.914894,-90.82663 L102.12766,-114.94042 L112.34042,-159.63092 L122.55319,-201.55634 L132.76596,-136.0449 L142.97873,-111.84917 L153.19148,-112.44283 L163.40425,-127.91014 L173.61702,-91.8572 L183.82979,-85.33654 L194.04256,-126.75748 L204.25533,-166.72116 L214.46808,-130.25491 L224.68085,-153.70851 L234.89362,-198.00288 L245.10638,-239.69061 L255.31915,-174.03659 L265.53192,-149.7553 L275.7447,-150.29762 L285.95746,-165.73413 L296.17023,-129.6627 L306.38297,-123.13095 L316.59573,-164.54524 L326.8085,-204.50491 L337.02127,-168.03629 L347.23404,-191.48843 L357.4468,-235.78195" fill="none" stroke="#af0af6" stroke-linejoin="round" stroke-width="2"/>
</g>
<g>
<circle cx="10.212765957446809" cy="0" fill="#af0af6" r="5"/>
<circle cx="20.425531914893618" cy="-15.11111111111111" fill="#af0af6" r="5"/>
<circle cx="30.638297872340427" cy="-39.288888888888884" fill="#af0af6" r="5"/>
<circle cx="40.851063829787236" cy="-68.90666666666667" fill="#af0af6" r="5"/>
<circle cx="51.06382978723404" cy="-41.343999999999994" fill="#af0af6" r="5"/>
<circle cx="61.276595744680854" cy="-39.91751111111112" fill="#af0af6" r="5"/>
<circle cx="71.48936170212765" cy="-84.39495111111111" fill="#af0af6" r="5"/>
<circle cx="81.70212765957447" cy="-126.19252622222221" fill="#af0af6" r="5"/>
<circle cx="91.91489361702128" cy="-90.82662684444443" fill="#af0af6" r="5"/>
<circle cx="102.12765957446808" cy="-114.94042055111109" fill="#af0af6" r="5"/>
<circle cx="112.34042553191489" cy="-159.6309189973333" fill="#af0af6" r="5"/>
<circle cx="122.55319148936171" cy="-201.55632917617777" fill="#af0af6" r="5"/>
<circle cx="132.7659574468085" cy="-136.04490861681774" fill="#af0af6" r="5"/>
<circle cx="142.9787234042553" cy="-111.84916739231286" fill="#af0af6" r="5"/>
<circle cx="153.19148936170214" cy="-112.44283376872106" fill="#af0af6" r="5"/>
<circle cx="163.40425531914894" cy="-127.91014470567708" fill="#af0af6" r="5"/>
<circle cx="173.61702127659575" cy="-91.85719793451733" fill="#af0af6" r="5"/>
<circle cx="183.82978723404256" cy="-85.33654098293263" fill="#af0af6" r="5"/>
<circle cx="194.04255319148936" cy="-126.75748014531513" fill="#af0af6" r="5"/>
<circle cx="204.25531914893617" cy="-166.72115475385573" fill="#af0af6" r="5"/>
<circle cx="214.46808510638297" cy="-130.25491507453566" fill="#af0af6" r="5"/>
<circle cx="224.68085106382978" cy="-153.70850460027697" fill="#af0af6" r="5"/>
<circle cx="234.89361702127658" cy="-198.00288053794392" fill="#af0af6" r="5"/>
<circle cx="245.10638297872342" cy="-239.69061721165522" fill="#af0af6" r="5"/>
<circle cx="255.31914893617022" cy="-174.03659254921536" fill="#af0af6" r="5"/>
<circle cx="265.531914893617" cy="-149.75528886286256" fill="#af0af6" r="5"/>
<circle cx="275.74468085106383" cy="-150.29761776216196" fill="#af0af6" r="5"/>
<circle cx="285.9574468085106" cy="-165.73412621285271" fill="#af0af6" r="5"/>
<circle cx="296.17021276595744" cy="-129.66269794993386" fill="#af0af6" r="5"/>
<circle cx="306.3829787234043" cy="-123.13095210329365" fill="#af0af6" r="5"/>
<circle cx="316.59574468085106" cy="-164.54523792864288" fill="#af0af6" r="5"/>
<circle cx="326.8085106382979" cy="-204.5049205349635" fill="#af0af6" r="5"/>
<circle cx="337.02127659574467" cy="-168.03628565431143" fill="#af0af6" r="5"/>
<circle cx="347.2340425531915" cy="-191.48843805925353" fill="#af0af6" r="5"/>
<circle cx="357.4468085106383" cy="-235.78195172444103" fill="#af0af6" r="5"/>
</g>
</g>
<g>
<g>
<path d="M0,-59.04905 L0,-59.04905 L10.212766,-63.94995 L20.425531,-68.85085 L30.638298,-73.751755 L40.851063,-78.65265 L51.06383,-83.55355 L61.276596,-88.45445 L71.489365,-93.355354 L81.702126,-98.256256 L91.914894,-103.15716 L102.12766,-108.05806 L112.34042,-112.95896 L122.55319,-117.85986 L132.76596,-122.76076 L142.97873,-127.66166 L153.19148,-132.56256 L163.40425,-137.46347 L173.61702,-142.36436 L183.82979,-147.26526 L194.04256,-152.16617 L204.25533,-157.06706 L214.46808,-161.96797 L224.68085,-166.86887 L234.89362,-171.76978 L245.10638,-176.67067 L255.31915,-181.57158 L265.53192,-186.47247 L275.7447,-191.37337 L285.95746,-196.27428 L296.17023,-201.17517 L306.38297,-206.07608 L316.59573,-210.97697 L326.8085,-215.87788 L337.02127,-220.77878 L347.23404,-225.67967 L357.4468,-230.58058" fill="none" stroke="#87faa4" stroke-linejoin="round" stroke-width="2"/>
</g>
<g>
<circle cx="0" cy="-59.04904904904905" fill="#87faa4" r="5"/>
<circle cx="10.212765957446809" cy="-63.94994994994994" fill="#87faa4" r="5"/>
<circle cx="20.425531914893618" cy="-68.85085085085085" fill="#87faa4" r="5"/>
<circle cx="30.638297872340427" cy="-73.75175175175174" fill="#87faa4" r="5"/>
<circle cx="40.851063829787236" cy="-78.65265265265265" fill="#87faa4" r="5"/>
<circle cx="51.06382978723404" cy="-83.55355355355356" fill="#87faa4" r="5"/>
<circle cx="61.276595744680854" cy="-88.45445445445444" fill="#87faa4" r="5"/>
<circle cx="71.48936170212765" cy="-93.35535535535536" fill="#87faa4" r="5"/>
<circle cx="81.70212765957447" cy="-98.25625625625625" fill="#87faa4" r="5"/>
<circle cx="91.91489361702128" cy="-103.15715715715716" fill="#87faa4" r="5"/>
<circle cx="102.12765957446808" cy="-108.05805805805807" fill="#87faa4" r="5"/>
<circle cx="112.34042553191489" cy="-112.95895895895895" fill="#87faa4" r="5"/>
<circle cx="122.55319148936171" cy="-117.85985985985985" fill="#87faa4" r="5"/>
<circle cx="132.7659574468085" cy="-122.76076076076075" fill="#87faa4" r="5"/>
<circle cx="142.9787234042553" cy="-127.66166166166167" fill="#87faa4" r="5"/>
<circle cx="153.19148936170214" cy="-132.56256256256253" fill="#87faa4" r="5"/>
<circle cx="163.40425531914894" cy="-137.46346346346348" fill="#87faa4" r="5"/>
<circle cx="173.61702127659575" cy="-142.36436436436435" fill="#87faa4" r="5"/>
<circle cx="183.82978723404256" cy="-147.26526526526527" fill="#87faa4" r="5"/>
<circle cx="194.04255319148936" cy="-152.16616616616616" fill="#87faa4" r="5"/>
<circle cx="204.25531914893617" cy="-157.0670670670671" fill="#87faa4" r="5"/>
<circle cx="214.46808510638297" cy="-161.96796796796798" fill="#87faa4" r="5"/>
<circle cx="224.68085106382978" cy="-166.86886886886884" fill="#87faa4" r="5"/>
<circle cx="234.89361702127658" cy="-171.7697697697698" fill="#87faa4" r="5"/>
<circle cx="245.10638297872342" cy="-176.67067067067066" fill="#87faa4" r="5"/>
<circle cx="255.31914893617022" cy="-181.5715715715716" fill="#87faa4" r="5"/>
<circle cx="265.531914893617" cy="-186.47247247247248" fill="#87faa4" r="5"/>
<circle cx="275.74468085106383" cy="-191.37337337337337" fill="#87faa4" r="5"/>
<circle cx="285.9574468085106" cy="-196.2742742742743" fill="#87faa4" r="5"/>
<circle cx="296.17021276595744" cy="-201.17517517517518" fill="#87faa4" r="5"/>
<circle cx="306.3829787234043" cy="-206.0760760760761" fill="#87faa4" r="5"/>
<circle cx="316.59574468085106" cy="-210.97697697697694" fill="#87faa4" r="5"/>
<circle cx="326.8085106382979" cy="-215.87787787787792" fill="#87faa4" r="5"/>
<circle cx="337.02127659574467" cy="-220.77877877877876" fill="#87faa4" r="5"/>
<circle cx="347.2340425531915" cy="-225.67967967967968" fill="#87faa4" r="5"/>
<circle cx="357.4468085106383" cy="-230.58058058058057" fill="#87faa4" r="5"/>
</g>
</g>
<g>
<g>
<path d="M367.65958,-191.48843 L367.65958,-191.48843 L377.87234,-230.44444 L388.0851,-136 L398.29788,-136 L408.51065,-83.111115 L418.72342,-86.888885 L428.93616,-64.22222 L439.14893,-7.5555553 L449.3617,-264.44446 L459.57446,-45.333332 L469.78723,-185.11111 L480,-287.1111" fill="none" stroke="#ff00a2" stroke-linejoin="round" stroke-width="2"/>
</g>
<g>
<circle cx="367.6595744680851" cy="-191.48843805925353" fill="#ff00a2" r="5"/>
<circle cx="377.8723404255319" cy="-230.44444444444446" fill="#ff00a2" r="5"/>
<circle cx="388.0851063829787" cy="-136" fill="#ff00a2" r="5"/>
<circle cx="398.29787234042556" cy="-136" fill="#ff00a2" r="5"/>
<circle cx="408.51063829787233" cy="-83.11111111111111" fill="#ff00a2" r="5"/>
<circle cx="418.72340425531917" cy="-86.88888888888889" fill="#ff00a2" r="5"/>
<circle cx="428.93617021276594" cy="-64.22222222222223" fill="#ff00a2" r="5"/>
<circle cx="439.1489361702128" cy="-7.555555555555555" fill="#ff00a2" r="5"/>
<circle cx="449.36170212765956" cy="-264.44444444444446" fill="#ff00a2" r="5"/>
<circle cx="459.5744680851064" cy="-45.333333333333336" fill="#ff00a2" r="5"/>
<circle cx="469.78723404255317" cy="-185.11111111111111" fill="#ff00a2" r="5"/>
<circle cx="480" cy="-287.1111111111111" fill="#ff00a2" r="5"/>
</g>
</g>
<g>
<g>
<line stroke="black" stroke-width="1" x1="0" x2="0" y1="0" y2="10"/>
<line stroke="black" stroke-width="1" x1="102.12765957446808" x2="102.12765957446808" y1="0" y2="10"/>
<line stroke="black" stroke-width="1" x1="204.25531914893617" x2="204.25531914893617" y1="0" y2="10"/>
<line stroke="black" stroke-width="1" x1="306.3829787234043" x2="306.3829787234043" y1="0" y2="10"/>
<line stroke="black" stroke-width="1" x1="408.51063829787233" x2="408.51063829787233" y1="0" y2="10"/>
</g>
<line stroke="black" stroke-width="1" x1="0" x2="480" y1="0" y2="0"/>
<g>
<text font-size="12" text-anchor="middle" x="0" y="20">
1
</text>
<text font-size="12" text-anchor="middle" x="102.12765957446808" y="20">
11
</text>
<text font-size="12" text-anchor="middle" x="204.25531914893617" y="20">
21
</text>
<text font-size="12" text-anchor="middle" x="306.3829787234043" y="20">
31
</text>
<text font-size="12" text-anchor="middle" x="408.51063829787233" y="20">
41
</text>
</g>
<text font-size="12" text-anchor="middle" x="240" y="30">

</text>
</g>
<g>
<g>
<line stroke="black" stroke-width="1" x1="0" x2="-10" y1="0" y2="0"/>
<line stroke="black" stroke-width="1" x1="0" x2="-10" y1="-75.55555555555556" y2="-75.55555555555556"/>
<line stroke="black" stroke-width="1" x1="0" x2="-10" y1="-151.11111111111111" y2="-151.11111111111111"/>
<line stroke="black" stroke-width="1" x1="0" x2="-10" y1="-226.66666666666666" y2="-226.66666666666666"/>
<line stroke="black" stroke-width="1" x1="0" x2="-10" y1="-302.22222222222223" y2="-302.22222222222223"/>
</g>
<line stroke="black" stroke-width="1" x1="0" x2="0" y1="0" y2="-340"/>
<g>
<text dominant-baseline="middle" font-size="12" text-anchor="end" x="-15" y="0">
10
</text>
<text dominant-baseline="middle" font-size="12" text-anchor="end" x="-15" y="-75.55555555555556">
30
</text>
<text dominant-baseline="middle" font-size="12" text-anchor="end" x="-15" y="-151.11111111111111">
50
</text>
<text dominant-baseline="middle" font-size="12" text-anchor="end" x="-15" y="-226.66666666666666">
70
</text>
<text dominant-baseline="middle" font-size="12" text-anchor="end" x="-15" y="-302.22222222222223">
90
</text>
</g>
<text font-size="12" text-anchor="middle" transform="rotate(-90 -24 -170)" x="-24" y="-182">

</text>
</g>
</g>
</svg>