<svg viewBox="0 0 600 400" xmlns="http://www.w3.org/2000/svg">
<g transform="translate(72, 364)">
<g>
<g>
<path d="M0,0 L0,0 L10.212766,-34 L20.425531,-68 L30.638298,0 L40.851063,-102 L51.06383,-136 L61.276596,-170 L71.489365,-102 L81.702126,-204 L91.914894,-238 L102.12766,-272 L112.34042,-204 L122.55319,-34 L132.76596,-68 L142.97873,-102 L153.19148,-34 L163.40425,-136 L173.61702,-170 L183.82979,-204 L194.04256,-136 L204.25533,-238 L214.46808,-272 L224.68085,-306 L234.89362,-238 L245.10638,-68 L255.31915,-102 L265.53192,-136 L275.7447,-68 L285.95746,-170 L296.17023,-204 L306.38297,-238 L316.59573,-170 L326.8085,-272 L337.02127,-306 L347.23404,-340 L357.4468,-272" fill="none" stroke="#000000" stroke-linejoin="round" stroke-width="2"/>
</g>
<g>
<circle cx="0" cy="0" fill="#000000" r="5"/>
<circle cx="10.212765957446809" cy="-34" fill="#000000" r="5"/>
<circle cx="20.425531914893618" cy="-68" fill="#000000" r="5"/>
<circle cx="30.638297872340427" cy="0" fill="#000000" r="5"/>
<circle cx="40.851063829787236" cy="-102" fill="#000000" r="5"/>
<circle cx="51.06382978723404" cy="-136" fill="#000000" r="5"/>
<circle cx="61.276595744680854" cy="-170" fill="#000000" r="5"/>
<circle cx="71.48936170212765" cy="-102" fill="#000000" r="5"/>
<circle cx="81.70212765957447" cy="-204" fill="#000000" r="5"/>
<circle cx="91.91489361702128" cy="-238" fill="#000000" r="5"/>
<circle cx="102.12765957446808" cy="-272" fill="#000000" r="5"/>
<circle cx="112.34042553191489" cy="-204" fill="#000000" r="5"/>
<circle cx="122.55319148936171" cy="-34" fill="#000000" r="5"/>
<circle cx="132.7659574468085" cy="-68" fill="#000000" r="5"/>
<circle cx="142.9787234042553" cy="-102" fill="#000000" r="5"/>
<circle cx="153.19148936170214" cy="-34" fill="#000000" r="5"/>
<circle cx="163.40425531914894" cy="-136" fill="#000000" r="5"/>
<circle cx="173.61702127659575" cy="-170" fill="#000000" r="5"/>
<circle cx="183.82978723404256" cy="-204" fill="#000000" r="5"/>
<circle cx="194.04255319148936" cy="-136" fill="#000000" r="5"/>
<circle cx="204.25531914893617" cy="-238" fill="#000000" r="5"/>
<circle cx="214.46808510638297" cy="-272" fill="#000000" r="5"/>
<circle cx="224.68085106382978" cy="-306" fill="#000000" r="5"/>
<circle cx="234.89361702127658" cy="-238" fill="#000000" r="5"/>
<circle cx="245.10638297872342" cy="-68" fill="#000000" r="5"/>
<circle cx="255.31914893617022" cy="-102" fill="#000000" r="5"/>
<circle cx="265.531914893617" cy="-136" fill="#000000" r="5"/>
<circle cx="275.74468085106383" cy="-68" fill="#000000" r="5"/>
<circle cx="285.9574468085106" cy="-170" fill="#000000" r="5"/>
<circle cx="296.17021276595744" cy="-204" fill="#000000" r="5"/>
<circle cx="306.3829787234043" cy="-238" fill="#000000" r="5"/>
<circle cx="316.59574468085106" cy="-170" fill="#000000" r="5"/>
<circle cx="326.8085106382979" cy="-272" fill="#000000" r="5"/>
<circle cx="337.02127659574467" cy="-306" fill="#000000" r="5"/>
<circle cx="347.2340425531915" cy="-340" fill="#000000" r="5"/>
<circle cx="357.4468085106383" cy="-272" fill="#000000" r="5"/>
</g>
</g>
<g>
<g>
<path d="M10.212766,0 L10.212766,0 L20.425531,-13.6 L30.638298,-35.36 L40.851063,-21.216 L51.06383,-53.5296 L61.276596,-86.51776 L71.489365,-119.91066 L81.702126,-112.74639 L91.914894,-149.24783 L102.12766,-184.7487 L112.34042,-219.64922 L122.55319,-213.38953 L132.76596,-141.63371 L142.97873,-112.18023 L153.19148,-108.10814 L163.40425,-78.46488 L173.61702,-101.47893 L183.82979,-128.88736 L194.04256,-158.93242 L204.25533,-149.75945 L214.46808,-185.05566 L224.68085,-219.8334 L234.89362,-254.30003 L245.10638,-247.78003 L255.31915,-175.86801 L265.53192,-146.32082 L275.7447,-142.19249 L285.95746,-112.51549 L296.17023,-135.5093 L306.38297,-162.90558 L316.59573,-192.94334 L326.8085,-183.766 L337.02127,-219.0596 L347.23404,-253.83577 L357.4468,-288.30145" fill="none" stroke="#af0af6" stroke-linejoin="round" stroke-width="2"/>
</g>
<g>
<circle cx="10.212765957446809" cy="0" fill="#af0af6" r="5"/>
<circle cx="20.425531914893618" cy="-13.599999999999998" fill="#af0af6" r="5"/>
<circle cx="30.638297872340427" cy="-35.36" fill="#af0af6" r="5"/>
<circle cx="40.851063829787236" cy="-21.216" fill="#af0af6" r="5"/>
<circle cx="51.06382978723404" cy="-53.5296" fill="#af0af6" r="5"/>
<circle cx="61.276595744680854" cy="-86.51776000000001" fill="#af0af6" r="5"/>
<circle cx="71.48936170212765" cy="-119.91065600000005" fill="#af0af6" r="5"/>
<circle cx="81.70212765957447" cy="-112.74639360000003" fill="#af0af6" r="5"/>
<circle cx="91.91489361702128" cy="-149.24783616000002" fill="#af0af6" r="5"/>
<circle cx="102.12765957446808" cy="-184.748701696" fill="#af0af6" r="5"/>
<circle cx="112.34042553191489" cy="-219.64922101759998" fill="#af0af6" r="5"/>
<circle cx="122.55319148936171" cy="-213.38953261056002" fill="#af0af6" r="5"/>
<circle cx="132.7659574468085" cy="-141.633719566336" fill="#af0af6" r="5"/>
<circle cx="142.9787234042553" cy="-112.1802317398016" fill="#af0af6" r="5"/>
<circle cx="153.19148936170214" cy="-108.10813904388097" fill="#af0af6" r="5"/>
<circle cx="163.40425531914894" cy="-78.46488342632858" fill="#af0af6" r="5"/>
<circle cx="173.61702127659575" cy="-101.47893005579715" fill="#af0af6" r="5"/>
<circle cx="183.82978723404256" cy="-128.8873580334783" fill="#af0af6" r="5"/>
<circle cx="194.04255319148936" cy="-158.932414820087" fill="#af0af6" r="5"/>
<circle cx="204.25531914893617" cy="-149.7594488920522" fill="#af0af6" r="5"/>
<circle cx="214.46808510638297" cy="-185.05566933523136" fill="#af0af6" r="5"/>
<circle cx="224.68085106382978" cy="-219.8334016011388" fill="#af0af6" r="5"/>
<circle cx="234.89361702127658" cy="-254.30004096068328" fill="#af0af6" r="5"/>
<circle cx="245.10638297872342" cy="-247.78002457641" fill="#af0af6" r="5"/>
<circle cx="255.31914893617022" cy="-175.868014745846" fill="#af0af6" r="5"/>
<circle cx="265.531914893617" cy="-146.32080884750758" fill="#af0af6" r="5"/>
<circle cx="275.74468085106383" cy="-142.19248530850456" fill="#af0af6" r="5"/>
<circle cx="285.9574468085106" cy="-112.51549118510275" fill="#af0af6" r="5"/>
<circle cx="296.17021276595744" cy="-135.50929471106164" fill="#af0af6" r="5"/>
<circle cx="306.3829787234043" cy="-162.905576826637" fill="#af0af6" r="5"/>
<circle cx="316.59574468085106" cy="-192.94334609598224" fill="#af0af6" r="5"/>
<circle cx="326.8085106382979" cy="-183.76600765758934" fill="#af0af6" r="5"/>
<circle cx="337.02127659574467" cy="-219.05960459455363" fill="#af0af6" r="5"/>
<circle cx="347.2340425531915" cy="-253.83576275673212" fill="#af0af6" r="5"/>
<circle cx="357.4468085106383" cy="-288.3014576540394" fill="#af0af6" r="5"/>
</g>
</g>
<g>
<g>
<path d="M0,-72.5946 L0,-72.5946 L10.212766,-77.674904 L20.425531,-82.75521 L30.638298,-87.83552 L40.851063,-92.91583 L51.06383,-97.99614 L61.276596,-103.07645 L71.489365,-108.15675 L81.702126,-113.23707 L91.914894,-118.317375 L102.12766,-123.39768 L112.34042,-128.478 L122.55319,-133.5583 L132.76596,-138.63861 L142.97873,-143.71892 L153.19148,-148.79922 L163.40425,-153.87953 L173.61702,-158.95984 L183.82979,-164.04016 L194.04256,-169.12047 L204.25533,-174.20078 L214.46808,-179.28108 L224.68085,-184.36139 L234.89362,-189.4417 L245.10638,-194.522 L255.31915,-199.60231 L265.53192,-204.68263 L275.7447,-209.76294 L285.95746,-214.84325 L296.17023,-219.92355 L306.38297,-225.00386 L316.59573,-230.08417 L326.8085,-235.16447 L337.02127,-240.24478 L347.23404,-245.3251 L357.4468,-250.40541" fill="none" stroke="#87faa4" stroke-linejoin="round" stroke-width="2"/>
</g>
<g>
<circle cx="0" cy="-72.5945945945946" fill="#87faa4" r="5"/>
<circle cx="10.212765957446809" cy="-77.67490347490346" fill="#87faa4" r="5"/>
<circle cx="20.425531914893618" cy="-82.75521235521236" fill="#87faa4" r="5"/>
<circle cx="30.638297872340427" cy="-87.83552123552124" fill="#87faa4" r="5"/>
<circle cx="40.851063829787236" cy="-92.91583011583012" fill="#87faa4" r="5"/>
<circle cx="51.06382978723404" cy="-97.99613899613901" fill="#87faa4" r="5"/>
<circle cx="61.276595744680854" cy="-103.07644787644787" fill="#87faa4" r="5"/>
<circle cx="71.48936170212765" cy="-108.15675675675678" fill="#87faa4" r="5"/>
<circle cx="81.70212765957447" cy="-113.23706563706564" fill="#87faa4" r="5"/>
<circle cx="91.91489361702128" cy="-118.31737451737452" fill="#87faa4" r="5"/>
<circle cx="102.12765957446808" cy="-123.39768339768344" fill="#87faa4" r="5"/>
<circle cx="112.34042553191489" cy="-128.4779922779923" fill="#87faa4" r="5"/>
<circle cx="122.55319148936171" cy="-133.55830115830116" fill="#87faa4" r="5"/>
<circle cx="132.7659574468085" cy="-138.63861003861004" fill="#87faa4" r="5"/>
<circle cx="142.9787234042553" cy="-143.71891891891894" fill="#87faa4" r="5"/>
<circle cx="153.19148936170214" cy="-148.79922779922782" fill="#87faa4" r="5"/>
<circle cx="163.40425531914894" cy="-153.87953667953667" fill="#87faa4" r="5"/>
<circle cx="173.61702127659575" cy="-158.95984555984555" fill="#87faa4" r="5"/>
<circle cx="183.82978723404256" cy="-164.04015444015445" fill="#87faa4" r="5"/>
<circle cx="194.04255319148936" cy="-169.12046332046333" fill="#87faa4" r="5"/>
<circle cx="204.25531914893617" cy="-174.20077220077218" fill="#87faa4" r="5"/>
<circle cx="214.46808510638297" cy="-179.2810810810811" fill="#87faa4" r="5"/>
<circle cx="224.68085106382978" cy="-184.36138996139" fill="#87faa4" r="5"/>
<circle cx="234.89361702127658" cy="-189.44169884169884" fill="#87faa4" r="5"/>
<circle cx="245.10638297872342" cy="-194.52200772200771" fill="#87faa4" r="5"/>
<circle cx="255.31914893617022" cy="-199.60231660231662" fill="#87faa4" r="5"/>
<circle cx="265.531914893617" cy="-204.6826254826255" fill="#87faa4" r="5"/>
<circle cx="275.74468085106383" cy="-209.7629343629344" fill="#87faa4" r="5"/>
<circle cx="285.9574468085106" cy="-214.84324324324325" fill="#87faa4" r="5"/>
<circle cx="296.17021276595744" cy="-219.92355212355216" fill="#87faa4" r="5"/>
<circle cx="306.3829787234043" cy="-225.00386100386103" fill="#87faa4" r="5"/>
<circle cx="316.59574468085106" cy="-230.08416988416988" fill="#87faa4" r="5"/>
<circle cx="326.8085106382979" cy="-235.1644787644788" fill="#87faa4" r="5"/>
<circle cx="337.02127659574467" cy="-240.24478764478766" fill="#87faa4" r="5"/>
<circle cx="347.2340425531915" cy="-245.3250965250965" fill="#87faa4" r="5"/>
<circle cx="357.4468085106383" cy="-250.40540540540542" fill="#87faa4" r="5"/>
</g>
</g>
<g>
<g>
<path d="M367.65958,-253.83577 L367.65958,-253.83577 L377.87234,-272 L388.0851,-102 L398.29788,-102 L408.51065,-34 L418.72342,-34 L428.93616,-34 L439.14893,-68 L449.3617,-306 L459.57446,-306 L469.78723,-306 L480,-340" fill="none" stroke="#ff00a2" stroke-linejoin="round" stroke-width="2"/>
</g>
<g>
<circle cx="367.6595744680851" cy="-253.83576275673212" fill="#ff00a2" r="5"/>
<circle cx="377.8723404255319" cy="-272" fill="#ff00a2" r="5"/>
<circle cx="388.0851063829787" cy="-102" fill="#ff00a2" r="5"/>
<circle cx="398.29787234042556" cy="-102" fill="#ff00a2" r="5"/>
<circle cx="408.51063829787233" cy="-34" fill="#ff00a2" r="5"/>
<circle cx="418.72340425531917" cy="-34" fill="#ff00a2" r="5"/>
<circle cx="428.93617021276594" cy="-34" fill="#ff00a2" r="5"/>
<circle cx="439.1489361702128" cy="-68" fill="#ff00a2" r="5"/>
<circle cx="449.36170212765956" cy="-306" fill="#ff00a2" r="5"/>
<circle cx="459.5744680851064" cy="-306" fill="#ff00a2" r="5"/>
<circle cx="469.78723404255317" cy="-306" fill="#ff00a2" r="5"/>
<circle cx="480" cy="-340" fill="#ff00a2" r="5"/>
</g>
</g>
<g>
<g>
<line stroke="black" stroke-width="1" x1="0" x2="0" y1="0" y2="10"/>
<line stroke="black" stroke-width="1" x1="102.12765957446808" x2="102.12765957446808" y1="0" y2="10"/>
<line stroke="black" stroke-width="1" x1="204.25531914893617" x2="204.25531914893617" y1="0" y2="10"/>
<line stroke="black" stroke-width="1" x1="306.3829787234043" x2="306.3829787234043" y1="0" y2="10"/>
<line stroke="black" stroke-width="1" x1="408.51063829787233" x2="408.51063829787233" y1="0" y2="10"/>
</g>
<line stroke="black" stroke-width="1" x1="0" x2="480" y1="0" y2="0"/>
<g>
<text font-size="12" text-anchor="middle" x="0" y="20">
1
</text>
<text font-size="12" text-anchor="middle" x="102.12765957446808" y="20">
11
</text>
<text font-size="12" text-anchor="middle" x="204.25531914893617" y="20">
21
</text>
<text font-size="12" text-anchor="middle" x="306.3829787234043" y="20">
31
</text>
<text font-size="12" text-anchor="middle" x="408.51063829787233" y="20">
41
</text>
</g>
<text font-size="12" text-anchor="middle" x="240" y="30">

</text>
</g>
<g>
<g>
<line stroke="black" stroke-width="1" x1="0" x2="-10" y1="0" y2="0"/>
<line stroke="black" stroke-width="1" x1="0" x2="-10" y1="-68" y2="-68"/>
<line stroke="black" stroke-width="1" x1="0" x2="-10" y1="-136" y2="-136"/>
<line stroke="black" stroke-width="1" x1="0" x2="-10" y1="-204" y2="-204"/>
<line stroke="black" stroke-width="1" x1="0" x2="-10" y1="-272" y2="-272"/>
<line stroke="black" stroke-width="1" x1="0" x2="-10" y1="-340" y2="-340"/>
</g>
<line stroke="black" stroke-width="1" x1="0" x2="0" y1="0" y2="-340"/>
<g>
<text dominant-baseline="middle" font-size="12" text-anchor="end" x="-15" y="0">
1
</text>
<text dominant-baseline="middle" font-size="12" text-anchor="end" x="-15" y="-68">
3
</text>
<text dominant-baseline="middle" font-size="12" text-anchor="end" x="-15" y="-136">
5
</text>
<text dominant-baseline="middle" font-size="12" text-anchor="end" x="-15" y="-204">
7
</text>
<text dominant-baseline="middle" font-size="12" text-anchor="end" x="-15" y="-272">
9
</text>
<text dominant-baseline="middle" font-size="12" text-anchor="end" x="-15" y="-340">
11
</text>
</g>
<text font-size="12" text-anchor="middle" transform="rotate(-90 -24 -170)" x="-24" y="-182">

</text>
</g>
</g>
</svg>