<svg viewBox="0 0 600 400" xmlns="http://www.w3.org/2000/svg">
<g transform="translate(72, 364)">
<g>
<g>
<path d="M0,-43.024693 L0,-43.024693 L10.212766,-3.148148 L20.425531,-4.1975307 L30.638298,-77.65432 L40.851063,-54.5679 L51.06383,-43.024693 L61.276596,-44.074074 L71.489365,-11.54321 L81.702126,-67.16049 L91.914894,-54.5679 L102.12766,-43.024693 L112.34042,-32.530865 L122.55319,-10.493827 L132.76596,-32.530865 L142.97873,-24.135803 L153.19148,-77.65432 L163.40425,-56.666668 L173.61702,-31.481482 L183.82979,-44.074074 L194.04256,-126.97531 L204.25533,-9.444445 L214.46808,-32.530865 L224.68085,-66.111115 L234.89362,-10.493827 L245.10638,-9.444445 L255.31915,-32.530865 L265.53192,-114.38271 L275.7447,-54.5679 L285.95746,-31.481482 L296.17023,-89.19753 L306.38297,-126.97531 L316.59573,-9.444445 L326.8085,-45.123455 L337.02127,-124.87654 L347.23404,-115.4321 L357.4468,-9.444445" fill="none" stroke="#000000" stroke-linejoin="round" stroke-width="2"/>
</g>
<g>
<circle cx="0" cy="-43.02469135802469" fill="#000000" r="5"/>
<circle cx="10.212765957446809" cy="-3.1481481481481484" fill="#000000" r="5"/>
<circle cx="20.425531914893618" cy="-4.197530864197531" fill="#000000" r="5"/>
<circle cx="30.638297872340427" cy="-77.65432098765432" fill="#000000" r="5"/>
<circle cx="40.851063829787236" cy="-54.5679012345679" fill="#000000" r="5"/>
<circle cx="51.06382978723404" cy="-43.02469135802469" fill="#000000" r="5"/>
<circle cx="61.276595744680854" cy="-44.074074074074076" fill="#000000" r="5"/>
<circle cx="71.48936170212765" cy="-11.54320987654321" fill="#000000" r="5"/>
<circle cx="81.70212765957447" cy="-67.1604938271605" fill="#000000" r="5"/>
<circle cx="91.91489361702128" cy="-54.5679012345679" fill="#000000" r="5"/>
<circle cx="102.12765957446808" cy="-43.02469135802469" fill="#000000" r="5"/>
<circle cx="112.34042553191489" cy="-32.53086419753087" fill="#000000" r="5"/>
<circle cx="122.55319148936171" cy="-10.493827160493828" fill="#000000" r="5"/>
<circle cx="132.7659574468085" cy="-32.53086419753087" fill="#000000" r="5"/>
<circle cx="142.9787234042553" cy="-24.135802469135804" fill="#000000" r="5"/>
<circle cx="153.19148936170214" cy="-77.65432098765432" fill="#000000" r="5"/>
<circle cx="163.40425531914894" cy="-56.666666666666664" fill="#000000" r="5"/>
<circle cx="173.61702127659575" cy="-31.48148148148148" fill="#000000" r="5"/>
<circle cx="183.82978723404256" cy="-44.074074074074076" fill="#000000" r="5"/>
<circle cx="194.04255319148936" cy="-126.9753086419753" fill="#000000" r="5"/>
<circle cx="204.25531914893617" cy="-9.444444444444445" fill="#000000" r="5"/>
<circle cx="214.46808510638297" cy="-32.53086419753087" fill="#000000" r="5"/>
<circle cx="224.68085106382978" cy="-66.11111111111111" fill="#000000" r="5"/>
<circle cx="234.89361702127658" cy="-10.493827160493828" fill="#000000" r="5"/>
<circle cx="245.10638297872342" cy="-9.444444444444445" fill="#000000" r="5"/>
<circle cx="255.31914893617022" cy="-32.53086419753087" fill="#000000" r="5"/>
<circle cx="265.531914893617" cy="-114.38271604938272" fill="#000000" r="5"/>
<circle cx="275.74468085106383" cy="-54.5679012345679" fill="#000000" r="5"/>
<circle cx="285.9574468085106" cy="-31.48148148148148" fill="#000000" r="5"/>
<circle cx="296.17021276595744" cy="-89.19753086419753" fill="#000000" r="5"/>
<circle cx="306.3829787234043" cy="-126.9753086419753" fill="#000000" r="5"/>
<circle cx="316.59574468085106" cy="-9.444444444444445" fill="#000000" r="5"/>
<circle cx="326.8085106382979" cy="-45.123456790123456" fill="#000000" r="5"/>
<circle cx="337.02127659574467" cy="-124.87654320987654" fill="#000000" r="5"/>
<circle cx="347.2340425531915" cy="-115.4320987654321" fill="#000000" r="5"/>
<circle cx="357.4468085106383" cy="-9.444444444444445" fill="#000000" r="5"/>
</g>
</g>
<g>
<g>
<path d="M10.212766,-43.024693 L10.212766,-43.024693 L20.425531,-27.074074 L30.638298,-17.923456 L40.851063,-41.815804 L51.06383,-46.91664 L61.276596,-45.359863 L71.489365,-44.845547 L81.702126,-31.524612 L91.914894,-45.778965 L102.12766,-49.29454 L112.34042,-46.786602 L122.55319,-41.084305 L132.76596,-28.848114 L142.97873,-30.321215 L153.19148,-27.84705 L163.40425,-47.76996 L173.61702,-51.32864 L183.82979,-43.38978 L194.04256,-43.663498 L204.25533,-76.98822 L214.46808,-49.97071 L224.68085,-42.99477 L234.89362,-52.241306 L245.10638,-35.542316 L255.31915,-25.103167 L265.53192,-28.074245 L275.7447,-62.597633 L285.95746,-59.385742 L296.17023,-48.224037 L306.38297,-64.613434 L316.59573,-89.55818 L326.8085,-57.512688 L337.02127,-52.556995 L347.23404,-81.48482 L357.4468,-95.06373" fill="none" stroke="#af0af6" stroke-linejoin="round" stroke-width="2"/>
</g>
<g>
<circle cx="10.212765957446809" cy="-43.02469135802469" fill="#af0af6" r="5"/>
<circle cx="20.425531914893618" cy="-27.074074074074073" fill="#af0af6" r="5"/>
<circle cx="30.638297872340427" cy="-17.923456790123456" fill="#af0af6" r="5"/>
<circle cx="40.851063829787236" cy="-41.815802469135804" fill="#af0af6" r="5"/>
<circle cx="51.06382978723404" cy="-46.916641975308636" fill="#af0af6" r="5"/>
<circle cx="61.276595744680854" cy="-45.35986172839506" fill="#af0af6" r="5"/>
<circle cx="71.48936170212765" cy="-44.84554666666667" fill="#af0af6" r="5"/>
<circle cx="81.70212765957447" cy="-31.524611950617288" fill="#af0af6" r="5"/>
<circle cx="91.91489361702128" cy="-45.77896470123457" fill="#af0af6" r="5"/>
<circle cx="102.12765957446808" cy="-49.294539314567906" fill="#af0af6" r="5"/>
<circle cx="112.34042553191489" cy="-46.786600131950614" fill="#af0af6" r="5"/>
<circle cx="122.55319148936171" cy="-41.084305758182715" fill="#af0af6" r="5"/>
<circle cx="132.7659574468085" cy="-28.84811431910716" fill="#af0af6" r="5"/>
<circle cx="142.9787234042553" cy="-30.321214270476645" fill="#af0af6" r="5"/>
<circle cx="153.19148936170214" cy="-27.84704954994031" fill="#af0af6" r="5"/>
<circle cx="163.40425531914894" cy="-47.76995812502591" fill="#af0af6" r="5"/>
<circle cx="173.61702127659575" cy="-51.32864154168222" fill="#af0af6" r="5"/>
<circle cx="183.82978723404256" cy="-43.38977751760192" fill="#af0af6" r="5"/>
<circle cx="194.04255319148936" cy="-43.66349614019079" fill="#af0af6" r="5"/>
<circle cx="204.25531914893617" cy="-76.9882211409046" fill="#af0af6" r="5"/>
<circle cx="214.46808510638297" cy="-49.97071046232054" fill="#af0af6" r="5"/>
<circle cx="224.68085106382978" cy="-42.99477195640467" fill="#af0af6" r="5"/>
<circle cx="234.89361702127658" cy="-52.24130761828724" fill="#af0af6" r="5"/>
<circle cx="245.10638297872342" cy="-35.54231543516987" fill="#af0af6" r="5"/>
<circle cx="255.31914893617022" cy="-25.1031670388797" fill="#af0af6" r="5"/>
<circle cx="265.531914893617" cy="-28.074245902340166" fill="#af0af6" r="5"/>
<circle cx="275.74468085106383" cy="-62.59763396115719" fill="#af0af6" r="5"/>
<circle cx="285.9574468085106" cy="-59.38574087052147" fill="#af0af6" r="5"/>
<circle cx="296.17021276595744" cy="-48.22403711490548" fill="#af0af6" r="5"/>
<circle cx="306.3829787234043" cy="-64.61343461462229" fill="#af0af6" r="5"/>
<circle cx="316.59574468085106" cy="-89.55818422556351" fill="#af0af6" r="5"/>
<circle cx="326.8085106382979" cy="-57.51268831311589" fill="#af0af6" r="5"/>
<circle cx="337.02127659574467" cy="-52.556995703918915" fill="#af0af6" r="5"/>
<circle cx="347.2340425531915" cy="-81.48481470630196" fill="#af0af6" r="5"/>
<circle cx="357.4468085106383" cy="-95.06372832995402" fill="#af0af6" r="5"/>
</g>
</g>
<g>
<g>
<path d="M0,-30.468338 L0,-30.468338 L10.212766,-31.527311 L20.425531,-32.58628 L30.638298,-33.645252 L40.851063,-34.704224 L51.06383,-35.7632 L61.276596,-36.82217 L71.489365,-37.88114 L81.702126,-38.940113 L91.914894,-39.999084 L102.12766,-41.058056 L112.34042,-42.117027 L122.55319,-43.176 L132.76596,-44.23497 L142.97873,-45.29394 L153.19148,-46.352913 L163.40425,-47.411884 L173.61702,-48.470856 L183.82979,-49.529827 L194.04256,-50.588802 L204.25533,-51.647774 L214.46808,-52.706745 L224.68085,-53.765717 L234.89362,-54.824688 L245.10638,-55.88366 L255.31915,-56.94263 L265.53192,-58.001602 L275.7447,-59.060574 L285.95746,-60.119545 L296.17023,-61.178516 L306.38297,-62.237488 L316.59573,-63.29646 L326.8085,-64.35543 L337.02127,-65.414406 L347.23404,-66.47337 L357.4468,-67.53235" fill="none" stroke="#87faa4" stroke-linejoin="round" stroke-width="2"/>
</g>
<g>
<circle cx="0" cy="-30.468338709079443" fill="#87faa4" r="5"/>
<circle cx="10.212765957446809" cy="-31.527310379162227" fill="#87faa4" r="5"/>
<circle cx="20.425531914893618" cy="-32.58628204924501" fill="#87faa4" r="5"/>
<circle cx="30.638297872340427" cy="-33.64525371932778" fill="#87faa4" r="5"/>
<circle cx="40.851063829787236" cy="-34.704225389410574" fill="#87faa4" r="5"/>
<circle cx="51.06382978723404" cy="-35.76319705949336" fill="#87faa4" r="5"/>
<circle cx="61.276595744680854" cy="-36.822168729576134" fill="#87faa4" r="5"/>
<circle cx="71.48936170212765" cy="-37.88114039965891" fill="#87faa4" r="5"/>
<circle cx="81.70212765957447" cy="-38.940112069741694" fill="#87faa4" r="5"/>
<circle cx="91.91489361702128" cy="-39.99908373982448" fill="#87faa4" r="5"/>
<circle cx="102.12765957446808" cy="-41.05805540990726" fill="#87faa4" r="5"/>
<circle cx="112.34042553191489" cy="-42.11702707999004" fill="#87faa4" r="5"/>
<circle cx="122.55319148936171" cy="-43.17599875007282" fill="#87faa4" r="5"/>
<circle cx="132.7659574468085" cy="-44.234970420155605" fill="#87faa4" r="5"/>
<circle cx="142.9787234042553" cy="-45.29394209023838" fill="#87faa4" r="5"/>
<circle cx="153.19148936170214" cy="-46.352913760321165" fill="#87faa4" r="5"/>
<circle cx="163.40425531914894" cy="-47.41188543040395" fill="#87faa4" r="5"/>
<circle cx="173.61702127659575" cy="-48.470857100486725" fill="#87faa4" r="5"/>
<circle cx="183.82978723404256" cy="-49.52982877056951" fill="#87faa4" r="5"/>
<circle cx="194.04255319148936" cy="-50.58880044065229" fill="#87faa4" r="5"/>
<circle cx="204.25531914893617" cy="-51.64777211073507" fill="#87faa4" r="5"/>
<circle cx="214.46808510638297" cy="-52.70674378081785" fill="#87faa4" r="5"/>
<circle cx="224.68085106382978" cy="-53.76571545090063" fill="#87faa4" r="5"/>
<circle cx="234.89361702127658" cy="-54.824687120983405" fill="#87faa4" r="5"/>
<circle cx="245.10638297872342" cy="-55.883658791066196" fill="#87faa4" r="5"/>
<circle cx="255.31914893617022" cy="-56.94263046114897" fill="#87faa4" r="5"/>
<circle cx="265.531914893617" cy="-58.00160213123176" fill="#87faa4" r="5"/>
<circle cx="275.74468085106383" cy="-59.06057380131454" fill="#87faa4" r="5"/>
<circle cx="285.9574468085106" cy="-60.119545471397316" fill="#87faa4" r="5"/>
<circle cx="296.17021276595744" cy="-61.1785171414801" fill="#87faa4" r="5"/>
<circle cx="306.3829787234043" cy="-62.23748881156289" fill="#87faa4" r="5"/>
<circle cx="316.59574468085106" cy="-63.29646048164567" fill="#87faa4" r="5"/>
<circle cx="326.8085106382979" cy="-64.35543215172845" fill="#87faa4" r="5"/>
<circle cx="337.02127659574467" cy="-65.41440382181123" fill="#87faa4" r="5"/>
<circle cx="347.2340425531915" cy="-66.473375491894" fill="#87faa4" r="5"/>
<circle cx="357.4468085106383" cy="-67.53234716197679" fill="#87faa4" r="5"/>
</g>
</g>
<g>
<g>
<path d="M367.65958,-81.48482 L367.65958,-81.48482 L377.87234,-29.382715 L388.0851,-58.76543 L398.29788,-74.50617 L408.51065,-70.30864 L418.72342,-103.888885 L428.93616,-72.40741 L439.14893,-120.679016 L449.3617,-66.111115 L459.57446,0 L469.78723,-76.604935 L480,-340" fill="none" stroke="#ff00a2" stroke-linejoin="round" stroke-width="2"/>
</g>
<g>
<circle cx="367.6595744680851" cy="-81.48481470630196" fill="#ff00a2" r="5"/>
<circle cx="377.8723404255319" cy="-29.382716049382715" fill="#ff00a2" r="5"/>
<circle cx="388.0851063829787" cy="-58.76543209876543" fill="#ff00a2" r="5"/>
<circle cx="398.29787234042556" cy="-74.50617283950618" fill="#ff00a2" r="5"/>
<circle cx="408.51063829787233" cy="-70.30864197530865" fill="#ff00a2" r="5"/>
<circle cx="418.72340425531917" cy="-103.88888888888889" fill="#ff00a2" r="5"/>
<circle cx="428.93617021276594" cy="-72.4074074074074" fill="#ff00a2" r="5"/>
<circle cx="439.1489361702128" cy="-120.67901234567901" fill="#ff00a2" r="5"/>
<circle cx="449.36170212765956" cy="-66.11111111111111" fill="#ff00a2" r="5"/>
<circle cx="459.5744680851064" cy="0" fill="#ff00a2" r="5"/>
<circle cx="469.78723404255317" cy="-76.60493827160494" fill="#ff00a2" r="5"/>
<circle cx="480" cy="-340" fill="#ff00a2" r="5"/>
</g>
</g>
<g>
<g>
<line stroke="black" stroke-width="1" x1="0" x2="0" y1="0" y2="10"/>
<line stroke="black" stroke-width="1" x1="102.12765957446808" x2="102.12765957446808" y1="0" y2="10"/>
<line stroke="black" stroke-width="1" x1="204.25531914893617" x2="204.25531914893617" y1="0" y2="10"/>
<line stroke="black" stroke-width="1" x1="306.3829787234043" x2="306.3829787234043" y1="0" y2="10"/>
<line stroke="black" stroke-width="1" x1="408.51063829787233" x2="408.51063829787233" y1="0" y2="10"/>
</g>
<line stroke="black" stroke-width="1" x1="0" x2="480" y1="0" y2="0"/>
<g>
<text font-size="12" text-anchor="middle" x="0" y="20">
1
</text>
<text font-size="12" text-anchor="middle" x="102.12765957446808" y="20">
11
</text>
<text font-size="12" text-anchor="middle" x="204.25531914893617" y="20">
21
</text>
<text font-size="12" text-anchor="middle" x="306.3829787234043" y="20">
31
</text>
<text font-size="12" text-anchor="middle" x="408.51063829787233" y="20">
41
</text>
</g>
<text font-size="12" text-anchor="middle" x="240" y="30">

</text>
</g>
<g>
<g>
<line stroke="black" stroke-width="1" x1="0" x2="-10" y1="0" y2="0"/>
<line stroke="black" stroke-width="1" x1="0" x2="-10" y1="-104.93827160493827" y2="-104.93827160493827"/>
<line stroke="black" stroke-width="1" x1="0" x2="-10" y1="-209.87654320987653" y2="-209.87654320987653"/>
<line stroke="black" stroke-width="1" x1="0" x2="-10" y1="-314.81481481481484" y2="-314.81481481481484"/>
</g>
<line stroke="black" stroke-width="1" x1="0" x2="0" y1="0" y2="-340"/>
<g>
<text dominant-baseline="middle" font-size="12" text-anchor="end" x="-15" y="0">
2
</text>
<text dominant-baseline="middle" font-size="12" text-anchor="end" x="-15" y="-104.93827160493827">
102
</text>
<text dominant-baseline="middle" font-size="12" text-anchor="end" x="-15" y="-209.87654320987653">
202
</text>
<text dominant-baseline="middle" font-size="12" text-anchor="end" x="-15" y="-314.81481481481484">
302
</text>
</g>
<text font-size="12" text-anchor="middle" transform="rotate(-90 -36 -170)" x="-36" y="-182">

</text>
</g>
</g>
</svg>