<svg viewBox="0 0 600 400" xmlns="http://www.w3.org/2000/svg">
<g transform="translate(72, 364)">
<g>
<g>
<path d="M0,-94.189186 L0,-94.189186 L10.212766,-174.59459 L20.425531,-199.86487 L30.638298,-149.32433 L40.851063,-98.78378 L51.06383,-174.59459 L61.276596,-94.189186 L71.489365,-220.54054 L81.702126,-11.486486 L91.914894,-124.054054 L102.12766,-73.51351 L112.34042,-119.45946 L122.55319,-144.72974 L132.76596,-98.78378 L142.97873,-174.59459 L153.19148,-22.972973 L163.40425,-75.810814 L173.61702,-213.64865 L183.82979,-144.72974 L194.04256,-22.972973 L204.25533,-98.78378 L214.46808,-174.59459 L224.68085,-22.972973 L234.89362,-68.91892 L245.10638,-144.72974 L255.31915,-220.54054 L265.53192,-98.78378 L275.7447,-22.972973 L285.95746,-298.64865 L296.17023,-174.59459 L306.38297,-98.78378 L316.59573,-22.972973 L326.8085,-48.243244 L337.02127,-124.054054 L347.23404,-199.86487 L357.4468,-174.59459" fill="none" stroke="#000000" stroke-linejoin="round" stroke-width="2"/>
</g>
<g>
<circle cx="0" cy="-94.1891891891892" fill="#000000" r="5"/>
<circle cx="10.212765957446809" cy="-174.59459459459458" fill="#000000" r="5"/>
<circle cx="20.425531914893618" cy="-199.86486486486487" fill="#000000" r="5"/>
<circle cx="30.638297872340427" cy="-149.32432432432432" fill="#000000" r="5"/>
<circle cx="40.851063829787236" cy="-98.78378378378379" fill="#000000" r="5"/>
<circle cx="51.06382978723404" cy="-174.59459459459458" fill="#000000" r="5"/>
<circle cx="61.276595744680854" cy="-94.1891891891892" fill="#000000" r="5"/>
<circle cx="71.48936170212765" cy="-220.54054054054055" fill="#000000" r="5"/>
<circle cx="81.70212765957447" cy="-11.486486486486486" fill="#000000" r="5"/>
<circle cx="91.91489361702128" cy="-124.05405405405405" fill="#000000" r="5"/>
<circle cx="102.12765957446808" cy="-73.51351351351352" fill="#000000" r="5"/>
<circle cx="112.34042553191489" cy="-119.45945945945945" fill="#000000" r="5"/>
<circle cx="122.55319148936171" cy="-144.72972972972974" fill="#000000" r="5"/>
<circle cx="132.7659574468085" cy="-98.78378378378379" fill="#000000" r="5"/>
<circle cx="142.9787234042553" cy="-174.59459459459458" fill="#000000" r="5"/>
<circle cx="153.19148936170214" cy="-22.972972972972972" fill="#000000" r="5"/>
<circle cx="163.40425531914894" cy="-75.8108108108108" fill="#000000" r="5"/>
<circle cx="173.61702127659575" cy="-213.64864864864865" fill="#000000" r="5"/>
<circle cx="183.82978723404256" cy="-144.72972972972974" fill="#000000" r="5"/>
<circle cx="194.04255319148936" cy="-22.972972972972972" fill="#000000" r="5"/>
<circle cx="204.25531914893617" cy="-98.78378378378379" fill="#000000" r="5"/>
<circle cx="214.46808510638297" cy="-174.59459459459458" fill="#000000" r="5"/>
<circle cx="224.68085106382978" cy="-22.972972972972972" fill="#000000" r="5"/>
<circle cx="234.89361702127658" cy="-68.91891891891892" fill="#000000" r="5"/>
<circle cx="245.10638297872342" cy="-144.72972972972974" fill="#000000" r="5"/>
<circle cx="255.31914893617022" cy="-220.54054054054055" fill="#000000" r="5"/>
<circle cx="265.531914893617" cy="-98.78378378378379" fill="#000000" r="5"/>
<circle cx="275.74468085106383" cy="-22.972972972972972" fill="#000000" r="5"/>
<circle cx="285.9574468085106" cy="-298.64864864864865" fill="#000000" r="5"/>
<circle cx="296.17021276595744" cy="-174.59459459459458" fill="#000000" r="5"/>
<circle cx="306.3829787234043" cy="-98.78378378378379" fill="#000000" r="5"/>
<circle cx="316.59574468085106" cy="-22.972972972972972" fill="#000000" r="5"/>
<circle cx="326.8085106382979" cy="-48.24324324324324" fill="#000000" r="5"/>
<circle cx="337.02127659574467" cy="-124.05405405405405" fill="#000000" r="5"/>
<circle cx="347.2340425531915" cy="-199.86486486486487" fill="#000000" r="5"/>
<circle cx="357.4468085106383" cy="-174.59459459459458" fill="#000000" r="5"/>
</g>
</g>
<g>
<g>
<path d="M10.212766,-94.189186 L10.212766,-94.189186 L20.425531,-126.35135 L30.638298,-155.75676 L40.851063,-153.18378 L51.06383,-131.42378 L61.276596,-148.69211 L71.489365,-126.89094 L81.702126,-164.35078 L91.914894,-103.20506 L102.12766,-111.54466 L112.34042,-96.3322 L122.55319,-105.58311 L132.76596,-121.24175 L142.97873,-112.25857 L153.19148,-137.19298 L163.40425,-91.504974 L173.61702,-85.22731 L183.82979,-136.59584 L194.04256,-139.8494 L204.25533,-93.09883 L214.46808,-95.37281 L224.68085,-127.06152 L234.89362,-85.4261 L245.10638,-78.82323 L255.31915,-105.18583 L265.53192,-151.32771 L275.7447,-130.31013 L285.95746,-87.375275 L296.17023,-171.88463 L306.38297,-172.96861 L316.59573,-143.29468 L326.8085,-95.166 L337.02127,-76.3969 L347.23404,-95.45976 L357.4468,-137.2218" fill="none" stroke="#af0af6" stroke-linejoin="round" stroke-width="2"/>
</g>
<g>
<circle cx="10.212765957446809" cy="-94.1891891891892" fill="#af0af6" r="5"/>
<circle cx="20.425531914893618" cy="-126.35135135135135" fill="#af0af6" r="5"/>
<circle cx="30.638297872340427" cy="-155.75675675675674" fill="#af0af6" r="5"/>
<circle cx="40.851063829787236" cy="-153.18378378378375" fill="#af0af6" r="5"/>
<circle cx="51.06382978723404" cy="-131.42378378378376" fill="#af0af6" r="5"/>
<circle cx="61.276595744680854" cy="-148.6921081081081" fill="#af0af6" r="5"/>
<circle cx="71.48936170212765" cy="-126.89094054054051" fill="#af0af6" r="5"/>
<circle cx="81.70212765957447" cy="-164.35078054054054" fill="#af0af6" r="5"/>
<circle cx="91.91489361702128" cy="-103.2050629189189" fill="#af0af6" r="5"/>
<circle cx="102.12765957446808" cy="-111.54465937297296" fill="#af0af6" r="5"/>
<circle cx="112.34042553191489" cy="-96.33220102918918" fill="#af0af6" r="5"/>
<circle cx="122.55319148936171" cy="-105.58310440129729" fill="#af0af6" r="5"/>
<circle cx="132.7659574468085" cy="-121.24175453267027" fill="#af0af6" r="5"/>
<circle cx="142.9787234042553" cy="-112.25856623311567" fill="#af0af6" r="5"/>
<circle cx="153.19148936170214" cy="-137.19297757770724" fill="#af0af6" r="5"/>
<circle cx="163.40425531914894" cy="-91.50497573581355" fill="#af0af6" r="5"/>
<circle cx="173.61702127659575" cy="-85.22730976581244" fill="#af0af6" r="5"/>
<circle cx="183.82978723404256" cy="-136.5958453189469" fill="#af0af6" r="5"/>
<circle cx="194.04255319148936" cy="-139.84939908326004" fill="#af0af6" r="5"/>
<circle cx="204.25531914893617" cy="-93.09882863914521" fill="#af0af6" r="5"/>
<circle cx="214.46808510638297" cy="-95.37281069700065" fill="#af0af6" r="5"/>
<circle cx="224.68085106382978" cy="-127.06152425603823" fill="#af0af6" r="5"/>
<circle cx="234.89361702127658" cy="-85.42610374281212" fill="#af0af6" r="5"/>
<circle cx="245.10638297872342" cy="-78.82322981325483" fill="#af0af6" r="5"/>
<circle cx="255.31914893617022" cy="-105.1858297798448" fill="#af0af6" r="5"/>
<circle cx="265.531914893617" cy="-151.3277140841231" fill="#af0af6" r="5"/>
<circle cx="275.74468085106383" cy="-130.31014196398738" fill="#af0af6" r="5"/>
<circle cx="285.9574468085106" cy="-87.37527436758161" fill="#af0af6" r="5"/>
<circle cx="296.17021276595744" cy="-171.88462408000842" fill="#af0af6" r="5"/>
<circle cx="306.3829787234043" cy="-172.96861228584288" fill="#af0af6" r="5"/>
<circle cx="316.59574468085106" cy="-143.29468088501926" fill="#af0af6" r="5"/>
<circle cx="326.8085106382979" cy="-95.16599772020075" fill="#af0af6" r="5"/>
<circle cx="337.02127659574467" cy="-76.39689592941775" fill="#af0af6" r="5"/>
<circle cx="347.2340425531915" cy="-95.4597591792723" fill="#af0af6" r="5"/>
<circle cx="357.4468085106383" cy="-137.2218014535093" fill="#af0af6" r="5"/>
</g>
</g>
<g>
<g>
<path d="M0,-125.5097 L0,-125.5097 L10.212766,-125.364525 L20.425531,-125.21936 L30.638298,-125.07419 L40.851063,-124.929016 L51.06383,-124.783844 L61.276596,-124.63868 L71.489365,-124.49351 L81.702126,-124.348335 L91.914894,-124.20316 L102.12766,-124.058 L112.34042,-123.91283 L122.55319,-123.767654 L132.76596,-123.62248 L142.97873,-123.47732 L153.19148,-123.332146 L163.40425,-123.18697 L173.61702,-123.0418 L183.82979,-122.89664 L194.04256,-122.751465 L204.25533,-122.60629 L214.46808,-122.46112 L224.68085,-122.315956 L234.89362,-122.170784 L245.10638,-122.02561 L255.31915,-121.88044 L265.53192,-121.735275 L275.7447,-121.5901 L285.95746,-121.44493 L296.17023,-121.29976 L306.38297,-121.154594 L316.59573,-121.00942 L326.8085,-120.86425 L337.02127,-120.71908 L347.23404,-120.57391 L357.4468,-120.42874" fill="none" stroke="#87faa4" stroke-linejoin="round" stroke-width="2"/>
</g>
<g>
<circle cx="0" cy="-125.50969888807727" fill="#87faa4" r="5"/>
<circle cx="10.212765957446809" cy="-125.36452862128539" fill="#87faa4" r="5"/>
<circle cx="20.425531914893618" cy="-125.2193583544935" fill="#87faa4" r="5"/>
<circle cx="30.638297872340427" cy="-125.0741880877016" fill="#87faa4" r="5"/>
<circle cx="40.851063829787236" cy="-124.9290178209097" fill="#87faa4" r="5"/>
<circle cx="51.06382978723404" cy="-124.78384755411783" fill="#87faa4" r="5"/>
<circle cx="61.276595744680854" cy="-124.63867728732593" fill="#87faa4" r="5"/>
<circle cx="71.48936170212765" cy="-124.49350702053404" fill="#87faa4" r="5"/>
<circle cx="81.70212765957447" cy="-124.34833675374216" fill="#87faa4" r="5"/>
<circle cx="91.91489361702128" cy="-124.20316648695027" fill="#87faa4" r="5"/>
<circle cx="102.12765957446808" cy="-124.05799622015837" fill="#87faa4" r="5"/>
<circle cx="112.34042553191489" cy="-123.91282595336648" fill="#87faa4" r="5"/>
<circle cx="122.55319148936171" cy="-123.76765568657461" fill="#87faa4" r="5"/>
<circle cx="132.7659574468085" cy="-123.6224854197827" fill="#87faa4" r="5"/>
<circle cx="142.9787234042553" cy="-123.47731515299084" fill="#87faa4" r="5"/>
<circle cx="153.19148936170214" cy="-123.33214488619892" fill="#87faa4" r="5"/>
<circle cx="163.40425531914894" cy="-123.18697461940705" fill="#87faa4" r="5"/>
<circle cx="173.61702127659575" cy="-123.04180435261517" fill="#87faa4" r="5"/>
<circle cx="183.82978723404256" cy="-122.89663408582328" fill="#87faa4" r="5"/>
<circle cx="194.04255319148936" cy="-122.75146381903139" fill="#87faa4" r="5"/>
<circle cx="204.25531914893617" cy="-122.6062935522395" fill="#87faa4" r="5"/>
<circle cx="214.46808510638297" cy="-122.46112328544761" fill="#87faa4" r="5"/>
<circle cx="224.68085106382978" cy="-122.31595301865572" fill="#87faa4" r="5"/>
<circle cx="234.89361702127658" cy="-122.17078275186383" fill="#87faa4" r="5"/>
<circle cx="245.10638297872342" cy="-122.02561248507195" fill="#87faa4" r="5"/>
<circle cx="255.31914893617022" cy="-121.88044221828005" fill="#87faa4" r="5"/>
<circle cx="265.531914893617" cy="-121.73527195148816" fill="#87faa4" r="5"/>
<circle cx="275.74468085106383" cy="-121.59010168469626" fill="#87faa4" r="5"/>
<circle cx="285.9574468085106" cy="-121.44493141790439" fill="#87faa4" r="5"/>
<circle cx="296.17021276595744" cy="-121.29976115111252" fill="#87faa4" r="5"/>
<circle cx="306.3829787234043" cy="-121.1545908843206" fill="#87faa4" r="5"/>
<circle cx="316.59574468085106" cy="-121.00942061752873" fill="#87faa4" r="5"/>
<circle cx="326.8085106382979" cy="-120.86425035073682" fill="#87faa4" r="5"/>
<circle cx="337.02127659574467" cy="-120.71908008394496" fill="#87faa4" r="5"/>
<circle cx="347.2340425531915" cy="-120.57390981715304" fill="#87faa4" r="5"/>
<circle cx="357.4468085106383" cy="-120.42873955036117" fill="#87faa4" r="5"/>
</g>
</g>
<g>
<g>
<path d="M367.65958,-95.45976 L367.65958,-95.45976 L377.87234,-6.891892 L388.0851,-48.243244 L398.29788,-126.35135 L408.51065,-112.567566 L418.72342,-71.21622 L428.93616,-340 L439.14893,-280.27026 L449.3617,-110.27027 L459.57446,0 L469.78723,-252.7027 L480,-140.13513" fill="none" stroke="#ff00a2" stroke-linejoin="round" stroke-width="2"/>
</g>
<g>
<circle cx="367.6595744680851" cy="-95.4597591792723" fill="#ff00a2" r="5"/>
<circle cx="377.8723404255319" cy="-6.891891891891892" fill="#ff00a2" r="5"/>
<circle cx="388.0851063829787" cy="-48.24324324324324" fill="#ff00a2" r="5"/>
<circle cx="398.29787234042556" cy="-126.35135135135135" fill="#ff00a2" r="5"/>
<circle cx="408.51063829787233" cy="-112.56756756756756" fill="#ff00a2" r="5"/>
<circle cx="418.72340425531917" cy="-71.21621621621621" fill="#ff00a2" r="5"/>
<circle cx="428.93617021276594" cy="-340" fill="#ff00a2" r="5"/>
<circle cx="439.1489361702128" cy="-280.27027027027026" fill="#ff00a2" r="5"/>
<circle cx="449.36170212765956" cy="-110.27027027027027" fill="#ff00a2" r="5"/>
<circle cx="459.5744680851064" cy="0" fill="#ff00a2" r="5"/>
<circle cx="469.78723404255317" cy="-252.7027027027027" fill="#ff00a2" r="5"/>
<circle cx="480" cy="-140.13513513513513" fill="#ff00a2" r="5"/>
</g>
</g>
<g>
<g>
<line stroke="black" stroke-width="1" x1="0" x2="0" y1="0" y2="10"/>
<line stroke="black" stroke-width="1" x1="102.12765957446808" x2="102.12765957446808" y1="0" y2="10"/>
<line stroke="black" stroke-width="1" x1="204.25531914893617" x2="204.25531914893617" y1="0" y2="10"/>
<line stroke="black" stroke-width="1" x1="306.3829787234043" x2="306.3829787234043" y1="0" y2="10"/>
<line stroke="black" stroke-width="1" x1="408.51063829787233" x2="408.51063829787233" y1="0" y2="10"/>
</g>
<line stroke="black" stroke-width="1" x1="0" x2="480" y1="0" y2="0"/>
<g>
<text font-size="12" text-anchor="middle" x="0" y="20">
1
</text>
<text font-size="12" text-anchor="middle" x="102.12765957446808" y="20">
11
</text>
<text font-size="12" text-anchor="middle" x="204.25531914893617" y="20">
21
</text>
<text font-size="12" text-anchor="middle" x="306.3829787234043" y="20">
31
</text>
<text font-size="12" text-anchor="middle" x="408.51063829787233" y="20">
41
</text>
</g>
<text font-size="12" text-anchor="middle" x="240" y="30">

</text>
</g>
<g>
<g>
<line stroke="black" stroke-width="1" x1="0" x2="-10" y1="0" y2="0"/>
<line stroke="black" stroke-width="1" x1="0" x2="-10" y1="-91.89189189189189" y2="-91.89189189189189"/>
<line stroke="black" stroke-width="1" x1="0" x2="-10" y1="-183.78378378378378" y2="-183.78378378378378"/>
<line stroke="black" stroke-width="1" x1="0" x2="-10" y1="-275.6756756756757" y2="-275.6756756756757"/>
</g>
<line stroke="black" stroke-width="1" x1="0" x2="0" y1="0" y2="-340"/>
<g>
<text dominant-baseline="middle" font-size="12" text-anchor="end" x="-15" y="0">
2
</text>
<text dominant-baseline="middle" font-size="12" text-anchor="end" x="-15" y="-91.89189189189189">
42
</text>
<text dominant-baseline="middle" font-size="12" text-anchor="end" x="-15" y="-183.78378378378378">
82
</text>
<text dominant-baseline="middle" font-size="12" text-anchor="end" x="-15" y="-275.6756756756757">
122
</text>
</g>
<text font-size="12" text-anchor="middle" transform="rotate(-90 -36 -170)" x="-36" y="-182">

</text>
</g>
</g>
</svg>