<svg viewBox="0 0 600 400" xmlns="http://www.w3.org/2000/svg">
<g transform="translate(72, 364)">
<g>
<g>
<path d="M0,-216.36363 L0,-216.36363 L10.212766,-8.429752 L20.425531,-148.92561 L30.638298,-11.23967 L40.851063,-123.63636 L51.06383,-8.429752 L61.276596,-11.23967 L71.489365,-8.429752 L81.702126,-148.92561 L91.914894,-11.23967 L102.12766,-8.429752 L112.34042,-148.92561 L122.55319,-11.23967 L132.76596,-123.63636 L142.97873,-8.429752 L153.19148,-11.23967 L163.40425,-340 L173.61702,0 L183.82979,-2.8099174 L194.04256,-5.619835 L204.25533,-148.92561 L214.46808,-87.10744 L224.68085,-22.47934 L234.89362,-241.6529 L245.10638,-22.47934 L255.31915,-16.859505 L265.53192,-241.6529 L275.7447,-272.56198 L285.95746,-16.859505 L296.17023,-8.429752 L306.38297,-154.54546 L316.59573,0 L326.8085,-87.10744 L337.02127,-11.23967 L347.23404,-123.63636 L357.4468,-177.0248" fill="none" stroke="#000000" stroke-linejoin="round" stroke-width="2"/>
</g>
<g>
<circle cx="0" cy="-216.36363636363637" fill="#000000" r="5"/>
<circle cx="10.212765957446809" cy="-8.429752066115702" fill="#000000" r="5"/>
<circle cx="20.425531914893618" cy="-148.92561983471074" fill="#000000" r="5"/>
<circle cx="30.638297872340427" cy="-11.239669421487603" fill="#000000" r="5"/>
<circle cx="40.851063829787236" cy="-123.63636363636364" fill="#000000" r="5"/>
<circle cx="51.06382978723404" cy="-8.429752066115702" fill="#000000" r="5"/>
<circle cx="61.276595744680854" cy="-11.239669421487603" fill="#000000" r="5"/>
<circle cx="71.48936170212765" cy="-8.429752066115702" fill="#000000" r="5"/>
<circle cx="81.70212765957447" cy="-148.92561983471074" fill="#000000" r="5"/>
<circle cx="91.91489361702128" cy="-11.239669421487603" fill="#000000" r="5"/>
<circle cx="102.12765957446808" cy="-8.429752066115702" fill="#000000" r="5"/>
<circle cx="112.34042553191489" cy="-148.92561983471074" fill="#000000" r="5"/>
<circle cx="122.55319148936171" cy="-11.239669421487603" fill="#000000" r="5"/>
<circle cx="132.7659574468085" cy="-123.63636363636364" fill="#000000" r="5"/>
<circle cx="142.9787234042553" cy="-8.429752066115702" fill="#000000" r="5"/>
<circle cx="153.19148936170214" cy="-11.239669421487603" fill="#000000" r="5"/>
<circle cx="163.40425531914894" cy="-340" fill="#000000" r="5"/>
<circle cx="173.61702127659575" cy="0" fill="#000000" r="5"/>
<circle cx="183.82978723404256" cy="-2.809917355371901" fill="#000000" r="5"/>
<circle cx="194.04255319148936" cy="-5.619834710743802" fill="#000000" r="5"/>
<circle cx="204.25531914893617" cy="-148.92561983471074" fill="#000000" r="5"/>
<circle cx="214.46808510638297" cy="-87.10743801652893" fill="#000000" r="5"/>
<circle cx="224.68085106382978" cy="-22.479338842975206" fill="#000000" r="5"/>
<circle cx="234.89361702127658" cy="-241.65289256198346" fill="#000000" r="5"/>
<circle cx="245.10638297872342" cy="-22.479338842975206" fill="#000000" r="5"/>
<circle cx="255.31914893617022" cy="-16.859504132231404" fill="#000000" r="5"/>
<circle cx="265.531914893617" cy="-241.65289256198346" fill="#000000" r="5"/>
<circle cx="275.74468085106383" cy="-272.56198347107437" fill="#000000" r="5"/>
<circle cx="285.9574468085106" cy="-16.859504132231404" fill="#000000" r="5"/>
<circle cx="296.17021276595744" cy="-8.429752066115702" fill="#000000" r="5"/>
<circle cx="306.3829787234043" cy="-154.54545454545453" fill="#000000" r="5"/>
<circle cx="316.59574468085106" cy="0" fill="#000000" r="5"/>
<circle cx="326.8085106382979" cy="-87.10743801652893" fill="#000000" r="5"/>
<circle cx="337.02127659574467" cy="-11.239669421487603" fill="#000000" r="5"/>
<circle cx="347.2340425531915" cy="-123.63636363636364" fill="#000000" r="5"/>
<circle cx="357.4468085106383" cy="-177.02479338842974" fill="#000000" r="5"/>
</g>
</g>
<g>
<g>
<path d="M10.212766,-216.36363 L10.212766,-216.36363 L20.425531,-133.19008 L30.638298,-139.4843 L40.851063,-88.18645 L51.06383,-102.36642 L61.276596,-64.79175 L71.489365,-43.37092 L81.702126,-29.394451 L91.914894,-77.20692 L102.12766,-50.82002 L112.34042,-33.86391 L122.55319,-79.888596 L132.76596,-52.429024 L142.97873,-80.91196 L153.19148,-51.91908 L163.40425,-35.647312 L173.61702,-157.38838 L183.82979,-94.43304 L194.04256,-57.783787 L204.25533,-36.918205 L214.46808,-81.72117 L224.68085,-83.87568 L234.89362,-59.317142 L245.10638,-132.25145 L255.31915,-88.3426 L265.53192,-59.749363 L275.7447,-132.51077 L285.95746,-188.53127 L296.17023,-119.86256 L306.38297,-75.28944 L316.59573,-106.991844 L326.8085,-64.19511 L337.02127,-73.36004 L347.23404,-48.51189 L357.4468,-78.56168" fill="none" stroke="#af0af6" stroke-linejoin="round" stroke-width="2"/>
</g>
<g>
<circle cx="10.212765957446809" cy="-216.36363636363637" fill="#af0af6" r="5"/>
<circle cx="20.425531914893618" cy="-133.1900826446281" fill="#af0af6" r="5"/>
<circle cx="30.638297872340427" cy="-139.48429752066116" fill="#af0af6" r="5"/>
<circle cx="40.851063829787236" cy="-88.18644628099173" fill="#af0af6" r="5"/>
<circle cx="51.06382978723404" cy="-102.36641322314048" fill="#af0af6" r="5"/>
<circle cx="61.276595744680854" cy="-64.79174876033058" fill="#af0af6" r="5"/>
<circle cx="71.48936170212765" cy="-43.37091702479339" fill="#af0af6" r="5"/>
<circle cx="81.70212765957447" cy="-29.394451041322313" fill="#af0af6" r="5"/>
<circle cx="91.91489361702128" cy="-77.20691855867769" fill="#af0af6" r="5"/>
<circle cx="102.12765957446808" cy="-50.820018903801646" fill="#af0af6" r="5"/>
<circle cx="112.34042553191489" cy="-33.86391216872727" fill="#af0af6" r="5"/>
<circle cx="122.55319148936171" cy="-79.88859523512066" fill="#af0af6" r="5"/>
<circle cx="132.7659574468085" cy="-52.42902490966743" fill="#af0af6" r="5"/>
<circle cx="142.9787234042553" cy="-80.91196040034592" fill="#af0af6" r="5"/>
<circle cx="153.19148936170214" cy="-51.91907706665383" fill="#af0af6" r="5"/>
<circle cx="163.40425531914894" cy="-35.647314008587344" fill="#af0af6" r="5"/>
<circle cx="173.61702127659575" cy="-157.3883884051524" fill="#af0af6" r="5"/>
<circle cx="183.82978723404256" cy="-94.43303304309144" fill="#af0af6" r="5"/>
<circle cx="194.04255319148936" cy="-57.78378676800363" fill="#af0af6" r="5"/>
<circle cx="204.25531914893617" cy="-36.9182059450997" fill="#af0af6" r="5"/>
<circle cx="214.46808510638297" cy="-81.72117150094414" fill="#af0af6" r="5"/>
<circle cx="224.68085106382978" cy="-83.87567810717805" fill="#af0af6" r="5"/>
<circle cx="234.89361702127658" cy="-59.31714240149691" fill="#af0af6" r="5"/>
<circle cx="245.10638297872342" cy="-132.25144246569155" fill="#af0af6" r="5"/>
<circle cx="255.31914893617022" cy="-88.34260101660502" fill="#af0af6" r="5"/>
<circle cx="265.531914893617" cy="-59.74936226285557" fill="#af0af6" r="5"/>
<circle cx="275.74468085106383" cy="-132.51077438250672" fill="#af0af6" r="5"/>
<circle cx="285.9574468085106" cy="-188.53125801793382" fill="#af0af6" r="5"/>
<circle cx="296.17021276595744" cy="-119.86255646365284" fill="#af0af6" r="5"/>
<circle cx="306.3829787234043" cy="-75.289434704638" fill="#af0af6" r="5"/>
<circle cx="316.59574468085106" cy="-106.99184264096462" fill="#af0af6" r="5"/>
<circle cx="326.8085106382979" cy="-64.19510558457877" fill="#af0af6" r="5"/>
<circle cx="337.02127659574467" cy="-73.36003855735883" fill="#af0af6" r="5"/>
<circle cx="347.2340425531915" cy="-48.51189090301033" fill="#af0af6" r="5"/>
<circle cx="357.4468085106383" cy="-78.56167999635166" fill="#af0af6" r="5"/>
</g>
</g>
<g>
<g>
<path d="M0,-66.39168 L0,-66.39168 L10.212766,-67.343506 L20.425531,-68.295334 L30.638298,-69.24716 L40.851063,-70.19899 L51.06383,-71.15082 L61.276596,-72.102646 L71.489365,-73.054474 L81.702126,-74.0063 L91.914894,-74.95813 L102.12766,-75.90996 L112.34042,-76.861786 L122.55319,-77.813614 L132.76596,-78.76544 L142.97873,-79.71727 L153.19148,-80.6691 L163.40425,-81.620926 L173.61702,-82.572754 L183.82979,-83.52458 L194.04256,-84.47641 L204.25533,-85.42824 L214.46808,-86.380066 L224.68085,-87.331894 L234.89362,-88.28372 L245.10638,-89.23555 L255.31915,-90.18738 L265.53192,-91.139206 L275.7447,-92.091034 L285.95746,-93.04286 L296.17023,-93.99469 L306.38297,-94.94652 L316.59573,-95.898346 L326.8085,-96.850174 L337.02127,-97.802 L347.23404,-98.75383 L357.4468,-99.70566" fill="none" stroke="#87faa4" stroke-linejoin="round" stroke-width="2"/>
</g>
<g>
<circle cx="0" cy="-66.39168093713548" fill="#87faa4" r="5"/>
<circle cx="10.212765957446809" cy="-67.34350879805426" fill="#87faa4" r="5"/>
<circle cx="20.425531914893618" cy="-68.29533665897301" fill="#87faa4" r="5"/>
<circle cx="30.638297872340427" cy="-69.24716451989178" fill="#87faa4" r="5"/>
<circle cx="40.851063829787236" cy="-70.19899238081055" fill="#87faa4" r="5"/>
<circle cx="51.06382978723404" cy="-71.15082024172933" fill="#87faa4" r="5"/>
<circle cx="61.276595744680854" cy="-72.1026481026481" fill="#87faa4" r="5"/>
<circle cx="71.48936170212765" cy="-73.05447596356687" fill="#87faa4" r="5"/>
<circle cx="81.70212765957447" cy="-74.00630382448564" fill="#87faa4" r="5"/>
<circle cx="91.91489361702128" cy="-74.95813168540441" fill="#87faa4" r="5"/>
<circle cx="102.12765957446808" cy="-75.90995954632318" fill="#87faa4" r="5"/>
<circle cx="112.34042553191489" cy="-76.86178740724195" fill="#87faa4" r="5"/>
<circle cx="122.55319148936171" cy="-77.81361526816072" fill="#87faa4" r="5"/>
<circle cx="132.7659574468085" cy="-78.7654431290795" fill="#87faa4" r="5"/>
<circle cx="142.9787234042553" cy="-79.71727098999826" fill="#87faa4" r="5"/>
<circle cx="153.19148936170214" cy="-80.66909885091702" fill="#87faa4" r="5"/>
<circle cx="163.40425531914894" cy="-81.6209267118358" fill="#87faa4" r="5"/>
<circle cx="173.61702127659575" cy="-82.57275457275458" fill="#87faa4" r="5"/>
<circle cx="183.82978723404256" cy="-83.52458243367334" fill="#87faa4" r="5"/>
<circle cx="194.04255319148936" cy="-84.47641029459211" fill="#87faa4" r="5"/>
<circle cx="204.25531914893617" cy="-85.42823815551087" fill="#87faa4" r="5"/>
<circle cx="214.46808510638297" cy="-86.38006601642964" fill="#87faa4" r="5"/>
<circle cx="224.68085106382978" cy="-87.3318938773484" fill="#87faa4" r="5"/>
<circle cx="234.89361702127658" cy="-88.28372173826719" fill="#87faa4" r="5"/>
<circle cx="245.10638297872342" cy="-89.23554959918596" fill="#87faa4" r="5"/>
<circle cx="255.31914893617022" cy="-90.18737746010471" fill="#87faa4" r="5"/>
<circle cx="265.531914893617" cy="-91.1392053210235" fill="#87faa4" r="5"/>
<circle cx="275.74468085106383" cy="-92.09103318194227" fill="#87faa4" r="5"/>
<circle cx="285.9574468085106" cy="-93.04286104286103" fill="#87faa4" r="5"/>
<circle cx="296.17021276595744" cy="-93.99468890377982" fill="#87faa4" r="5"/>
<circle cx="306.3829787234043" cy="-94.94651676469859" fill="#87faa4" r="5"/>
<circle cx="316.59574468085106" cy="-95.89834462561734" fill="#87faa4" r="5"/>
<circle cx="326.8085106382979" cy="-96.85017248653612" fill="#87faa4" r="5"/>
<circle cx="337.02127659574467" cy="-97.80200034745488" fill="#87faa4" r="5"/>
<circle cx="347.2340425531915" cy="-98.75382820837365" fill="#87faa4" r="5"/>
<circle cx="357.4468085106383" cy="-99.70565606929243" fill="#87faa4" r="5"/>
</g>
</g>
<g>
<g>
<path d="M367.65958,-48.51189 L367.65958,-48.51189 L377.87234,-98.34711 L388.0851,-269.75208 L398.29788,-118.016525 L408.51065,-19.669422 L418.72342,-162.9752 L428.93616,-118.016525 L439.14893,-115.20661 L449.3617,-56.19835 L459.57446,-14.049587 L469.78723,-278.18182 L480,-81.4876" fill="none" stroke="#ff00a2" stroke-linejoin="round" stroke-width="2"/>
</g>
<g>
<circle cx="367.6595744680851" cy="-48.51189090301033" fill="#ff00a2" r="5"/>
<circle cx="377.8723404255319" cy="-98.34710743801652" fill="#ff00a2" r="5"/>
<circle cx="388.0851063829787" cy="-269.75206611570246" fill="#ff00a2" r="5"/>
<circle cx="398.29787234042556" cy="-118.01652892561984" fill="#ff00a2" r="5"/>
<circle cx="408.51063829787233" cy="-19.669421487603305" fill="#ff00a2" r="5"/>
<circle cx="418.72340425531917" cy="-162.97520661157026" fill="#ff00a2" r="5"/>
<circle cx="428.93617021276594" cy="-118.01652892561984" fill="#ff00a2" r="5"/>
<circle cx="439.1489361702128" cy="-115.20661157024793" fill="#ff00a2" r="5"/>
<circle cx="449.36170212765956" cy="-56.19834710743802" fill="#ff00a2" r="5"/>
<circle cx="459.5744680851064" cy="-14.049586776859504" fill="#ff00a2" r="5"/>
<circle cx="469.78723404255317" cy="-278.1818181818182" fill="#ff00a2" r="5"/>
<circle cx="480" cy="-81.48760330578513" fill="#ff00a2" r="5"/>
</g>
</g>
<g>
<g>
<line stroke="black" stroke-width="1" x1="0" x2="0" y1="0" y2="10"/>
<line stroke="black" stroke-width="1" x1="102.12765957446808" x2="102.12765957446808" y1="0" y2="10"/>
<line stroke="black" stroke-width="1" x1="204.25531914893617" x2="204.25531914893617" y1="0" y2="10"/>
<line stroke="black" stroke-width="1" x1="306.3829787234043" x2="306.3829787234043" y1="0" y2="10"/>
<line stroke="black" stroke-width="1" x1="408.51063829787233" x2="408.51063829787233" y1="0" y2="10"/>
</g>
<line stroke="black" stroke-width="1" x1="0" x2="480" y1="0" y2="0"/>
<g>
<text font-size="12" text-anchor="middle" x="0" y="20">
1
</text>
<text font-size="12" text-anchor="middle" x="102.12765957446808" y="20">
11
</text>
<text font-size="12" text-anchor="middle" x="204.25531914893617" y="20">
21
</text>
<text font-size="12" text-anchor="middle" x="306.3829787234043" y="20">
31
</text>
<text font-size="12" text-anchor="middle" x="408.51063829787233" y="20">
41
</text>
</g>
<text font-size="12" text-anchor="middle" x="240" y="30">

</text>
</g>
<g>
<g>
<line stroke="black" stroke-width="1" x1="0" x2="-10" y1="0" y2="0"/>
<line stroke="black" stroke-width="1" x1="0" x2="-10" y1="-112.39669421487604" y2="-112.39669421487604"/>
<line stroke="black" stroke-width="1" x1="0" x2="-10" y1="-224.79338842975207" y2="-224.79338842975207"/>
<line stroke="black" stroke-width="1" x1="0" x2="-10" y1="-337.1900826446281" y2="-337.1900826446281"/>
</g>
<line stroke="black" stroke-width="1" x1="0" x2="0" y1="0" y2="-340"/>
<g>
<text dominant-baseline="middle" font-size="12" text-anchor="end" x="-15" y="0">
1
</text>
<text dominant-baseline="middle" font-size="12" text-anchor="end" x="-15" y="-112.39669421487604">
41
</text>
<text dominant-baseline="middle" font-size="12" text-anchor="end" x="-15" y="-224.79338842975207">
81
</text>
<text dominant-baseline="middle" font-size="12" text-anchor="end" x="-15" y="-337.1900826446281">
121
</text>
</g>
<text font-size="12" text-anchor="middle" transform="rotate(-90 -36 -170)" x="-36" y="-182">

</text>
</g>
</g>
</svg>