<svg viewBox="0 0 600 400" xmlns="http://www.w3.org/2000/svg">
<g transform="translate(72, 364)">
<g>
<g>
<path d="M0,-51.908398 L0,-51.908398 L10.212766,-51.908398 L20.425531,-51.908398 L30.638298,-137.55725 L40.851063,-194.6565 L51.06383,-80.458015 L61.276596,-109.00764 L71.489365,0 L81.702126,-142.7481 L91.914894,-223.2061 L102.12766,-137.55725 L112.34042,-80.458015 L122.55319,-166.10687 L132.76596,-194.6565 L142.97873,-80.458015 L153.19148,-137.55725 L163.40425,-197.2519 L173.61702,-28.549618 L183.82979,-80.458015 L194.04256,-137.55725 L204.25533,-109.00764 L214.46808,0 L224.68085,-83.05344 L234.89362,-109.00764 L245.10638,-142.7481 L255.31915,-80.458015 L265.53192,-28.549618 L275.7447,-194.6565 L285.95746,-109.00764 L296.17023,-109.00764 L306.38297,-142.7481 L316.59573,-109.00764 L326.8085,-142.7481 L337.02127,-194.6565 L347.23404,-109.00764 L357.4468,-256.94656" fill="none" stroke="#000000" stroke-linejoin="round" stroke-width="2"/>
</g>
<g>
<circle cx="0" cy="-51.908396946564885" fill="#000000" r="5"/>
<circle cx="10.212765957446809" cy="-51.908396946564885" fill="#000000" r="5"/>
<circle cx="20.425531914893618" cy="-51.908396946564885" fill="#000000" r="5"/>
<circle cx="30.638297872340427" cy="-137.55725190839695" fill="#000000" r="5"/>
<circle cx="40.851063829787236" cy="-194.65648854961833" fill="#000000" r="5"/>
<circle cx="51.06382978723404" cy="-80.45801526717557" fill="#000000" r="5"/>
<circle cx="61.276595744680854" cy="-109.00763358778626" fill="#000000" r="5"/>
<circle cx="71.48936170212765" cy="0" fill="#000000" r="5"/>
<circle cx="81.70212765957447" cy="-142.74809160305344" fill="#000000" r="5"/>
<circle cx="91.91489361702128" cy="-223.206106870229" fill="#000000" r="5"/>
<circle cx="102.12765957446808" cy="-137.55725190839695" fill="#000000" r="5"/>
<circle cx="112.34042553191489" cy="-80.45801526717557" fill="#000000" r="5"/>
<circle cx="122.55319148936171" cy="-166.10687022900763" fill="#000000" r="5"/>
<circle cx="132.7659574468085" cy="-194.65648854961833" fill="#000000" r="5"/>
<circle cx="142.9787234042553" cy="-80.45801526717557" fill="#000000" r="5"/>
<circle cx="153.19148936170214" cy="-137.55725190839695" fill="#000000" r="5"/>
<circle cx="163.40425531914894" cy="-197.25190839694656" fill="#000000" r="5"/>
<circle cx="173.61702127659575" cy="-28.549618320610687" fill="#000000" r="5"/>
<circle cx="183.82978723404256" cy="-80.45801526717557" fill="#000000" r="5"/>
<circle cx="194.04255319148936" cy="-137.55725190839695" fill="#000000" r="5"/>
<circle cx="204.25531914893617" cy="-109.00763358778626" fill="#000000" r="5"/>
<circle cx="214.46808510638297" cy="0" fill="#000000" r="5"/>
<circle cx="224.68085106382978" cy="-83.05343511450381" fill="#000000" r="5"/>
<circle cx="234.89361702127658" cy="-109.00763358778626" fill="#000000" r="5"/>
<circle cx="245.10638297872342" cy="-142.74809160305344" fill="#000000" r="5"/>
<circle cx="255.31914893617022" cy="-80.45801526717557" fill="#000000" r="5"/>
<circle cx="265.531914893617" cy="-28.549618320610687" fill="#000000" r="5"/>
<circle cx="275.74468085106383" cy="-194.65648854961833" fill="#000000" r="5"/>
<circle cx="285.9574468085106" cy="-109.00763358778626" fill="#000000" r="5"/>
<circle cx="296.17021276595744" cy="-109.00763358778626" fill="#000000" r="5"/>
<circle cx="306.3829787234043" cy="-142.74809160305344" fill="#000000" r="5"/>
<circle cx="316.59574468085106" cy="-109.00763358778626" fill="#000000" r="5"/>
<circle cx="326.8085106382979" cy="-142.74809160305344" fill="#000000" r="5"/>
<circle cx="337.02127659574467" cy="-194.65648854961833" fill="#000000" r="5"/>
<circle cx="347.2340425531915" cy="-109.00763358778626" fill="#000000" r="5"/>
<circle cx="357.4468085106383" cy="-256.9465648854962" fill="#000000" r="5"/>
</g>
</g>
<g>
<g>
<path d="M10.212766,-51.908398 L10.212766,-51.908398 L20.425531,-51.908398 L30.638298,-51.908398 L40.851063,-86.16794 L51.06383,-129.56335 L61.276596,-109.92122 L71.489365,-109.555786 L81.702126,-65.733475 L91.914894,-96.53932 L102.12766,-147.20604 L112.34042,-143.34653 L122.55319,-118.19112 L132.76596,-137.35742 L142.97873,-160.27705 L153.19148,-128.34944 L163.40425,-132.03256 L173.61702,-158.1203 L183.82979,-106.29203 L194.04256,-95.95842 L204.25533,-112.59795 L214.46808,-111.16183 L224.68085,-66.6971 L234.89362,-73.23963 L245.10638,-87.54683 L255.31915,-109.627335 L265.53192,-97.95961 L275.7447,-70.19561 L285.95746,-119.979965 L296.17023,-115.591034 L306.38297,-112.95767 L316.59573,-124.87384 L326.8085,-118.52736 L337.02127,-128.21565 L347.23404,-154.79199 L357.4468,-136.47824" fill="none" stroke="#af0af6" stroke-linejoin="round" stroke-width="2"/>
</g>
<g>
<circle cx="10.212765957446809" cy="-51.908396946564885" fill="#af0af6" r="5"/>
<circle cx="20.425531914893618" cy="-51.908396946564885" fill="#af0af6" r="5"/>
<circle cx="30.638297872340427" cy="-51.908396946564885" fill="#af0af6" r="5"/>
<circle cx="40.851063829787236" cy="-86.16793893129773" fill="#af0af6" r="5"/>
<circle cx="51.06382978723404" cy="-129.56335877862594" fill="#af0af6" r="5"/>
<circle cx="61.276595744680854" cy="-109.92122137404581" fill="#af0af6" r="5"/>
<circle cx="71.48936170212765" cy="-109.55578625954199" fill="#af0af6" r="5"/>
<circle cx="81.70212765957447" cy="-65.7334717557252" fill="#af0af6" r="5"/>
<circle cx="91.91489361702128" cy="-96.5393196946565" fill="#af0af6" r="5"/>
<circle cx="102.12765957446808" cy="-147.2060345648855" fill="#af0af6" r="5"/>
<circle cx="112.34042553191489" cy="-143.34652150229007" fill="#af0af6" r="5"/>
<circle cx="122.55319148936171" cy="-118.19111900824426" fill="#af0af6" r="5"/>
<circle cx="132.7659574468085" cy="-137.3574194965496" fill="#af0af6" r="5"/>
<circle cx="142.9787234042553" cy="-160.2770471177771" fill="#af0af6" r="5"/>
<circle cx="153.19148936170214" cy="-128.34943437753645" fill="#af0af6" r="5"/>
<circle cx="163.40425531914894" cy="-132.03256138988064" fill="#af0af6" r="5"/>
<circle cx="173.61702127659575" cy="-158.12030019270702" fill="#af0af6" r="5"/>
<circle cx="183.82978723404256" cy="-106.29202744386848" fill="#af0af6" r="5"/>
<circle cx="194.04255319148936" cy="-95.95842257319131" fill="#af0af6" r="5"/>
<circle cx="204.25531914893617" cy="-112.59795430727357" fill="#af0af6" r="5"/>
<circle cx="214.46808510638297" cy="-111.16182601947864" fill="#af0af6" r="5"/>
<circle cx="224.68085106382978" cy="-66.69709561168717" fill="#af0af6" r="5"/>
<circle cx="234.89361702127658" cy="-73.23963141281384" fill="#af0af6" r="5"/>
<circle cx="245.10638297872342" cy="-87.5468322828028" fill="#af0af6" r="5"/>
<circle cx="255.31914893617022" cy="-109.62733601090304" fill="#af0af6" r="5"/>
<circle cx="265.531914893617" cy="-97.95960771341205" fill="#af0af6" r="5"/>
<circle cx="275.74468085106383" cy="-70.1956119562915" fill="#af0af6" r="5"/>
<circle cx="285.9574468085106" cy="-119.97996259362223" fill="#af0af6" r="5"/>
<circle cx="296.17021276595744" cy="-115.59103099128784" fill="#af0af6" r="5"/>
<circle cx="306.3829787234043" cy="-112.9576720298872" fill="#af0af6" r="5"/>
<circle cx="316.59574468085106" cy="-124.87383985915369" fill="#af0af6" r="5"/>
<circle cx="326.8085106382979" cy="-118.52735735060672" fill="#af0af6" r="5"/>
<circle cx="337.02127659574467" cy="-128.2156510515854" fill="#af0af6" r="5"/>
<circle cx="347.2340425531915" cy="-154.79198605079858" fill="#af0af6" r="5"/>
<circle cx="357.4468085106383" cy="-136.47824506559365" fill="#af0af6" r="5"/>
</g>
</g>
<g>
<g>
<path d="M0,-93.51695 L0,-93.51695 L10.212766,-94.84706 L20.425531,-96.17718 L30.638298,-97.507286 L40.851063,-98.837395 L51.06383,-100.1675 L61.276596,-101.49762 L71.489365,-102.82773 L81.702126,-104.15784 L91.914894,-105.48795 L102.12766,-106.81806 L112.34042,-108.14817 L122.55319,-109.47829 L132.76596,-110.808395 L142.97873,-112.138504 L153.19148,-113.46861 L163.40425,-114.79873 L173.61702,-116.12884 L183.82979,-117.45895 L194.04256,-118.78906 L204.25533,-120.11917 L214.46808,-121.44928 L224.68085,-122.779396 L234.89362,-124.109505 L245.10638,-125.43961 L255.31915,-126.76972 L265.53192,-128.09984 L275.7447,-129.42995 L285.95746,-130.76006 L296.17023,-132.09016 L306.38297,-133.42027 L316.59573,-134.7504 L326.8085,-136.0805 L337.02127,-137.41061 L347.23404,-138.74072 L357.4468,-140.07083" fill="none" stroke="#87faa4" stroke-linejoin="round" stroke-width="2"/>
</g>
<g>
<circle cx="0" cy="-93.5169520665704" fill="#87faa4" r="5"/>
<circle cx="10.212765957446809" cy="-94.84706298446757" fill="#87faa4" r="5"/>
<circle cx="20.425531914893618" cy="-96.17717390236474" fill="#87faa4" r="5"/>
<circle cx="30.638297872340427" cy="-97.50728482026192" fill="#87faa4" r="5"/>
<circle cx="40.851063829787236" cy="-98.8373957381591" fill="#87faa4" r="5"/>
<circle cx="51.06382978723404" cy="-100.16750665605626" fill="#87faa4" r="5"/>
<circle cx="61.276595744680854" cy="-101.49761757395346" fill="#87faa4" r="5"/>
<circle cx="71.48936170212765" cy="-102.82772849185064" fill="#87faa4" r="5"/>
<circle cx="81.70212765957447" cy="-104.1578394097478" fill="#87faa4" r="5"/>
<circle cx="91.91489361702128" cy="-105.487950327645" fill="#87faa4" r="5"/>
<circle cx="102.12765957446808" cy="-106.81806124554215" fill="#87faa4" r="5"/>
<circle cx="112.34042553191489" cy="-108.14817216343936" fill="#87faa4" r="5"/>
<circle cx="122.55319148936171" cy="-109.47828308133651" fill="#87faa4" r="5"/>
<circle cx="132.7659574468085" cy="-110.80839399923369" fill="#87faa4" r="5"/>
<circle cx="142.9787234042553" cy="-112.13850491713086" fill="#87faa4" r="5"/>
<circle cx="153.19148936170214" cy="-113.46861583502805" fill="#87faa4" r="5"/>
<circle cx="163.40425531914894" cy="-114.79872675292523" fill="#87faa4" r="5"/>
<circle cx="173.61702127659575" cy="-116.1288376708224" fill="#87faa4" r="5"/>
<circle cx="183.82978723404256" cy="-117.45894858871958" fill="#87faa4" r="5"/>
<circle cx="194.04255319148936" cy="-118.78905950661675" fill="#87faa4" r="5"/>
<circle cx="204.25531914893617" cy="-120.11917042451394" fill="#87faa4" r="5"/>
<circle cx="214.46808510638297" cy="-121.44928134241113" fill="#87faa4" r="5"/>
<circle cx="224.68085106382978" cy="-122.7793922603083" fill="#87faa4" r="5"/>
<circle cx="234.89361702127658" cy="-124.10950317820546" fill="#87faa4" r="5"/>
<circle cx="245.10638297872342" cy="-125.43961409610263" fill="#87faa4" r="5"/>
<circle cx="255.31914893617022" cy="-126.76972501399985" fill="#87faa4" r="5"/>
<circle cx="265.531914893617" cy="-128.099835931897" fill="#87faa4" r="5"/>
<circle cx="275.74468085106383" cy="-129.42994684979416" fill="#87faa4" r="5"/>
<circle cx="285.9574468085106" cy="-130.76005776769134" fill="#87faa4" r="5"/>
<circle cx="296.17021276595744" cy="-132.09016868558854" fill="#87faa4" r="5"/>
<circle cx="306.3829787234043" cy="-133.4202796034857" fill="#87faa4" r="5"/>
<circle cx="316.59574468085106" cy="-134.75039052138288" fill="#87faa4" r="5"/>
<circle cx="326.8085106382979" cy="-136.08050143928006" fill="#87faa4" r="5"/>
<circle cx="337.02127659574467" cy="-137.41061235717723" fill="#87faa4" r="5"/>
<circle cx="347.2340425531915" cy="-138.74072327507443" fill="#87faa4" r="5"/>
<circle cx="357.4468085106383" cy="-140.07083419297163" fill="#87faa4" r="5"/>
</g>
</g>
<g>
<g>
<path d="M367.65958,-154.79199 L367.65958,-154.79199 L377.87234,-142.7481 L388.0851,-142.7481 L398.29788,-340 L408.51065,-140.15266 L418.72342,-132.36641 L428.93616,-124.580154 L439.14893,-160.91603 L449.3617,-103.816795 L459.57446,-134.96184 L469.78723,-134.96184 L480,-153.12978" fill="none" stroke="#ff00a2" stroke-linejoin="round" stroke-width="2"/>
</g>
<g>
<circle cx="367.6595744680851" cy="-154.79198605079858" fill="#ff00a2" r="5"/>
<circle cx="377.8723404255319" cy="-142.74809160305344" fill="#ff00a2" r="5"/>
<circle cx="388.0851063829787" cy="-142.74809160305344" fill="#ff00a2" r="5"/>
<circle cx="398.29787234042556" cy="-340" fill="#ff00a2" r="5"/>
<circle cx="408.51063829787233" cy="-140.15267175572518" fill="#ff00a2" r="5"/>
<circle cx="418.72340425531917" cy="-132.36641221374046" fill="#ff00a2" r="5"/>
<circle cx="428.93617021276594" cy="-124.58015267175573" fill="#ff00a2" r="5"/>
<circle cx="439.1489361702128" cy="-160.91603053435114" fill="#ff00a2" r="5"/>
<circle cx="449.36170212765956" cy="-103.81679389312977" fill="#ff00a2" r="5"/>
<circle cx="459.5744680851064" cy="-134.9618320610687" fill="#ff00a2" r="5"/>
<circle cx="469.78723404255317" cy="-134.9618320610687" fill="#ff00a2" r="5"/>
<circle cx="480" cy="-153.12977099236642" fill="#ff00a2" r="5"/>
</g>
</g>
<g>
<g>
<line stroke="black" stroke-width="1" x1="0" x2="0" y1="0" y2="10"/>
<line stroke="black" stroke-width="1" x1="102.12765957446808" x2="102.12765957446808" y1="0" y2="10"/>
<line stroke="black" stroke-width="1" x1="204.25531914893617" x2="204.25531914893617" y1="0" y2="10"/>
<line stroke="black" stroke-width="1" x1="306.3829787234043" x2="306.3829787234043" y1="0" y2="10"/>
<line stroke="black" stroke-width="1" x1="408.51063829787233" x2="408.51063829787233" y1="0" y2="10"/>
</g>
<line stroke="black" stroke-width="1" x1="0" x2="480" y1="0" y2="0"/>
<g>
<text font-size="12" text-anchor="middle" x="0" y="20">
1
</text>
<text font-size="12" text-anchor="middle" x="102.12765957446808" y="20">
11
</text>
<text font-size="12" text-anchor="middle" x="204.25531914893617" y="20">
21
</text>
<text font-size="12" text-anchor="middle" x="306.3829787234043" y="20">
31
</text>
<text font-size="12" text-anchor="middle" x="408.51063829787233" y="20">
41
</text>
</g>
<text font-size="12" text-anchor="middle" x="240" y="30">

</text>
</g>
<g>
<g>
<line stroke="black" stroke-width="1" x1="0" x2="-10" y1="0" y2="0"/>
<line stroke="black" stroke-width="1" x1="0" x2="-10" y1="-103.81679389312977" y2="-103.81679389312977"/>
<line stroke="black" stroke-width="1" x1="0" x2="-10" y1="-207.63358778625954" y2="-207.63358778625954"/>
<line stroke="black" stroke-width="1" x1="0" x2="-10" y1="-311.4503816793893" y2="-311.4503816793893"/>
</g>
<line stroke="black" stroke-width="1" x1="0" x2="0" y1="0" y2="-340"/>
<g>
<text dominant-baseline="middle" font-size="12" text-anchor="end" x="-15" y="0">
12
</text>
<text dominant-baseline="middle" font-size="12" text-anchor="end" x="-15" y="-103.81679389312977">
52
</text>
<text dominant-baseline="middle" font-size="12" text-anchor="end" x="-15" y="-207.63358778625954">
92
</text>
<text dominant-baseline="middle" font-size="12" text-anchor="end" x="-15" y="-311.4503816793893">
132
</text>
</g>
<text font-size="12" text-anchor="middle" transform="rotate(-90 -36 -170)" x="-36" y="-182">

</text>
</g>
</g>
</svg>