<svg viewBox="0 0 600 400" xmlns="http://www.w3.org/2000/svg">
<g transform="translate(72, 364)">
<g>
<g>
<path d="M0,-136 L0,-136 L10.212766,-122.4 L20.425531,-122.4 L30.638298,-68 L40.851063,-81.6 L51.06383,-40.8 L61.276596,-68 L71.489365,-122.4 L81.702126,-190.4 L91.914894,-122.4 L102.12766,-190.4 L112.34042,-272 L122.55319,-176.8 L132.76596,-108.8 L142.97873,-122.4 L153.19148,-68 L163.40425,-54.4 L173.61702,-81.6 L183.82979,-81.6 L194.04256,-163.2 L204.25533,-190.4 L214.46808,-204 L224.68085,-231.2 L234.89362,-285.6 L245.10638,-217.6 L255.31915,-95.2 L265.53192,-149.6 L275.7447,-95.2 L285.95746,-40.8 L296.17023,-95.2 L306.38297,-95.2 L316.59573,-190.4 L326.8085,-217.6 L337.02127,-163.2 L347.23404,-244.8 L357.4468,-312.8" fill="none" stroke="#000000" stroke-linejoin="round" stroke-width="2"/>
</g>
<g>
<circle cx="0" cy="-136" fill="#000000" r="5"/>
<circle cx="10.212765957446809" cy="-122.4" fill="#000000" r="5"/>
<circle cx="20.425531914893618" cy="-122.4" fill="#000000" r="5"/>
<circle cx="30.638297872340427" cy="-68" fill="#000000" r="5"/>
<circle cx="40.851063829787236" cy="-81.6" fill="#000000" r="5"/>
<circle cx="51.06382978723404" cy="-40.8" fill="#000000" r="5"/>
<circle cx="61.276595744680854" cy="-68" fill="#000000" r="5"/>
<circle cx="71.48936170212765" cy="-122.4" fill="#000000" r="5"/>
<circle cx="81.70212765957447" cy="-190.4" fill="#000000" r="5"/>
<circle cx="91.91489361702128" cy="-122.4" fill="#000000" r="5"/>
<circle cx="102.12765957446808" cy="-190.4" fill="#000000" r="5"/>
<circle cx="112.34042553191489" cy="-272" fill="#000000" r="5"/>
<circle cx="122.55319148936171" cy="-176.8" fill="#000000" r="5"/>
<circle cx="132.7659574468085" cy="-108.8" fill="#000000" r="5"/>
<circle cx="142.9787234042553" cy="-122.4" fill="#000000" r="5"/>
<circle cx="153.19148936170214" cy="-68" fill="#000000" r="5"/>
<circle cx="163.40425531914894" cy="-54.4" fill="#000000" r="5"/>
<circle cx="173.61702127659575" cy="-81.6" fill="#000000" r="5"/>
<circle cx="183.82978723404256" cy="-81.6" fill="#000000" r="5"/>
<circle cx="194.04255319148936" cy="-163.2" fill="#000000" r="5"/>
<circle cx="204.25531914893617" cy="-190.4" fill="#000000" r="5"/>
<circle cx="214.46808510638297" cy="-204" fill="#000000" r="5"/>
<circle cx="224.68085106382978" cy="-231.2" fill="#000000" r="5"/>
<circle cx="234.89361702127658" cy="-285.6" fill="#000000" r="5"/>
<circle cx="245.10638297872342" cy="-217.6" fill="#000000" r="5"/>
<circle cx="255.31914893617022" cy="-95.2" fill="#000000" r="5"/>
<circle cx="265.531914893617" cy="-149.6" fill="#000000" r="5"/>
<circle cx="275.74468085106383" cy="-95.2" fill="#000000" r="5"/>
<circle cx="285.9574468085106" cy="-40.8" fill="#000000" r="5"/>
<circle cx="296.17021276595744" cy="-95.2" fill="#000000" r="5"/>
<circle cx="306.3829787234043" cy="-95.2" fill="#000000" r="5"/>
<circle cx="316.59574468085106" cy="-190.4" fill="#000000" r="5"/>
<circle cx="326.8085106382979" cy="-217.6" fill="#000000" r="5"/>
<circle cx="337.02127659574467" cy="-163.2" fill="#000000" r="5"/>
<circle cx="347.2340425531915" cy="-244.8" fill="#000000" r="5"/>
<circle cx="357.4468085106383" cy="-312.8" fill="#000000" r="5"/>
</g>
</g>
<g>
<g>
<path d="M10.212766,-136 L10.212766,-136 L20.425531,-130.56 L30.638298,-127.296 L40.851063,-103.5776 L51.06383,-94.78656 L61.276596,-73.19193 L71.489365,-71.11516 L81.702126,-91.6291 L91.914894,-131.13745 L102.12766,-127.64247 L112.34042,-152.74548 L122.55319,-200.4473 L132.76596,-190.98837 L142.97873,-158.11302 L153.19148,-143.82782 L163.40425,-113.49669 L173.61702,-89.85802 L183.82979,-86.55481 L194.04256,-84.57288 L204.25533,-116.02373 L214.46808,-145.77423 L224.68085,-169.06454 L234.89362,-193.91873 L245.10638,-230.59123 L255.31915,-225.39474 L265.53192,-173.31685 L275.7447,-163.83011 L285.95746,-136.37807 L296.17023,-98.146835 L306.38297,-96.9681 L316.59573,-96.260864 L326.8085,-133.91652 L337.02127,-167.38991 L347.23404,-165.71394 L357.4468,-197.34837" fill="none" stroke="#af0af6" stroke-linejoin="round" stroke-width="2"/>
</g>
<g>
<circle cx="10.212765957446809" cy="-136" fill="#af0af6" r="5"/>
<circle cx="20.425531914893618" cy="-130.56" fill="#af0af6" r="5"/>
<circle cx="30.638297872340427" cy="-127.29599999999999" fill="#af0af6" r="5"/>
<circle cx="40.851063829787236" cy="-103.5776" fill="#af0af6" r="5"/>
<circle cx="51.06382978723404" cy="-94.78656" fill="#af0af6" r="5"/>
<circle cx="61.276595744680854" cy="-73.191936" fill="#af0af6" r="5"/>
<circle cx="71.48936170212765" cy="-71.11516160000001" fill="#af0af6" r="5"/>
<circle cx="81.70212765957447" cy="-91.62909695999998" fill="#af0af6" r="5"/>
<circle cx="91.91489361702128" cy="-131.137458176" fill="#af0af6" r="5"/>
<circle cx="102.12765957446808" cy="-127.6424749056" fill="#af0af6" r="5"/>
<circle cx="112.34042553191489" cy="-152.74548494336" fill="#af0af6" r="5"/>
<circle cx="122.55319148936171" cy="-200.447290966016" fill="#af0af6" r="5"/>
<circle cx="132.7659574468085" cy="-190.9883745796096" fill="#af0af6" r="5"/>
<circle cx="142.9787234042553" cy="-158.11302474776573" fill="#af0af6" r="5"/>
<circle cx="153.19148936170214" cy="-143.82781484865944" fill="#af0af6" r="5"/>
<circle cx="163.40425531914894" cy="-113.49668890919567" fill="#af0af6" r="5"/>
<circle cx="173.61702127659575" cy="-89.8580133455174" fill="#af0af6" r="5"/>
<circle cx="183.82978723404256" cy="-86.55480800731044" fill="#af0af6" r="5"/>
<circle cx="194.04255319148936" cy="-84.57288480438626" fill="#af0af6" r="5"/>
<circle cx="204.25531914893617" cy="-116.02373088263175" fill="#af0af6" r="5"/>
<circle cx="214.46808510638297" cy="-145.77423852957907" fill="#af0af6" r="5"/>
<circle cx="224.68085106382978" cy="-169.06454311774746" fill="#af0af6" r="5"/>
<circle cx="234.89361702127658" cy="-193.91872587064847" fill="#af0af6" r="5"/>
<circle cx="245.10638297872342" cy="-230.5912355223891" fill="#af0af6" r="5"/>
<circle cx="255.31914893617022" cy="-225.39474131343349" fill="#af0af6" r="5"/>
<circle cx="265.531914893617" cy="-173.31684478806008" fill="#af0af6" r="5"/>
<circle cx="275.74468085106383" cy="-163.83010687283607" fill="#af0af6" r="5"/>
<circle cx="285.9574468085106" cy="-136.37806412370162" fill="#af0af6" r="5"/>
<circle cx="296.17021276595744" cy="-98.14683847422097" fill="#af0af6" r="5"/>
<circle cx="306.3829787234043" cy="-96.96810308453257" fill="#af0af6" r="5"/>
<circle cx="316.59574468085106" cy="-96.26086185071954" fill="#af0af6" r="5"/>
<circle cx="326.8085106382979" cy="-133.91651711043176" fill="#af0af6" r="5"/>
<circle cx="337.02127659574467" cy="-167.38991026625908" fill="#af0af6" r="5"/>
<circle cx="347.2340425531915" cy="-165.71394615975544" fill="#af0af6" r="5"/>
<circle cx="357.4468085106383" cy="-197.34836769585326" fill="#af0af6" r="5"/>
</g>
</g>
<g>
<g>
<path d="M0,-101.44865 L0,-101.44865 L10.212766,-103.94111 L20.425531,-106.43356 L30.638298,-108.926025 L40.851063,-111.41848 L51.06383,-113.91094 L61.276596,-116.4034 L71.489365,-118.89586 L81.702126,-121.38831 L91.914894,-123.880775 L102.12766,-126.37323 L112.34042,-128.86569 L122.55319,-131.35815 L132.76596,-133.8506 L142.97873,-136.34306 L153.19148,-138.83553 L163.40425,-141.32797 L173.61702,-143.82043 L183.82979,-146.3129 L194.04256,-148.80536 L204.25533,-151.2978 L214.46808,-153.79027 L224.68085,-156.28273 L234.89362,-158.77519 L245.10638,-161.26764 L255.31915,-163.7601 L265.53192,-166.25256 L275.7447,-168.74503 L285.95746,-171.23747 L296.17023,-173.72993 L306.38297,-176.2224 L316.59573,-178.71486 L326.8085,-181.2073 L337.02127,-183.69977 L347.23404,-186.19223 L357.4468,-188.68468" fill="none" stroke="#87faa4" stroke-linejoin="round" stroke-width="2"/>
</g>
<g>
<circle cx="0" cy="-101.44864864864863" fill="#87faa4" r="5"/>
<circle cx="10.212765957446809" cy="-103.94110682110683" fill="#87faa4" r="5"/>
<circle cx="20.425531914893618" cy="-106.43356499356497" fill="#87faa4" r="5"/>
<circle cx="30.638297872340427" cy="-108.92602316602316" fill="#87faa4" r="5"/>
<circle cx="40.851063829787236" cy="-111.41848133848133" fill="#87faa4" r="5"/>
<circle cx="51.06382978723404" cy="-113.9109395109395" fill="#87faa4" r="5"/>
<circle cx="61.276595744680854" cy="-116.40339768339766" fill="#87faa4" r="5"/>
<circle cx="71.48936170212765" cy="-118.89585585585584" fill="#87faa4" r="5"/>
<circle cx="81.70212765957447" cy="-121.38831402831401" fill="#87faa4" r="5"/>
<circle cx="91.91489361702128" cy="-123.88077220077221" fill="#87faa4" r="5"/>
<circle cx="102.12765957446808" cy="-126.37323037323036" fill="#87faa4" r="5"/>
<circle cx="112.34042553191489" cy="-128.86568854568853" fill="#87faa4" r="5"/>
<circle cx="122.55319148936171" cy="-131.3581467181467" fill="#87faa4" r="5"/>
<circle cx="132.7659574468085" cy="-133.85060489060487" fill="#87faa4" r="5"/>
<circle cx="142.9787234042553" cy="-136.34306306306306" fill="#87faa4" r="5"/>
<circle cx="153.19148936170214" cy="-138.83552123552124" fill="#87faa4" r="5"/>
<circle cx="163.40425531914894" cy="-141.3279794079794" fill="#87faa4" r="5"/>
<circle cx="173.61702127659575" cy="-143.82043758043756" fill="#87faa4" r="5"/>
<circle cx="183.82978723404256" cy="-146.31289575289574" fill="#87faa4" r="5"/>
<circle cx="194.04255319148936" cy="-148.80535392535393" fill="#87faa4" r="5"/>
<circle cx="204.25531914893617" cy="-151.29781209781208" fill="#87faa4" r="5"/>
<circle cx="214.46808510638297" cy="-153.79027027027027" fill="#87faa4" r="5"/>
<circle cx="224.68085106382978" cy="-156.28272844272843" fill="#87faa4" r="5"/>
<circle cx="234.89361702127658" cy="-158.77518661518658" fill="#87faa4" r="5"/>
<circle cx="245.10638297872342" cy="-161.2676447876448" fill="#87faa4" r="5"/>
<circle cx="255.31914893617022" cy="-163.76010296010296" fill="#87faa4" r="5"/>
<circle cx="265.531914893617" cy="-166.25256113256114" fill="#87faa4" r="5"/>
<circle cx="275.74468085106383" cy="-168.7450193050193" fill="#87faa4" r="5"/>
<circle cx="285.9574468085106" cy="-171.23747747747748" fill="#87faa4" r="5"/>
<circle cx="296.17021276595744" cy="-173.7299356499356" fill="#87faa4" r="5"/>
<circle cx="306.3829787234043" cy="-176.22239382239383" fill="#87faa4" r="5"/>
<circle cx="316.59574468085106" cy="-178.71485199485198" fill="#87faa4" r="5"/>
<circle cx="326.8085106382979" cy="-181.20731016731014" fill="#87faa4" r="5"/>
<circle cx="337.02127659574467" cy="-183.69976833976835" fill="#87faa4" r="5"/>
<circle cx="347.2340425531915" cy="-186.1922265122265" fill="#87faa4" r="5"/>
<circle cx="357.4468085106383" cy="-188.68468468468464" fill="#87faa4" r="5"/>
</g>
</g>
<g>
<g>
<path d="M367.65958,-165.71394 L367.65958,-165.71394 L377.87234,-340 L388.0851,-190.4 L398.29788,-190.4 L408.51065,-27.2 L418.72342,-27.2 L428.93616,0 L439.14893,0 L449.3617,-95.2 L459.57446,-176.8 L469.78723,-163.2 L480,-217.6" fill="none" stroke="#ff00a2" stroke-linejoin="round" stroke-width="2"/>
</g>
<g>
<circle cx="367.6595744680851" cy="-165.71394615975544" fill="#ff00a2" r="5"/>
<circle cx="377.8723404255319" cy="-340" fill="#ff00a2" r="5"/>
<circle cx="388.0851063829787" cy="-190.4" fill="#ff00a2" r="5"/>
<circle cx="398.29787234042556" cy="-190.4" fill="#ff00a2" r="5"/>
<circle cx="408.51063829787233" cy="-27.2" fill="#ff00a2" r="5"/>
<circle cx="418.72340425531917" cy="-27.2" fill="#ff00a2" r="5"/>
<circle cx="428.93617021276594" cy="0" fill="#ff00a2" r="5"/>
<circle cx="439.1489361702128" cy="0" fill="#ff00a2" r="5"/>
<circle cx="449.36170212765956" cy="-95.2" fill="#ff00a2" r="5"/>
<circle cx="459.5744680851064" cy="-176.8" fill="#ff00a2" r="5"/>
<circle cx="469.78723404255317" cy="-163.2" fill="#ff00a2" r="5"/>
<circle cx="480" cy="-217.6" fill="#ff00a2" r="5"/>
</g>
</g>
<g>
<g>
<line stroke="black" stroke-width="1" x1="0" x2="0" y1="0" y2="10"/>
<line stroke="black" stroke-width="1" x1="102.12765957446808" x2="102.12765957446808" y1="0" y2="10"/>
<line stroke="black" stroke-width="1" x1="204.25531914893617" x2="204.25531914893617" y1="0" y2="10"/>
<line stroke="black" stroke-width="1" x1="306.3829787234043" x2="306.3829787234043" y1="0" y2="10"/>
<line stroke="black" stroke-width="1" x1="408.51063829787233" x2="408.51063829787233" y1="0" y2="10"/>
</g>
<line stroke="black" stroke-width="1" x1="0" x2="480" y1="0" y2="0"/>
<g>
<text font-size="12" text-anchor="middle" x="0" y="20">
1
</text>
<text font-size="12" text-anchor="middle" x="102.12765957446808" y="20">
11
</text>
<text font-size="12" text-anchor="middle" x="204.25531914893617" y="20">
21
</text>
<text font-size="12" text-anchor="middle" x="306.3829787234043" y="20">
31
</text>
<text font-size="12" text-anchor="middle" x="408.51063829787233" y="20">
41
</text>
</g>
<text font-size="12" text-anchor="middle" x="240" y="30">

</text>
</g>
<g>
<g>
<line stroke="black" stroke-width="1" x1="0" x2="-10" y1="0" y2="0"/>
<line stroke="black" stroke-width="1" x1="0" x2="-10" y1="-68" y2="-68"/>
<line stroke="black" stroke-width="1" x1="0" x2="-10" y1="-136" y2="-136"/>
<line stroke="black" stroke-width="1" x1="0" x2="-10" y1="-204" y2="-204"/>
<line stroke="black" stroke-width="1" x1="0" x2="-10" y1="-272" y2="-272"/>
<line stroke="black" stroke-width="1" x1="0" x2="-10" y1="-340" y2="-340"/>
</g>
<line stroke="black" stroke-width="1" x1="0" x2="0" y1="0" y2="-340"/>
<g>
<text dominant-baseline="middle" font-size="12" text-anchor="end" x="-15" y="0">
2
</text>
<text dominant-baseline="middle" font-size="12" text-anchor="end" x="-15" y="-68">
7
</text>
<text dominant-baseline="middle" font-size="12" text-anchor="end" x="-15" y="-136">
12
</text>
<text dominant-baseline="middle" font-size="12" text-anchor="end" x="-15" y="-204">
17
</text>
<text dominant-baseline="middle" font-size="12" text-anchor="end" x="-15" y="-272">
22
</text>
<text dominant-baseline="middle" font-size="12" text-anchor="end" x="-15" y="-340">
27
</text>
</g>
<text font-size="12" text-anchor="middle" transform="rotate(-90 -24 -170)" x="-24" y="-182">

</text>
</g>
</g>
</svg>