<svg viewBox="0 0 600 400" xmlns="http://www.w3.org/2000/svg">
<g transform="translate(72, 364)">
<g>
<g>
<path d="M0,-2.463341 L0,-2.463341 L10.212766,-10.313031 L20.425531,-18.16272 L30.638298,-26.012411 L40.851063,-33.8621 L51.06383,-41.71179 L61.276596,-49.561478 L71.489365,-57.41117 L81.702126,-65.26086 L91.914894,-73.11055 L102.12766,-80.960236 L112.34042,-88.80993 L122.55319,-96.659615 L132.76596,-104.50931 L142.97873,-112.359 L153.19148,-120.20869 L163.40425,-128.05838 L173.61702,-135.90807 L183.82979,-143.75775 L194.04256,-151.60745 L204.25533,-159.45714 L214.46808,-167.30682 L224.68085,-175.15651 L234.89362,-183.00621 L245.10638,-190.8559 L255.31915,-206.55527 L265.53192,-214.40497 L275.7447,-222.25465 L285.95746,-230.10434 L296.17023,-237.95404 L306.38297,-245.80373 L316.59573,-253.65341 L326.8085,-261.5031 L337.02127,-269.35278 L347.23404,-277.20248 L357.4468,-285.0522" fill="none" stroke="#000000" stroke-linejoin="round" stroke-width="2"/>
</g>
<g>
<circle cx="0" cy="-2.4633410753284544" fill="#000000" r="5"/>
<circle cx="10.212765957446809" cy="-10.313030817762675" fill="#000000" r="5"/>
<circle cx="20.425531914893618" cy="-18.162720560196895" fill="#000000" r="5"/>
<circle cx="30.638297872340427" cy="-26.012410302631118" fill="#000000" r="5"/>
<circle cx="40.851063829787236" cy="-33.86210004506534" fill="#000000" r="5"/>
<circle cx="51.06382978723404" cy="-41.71178978749956" fill="#000000" r="5"/>
<circle cx="61.276595744680854" cy="-49.561479529933784" fill="#000000" r="5"/>
<circle cx="71.48936170212765" cy="-57.41116927236801" fill="#000000" r="5"/>
<circle cx="81.70212765957447" cy="-65.26085901480224" fill="#000000" r="5"/>
<circle cx="91.91489361702128" cy="-73.11054875723646" fill="#000000" r="5"/>
<circle cx="102.12765957446808" cy="-80.96023849967068" fill="#000000" r="5"/>
<circle cx="112.34042553191489" cy="-88.8099282421049" fill="#000000" r="5"/>
<circle cx="122.55319148936171" cy="-96.65961798453911" fill="#000000" r="5"/>
<circle cx="132.7659574468085" cy="-104.50930772697333" fill="#000000" r="5"/>
<circle cx="142.9787234042553" cy="-112.35899746940756" fill="#000000" r="5"/>
<circle cx="153.19148936170214" cy="-120.20868721184178" fill="#000000" r="5"/>
<circle cx="163.40425531914894" cy="-128.05837695427599" fill="#000000" r="5"/>
<circle cx="173.61702127659575" cy="-135.90806669671022" fill="#000000" r="5"/>
<circle cx="183.82978723404256" cy="-143.75775643914443" fill="#000000" r="5"/>
<circle cx="194.04255319148936" cy="-151.60744618157867" fill="#000000" r="5"/>
<circle cx="204.25531914893617" cy="-159.45713592401287" fill="#000000" r="5"/>
<circle cx="214.46808510638297" cy="-167.3068256664471" fill="#000000" r="5"/>
<circle cx="224.68085106382978" cy="-175.15651540888132" fill="#000000" r="5"/>
<circle cx="234.89361702127658" cy="-183.00620515131556" fill="#000000" r="5"/>
<circle cx="245.10638297872342" cy="-190.85589489374976" fill="#000000" r="5"/>
<circle cx="255.31914893617022" cy="-206.55527437861818" fill="#000000" r="5"/>
<circle cx="265.531914893617" cy="-214.40496412105242" fill="#000000" r="5"/>
<circle cx="275.74468085106383" cy="-222.25465386348662" fill="#000000" r="5"/>
<circle cx="285.9574468085106" cy="-230.10434360592086" fill="#000000" r="5"/>
<circle cx="296.17021276595744" cy="-237.95403334835507" fill="#000000" r="5"/>
<circle cx="306.3829787234043" cy="-245.8037230907893" fill="#000000" r="5"/>
<circle cx="316.59574468085106" cy="-253.65341283322357" fill="#000000" r="5"/>
<circle cx="326.8085106382979" cy="-261.5031025756578" fill="#000000" r="5"/>
<circle cx="337.02127659574467" cy="-269.352792318092" fill="#000000" r="5"/>
<circle cx="347.2340425531915" cy="-277.2024820605262" fill="#000000" r="5"/>
<circle cx="357.4468085106383" cy="-285.05217180296046" fill="#000000" r="5"/>
</g>
</g>
<g>
<g>
<path d="M10.212766,-2.463341 L10.212766,-2.463341 L20.425531,-5.603217 L30.638298,-10.627018 L40.851063,-16.781176 L51.06383,-23.613544 L61.276596,-30.852842 L71.489365,-38.336296 L81.702126,-45.966248 L91.914894,-53.68409 L102.12766,-61.454674 L112.34042,-69.2569 L122.55319,-77.07811 L132.76596,-84.91071 L142.97873,-92.75015 L153.19148,-100.59369 L163.40425,-108.43969 L173.61702,-116.28716 L183.82979,-124.13553 L194.04256,-131.98442 L204.25533,-139.83363 L214.46808,-147.68303 L224.68085,-155.53255 L234.89362,-163.38214 L245.10638,-171.23177 L255.31915,-179.08142 L265.53192,-190.07095 L275.7447,-199.80457 L285.95746,-208.78459 L296.17023,-217.3125 L306.38297,-225.5691 L316.59573,-233.66295 L326.8085,-241.65913 L337.02127,-249.59673 L347.23404,-257.49915 L357.4468,-265.3805" fill="none" stroke="#af0af6" stroke-linejoin="round" stroke-width="2"/>
</g>
<g>
<circle cx="10.212765957446809" cy="-2.4633410753284544" fill="#af0af6" r="5"/>
<circle cx="20.425531914893618" cy="-5.603216972302142" fill="#af0af6" r="5"/>
<circle cx="30.638297872340427" cy="-10.627018407460044" fill="#af0af6" r="5"/>
<circle cx="40.851063829787236" cy="-16.781175165528474" fill="#af0af6" r="5"/>
<circle cx="51.06382978723404" cy="-23.613545117343218" fill="#af0af6" r="5"/>
<circle cx="61.276595744680854" cy="-30.852842985405758" fill="#af0af6" r="5"/>
<circle cx="71.48936170212765" cy="-38.33629760321696" fill="#af0af6" r="5"/>
<circle cx="81.70212765957447" cy="-45.96624627087738" fill="#af0af6" r="5"/>
<circle cx="91.91489361702128" cy="-53.68409136844731" fill="#af0af6" r="5"/>
<circle cx="102.12765957446808" cy="-61.45467432396296" fill="#af0af6" r="5"/>
<circle cx="112.34042553191489" cy="-69.25689999424604" fill="#af0af6" r="5"/>
<circle cx="122.55319148936171" cy="-77.07811129338958" fill="#af0af6" r="5"/>
<circle cx="132.7659574468085" cy="-84.9107139698494" fill="#af0af6" r="5"/>
<circle cx="142.9787234042553" cy="-92.75015147269899" fill="#af0af6" r="5"/>
<circle cx="153.19148936170214" cy="-100.59368987138241" fill="#af0af6" r="5"/>
<circle cx="163.40425531914894" cy="-108.43968880756616" fill="#af0af6" r="5"/>
<circle cx="173.61702127659575" cy="-116.2871640662501" fill="#af0af6" r="5"/>
<circle cx="183.82978723404256" cy="-124.13552511843416" fill="#af0af6" r="5"/>
<circle cx="194.04255319148936" cy="-131.98441764671824" fill="#af0af6" r="5"/>
<circle cx="204.25531914893617" cy="-139.83362906066242" fill="#af0af6" r="5"/>
<circle cx="214.46808510638297" cy="-147.6830318060026" fill="#af0af6" r="5"/>
<circle cx="224.68085106382978" cy="-155.5325493501804" fill="#af0af6" r="5"/>
<circle cx="234.89361702127658" cy="-163.38213577366076" fill="#af0af6" r="5"/>
<circle cx="245.10638297872342" cy="-171.23176352472268" fill="#af0af6" r="5"/>
<circle cx="255.31914893617022" cy="-179.0814160723335" fill="#af0af6" r="5"/>
<circle cx="265.531914893617" cy="-190.0709593948474" fill="#af0af6" r="5"/>
<circle cx="275.74468085106383" cy="-199.8045612853294" fill="#af0af6" r="5"/>
<circle cx="285.9574468085106" cy="-208.7845983165923" fill="#af0af6" r="5"/>
<circle cx="296.17021276595744" cy="-217.3124964323237" fill="#af0af6" r="5"/>
<circle cx="306.3829787234043" cy="-225.56911119873624" fill="#af0af6" r="5"/>
<circle cx="316.59574468085106" cy="-233.66295595555746" fill="#af0af6" r="5"/>
<circle cx="326.8085106382979" cy="-241.65913870662393" fill="#af0af6" r="5"/>
<circle cx="337.02127659574467" cy="-249.5967242542375" fill="#af0af6" r="5"/>
<circle cx="347.2340425531915" cy="-257.4991514797793" fill="#af0af6" r="5"/>
<circle cx="357.4468085106383" cy="-265.3804837120781" fill="#af0af6" r="5"/>
</g>
</g>
<g>
<g>
<path d="M0,0 L0,0 L10.212766,-8.12751 L20.425531,-16.25502 L30.638298,-24.38253 L40.851063,-32.51004 L51.06383,-40.63755 L61.276596,-48.76506 L71.489365,-56.89257 L81.702126,-65.02008 L91.914894,-73.14759 L102.12766,-81.2751 L112.34042,-89.40261 L122.55319,-97.53012 L132.76596,-105.65763 L142.97873,-113.78514 L153.19148,-121.91265 L163.40425,-130.04016 L173.61702,-138.16768 L183.82979,-146.29518 L194.04256,-154.4227 L204.25533,-162.5502 L214.46808,-170.67772 L224.68085,-178.80522 L234.89362,-186.93274 L245.10638,-195.06024 L255.31915,-203.18776 L265.53192,-211.31526 L275.7447,-219.44278 L285.95746,-227.57028 L296.17023,-235.6978 L306.38297,-243.8253 L316.59573,-251.95282 L326.8085,-260.08032 L337.02127,-268.20782 L347.23404,-276.33536 L357.4468,-284.46286" fill="none" stroke="#87faa4" stroke-linejoin="round" stroke-width="2"/>
</g>
<g>
<circle cx="0" cy="0" fill="#87faa4" r="5"/>
<circle cx="10.212765957446809" cy="-8.127510164463745" fill="#87faa4" r="5"/>
<circle cx="20.425531914893618" cy="-16.25502032892749" fill="#87faa4" r="5"/>
<circle cx="30.638297872340427" cy="-24.382530493391236" fill="#87faa4" r="5"/>
<circle cx="40.851063829787236" cy="-32.51004065785499" fill="#87faa4" r="5"/>
<circle cx="51.06382978723404" cy="-40.63755082231872" fill="#87faa4" r="5"/>
<circle cx="61.276595744680854" cy="-48.76506098678247" fill="#87faa4" r="5"/>
<circle cx="71.48936170212765" cy="-56.89257115124622" fill="#87faa4" r="5"/>
<circle cx="81.70212765957447" cy="-65.02008131570997" fill="#87faa4" r="5"/>
<circle cx="91.91489361702128" cy="-73.14759148017373" fill="#87faa4" r="5"/>
<circle cx="102.12765957446808" cy="-81.27510164463749" fill="#87faa4" r="5"/>
<circle cx="112.34042553191489" cy="-89.4026118091012" fill="#87faa4" r="5"/>
<circle cx="122.55319148936171" cy="-97.53012197356495" fill="#87faa4" r="5"/>
<circle cx="132.7659574468085" cy="-105.6576321380287" fill="#87faa4" r="5"/>
<circle cx="142.9787234042553" cy="-113.78514230249245" fill="#87faa4" r="5"/>
<circle cx="153.19148936170214" cy="-121.9126524669562" fill="#87faa4" r="5"/>
<circle cx="163.40425531914894" cy="-130.04016263141995" fill="#87faa4" r="5"/>
<circle cx="173.61702127659575" cy="-138.16767279588368" fill="#87faa4" r="5"/>
<circle cx="183.82978723404256" cy="-146.29518296034743" fill="#87faa4" r="5"/>
<circle cx="194.04255319148936" cy="-154.4226931248112" fill="#87faa4" r="5"/>
<circle cx="204.25531914893617" cy="-162.55020328927492" fill="#87faa4" r="5"/>
<circle cx="214.46808510638297" cy="-170.67771345373868" fill="#87faa4" r="5"/>
<circle cx="224.68085106382978" cy="-178.8052236182024" fill="#87faa4" r="5"/>
<circle cx="234.89361702127658" cy="-186.93273378266613" fill="#87faa4" r="5"/>
<circle cx="245.10638297872342" cy="-195.0602439471299" fill="#87faa4" r="5"/>
<circle cx="255.31914893617022" cy="-203.18775411159365" fill="#87faa4" r="5"/>
<circle cx="265.531914893617" cy="-211.31526427605738" fill="#87faa4" r="5"/>
<circle cx="275.74468085106383" cy="-219.4427744405211" fill="#87faa4" r="5"/>
<circle cx="285.9574468085106" cy="-227.5702846049849" fill="#87faa4" r="5"/>
<circle cx="296.17021276595744" cy="-235.69779476944862" fill="#87faa4" r="5"/>
<circle cx="306.3829787234043" cy="-243.8253049339124" fill="#87faa4" r="5"/>
<circle cx="316.59574468085106" cy="-251.95281509837613" fill="#87faa4" r="5"/>
<circle cx="326.8085106382979" cy="-260.0803252628399" fill="#87faa4" r="5"/>
<circle cx="337.02127659574467" cy="-268.2078354273037" fill="#87faa4" r="5"/>
<circle cx="347.2340425531915" cy="-276.33534559176735" fill="#87faa4" r="5"/>
<circle cx="357.4468085106383" cy="-284.46285575623114" fill="#87faa4" r="5"/>
</g>
</g>
<g>
<g>
<path d="M367.65958,-257.49915 L367.65958,-257.49915 L377.87234,-324.30063 L388.0851,-222.25465 L398.29788,-261.5031 L408.51065,-285.0522 L418.72342,-292.90186 L428.93616,-300.75156 L439.14893,-308.60123 L449.3617,-316.45093 L459.57446,-324.30063 L469.78723,-332.1503 L480,-340" fill="none" stroke="#ff00a2" stroke-linejoin="round" stroke-width="2"/>
</g>
<g>
<circle cx="367.6595744680851" cy="-257.4991514797793" fill="#ff00a2" r="5"/>
<circle cx="377.8723404255319" cy="-324.3006205151316" fill="#ff00a2" r="5"/>
<circle cx="388.0851063829787" cy="-222.25465386348662" fill="#ff00a2" r="5"/>
<circle cx="398.29787234042556" cy="-261.5031025756578" fill="#ff00a2" r="5"/>
<circle cx="408.51063829787233" cy="-285.05217180296046" fill="#ff00a2" r="5"/>
<circle cx="418.72340425531917" cy="-292.9018615453947" fill="#ff00a2" r="5"/>
<circle cx="428.93617021276594" cy="-300.7515512878289" fill="#ff00a2" r="5"/>
<circle cx="439.1489361702128" cy="-308.6012410302631" fill="#ff00a2" r="5"/>
<circle cx="449.36170212765956" cy="-316.45093077269735" fill="#ff00a2" r="5"/>
<circle cx="459.5744680851064" cy="-324.3006205151316" fill="#ff00a2" r="5"/>
<circle cx="469.78723404255317" cy="-332.15031025756576" fill="#ff00a2" r="5"/>
<circle cx="480" cy="-340" fill="#ff00a2" r="5"/>
</g>
</g>
<g>
<g>
<line stroke="black" stroke-width="1" x1="0" x2="0" y1="0" y2="10"/>
<line stroke="black" stroke-width="1" x1="102.12765957446808" x2="102.12765957446808" y1="0" y2="10"/>
<line stroke="black" stroke-width="1" x1="204.25531914893617" x2="204.25531914893617" y1="0" y2="10"/>
<line stroke="black" stroke-width="1" x1="306.3829787234043" x2="306.3829787234043" y1="0" y2="10"/>
<line stroke="black" stroke-width="1" x1="408.51063829787233" x2="408.51063829787233" y1="0" y2="10"/>
</g>
<line stroke="black" stroke-width="1" x1="0" x2="480" y1="0" y2="0"/>
<g>
<text font-size="12" text-anchor="middle" x="0" y="20">
1
</text>
<text font-size="12" text-anchor="middle" x="102.12765957446808" y="20">
11
</text>
<text font-size="12" text-anchor="middle" x="204.25531914893617" y="20">
21
</text>
<text font-size="12" text-anchor="middle" x="306.3829787234043" y="20">
31
</text>
<text font-size="12" text-anchor="middle" x="408.51063829787233" y="20">
41
</text>
</g>
<text font-size="12" text-anchor="middle" x="240" y="30">

</text>
</g>
<g>
<g>
<line stroke="black" stroke-width="1" x1="0" x2="-10" y1="-0.000029937255170793934" y2="-0.000029937255170793934"/>
<line stroke="black" stroke-width="1" x1="0" x2="-10" y1="-78.4969273615974" y2="-78.4969273615974"/>
<line stroke="black" stroke-width="1" x1="0" x2="-10" y1="-156.99382478593958" y2="-156.99382478593958"/>
<line stroke="black" stroke-width="1" x1="0" x2="-10" y1="-235.49072221028183" y2="-235.49072221028183"/>
<line stroke="black" stroke-width="1" x1="0" x2="-10" y1="-313.9876196346241" y2="-313.9876196346241"/>
</g>
<line stroke="black" stroke-width="1" x1="0" x2="0" y1="0" y2="-340"/>
<g>
<text dominant-baseline="middle" font-size="12" text-anchor="end" x="-15" y="-0.000029937255170793934">
0.68619
</text>
<text dominant-baseline="middle" font-size="12" text-anchor="end" x="-15" y="-78.4969273615974">
10.68619
</text>
<text dominant-baseline="middle" font-size="12" text-anchor="end" x="-15" y="-156.99382478593958">
20.68619
</text>
<text dominant-baseline="middle" font-size="12" text-anchor="end" x="-15" y="-235.49072221028183">
30.68619
</text>
<text dominant-baseline="middle" font-size="12" text-anchor="end" x="-15" y="-313.9876196346241">
40.68619
</text>
</g>
<text font-size="12" text-anchor="middle" transform="rotate(-90 -96 -170)" x="-96" y="-182">

</text>
</g>
</g>
</svg>