<svg viewBox="0 0 600 400" xmlns="http://www.w3.org/2000/svg">
<g transform="translate(72, 364)">
<g>
<g>
<path d="M0,-4.667525 L0,-4.667525 L10.212766,-12.981553 L20.425531,-9.77263 L30.638298,-12.981553 L40.851063,-79.63964 L51.06383,-6.2719865 L61.276596,-128.21107 L71.489365,-81.973404 L81.702126,-33.839554 L91.914894,-340 L102.12766,-4.667525 L112.34042,-1.7503217 L122.55319,-6.2719865 L132.76596,-1.1668812 L142.97873,-90.87087 L153.19148,-4.9592447 L163.40425,0 L173.61702,-11.377091 L183.82979,-81.973404 L194.04256,-12.981553 L204.25533,-90.87087 L214.46808,-48.425568 L224.68085,-1.7503217 L234.89362,-1.7503217 L245.10638,-11.377091 L255.31915,-8.168168 L265.53192,-13.127413 L275.7447,-4.9592447 L285.95746,-8.168168 L296.17023,-12.981553 L306.38297,-11.085371 L316.59573,-6.2719865 L326.8085,-12.981553 L337.02127,-6.2719865 L347.23404,-4.667525 L357.4468,-3.3547833" fill="none" stroke="#000000" stroke-linejoin="round" stroke-width="2"/>
</g>
<g>
<circle cx="0" cy="-4.667524667524668" fill="#000000" r="5"/>
<circle cx="10.212765957446809" cy="-12.981552981552982" fill="#000000" r="5"/>
<circle cx="20.425531914893618" cy="-9.772629772629772" fill="#000000" r="5"/>
<circle cx="30.638297872340427" cy="-12.981552981552982" fill="#000000" r="5"/>
<circle cx="40.851063829787236" cy="-79.63963963963964" fill="#000000" r="5"/>
<circle cx="51.06382978723404" cy="-6.271986271986272" fill="#000000" r="5"/>
<circle cx="61.276595744680854" cy="-128.2110682110682" fill="#000000" r="5"/>
<circle cx="71.48936170212765" cy="-81.97340197340198" fill="#000000" r="5"/>
<circle cx="81.70212765957447" cy="-33.83955383955384" fill="#000000" r="5"/>
<circle cx="91.91489361702128" cy="-340" fill="#000000" r="5"/>
<circle cx="102.12765957446808" cy="-4.667524667524668" fill="#000000" r="5"/>
<circle cx="112.34042553191489" cy="-1.7503217503217503" fill="#000000" r="5"/>
<circle cx="122.55319148936171" cy="-6.271986271986272" fill="#000000" r="5"/>
<circle cx="132.7659574468085" cy="-1.166881166881167" fill="#000000" r="5"/>
<circle cx="142.9787234042553" cy="-90.87087087087087" fill="#000000" r="5"/>
<circle cx="153.19148936170214" cy="-4.959244959244959" fill="#000000" r="5"/>
<circle cx="163.40425531914894" cy="0" fill="#000000" r="5"/>
<circle cx="173.61702127659575" cy="-11.377091377091377" fill="#000000" r="5"/>
<circle cx="183.82978723404256" cy="-81.97340197340198" fill="#000000" r="5"/>
<circle cx="194.04255319148936" cy="-12.981552981552982" fill="#000000" r="5"/>
<circle cx="204.25531914893617" cy="-90.87087087087087" fill="#000000" r="5"/>
<circle cx="214.46808510638297" cy="-48.42556842556843" fill="#000000" r="5"/>
<circle cx="224.68085106382978" cy="-1.7503217503217503" fill="#000000" r="5"/>
<circle cx="234.89361702127658" cy="-1.7503217503217503" fill="#000000" r="5"/>
<circle cx="245.10638297872342" cy="-11.377091377091377" fill="#000000" r="5"/>
<circle cx="255.31914893617022" cy="-8.168168168168169" fill="#000000" r="5"/>
<circle cx="265.531914893617" cy="-13.127413127413128" fill="#000000" r="5"/>
<circle cx="275.74468085106383" cy="-4.959244959244959" fill="#000000" r="5"/>
<circle cx="285.9574468085106" cy="-8.168168168168169" fill="#000000" r="5"/>
<circle cx="296.17021276595744" cy="-12.981552981552982" fill="#000000" r="5"/>
<circle cx="306.3829787234043" cy="-11.085371085371085" fill="#000000" r="5"/>
<circle cx="316.59574468085106" cy="-6.271986271986272" fill="#000000" r="5"/>
<circle cx="326.8085106382979" cy="-12.981552981552982" fill="#000000" r="5"/>
<circle cx="337.02127659574467" cy="-6.271986271986272" fill="#000000" r="5"/>
<circle cx="347.2340425531915" cy="-4.667524667524668" fill="#000000" r="5"/>
<circle cx="357.4468085106383" cy="-3.354783354783355" fill="#000000" r="5"/>
</g>
</g>
<g>
<g>
<path d="M10.212766,-4.667525 L10.212766,-4.667525 L20.425531,-7.993136 L30.638298,-8.704933 L40.851063,-10.415582 L51.06383,-38.105206 L61.276596,-25.371918 L71.489365,-66.507576 L81.702126,-72.69391 L91.914894,-57.152164 L102.12766,-170.2913 L112.34042,-104.04179 L122.55319,-63.125202 L132.76596,-40.383915 L142.97873,-24.697102 L153.19148,-51.16661 L163.40425,-32.683662 L173.61702,-19.610199 L183.82979,-16.316956 L194.04256,-42.579533 L204.25533,-30.740341 L214.46808,-54.792553 L224.68085,-52.245758 L234.89362,-32.047585 L245.10638,-19.928679 L255.31915,-16.508043 L265.53192,-13.172093 L275.7447,-13.154222 L285.95746,-9.876231 L296.17023,-9.193006 L306.38297,-10.708425 L316.59573,-10.859203 L326.8085,-9.024317 L337.02127,-10.607211 L347.23404,-8.873121 L357.4468,-7.1908827" fill="none" stroke="#af0af6" stroke-linejoin="round" stroke-width="2"/>
</g>
<g>
<circle cx="10.212765957446809" cy="-4.667524667524668" fill="#af0af6" r="5"/>
<circle cx="20.425531914893618" cy="-7.9931359931359935" fill="#af0af6" r="5"/>
<circle cx="30.638297872340427" cy="-8.704933504933503" fill="#af0af6" r="5"/>
<circle cx="40.851063829787236" cy="-10.415581295581292" fill="#af0af6" r="5"/>
<circle cx="51.06382978723404" cy="-38.105204633204636" fill="#af0af6" r="5"/>
<circle cx="61.276595744680854" cy="-25.371917288717288" fill="#af0af6" r="5"/>
<circle cx="71.48936170212765" cy="-66.50757765765766" fill="#af0af6" r="5"/>
<circle cx="81.70212765957447" cy="-72.69390738395539" fill="#af0af6" r="5"/>
<circle cx="91.91489361702128" cy="-57.152165966194765" fill="#af0af6" r="5"/>
<circle cx="102.12765957446808" cy="-170.29129957971688" fill="#af0af6" r="5"/>
<circle cx="112.34042553191489" cy="-104.04178961483998" fill="#af0af6" r="5"/>
<circle cx="122.55319148936171" cy="-63.12520246903269" fill="#af0af6" r="5"/>
<circle cx="132.7659574468085" cy="-40.38391599021411" fill="#af0af6" r="5"/>
<circle cx="142.9787234042553" cy="-24.697102060880933" fill="#af0af6" r="5"/>
<circle cx="153.19148936170214" cy="-51.16660958487691" fill="#af0af6" r="5"/>
<circle cx="163.40425531914894" cy="-32.683663734624126" fill="#af0af6" r="5"/>
<circle cx="173.61702127659575" cy="-19.610198240774476" fill="#af0af6" r="5"/>
<circle cx="183.82978723404256" cy="-16.316955495301233" fill="#af0af6" r="5"/>
<circle cx="194.04255319148936" cy="-42.57953408654153" fill="#af0af6" r="5"/>
<circle cx="204.25531914893617" cy="-30.740341644546113" fill="#af0af6" r="5"/>
<circle cx="214.46808510638297" cy="-54.79255333507602" fill="#af0af6" r="5"/>
<circle cx="224.68085106382978" cy="-52.245759371272975" fill="#af0af6" r="5"/>
<circle cx="234.89361702127658" cy="-32.04758432289249" fill="#af0af6" r="5"/>
<circle cx="245.10638297872342" cy="-19.928679293864196" fill="#af0af6" r="5"/>
<circle cx="255.31914893617022" cy="-16.508044127155067" fill="#af0af6" r="5"/>
<circle cx="265.531914893617" cy="-13.172093743560307" fill="#af0af6" r="5"/>
<circle cx="275.74468085106383" cy="-13.154221497101434" fill="#af0af6" r="5"/>
<circle cx="285.9574468085106" cy="-9.876230881958845" fill="#af0af6" r="5"/>
<circle cx="296.17021276595744" cy="-9.193005796442574" fill="#af0af6" r="5"/>
<circle cx="306.3829787234043" cy="-10.708424670486737" fill="#af0af6" r="5"/>
<circle cx="316.59574468085106" cy="-10.859203236440475" fill="#af0af6" r="5"/>
<circle cx="326.8085106382979" cy="-9.024316450658795" fill="#af0af6" r="5"/>
<circle cx="337.02127659574467" cy="-10.607211063016468" fill="#af0af6" r="5"/>
<circle cx="347.2340425531915" cy="-8.87312114660439" fill="#af0af6" r="5"/>
<circle cx="357.4468085106383" cy="-7.190882554972502" fill="#af0af6" r="5"/>
</g>
</g>
<g>
<g>
<path d="M0,-60.09394 L0,-60.09394 L10.212766,-58.521225 L20.425531,-56.948505 L30.638298,-55.37579 L40.851063,-53.80307 L51.06383,-52.230354 L61.276596,-50.657635 L71.489365,-49.08492 L81.702126,-47.5122 L91.914894,-45.939484 L102.12766,-44.366764 L112.34042,-42.79405 L122.55319,-41.22133 L132.76596,-39.64861 L142.97873,-38.075893 L153.19148,-36.503174 L163.40425,-34.930458 L173.61702,-33.35774 L183.82979,-31.785023 L194.04256,-30.212305 L204.25533,-28.639587 L214.46808,-27.066868 L224.68085,-25.49415 L234.89362,-23.921432 L245.10638,-22.348715 L255.31915,-20.775997 L265.53192,-19.20328 L275.7447,-17.630562 L285.95746,-16.057844 L296.17023,-14.4851265 L306.38297,-12.912409 L316.59573,-11.339691 L326.8085,-9.7669735 L337.02127,-8.194255 L347.23404,-6.6215377 L357.4468,-5.0488195" fill="none" stroke="#87faa4" stroke-linejoin="round" stroke-width="2"/>
</g>
<g>
<circle cx="0" cy="-60.093942075924055" fill="#87faa4" r="5"/>
<circle cx="10.212765957446809" cy="-58.52122429471206" fill="#87faa4" r="5"/>
<circle cx="20.425531914893618" cy="-56.94850651350007" fill="#87faa4" r="5"/>
<circle cx="30.638297872340427" cy="-55.375788732288086" fill="#87faa4" r="5"/>
<circle cx="40.851063829787236" cy="-53.8030709510761" fill="#87faa4" r="5"/>
<circle cx="51.06382978723404" cy="-52.2303531698641" fill="#87faa4" r="5"/>
<circle cx="61.276595744680854" cy="-50.65763538865211" fill="#87faa4" r="5"/>
<circle cx="71.48936170212765" cy="-49.08491760744013" fill="#87faa4" r="5"/>
<circle cx="81.70212765957447" cy="-47.512199826228134" fill="#87faa4" r="5"/>
<circle cx="91.91489361702128" cy="-45.93948204501614" fill="#87faa4" r="5"/>
<circle cx="102.12765957446808" cy="-44.36676426380416" fill="#87faa4" r="5"/>
<circle cx="112.34042553191489" cy="-42.79404648259217" fill="#87faa4" r="5"/>
<circle cx="122.55319148936171" cy="-41.22132870138018" fill="#87faa4" r="5"/>
<circle cx="132.7659574468085" cy="-39.64861092016819" fill="#87faa4" r="5"/>
<circle cx="142.9787234042553" cy="-38.075893138956204" fill="#87faa4" r="5"/>
<circle cx="153.19148936170214" cy="-36.503175357744205" fill="#87faa4" r="5"/>
<circle cx="163.40425531914894" cy="-34.93045757653222" fill="#87faa4" r="5"/>
<circle cx="173.61702127659575" cy="-33.35773979532023" fill="#87faa4" r="5"/>
<circle cx="183.82978723404256" cy="-31.785022014108236" fill="#87faa4" r="5"/>
<circle cx="194.04255319148936" cy="-30.212304232896248" fill="#87faa4" r="5"/>
<circle cx="204.25531914893617" cy="-28.63958645168426" fill="#87faa4" r="5"/>
<circle cx="214.46808510638297" cy="-27.06686867047227" fill="#87faa4" r="5"/>
<circle cx="224.68085106382978" cy="-25.494150889260283" fill="#87faa4" r="5"/>
<circle cx="234.89361702127658" cy="-23.92143310804829" fill="#87faa4" r="5"/>
<circle cx="245.10638297872342" cy="-22.348715326836302" fill="#87faa4" r="5"/>
<circle cx="255.31914893617022" cy="-20.775997545624318" fill="#87faa4" r="5"/>
<circle cx="265.531914893617" cy="-19.20327976441232" fill="#87faa4" r="5"/>
<circle cx="275.74468085106383" cy="-17.63056198320033" fill="#87faa4" r="5"/>
<circle cx="285.9574468085106" cy="-16.057844201988345" fill="#87faa4" r="5"/>
<circle cx="296.17021276595744" cy="-14.485126420776357" fill="#87faa4" r="5"/>
<circle cx="306.3829787234043" cy="-12.912408639564362" fill="#87faa4" r="5"/>
<circle cx="316.59574468085106" cy="-11.339690858352373" fill="#87faa4" r="5"/>
<circle cx="326.8085106382979" cy="-9.766973077140387" fill="#87faa4" r="5"/>
<circle cx="337.02127659574467" cy="-8.194255295928391" fill="#87faa4" r="5"/>
<circle cx="347.2340425531915" cy="-6.621537514716404" fill="#87faa4" r="5"/>
<circle cx="357.4468085106383" cy="-5.048819733504416" fill="#87faa4" r="5"/>
</g>
</g>
<g>
<g>
<path d="M367.65958,-8.873121 L367.65958,-8.873121 L377.87234,-35.735737 L388.0851,-2.1879022 L398.29788,-3.9382238 L408.51065,-15.898756 L418.72342,-9.62677 L428.93616,-5.5426855 L439.14893,-5.105105 L449.3617,-4.084084 L459.57446,-5.5426855 L469.78723,-8.897469 L480,-10.50193" fill="none" stroke="#ff00a2" stroke-linejoin="round" stroke-width="2"/>
</g>
<g>
<circle cx="367.6595744680851" cy="-8.87312114660439" fill="#ff00a2" r="5"/>
<circle cx="377.8723404255319" cy="-35.73573573573574" fill="#ff00a2" r="5"/>
<circle cx="388.0851063829787" cy="-2.187902187902188" fill="#ff00a2" r="5"/>
<circle cx="398.29787234042556" cy="-3.9382239382239383" fill="#ff00a2" r="5"/>
<circle cx="408.51063829787233" cy="-15.8987558987559" fill="#ff00a2" r="5"/>
<circle cx="418.72340425531917" cy="-9.626769626769626" fill="#ff00a2" r="5"/>
<circle cx="428.93617021276594" cy="-5.542685542685542" fill="#ff00a2" r="5"/>
<circle cx="439.1489361702128" cy="-5.105105105105105" fill="#ff00a2" r="5"/>
<circle cx="449.36170212765956" cy="-4.084084084084084" fill="#ff00a2" r="5"/>
<circle cx="459.5744680851064" cy="-5.542685542685542" fill="#ff00a2" r="5"/>
<circle cx="469.78723404255317" cy="-8.897468897468897" fill="#ff00a2" r="5"/>
<circle cx="480" cy="-10.501930501930502" fill="#ff00a2" r="5"/>
</g>
</g>
<g>
<g>
<line stroke="black" stroke-width="1" x1="0" x2="0" y1="0" y2="10"/>
<line stroke="black" stroke-width="1" x1="102.12765957446808" x2="102.12765957446808" y1="0" y2="10"/>
<line stroke="black" stroke-width="1" x1="204.25531914893617" x2="204.25531914893617" y1="0" y2="10"/>
<line stroke="black" stroke-width="1" x1="306.3829787234043" x2="306.3829787234043" y1="0" y2="10"/>
<line stroke="black" stroke-width="1" x1="408.51063829787233" x2="408.51063829787233" y1="0" y2="10"/>
</g>
<line stroke="black" stroke-width="1" x1="0" x2="480" y1="0" y2="0"/>
<g>
<text font-size="12" text-anchor="middle" x="0" y="20">
1
</text>
<text font-size="12" text-anchor="middle" x="102.12765957446808" y="20">
11
</text>
<text font-size="12" text-anchor="middle" x="204.25531914893617" y="20">
21
</text>
<text font-size="12" text-anchor="middle" x="306.3829787234043" y="20">
31
</text>
<text font-size="12" text-anchor="middle" x="408.51063829787233" y="20">
41
</text>
</g>
<text font-size="12" text-anchor="middle" x="240" y="30">

</text>
</g>
<g>
<g>
<line stroke="black" stroke-width="1" x1="0" x2="-10" y1="0" y2="0"/>
<line stroke="black" stroke-width="1" x1="0" x2="-10" y1="-58.34405834405835" y2="-58.34405834405835"/>
<line stroke="black" stroke-width="1" x1="0" x2="-10" y1="-116.6881166881167" y2="-116.6881166881167"/>
<line stroke="black" stroke-width="1" x1="0" x2="-10" y1="-175.03217503217502" y2="-175.03217503217502"/>
<line stroke="black" stroke-width="1" x1="0" x2="-10" y1="-233.3762333762334" y2="-233.3762333762334"/>
<line stroke="black" stroke-width="1" x1="0" x2="-10" y1="-291.7202917202917" y2="-291.7202917202917"/>
</g>
<line stroke="black" stroke-width="1" x1="0" x2="0" y1="0" y2="-340"/>
<g>
<text dominant-baseline="middle" font-size="12" text-anchor="end" x="-15" y="0">
0
</text>
<text dominant-baseline="middle" font-size="12" text-anchor="end" x="-15" y="-58.34405834405835">
400
</text>
<text dominant-baseline="middle" font-size="12" text-anchor="end" x="-15" y="-116.6881166881167">
800
</text>
<text dominant-baseline="middle" font-size="12" text-anchor="end" x="-15" y="-175.03217503217502">
1200
</text>
<text dominant-baseline="middle" font-size="12" text-anchor="end" x="-15" y="-233.3762333762334">
1600
</text>
<text dominant-baseline="middle" font-size="12" text-anchor="end" x="-15" y="-291.7202917202917">
2000
</text>
</g>
<text font-size="12" text-anchor="middle" transform="rotate(-90 -48 -170)" x="-48" y="-182">

</text>
</g>
</g>
</svg>