<svg viewBox="0 0 600 400" xmlns="http://www.w3.org/2000/svg">
<g transform="translate(72, 364)">
<g>
<g>
<path d="M0,-9.011213 L0,-9.011213 L10.212766,-24.954128 L20.425531,-24.954128 L30.638298,-24.954128 L40.851063,-24.954128 L51.06383,-0.34658512 L61.276596,-28.073395 L71.489365,-0.69317025 L81.702126,-270.68298 L91.914894,-0.69317025 L102.12766,-147.64526 L112.34042,-2.0795107 L122.55319,-0.34658512 L132.76596,-28.073395 L142.97873,-28.073395 L153.19148,-340 L163.40425,-31.88583 L173.61702,-0.34658512 L183.82979,-337.5739 L194.04256,-1.0397553 L204.25533,-29.11315 L214.46808,-9.011213 L224.68085,-321.63098 L234.89362,-8.664628 L245.10638,-0.69317025 L255.31915,-31.88583 L265.53192,-31.539246 L275.7447,-302.22223 L285.95746,0 L296.17023,-21.141691 L306.38297,-187.15596 L316.59573,-13.51682 L326.8085,-154.57697 L337.02127,-28.766565 L347.23404,-28.766565 L357.4468,-307.421" fill="none" stroke="#000000" stroke-linejoin="round" stroke-width="2"/>
</g>
<g>
<circle cx="0" cy="-9.011213047910296" fill="#000000" r="5"/>
<circle cx="10.212765957446809" cy="-24.954128440366972" fill="#000000" r="5"/>
<circle cx="20.425531914893618" cy="-24.954128440366972" fill="#000000" r="5"/>
<circle cx="30.638297872340427" cy="-24.954128440366972" fill="#000000" r="5"/>
<circle cx="40.851063829787236" cy="-24.954128440366972" fill="#000000" r="5"/>
<circle cx="51.06382978723404" cy="-0.34658511722731905" fill="#000000" r="5"/>
<circle cx="61.276595744680854" cy="-28.073394495412845" fill="#000000" r="5"/>
<circle cx="71.48936170212765" cy="-0.6931702344546381" fill="#000000" r="5"/>
<circle cx="81.70212765957447" cy="-270.6829765545362" fill="#000000" r="5"/>
<circle cx="91.91489361702128" cy="-0.6931702344546381" fill="#000000" r="5"/>
<circle cx="102.12765957446808" cy="-147.6452599388379" fill="#000000" r="5"/>
<circle cx="112.34042553191489" cy="-2.079510703363914" fill="#000000" r="5"/>
<circle cx="122.55319148936171" cy="-0.34658511722731905" fill="#000000" r="5"/>
<circle cx="132.7659574468085" cy="-28.073394495412845" fill="#000000" r="5"/>
<circle cx="142.9787234042553" cy="-28.073394495412845" fill="#000000" r="5"/>
<circle cx="153.19148936170214" cy="-340" fill="#000000" r="5"/>
<circle cx="163.40425531914894" cy="-31.885830784913352" fill="#000000" r="5"/>
<circle cx="173.61702127659575" cy="-0.34658511722731905" fill="#000000" r="5"/>
<circle cx="183.82978723404256" cy="-337.57390417940877" fill="#000000" r="5"/>
<circle cx="194.04255319148936" cy="-1.039755351681957" fill="#000000" r="5"/>
<circle cx="204.25531914893617" cy="-29.1131498470948" fill="#000000" r="5"/>
<circle cx="214.46808510638297" cy="-9.011213047910296" fill="#000000" r="5"/>
<circle cx="224.68085106382978" cy="-321.6309887869521" fill="#000000" r="5"/>
<circle cx="234.89361702127658" cy="-8.664627930682977" fill="#000000" r="5"/>
<circle cx="245.10638297872342" cy="-0.6931702344546381" fill="#000000" r="5"/>
<circle cx="255.31914893617022" cy="-31.885830784913352" fill="#000000" r="5"/>
<circle cx="265.531914893617" cy="-31.539245667686036" fill="#000000" r="5"/>
<circle cx="275.74468085106383" cy="-302.22222222222223" fill="#000000" r="5"/>
<circle cx="285.9574468085106" cy="0" fill="#000000" r="5"/>
<circle cx="296.17021276595744" cy="-21.14169215086646" fill="#000000" r="5"/>
<circle cx="306.3829787234043" cy="-187.1559633027523" fill="#000000" r="5"/>
<circle cx="316.59574468085106" cy="-13.516819571865444" fill="#000000" r="5"/>
<circle cx="326.8085106382979" cy="-154.5769622833843" fill="#000000" r="5"/>
<circle cx="337.02127659574467" cy="-28.766564729867483" fill="#000000" r="5"/>
<circle cx="347.2340425531915" cy="-28.766564729867483" fill="#000000" r="5"/>
<circle cx="357.4468085106383" cy="-307.420998980632" fill="#000000" r="5"/>
</g>
</g>
<g>
<g>
<path d="M10.212766,-9.011213 L10.212766,-9.011213 L20.425531,-15.388379 L30.638298,-19.21468 L40.851063,-21.510458 L51.06383,-22.887926 L61.276596,-13.87139 L71.489365,-19.552193 L81.702126,-12.008583 L91.914894,-115.47834 L102.12766,-69.56427 L112.34042,-100.79667 L122.55319,-61.309803 L132.76596,-36.92452 L142.97873,-33.384068 L153.19148,-31.259798 L163.40425,-154.75587 L173.61702,-105.60786 L183.82979,-63.50335 L194.04256,-173.13158 L204.25533,-104.294846 L214.46808,-74.22217 L224.68085,-48.137787 L234.89362,-157.53506 L245.10638,-97.98689 L255.31915,-59.069405 L265.53192,-48.195972 L275.7447,-41.533283 L285.95746,-145.80885 L296.17023,-87.48531 L306.38297,-60.947865 L316.59573,-111.43111 L326.8085,-72.26539 L337.02127,-105.19002 L347.23404,-74.620636 L357.4468,-56.279007" fill="none" stroke="#af0af6" stroke-linejoin="round" stroke-width="2"/>
</g>
<g>
<circle cx="10.212765957446809" cy="-9.011213047910296" fill="#af0af6" r="5"/>
<circle cx="20.425531914893618" cy="-15.388379204892969" fill="#af0af6" r="5"/>
<circle cx="30.638297872340427" cy="-19.21467889908257" fill="#af0af6" r="5"/>
<circle cx="40.851063829787236" cy="-21.510458715596332" fill="#af0af6" r="5"/>
<circle cx="51.06382978723404" cy="-22.887926605504585" fill="#af0af6" r="5"/>
<circle cx="61.276595744680854" cy="-13.871390010193679" fill="#af0af6" r="5"/>
<circle cx="71.48936170212765" cy="-19.552191804281346" fill="#af0af6" r="5"/>
<circle cx="81.70212765957447" cy="-12.008583176350664" fill="#af0af6" r="5"/>
<circle cx="91.91489361702128" cy="-115.47834052762488" fill="#af0af6" r="5"/>
<circle cx="102.12765957446808" cy="-69.56427241035678" fill="#af0af6" r="5"/>
<circle cx="112.34042553191489" cy="-100.79666742174923" fill="#af0af6" r="5"/>
<circle cx="122.55319148936171" cy="-61.3098047343951" fill="#af0af6" r="5"/>
<circle cx="132.7659574468085" cy="-36.92451688752799" fill="#af0af6" r="5"/>
<circle cx="142.9787234042553" cy="-33.38406793068194" fill="#af0af6" r="5"/>
<circle cx="153.19148936170214" cy="-31.259798556574292" fill="#af0af6" r="5"/>
<circle cx="163.40425531914894" cy="-154.75587913394457" fill="#af0af6" r="5"/>
<circle cx="173.61702127659575" cy="-105.60785979433207" fill="#af0af6" r="5"/>
<circle cx="183.82978723404256" cy="-63.50334992349017" fill="#af0af6" r="5"/>
<circle cx="194.04255319148936" cy="-173.1315716258576" fill="#af0af6" r="5"/>
<circle cx="204.25531914893617" cy="-104.29484511618735" fill="#af0af6" r="5"/>
<circle cx="214.46808510638297" cy="-74.22216700855033" fill="#af0af6" r="5"/>
<circle cx="224.68085106382978" cy="-48.137785424294314" fill="#af0af6" r="5"/>
<circle cx="234.89361702127658" cy="-157.53506676935743" fill="#af0af6" r="5"/>
<circle cx="245.10638297872342" cy="-97.98689123388763" fill="#af0af6" r="5"/>
<circle cx="255.31914893617022" cy="-59.069402834114435" fill="#af0af6" r="5"/>
<circle cx="265.531914893617" cy="-48.19597401443401" fill="#af0af6" r="5"/>
<circle cx="275.74468085106383" cy="-41.53328267573482" fill="#af0af6" r="5"/>
<circle cx="285.9574468085106" cy="-145.8088584943298" fill="#af0af6" r="5"/>
<circle cx="296.17021276595744" cy="-87.48531509659786" fill="#af0af6" r="5"/>
<circle cx="306.3829787234043" cy="-60.947865918305304" fill="#af0af6" r="5"/>
<circle cx="316.59574468085106" cy="-111.43110487208409" fill="#af0af6" r="5"/>
<circle cx="326.8085106382979" cy="-72.26539075199663" fill="#af0af6" r="5"/>
<circle cx="337.02127659574467" cy="-105.1900193645517" fill="#af0af6" r="5"/>
<circle cx="347.2340425531915" cy="-74.62063751067801" fill="#af0af6" r="5"/>
<circle cx="357.4468085106383" cy="-56.279008398353795" fill="#af0af6" r="5"/>
</g>
</g>
<g>
<g>
<path d="M0,-34.391026 L0,-34.391026 L10.212766,-36.874218 L20.425531,-39.35741 L30.638298,-41.8406 L40.851063,-44.32379 L51.06383,-46.80698 L61.276596,-49.290173 L71.489365,-51.773365 L81.702126,-54.256554 L91.914894,-56.739746 L102.12766,-59.222935 L112.34042,-61.706127 L122.55319,-64.189316 L132.76596,-66.67251 L142.97873,-69.1557 L153.19148,-71.63889 L163.40425,-74.122086 L173.61702,-76.60527 L183.82979,-79.08846 L194.04256,-81.571655 L204.25533,-84.05485 L214.46808,-86.53804 L224.68085,-89.021225 L234.89362,-91.50442 L245.10638,-93.98761 L255.31915,-96.4708 L265.53192,-98.953995 L275.7447,-101.43718 L285.95746,-103.92037 L296.17023,-106.403564 L306.38297,-108.88676 L316.59573,-111.36995 L326.8085,-113.853134 L337.02127,-116.33633 L347.23404,-118.81952 L357.4468,-121.30271" fill="none" stroke="#87faa4" stroke-linejoin="round" stroke-width="2"/>
</g>
<g>
<circle cx="0" cy="-34.39102711273966" fill="#87faa4" r="5"/>
<circle cx="10.212765957446809" cy="-36.874218036297556" fill="#87faa4" r="5"/>
<circle cx="20.425531914893618" cy="-39.35740895985545" fill="#87faa4" r="5"/>
<circle cx="30.638297872340427" cy="-41.84059988341335" fill="#87faa4" r="5"/>
<circle cx="40.851063829787236" cy="-44.32379080697124" fill="#87faa4" r="5"/>
<circle cx="51.06382978723404" cy="-46.80698173052914" fill="#87faa4" r="5"/>
<circle cx="61.276595744680854" cy="-49.29017265408704" fill="#87faa4" r="5"/>
<circle cx="71.48936170212765" cy="-51.77336357764493" fill="#87faa4" r="5"/>
<circle cx="81.70212765957447" cy="-54.25655450120282" fill="#87faa4" r="5"/>
<circle cx="91.91489361702128" cy="-56.73974542476071" fill="#87faa4" r="5"/>
<circle cx="102.12765957446808" cy="-59.22293634831862" fill="#87faa4" r="5"/>
<circle cx="112.34042553191489" cy="-61.70612727187651" fill="#87faa4" r="5"/>
<circle cx="122.55319148936171" cy="-64.18931819543441" fill="#87faa4" r="5"/>
<circle cx="132.7659574468085" cy="-66.67250911899231" fill="#87faa4" r="5"/>
<circle cx="142.9787234042553" cy="-69.1557000425502" fill="#87faa4" r="5"/>
<circle cx="153.19148936170214" cy="-71.6388909661081" fill="#87faa4" r="5"/>
<circle cx="163.40425531914894" cy="-74.12208188966599" fill="#87faa4" r="5"/>
<circle cx="173.61702127659575" cy="-76.60527281322389" fill="#87faa4" r="5"/>
<circle cx="183.82978723404256" cy="-79.08846373678178" fill="#87faa4" r="5"/>
<circle cx="194.04255319148936" cy="-81.57165466033968" fill="#87faa4" r="5"/>
<circle cx="204.25531914893617" cy="-84.05484558389757" fill="#87faa4" r="5"/>
<circle cx="214.46808510638297" cy="-86.53803650745547" fill="#87faa4" r="5"/>
<circle cx="224.68085106382978" cy="-89.02122743101337" fill="#87faa4" r="5"/>
<circle cx="234.89361702127658" cy="-91.50441835457124" fill="#87faa4" r="5"/>
<circle cx="245.10638297872342" cy="-93.98760927812916" fill="#87faa4" r="5"/>
<circle cx="255.31914893617022" cy="-96.47080020168706" fill="#87faa4" r="5"/>
<circle cx="265.531914893617" cy="-98.95399112524495" fill="#87faa4" r="5"/>
<circle cx="275.74468085106383" cy="-101.43718204880287" fill="#87faa4" r="5"/>
<circle cx="285.9574468085106" cy="-103.92037297236075" fill="#87faa4" r="5"/>
<circle cx="296.17021276595744" cy="-106.40356389591865" fill="#87faa4" r="5"/>
<circle cx="306.3829787234043" cy="-108.88675481947654" fill="#87faa4" r="5"/>
<circle cx="316.59574468085106" cy="-111.36994574303444" fill="#87faa4" r="5"/>
<circle cx="326.8085106382979" cy="-113.85313666659232" fill="#87faa4" r="5"/>
<circle cx="337.02127659574467" cy="-116.33632759015022" fill="#87faa4" r="5"/>
<circle cx="347.2340425531915" cy="-118.81951851370812" fill="#87faa4" r="5"/>
<circle cx="357.4468085106383" cy="-121.302709437266" fill="#87faa4" r="5"/>
</g>
</g>
<g>
<g>
<path d="M367.65958,-74.620636 L367.65958,-74.620636 L377.87234,-46.442406 L388.0851,-1.7329255 L398.29788,-42.976555 L408.51065,-224.93375 L418.72342,-129.96942 L428.93616,-33.96534 L439.14893,-139.32722 L449.3617,-196.86035 L459.57446,-134.47502 L469.78723,-198.24669 L480,-120.61162" fill="none" stroke="#ff00a2" stroke-linejoin="round" stroke-width="2"/>
</g>
<g>
<circle cx="367.6595744680851" cy="-74.62063751067801" fill="#ff00a2" r="5"/>
<circle cx="377.8723404255319" cy="-46.442405708460754" fill="#ff00a2" r="5"/>
<circle cx="388.0851063829787" cy="-1.7329255861365953" fill="#ff00a2" r="5"/>
<circle cx="398.29787234042556" cy="-42.976554536187564" fill="#ff00a2" r="5"/>
<circle cx="408.51063829787233" cy="-224.93374108053007" fill="#ff00a2" r="5"/>
<circle cx="418.72340425531917" cy="-129.96941896024464" fill="#ff00a2" r="5"/>
<circle cx="428.93617021276594" cy="-33.96534148827727" fill="#ff00a2" r="5"/>
<circle cx="439.1489361702128" cy="-139.32721712538228" fill="#ff00a2" r="5"/>
<circle cx="449.36170212765956" cy="-196.8603465851172" fill="#ff00a2" r="5"/>
<circle cx="459.5744680851064" cy="-134.4750254841998" fill="#ff00a2" r="5"/>
<circle cx="469.78723404255317" cy="-198.2466870540265" fill="#ff00a2" r="5"/>
<circle cx="480" cy="-120.61162079510703" fill="#ff00a2" r="5"/>
</g>
</g>
<g>
<g>
<line stroke="black" stroke-width="1" x1="0" x2="0" y1="0" y2="10"/>
<line stroke="black" stroke-width="1" x1="102.12765957446808" x2="102.12765957446808" y1="0" y2="10"/>
<line stroke="black" stroke-width="1" x1="204.25531914893617" x2="204.25531914893617" y1="0" y2="10"/>
<line stroke="black" stroke-width="1" x1="306.3829787234043" x2="306.3829787234043" y1="0" y2="10"/>
<line stroke="black" stroke-width="1" x1="408.51063829787233" x2="408.51063829787233" y1="0" y2="10"/>
</g>
<line stroke="black" stroke-width="1" x1="0" x2="480" y1="0" y2="0"/>
<g>
<text font-size="12" text-anchor="middle" x="0" y="20">
1
</text>
<text font-size="12" text-anchor="middle" x="102.12765957446808" y="20">
11
</text>
<text font-size="12" text-anchor="middle" x="204.25531914893617" y="20">
21
</text>
<text font-size="12" text-anchor="middle" x="306.3829787234043" y="20">
31
</text>
<text font-size="12" text-anchor="middle" x="408.51063829787233" y="20">
41
</text>
</g>
<text font-size="12" text-anchor="middle" x="240" y="30">

</text>
</g>
<g>
<g>
<line stroke="black" stroke-width="1" x1="0" x2="-10" y1="0" y2="0"/>
<line stroke="black" stroke-width="1" x1="0" x2="-10" y1="-69.31702344546382" y2="-69.31702344546382"/>
<line stroke="black" stroke-width="1" x1="0" x2="-10" y1="-138.63404689092764" y2="-138.63404689092764"/>
<line stroke="black" stroke-width="1" x1="0" x2="-10" y1="-207.95107033639144" y2="-207.95107033639144"/>
<line stroke="black" stroke-width="1" x1="0" x2="-10" y1="-277.26809378185527" y2="-277.26809378185527"/>
</g>
<line stroke="black" stroke-width="1" x1="0" x2="0" y1="0" y2="-340"/>
<g>
<text dominant-baseline="middle" font-size="12" text-anchor="end" x="-15" y="0">
6
</text>
<text dominant-baseline="middle" font-size="12" text-anchor="end" x="-15" y="-69.31702344546382">
206
</text>
<text dominant-baseline="middle" font-size="12" text-anchor="end" x="-15" y="-138.63404689092764">
406
</text>
<text dominant-baseline="middle" font-size="12" text-anchor="end" x="-15" y="-207.95107033639144">
606
</text>
<text dominant-baseline="middle" font-size="12" text-anchor="end" x="-15" y="-277.26809378185527">
806
</text>
</g>
<text font-size="12" text-anchor="middle" transform="rotate(-90 -36 -170)" x="-36" y="-182">

</text>
</g>
</g>
</svg>