<svg viewBox="0 0 600 400" xmlns="http://www.w3.org/2000/svg">
<g transform="translate(72, 364)">
<g>
<g>
<path d="M0,-0.9791759 L0,-0.9791759 L10.212766,-2.711564 L20.425531,-2.711564 L30.638298,-2.711564 L40.851063,-2.711564 L51.06383,-0.03766061 L61.276596,-3.0505095 L71.489365,-0.07532122 L81.702126,-29.412937 L91.914894,-0.07532122 L102.12766,-16.04342 L112.34042,-0.22596367 L122.55319,-0.03766061 L132.76596,-3.0505095 L142.97873,-3.0505095 L153.19148,-36.94506 L163.40425,-3.4647763 L173.61702,-0.03766061 L183.82979,-36.681435 L194.04256,-0.11298183 L204.25533,-3.1634912 L214.46808,-0.9791759 L224.68085,-340 L234.89362,-0.94151527 L245.10638,-0.07532122 L255.31915,-3.4647763 L265.53192,-3.4271157 L275.7447,-32.840054 L285.95746,0 L296.17023,-2.2972972 L306.38297,-20.336731 L316.59573,-1.4687638 L326.8085,-16.796633 L337.02127,-3.1258307 L347.23404,-3.1258307 L357.4468,-33.40496" fill="none" stroke="#000000" stroke-linejoin="round" stroke-width="2"/>
</g>
<g>
<circle cx="0" cy="-0.9791758972086841" fill="#000000" r="5"/>
<circle cx="10.212765957446809" cy="-2.7115640230394327" fill="#000000" r="5"/>
<circle cx="20.425531914893618" cy="-2.7115640230394327" fill="#000000" r="5"/>
<circle cx="30.638297872340427" cy="-2.7115640230394327" fill="#000000" r="5"/>
<circle cx="40.851063829787236" cy="-2.7115640230394327" fill="#000000" r="5"/>
<circle cx="51.06382978723404" cy="-0.03766061143110323" fill="#000000" r="5"/>
<circle cx="61.276595744680854" cy="-3.050509525919362" fill="#000000" r="5"/>
<circle cx="71.48936170212765" cy="-0.07532122286220647" fill="#000000" r="5"/>
<circle cx="81.70212765957447" cy="-29.412937527691625" fill="#000000" r="5"/>
<circle cx="91.91489361702128" cy="-0.07532122286220647" fill="#000000" r="5"/>
<circle cx="102.12765957446808" cy="-16.043420469649977" fill="#000000" r="5"/>
<circle cx="112.34042553191489" cy="-0.2259636685866194" fill="#000000" r="5"/>
<circle cx="122.55319148936171" cy="-0.03766061143110323" fill="#000000" r="5"/>
<circle cx="132.7659574468085" cy="-3.050509525919362" fill="#000000" r="5"/>
<circle cx="142.9787234042553" cy="-3.050509525919362" fill="#000000" r="5"/>
<circle cx="153.19148936170214" cy="-36.94505981391227" fill="#000000" r="5"/>
<circle cx="163.40425531914894" cy="-3.4647762516614975" fill="#000000" r="5"/>
<circle cx="173.61702127659575" cy="-0.03766061143110323" fill="#000000" r="5"/>
<circle cx="183.82978723404256" cy="-36.68143553389455" fill="#000000" r="5"/>
<circle cx="194.04255319148936" cy="-0.1129818342933097" fill="#000000" r="5"/>
<circle cx="204.25531914893617" cy="-3.1634913602126717" fill="#000000" r="5"/>
<circle cx="214.46808510638297" cy="-0.9791758972086841" fill="#000000" r="5"/>
<circle cx="224.68085106382978" cy="-340" fill="#000000" r="5"/>
<circle cx="234.89361702127658" cy="-0.9415152857775808" fill="#000000" r="5"/>
<circle cx="245.10638297872342" cy="-0.07532122286220647" fill="#000000" r="5"/>
<circle cx="255.31914893617022" cy="-3.4647762516614975" fill="#000000" r="5"/>
<circle cx="265.531914893617" cy="-3.427115640230394" fill="#000000" r="5"/>
<circle cx="275.74468085106383" cy="-32.84005316792202" fill="#000000" r="5"/>
<circle cx="285.9574468085106" cy="0" fill="#000000" r="5"/>
<circle cx="296.17021276595744" cy="-2.2972972972972974" fill="#000000" r="5"/>
<circle cx="306.3829787234043" cy="-20.336730172795747" fill="#000000" r="5"/>
<circle cx="316.59574468085106" cy="-1.468763845813026" fill="#000000" r="5"/>
<circle cx="326.8085106382979" cy="-16.79663269827204" fill="#000000" r="5"/>
<circle cx="337.02127659574467" cy="-3.1258307487815684" fill="#000000" r="5"/>
<circle cx="347.2340425531915" cy="-3.1258307487815684" fill="#000000" r="5"/>
<circle cx="357.4468085106383" cy="-33.40496233938857" fill="#000000" r="5"/>
</g>
</g>
<g>
<g>
<path d="M10.212766,-0.9791759 L10.212766,-0.9791759 L20.425531,-1.6721312 L30.638298,-2.0879042 L40.851063,-2.3373682 L51.06383,-2.4870465 L61.276596,-1.5072922 L71.489365,-2.1245792 L81.702126,-1.304876 L91.914894,-12.5481 L102.12766,-7.558989 L112.34042,-10.952762 L122.55319,-6.662042 L132.76596,-4.0122895 L142.97873,-3.6275775 L153.19148,-3.3967505 L163.40425,-16.816074 L173.61702,-11.475555 L183.82979,-6.9003973 L194.04256,-18.812813 L204.25533,-11.33288 L214.46808,-8.0651245 L224.68085,-5.2307453 L234.89362,-139.13844 L245.10638,-83.85967 L255.31915,-50.345932 L265.53192,-31.59347 L275.7447,-20.32693 L285.95746,-25.332178 L296.17023,-15.199307 L306.38297,-10.038503 L316.59573,-14.157794 L326.8085,-9.082182 L337.02127,-12.167962 L347.23404,-8.551109 L357.4468,-6.380998" fill="none" stroke="#af0af6" stroke-linejoin="round" stroke-width="2"/>
</g>
<g>
<circle cx="10.212765957446809" cy="-0.9791758972086841" fill="#af0af6" r="5"/>
<circle cx="20.425531914893618" cy="-1.672131147540984" fill="#af0af6" r="5"/>
<circle cx="30.638297872340427" cy="-2.0879042977403635" fill="#af0af6" r="5"/>
<circle cx="40.851063829787236" cy="-2.3373681878599912" fill="#af0af6" r="5"/>
<circle cx="51.06382978723404" cy="-2.4870465219317675" fill="#af0af6" r="5"/>
<circle cx="61.276595744680854" cy="-1.5072921577315017" fill="#af0af6" r="5"/>
<circle cx="71.48936170212765" cy="-2.124579105006646" fill="#af0af6" r="5"/>
<circle cx="81.70212765957447" cy="-1.3048759521488704" fill="#af0af6" r="5"/>
<circle cx="91.91489361702128" cy="-12.548100582365974" fill="#af0af6" r="5"/>
<circle cx="102.12765957446808" cy="-7.558988838564466" fill="#af0af6" r="5"/>
<circle cx="112.34042553191489" cy="-10.95276149099867" fill="#af0af6" r="5"/>
<circle cx="122.55319148936171" cy="-6.66204236203385" fill="#af0af6" r="5"/>
<circle cx="132.7659574468085" cy="-4.012289661792751" fill="#af0af6" r="5"/>
<circle cx="142.9787234042553" cy="-3.6275776074433956" fill="#af0af6" r="5"/>
<circle cx="153.19148936170214" cy="-3.3967503748337817" fill="#af0af6" r="5"/>
<circle cx="163.40425531914894" cy="-16.81607415046518" fill="#af0af6" r="5"/>
<circle cx="173.61702127659575" cy="-11.475554990943705" fill="#af0af6" r="5"/>
<circle cx="183.82978723404256" cy="-6.900397239138663" fill="#af0af6" r="5"/>
<circle cx="194.04255319148936" cy="-18.812812557041017" fill="#af0af6" r="5"/>
<circle cx="204.25531914893617" cy="-11.332880267941935" fill="#af0af6" r="5"/>
<circle cx="214.46808510638297" cy="-8.065124704850229" fill="#af0af6" r="5"/>
<circle cx="224.68085106382978" cy="-5.230745181793612" fill="#af0af6" r="5"/>
<circle cx="234.89361702127658" cy="-139.1384471090762" fill="#af0af6" r="5"/>
<circle cx="245.10638297872342" cy="-83.85967437975675" fill="#af0af6" r="5"/>
<circle cx="255.31914893617022" cy="-50.345933116998935" fill="#af0af6" r="5"/>
<circle cx="265.531914893617" cy="-31.59347037086396" fill="#af0af6" r="5"/>
<circle cx="275.74468085106383" cy="-20.32692847861053" fill="#af0af6" r="5"/>
<circle cx="285.9574468085106" cy="-25.332178354335124" fill="#af0af6" r="5"/>
<circle cx="296.17021276595744" cy="-15.199307012601071" fill="#af0af6" r="5"/>
<circle cx="306.3829787234043" cy="-10.038503126479561" fill="#af0af6" r="5"/>
<circle cx="316.59574468085106" cy="-14.157793945006036" fill="#af0af6" r="5"/>
<circle cx="326.8085106382979" cy="-9.082181905328833" fill="#af0af6" r="5"/>
<circle cx="337.02127659574467" cy="-12.167962222506116" fill="#af0af6" r="5"/>
<circle cx="347.2340425531915" cy="-8.551109633016296" fill="#af0af6" r="5"/>
<circle cx="357.4468085106383" cy="-6.380998079322405" fill="#af0af6" r="5"/>
</g>
</g>
<g>
<g>
<path d="M0,-6.0271683 L0,-6.0271683 L10.212766,-6.650337 L20.425531,-7.2735066 L30.638298,-7.8966756 L40.851063,-8.519845 L51.06383,-9.143014 L61.276596,-9.766183 L71.489365,-10.389353 L81.702126,-11.012522 L91.914894,-11.635691 L102.12766,-12.258861 L112.34042,-12.88203 L122.55319,-13.5051985 L132.76596,-14.128367 L142.97873,-14.751537 L153.19148,-15.374706 L163.40425,-15.997875 L173.61702,-16.621044 L183.82979,-17.244213 L194.04256,-17.867384 L204.25533,-18.490553 L214.46808,-19.113722 L224.68085,-19.73689 L234.89362,-20.36006 L245.10638,-20.983229 L255.31915,-21.606398 L265.53192,-22.229568 L275.7447,-22.852737 L285.95746,-23.475906 L296.17023,-24.099075 L306.38297,-24.722244 L316.59573,-25.345413 L326.8085,-25.968582 L337.02127,-26.591753 L347.23404,-27.214922 L357.4468,-27.83809" fill="none" stroke="#87faa4" stroke-linejoin="round" stroke-width="2"/>
</g>
<g>
<circle cx="0" cy="-6.02716806305641" fill="#87faa4" r="5"/>
<circle cx="10.212765957446809" cy="-6.650337279491023" fill="#87faa4" r="5"/>
<circle cx="20.425531914893618" cy="-7.273506495925636" fill="#87faa4" r="5"/>
<circle cx="30.638297872340427" cy="-7.896675712360249" fill="#87faa4" r="5"/>
<circle cx="40.851063829787236" cy="-8.519844928794862" fill="#87faa4" r="5"/>
<circle cx="51.06382978723404" cy="-9.143014145229476" fill="#87faa4" r="5"/>
<circle cx="61.276595744680854" cy="-9.766183361664089" fill="#87faa4" r="5"/>
<circle cx="71.48936170212765" cy="-10.389352578098702" fill="#87faa4" r="5"/>
<circle cx="81.70212765957447" cy="-11.012521794533313" fill="#87faa4" r="5"/>
<circle cx="91.91489361702128" cy="-11.635691010967927" fill="#87faa4" r="5"/>
<circle cx="102.12765957446808" cy="-12.25886022740254" fill="#87faa4" r="5"/>
<circle cx="112.34042553191489" cy="-12.882029443837153" fill="#87faa4" r="5"/>
<circle cx="122.55319148936171" cy="-13.505198660271766" fill="#87faa4" r="5"/>
<circle cx="132.7659574468085" cy="-14.128367876706378" fill="#87faa4" r="5"/>
<circle cx="142.9787234042553" cy="-14.75153709314099" fill="#87faa4" r="5"/>
<circle cx="153.19148936170214" cy="-15.374706309575604" fill="#87faa4" r="5"/>
<circle cx="163.40425531914894" cy="-15.997875526010217" fill="#87faa4" r="5"/>
<circle cx="173.61702127659575" cy="-16.62104474244483" fill="#87faa4" r="5"/>
<circle cx="183.82978723404256" cy="-17.244213958879442" fill="#87faa4" r="5"/>
<circle cx="194.04255319148936" cy="-17.867383175314057" fill="#87faa4" r="5"/>
<circle cx="204.25531914893617" cy="-18.49055239174867" fill="#87faa4" r="5"/>
<circle cx="214.46808510638297" cy="-19.113721608183283" fill="#87faa4" r="5"/>
<circle cx="224.68085106382978" cy="-19.736890824617895" fill="#87faa4" r="5"/>
<circle cx="234.89361702127658" cy="-20.36006004105251" fill="#87faa4" r="5"/>
<circle cx="245.10638297872342" cy="-20.98322925748712" fill="#87faa4" r="5"/>
<circle cx="255.31914893617022" cy="-21.606398473921733" fill="#87faa4" r="5"/>
<circle cx="265.531914893617" cy="-22.229567690356347" fill="#87faa4" r="5"/>
<circle cx="275.74468085106383" cy="-22.85273690679096" fill="#87faa4" r="5"/>
<circle cx="285.9574468085106" cy="-23.475906123225574" fill="#87faa4" r="5"/>
<circle cx="296.17021276595744" cy="-24.099075339660185" fill="#87faa4" r="5"/>
<circle cx="306.3829787234043" cy="-24.7222445560948" fill="#87faa4" r="5"/>
<circle cx="316.59574468085106" cy="-25.34541377252941" fill="#87faa4" r="5"/>
<circle cx="326.8085106382979" cy="-25.968582988964027" fill="#87faa4" r="5"/>
<circle cx="337.02127659574467" cy="-26.591752205398638" fill="#87faa4" r="5"/>
<circle cx="347.2340425531915" cy="-27.21492142183325" fill="#87faa4" r="5"/>
<circle cx="357.4468085106383" cy="-27.838090638267865" fill="#87faa4" r="5"/>
</g>
</g>
<g>
<g>
<path d="M367.65958,-8.551109 L367.65958,-8.551109 L377.87234,-117.38812 L388.0851,-50.050953 L398.29788,-25.420912 L408.51065,-34.195835 L418.72342,-10.206026 L428.93616,-3.2388127 L439.14893,-101.83429 L449.3617,-17.173239 L459.57446,-89.48161 L469.78723,-38.67745 L480,-266.5618" fill="none" stroke="#ff00a2" stroke-linejoin="round" stroke-width="2"/>
</g>
<g>
<circle cx="367.6595744680851" cy="-8.551109633016296" fill="#ff00a2" r="5"/>
<circle cx="377.8723404255319" cy="-117.38812583074878" fill="#ff00a2" r="5"/>
<circle cx="388.0851063829787" cy="-50.0509525919362" fill="#ff00a2" r="5"/>
<circle cx="398.29787234042556" cy="-25.42091271599468" fill="#ff00a2" r="5"/>
<circle cx="408.51063829787233" cy="-34.19583517944174" fill="#ff00a2" r="5"/>
<circle cx="418.72340425531917" cy="-10.206025697828977" fill="#ff00a2" r="5"/>
<circle cx="428.93617021276594" cy="-3.238812583074878" fill="#ff00a2" r="5"/>
<circle cx="439.1489361702128" cy="-101.83429330970314" fill="#ff00a2" r="5"/>
<circle cx="449.36170212765956" cy="-17.173238812583076" fill="#ff00a2" r="5"/>
<circle cx="459.5744680851064" cy="-89.48161276030129" fill="#ff00a2" r="5"/>
<circle cx="469.78723404255317" cy="-38.67744793974302" fill="#ff00a2" r="5"/>
<circle cx="480" cy="-266.56180770934867" fill="#ff00a2" r="5"/>
</g>
</g>
<g>
<g>
<line stroke="black" stroke-width="1" x1="0" x2="0" y1="0" y2="10"/>
<line stroke="black" stroke-width="1" x1="102.12765957446808" x2="102.12765957446808" y1="0" y2="10"/>
<line stroke="black" stroke-width="1" x1="204.25531914893617" x2="204.25531914893617" y1="0" y2="10"/>
<line stroke="black" stroke-width="1" x1="306.3829787234043" x2="306.3829787234043" y1="0" y2="10"/>
<line stroke="black" stroke-width="1" x1="408.51063829787233" x2="408.51063829787233" y1="0" y2="10"/>
</g>
<line stroke="black" stroke-width="1" x1="0" x2="480" y1="0" y2="0"/>
<g>
<text font-size="12" text-anchor="middle" x="0" y="20">
1
</text>
<text font-size="12" text-anchor="middle" x="102.12765957446808" y="20">
11
</text>
<text font-size="12" text-anchor="middle" x="204.25531914893617" y="20">
21
</text>
<text font-size="12" text-anchor="middle" x="306.3829787234043" y="20">
31
</text>
<text font-size="12" text-anchor="middle" x="408.51063829787233" y="20">
41
</text>
</g>
<text font-size="12" text-anchor="middle" x="240" y="30">

</text>
</g>
<g>
<g>
<line stroke="black" stroke-width="1" x1="0" x2="-10" y1="0" y2="0"/>
<line stroke="black" stroke-width="1" x1="0" x2="-10" y1="-75.32122286220647" y2="-75.32122286220647"/>
<line stroke="black" stroke-width="1" x1="0" x2="-10" y1="-150.64244572441294" y2="-150.64244572441294"/>
<line stroke="black" stroke-width="1" x1="0" x2="-10" y1="-225.9636685866194" y2="-225.9636685866194"/>
<line stroke="black" stroke-width="1" x1="0" x2="-10" y1="-301.2848914488259" y2="-301.2848914488259"/>
</g>
<line stroke="black" stroke-width="1" x1="0" x2="0" y1="0" y2="-340"/>
<g>
<text dominant-baseline="middle" font-size="12" text-anchor="end" x="-15" y="0">
6
</text>
<text dominant-baseline="middle" font-size="12" text-anchor="end" x="-15" y="-75.32122286220647">
2006
</text>
<text dominant-baseline="middle" font-size="12" text-anchor="end" x="-15" y="-150.64244572441294">
4006
</text>
<text dominant-baseline="middle" font-size="12" text-anchor="end" x="-15" y="-225.9636685866194">
6006
</text>
<text dominant-baseline="middle" font-size="12" text-anchor="end" x="-15" y="-301.2848914488259">
8006
</text>
</g>
<text font-size="12" text-anchor="middle" transform="rotate(-90 -48 -170)" x="-48" y="-182">

</text>
</g>
</g>
</svg>