<svg viewBox="0 0 600 400" xmlns="http://www.w3.org/2000/svg">
<g transform="translate(72, 364)">
<g>
<g>
<path d="M0,-173.77777 L0,-173.77777 L10.212766,-90.666664 L20.425531,0 L30.638298,0 L40.851063,-90.666664 L51.06383,-132.22223 L61.276596,-215.33333 L71.489365,-256.8889 L81.702126,-332.44446 L91.914894,-340 L102.12766,-256.8889 L112.34042,-332.44446 L122.55319,-90.666664 L132.76596,-170 L142.97873,-211.55556 L153.19148,-83.111115 L163.40425,-7.5555553 L173.61702,-52.88889 L183.82979,-249.33333 L194.04256,-86.888885 L204.25533,-256.8889 L214.46808,-332.44446 L224.68085,-294.66666 L234.89362,-260.66666 L245.10638,-211.55556 L255.31915,-173.77777 L265.53192,-249.33333 L275.7447,-124.666664 L285.95746,-68 L296.17023,-132.22223 L306.38297,-86.888885 L316.59573,-238 L326.8085,-256.8889 L337.02127,-260.66666 L347.23404,-268.22223 L357.4468,-332.44446" fill="none" stroke="#000000" stroke-linejoin="round" stroke-width="2"/>
</g>
<g>
<circle cx="0" cy="-173.77777777777777" fill="#000000" r="5"/>
<circle cx="10.212765957446809" cy="-90.66666666666667" fill="#000000" r="5"/>
<circle cx="20.425531914893618" cy="0" fill="#000000" r="5"/>
<circle cx="30.638297872340427" cy="0" fill="#000000" r="5"/>
<circle cx="40.851063829787236" cy="-90.66666666666667" fill="#000000" r="5"/>
<circle cx="51.06382978723404" cy="-132.22222222222223" fill="#000000" r="5"/>
<circle cx="61.276595744680854" cy="-215.33333333333334" fill="#000000" r="5"/>
<circle cx="71.48936170212765" cy="-256.8888888888889" fill="#000000" r="5"/>
<circle cx="81.70212765957447" cy="-332.44444444444446" fill="#000000" r="5"/>
<circle cx="91.91489361702128" cy="-340" fill="#000000" r="5"/>
<circle cx="102.12765957446808" cy="-256.8888888888889" fill="#000000" r="5"/>
<circle cx="112.34042553191489" cy="-332.44444444444446" fill="#000000" r="5"/>
<circle cx="122.55319148936171" cy="-90.66666666666667" fill="#000000" r="5"/>
<circle cx="132.7659574468085" cy="-170" fill="#000000" r="5"/>
<circle cx="142.9787234042553" cy="-211.55555555555554" fill="#000000" r="5"/>
<circle cx="153.19148936170214" cy="-83.11111111111111" fill="#000000" r="5"/>
<circle cx="163.40425531914894" cy="-7.555555555555555" fill="#000000" r="5"/>
<circle cx="173.61702127659575" cy="-52.888888888888886" fill="#000000" r="5"/>
<circle cx="183.82978723404256" cy="-249.33333333333334" fill="#000000" r="5"/>
<circle cx="194.04255319148936" cy="-86.88888888888889" fill="#000000" r="5"/>
<circle cx="204.25531914893617" cy="-256.8888888888889" fill="#000000" r="5"/>
<circle cx="214.46808510638297" cy="-332.44444444444446" fill="#000000" r="5"/>
<circle cx="224.68085106382978" cy="-294.6666666666667" fill="#000000" r="5"/>
<circle cx="234.89361702127658" cy="-260.6666666666667" fill="#000000" r="5"/>
<circle cx="245.10638297872342" cy="-211.55555555555554" fill="#000000" r="5"/>
<circle cx="255.31914893617022" cy="-173.77777777777777" fill="#000000" r="5"/>
<circle cx="265.531914893617" cy="-249.33333333333334" fill="#000000" r="5"/>
<circle cx="275.74468085106383" cy="-124.66666666666667" fill="#000000" r="5"/>
<circle cx="285.9574468085106" cy="-68" fill="#000000" r="5"/>
<circle cx="296.17021276595744" cy="-132.22222222222223" fill="#000000" r="5"/>
<circle cx="306.3829787234043" cy="-86.88888888888889" fill="#000000" r="5"/>
<circle cx="316.59574468085106" cy="-238" fill="#000000" r="5"/>
<circle cx="326.8085106382979" cy="-256.8888888888889" fill="#000000" r="5"/>
<circle cx="337.02127659574467" cy="-260.6666666666667" fill="#000000" r="5"/>
<circle cx="347.2340425531915" cy="-268.22222222222223" fill="#000000" r="5"/>
<circle cx="357.4468085106383" cy="-332.44444444444446" fill="#000000" r="5"/>
</g>
</g>
<g>
<g>
<path d="M10.212766,-173.77777 L10.212766,-173.77777 L20.425531,-140.53334 L30.638298,-84.32 L40.851063,-50.592 L51.06383,-66.621864 L61.276596,-92.86201 L71.489365,-141.85054 L81.702126,-187.86588 L91.914894,-245.69731 L102.12766,-283.4184 L112.34042,-272.80658 L122.55319,-296.66174 L132.76596,-214.2637 L142.97873,-196.55823 L153.19148,-202.55716 L163.40425,-154.77873 L173.61702,-95.889465 L183.82979,-78.68923 L194.04256,-146.94687 L204.25533,-122.92368 L214.46808,-176.50977 L224.68085,-238.88364 L234.89362,-261.19684 L245.10638,-260.98477 L255.31915,-241.21309 L265.53192,-214.23897 L275.7447,-228.27672 L285.95746,-186.83269 L296.17023,-139.29962 L306.38297,-136.46866 L316.59573,-116.63675 L326.8085,-165.18205 L337.02127,-201.86479 L347.23404,-225.38554 L357.4468,-242.52022" fill="none" stroke="#af0af6" stroke-linejoin="round" stroke-width="2"/>
</g>
<g>
<circle cx="10.212765957446809" cy="-173.77777777777777" fill="#af0af6" r="5"/>
<circle cx="20.425531914893618" cy="-140.53333333333336" fill="#af0af6" r="5"/>
<circle cx="30.638297872340427" cy="-84.32000000000004" fill="#af0af6" r="5"/>
<circle cx="40.851063829787236" cy="-50.592000000000034" fill="#af0af6" r="5"/>
<circle cx="51.06382978723404" cy="-66.62186666666672" fill="#af0af6" r="5"/>
<circle cx="61.276595744680854" cy="-92.86200888888891" fill="#af0af6" r="5"/>
<circle cx="71.48936170212765" cy="-141.8505386666667" fill="#af0af6" r="5"/>
<circle cx="81.70212765957447" cy="-187.86587875555557" fill="#af0af6" r="5"/>
<circle cx="91.91489361702128" cy="-245.69730503111109" fill="#af0af6" r="5"/>
<circle cx="102.12765957446808" cy="-283.4183830186666" fill="#af0af6" r="5"/>
<circle cx="112.34042553191489" cy="-272.80658536675554" fill="#af0af6" r="5"/>
<circle cx="122.55319148936171" cy="-296.66172899783106" fill="#af0af6" r="5"/>
<circle cx="132.7659574468085" cy="-214.26370406536532" fill="#af0af6" r="5"/>
<circle cx="142.9787234042553" cy="-196.55822243921915" fill="#af0af6" r="5"/>
<circle cx="153.19148936170214" cy="-202.5571556857537" fill="#af0af6" r="5"/>
<circle cx="163.40425531914894" cy="-154.7787378558967" fill="#af0af6" r="5"/>
<circle cx="173.61702127659575" cy="-95.88946493576024" fill="#af0af6" r="5"/>
<circle cx="183.82978723404256" cy="-78.6892345170117" fill="#af0af6" r="5"/>
<circle cx="194.04255319148936" cy="-146.94687404354033" fill="#af0af6" r="5"/>
<circle cx="204.25531914893617" cy="-122.92367998167978" fill="#af0af6" r="5"/>
<circle cx="214.46808510638297" cy="-176.50976354456344" fill="#af0af6" r="5"/>
<circle cx="224.68085106382978" cy="-238.88363590451587" fill="#af0af6" r="5"/>
<circle cx="234.89361702127658" cy="-261.1968482093762" fill="#af0af6" r="5"/>
<circle cx="245.10638297872342" cy="-260.9847755922924" fill="#af0af6" r="5"/>
<circle cx="255.31914893617022" cy="-241.21308757759766" fill="#af0af6" r="5"/>
<circle cx="265.531914893617" cy="-214.2389636576697" fill="#af0af6" r="5"/>
<circle cx="275.74468085106383" cy="-228.27671152793513" fill="#af0af6" r="5"/>
<circle cx="285.9574468085106" cy="-186.83269358342775" fill="#af0af6" r="5"/>
<circle cx="296.17021276595744" cy="-139.2996161500567" fill="#af0af6" r="5"/>
<circle cx="306.3829787234043" cy="-136.4686585789229" fill="#af0af6" r="5"/>
<circle cx="316.59574468085106" cy="-116.6367507029093" fill="#af0af6" r="5"/>
<circle cx="326.8085106382979" cy="-165.18205042174557" fill="#af0af6" r="5"/>
<circle cx="337.02127659574467" cy="-201.8647858086029" fill="#af0af6" r="5"/>
<circle cx="347.2340425531915" cy="-225.38553815182843" fill="#af0af6" r="5"/>
<circle cx="357.4468085106383" cy="-242.5202117799859" fill="#af0af6" r="5"/>
</g>
</g>
<g>
<g>
<path d="M0,-139.96497 L0,-139.96497 L10.212766,-142.63469 L20.425531,-145.30441 L30.638298,-147.97415 L40.851063,-150.64388 L51.06383,-153.3136 L61.276596,-155.98332 L71.489365,-158.65305 L81.702126,-161.32278 L91.914894,-163.99251 L102.12766,-166.66223 L112.34042,-169.33195 L122.55319,-172.0017 L132.76596,-174.67142 L142.97873,-177.34114 L153.19148,-180.01086 L163.40425,-182.68059 L173.61702,-185.35033 L183.82979,-188.02005 L194.04256,-190.68977 L204.25533,-193.3595 L214.46808,-196.02924 L224.68085,-198.69896 L234.89362,-201.36868 L245.10638,-204.0384 L255.31915,-206.70813 L265.53192,-209.37787 L275.7447,-212.04759 L285.95746,-214.71732 L296.17023,-217.38704 L306.38297,-220.05678 L316.59573,-222.7265 L326.8085,-225.39622 L337.02127,-228.06595 L347.23404,-230.73567 L357.4468,-233.40541" fill="none" stroke="#87faa4" stroke-linejoin="round" stroke-width="2"/>
</g>
<g>
<circle cx="0" cy="-139.96496496496496" fill="#87faa4" r="5"/>
<circle cx="10.212765957446809" cy="-142.6346918346918" fill="#87faa4" r="5"/>
<circle cx="20.425531914893618" cy="-145.3044187044187" fill="#87faa4" r="5"/>
<circle cx="30.638297872340427" cy="-147.97414557414558" fill="#87faa4" r="5"/>
<circle cx="40.851063829787236" cy="-150.64387244387243" fill="#87faa4" r="5"/>
<circle cx="51.06382978723404" cy="-153.31359931359933" fill="#87faa4" r="5"/>
<circle cx="61.276595744680854" cy="-155.9833261833262" fill="#87faa4" r="5"/>
<circle cx="71.48936170212765" cy="-158.65305305305304" fill="#87faa4" r="5"/>
<circle cx="81.70212765957447" cy="-161.32277992277992" fill="#87faa4" r="5"/>
<circle cx="91.91489361702128" cy="-163.99250679250682" fill="#87faa4" r="5"/>
<circle cx="102.12765957446808" cy="-166.66223366223363" fill="#87faa4" r="5"/>
<circle cx="112.34042553191489" cy="-169.33196053196053" fill="#87faa4" r="5"/>
<circle cx="122.55319148936171" cy="-172.00168740168738" fill="#87faa4" r="5"/>
<circle cx="132.7659574468085" cy="-174.67141427141425" fill="#87faa4" r="5"/>
<circle cx="142.9787234042553" cy="-177.34114114114115" fill="#87faa4" r="5"/>
<circle cx="153.19148936170214" cy="-180.01086801086802" fill="#87faa4" r="5"/>
<circle cx="163.40425531914894" cy="-182.68059488059487" fill="#87faa4" r="5"/>
<circle cx="173.61702127659575" cy="-185.35032175032174" fill="#87faa4" r="5"/>
<circle cx="183.82978723404256" cy="-188.0200486200486" fill="#87faa4" r="5"/>
<circle cx="194.04255319148936" cy="-190.68977548977549" fill="#87faa4" r="5"/>
<circle cx="204.25531914893617" cy="-193.3595023595024" fill="#87faa4" r="5"/>
<circle cx="214.46808510638297" cy="-196.02922922922926" fill="#87faa4" r="5"/>
<circle cx="224.68085106382978" cy="-198.69895609895607" fill="#87faa4" r="5"/>
<circle cx="234.89361702127658" cy="-201.36868296868298" fill="#87faa4" r="5"/>
<circle cx="245.10638297872342" cy="-204.0384098384098" fill="#87faa4" r="5"/>
<circle cx="255.31914893617022" cy="-206.70813670813672" fill="#87faa4" r="5"/>
<circle cx="265.531914893617" cy="-209.37786357786356" fill="#87faa4" r="5"/>
<circle cx="275.74468085106383" cy="-212.0475904475905" fill="#87faa4" r="5"/>
<circle cx="285.9574468085106" cy="-214.7173173173173" fill="#87faa4" r="5"/>
<circle cx="296.17021276595744" cy="-217.3870441870442" fill="#87faa4" r="5"/>
<circle cx="306.3829787234043" cy="-220.05677105677103" fill="#87faa4" r="5"/>
<circle cx="316.59574468085106" cy="-222.72649792649796" fill="#87faa4" r="5"/>
<circle cx="326.8085106382979" cy="-225.3962247962248" fill="#87faa4" r="5"/>
<circle cx="337.02127659574467" cy="-228.06595166595164" fill="#87faa4" r="5"/>
<circle cx="347.2340425531915" cy="-230.73567853567855" fill="#87faa4" r="5"/>
<circle cx="357.4468085106383" cy="-233.40540540540536" fill="#87faa4" r="5"/>
</g>
</g>
<g>
<g>
<path d="M367.65958,-225.38554 L367.65958,-225.38554 L377.87234,-302.22223 L388.0851,-268.22223 L398.29788,-253.11111 L408.51065,-207.77777 L418.72342,-113.333336 L428.93616,-68 L439.14893,-7.5555553 L449.3617,-309.77777 L459.57446,-222.88889 L469.78723,-253.11111 L480,-264.44446" fill="none" stroke="#ff00a2" stroke-linejoin="round" stroke-width="2"/>
</g>
<g>
<circle cx="367.6595744680851" cy="-225.38553815182843" fill="#ff00a2" r="5"/>
<circle cx="377.8723404255319" cy="-302.22222222222223" fill="#ff00a2" r="5"/>
<circle cx="388.0851063829787" cy="-268.22222222222223" fill="#ff00a2" r="5"/>
<circle cx="398.29787234042556" cy="-253.11111111111111" fill="#ff00a2" r="5"/>
<circle cx="408.51063829787233" cy="-207.77777777777777" fill="#ff00a2" r="5"/>
<circle cx="418.72340425531917" cy="-113.33333333333333" fill="#ff00a2" r="5"/>
<circle cx="428.93617021276594" cy="-68" fill="#ff00a2" r="5"/>
<circle cx="439.1489361702128" cy="-7.555555555555555" fill="#ff00a2" r="5"/>
<circle cx="449.36170212765956" cy="-309.77777777777777" fill="#ff00a2" r="5"/>
<circle cx="459.5744680851064" cy="-222.88888888888889" fill="#ff00a2" r="5"/>
<circle cx="469.78723404255317" cy="-253.11111111111111" fill="#ff00a2" r="5"/>
<circle cx="480" cy="-264.44444444444446" fill="#ff00a2" r="5"/>
</g>
</g>
<g>
<g>
<line stroke="black" stroke-width="1" x1="0" x2="0" y1="0" y2="10"/>
<line stroke="black" stroke-width="1" x1="102.12765957446808" x2="102.12765957446808" y1="0" y2="10"/>
<line stroke="black" stroke-width="1" x1="204.25531914893617" x2="204.25531914893617" y1="0" y2="10"/>
<line stroke="black" stroke-width="1" x1="306.3829787234043" x2="306.3829787234043" y1="0" y2="10"/>
<line stroke="black" stroke-width="1" x1="408.51063829787233" x2="408.51063829787233" y1="0" y2="10"/>
</g>
<line stroke="black" stroke-width="1" x1="0" x2="480" y1="0" y2="0"/>
<g>
<text font-size="12" text-anchor="middle" x="0" y="20">
1
</text>
<text font-size="12" text-anchor="middle" x="102.12765957446808" y="20">
11
</text>
<text font-size="12" text-anchor="middle" x="204.25531914893617" y="20">
21
</text>
<text font-size="12" text-anchor="middle" x="306.3829787234043" y="20">
31
</text>
<text font-size="12" text-anchor="middle" x="408.51063829787233" y="20">
41
</text>
</g>
<text font-size="12" text-anchor="middle" x="240" y="30">

</text>
</g>
<g>
<g>
<line stroke="black" stroke-width="1" x1="0" x2="-10" y1="0" y2="0"/>
<line stroke="black" stroke-width="1" x1="0" x2="-10" y1="-75.55555555555556" y2="-75.55555555555556"/>
<line stroke="black" stroke-width="1" x1="0" x2="-10" y1="-151.11111111111111" y2="-151.11111111111111"/>
<line stroke="black" stroke-width="1" x1="0" x2="-10" y1="-226.66666666666666" y2="-226.66666666666666"/>
<line stroke="black" stroke-width="1" x1="0" x2="-10" y1="-302.22222222222223" y2="-302.22222222222223"/>
</g>
<line stroke="black" stroke-width="1" x1="0" x2="0" y1="0" y2="-340"/>
<g>
<text dominant-baseline="middle" font-size="12" text-anchor="end" x="-15" y="0">
32
</text>
<text dominant-baseline="middle" font-size="12" text-anchor="end" x="-15" y="-75.55555555555556">
52
</text>
<text dominant-baseline="middle" font-size="12" text-anchor="end" x="-15" y="-151.11111111111111">
72
</text>
<text dominant-baseline="middle" font-size="12" text-anchor="end" x="-15" y="-226.66666666666666">
92
</text>
<text dominant-baseline="middle" font-size="12" text-anchor="end" x="-15" y="-302.22222222222223">
112
</text>
</g>
<text font-size="12" text-anchor="middle" transform="rotate(-90 -36 -170)" x="-36" y="-182">

</text>
</g>
</g>
</svg>