<svg viewBox="0 0 600 400" xmlns="http://www.w3.org/2000/svg">
<g transform="translate(72, 364)">
<g>
<g>
<path d="M0,-34.32381 L0,-34.32381 L10.212766,-41.44762 L20.425531,-28.495237 L30.638298,-49.866665 L40.851063,-7.1238093 L51.06383,-340 L61.276596,-56.990475 L71.489365,0 L81.702126,-143.77142 L91.914894,-35.61905 L102.12766,-56.990475 L112.34042,-49.866665 L122.55319,-28.495237 L132.76596,-7.1238093 L142.97873,-28.495237 L153.19148,-49.866665 L163.40425,-35.61905 L173.61702,-14.247619 L183.82979,-56.990475 L194.04256,-28.495237 L204.25533,-7.1238093 L214.46808,-22.019047 L224.68085,-60.87619 L234.89362,-41.44762 L245.10638,-7.1238093 L255.31915,-49.866665 L265.53192,-28.495237 L275.7447,-60.87619 L285.95746,-20.07619 L296.17023,-41.44762 L306.38297,-80.30476 L316.59573,-7.1238093 L326.8085,-22.019047 L337.02127,-49.866665 L347.23404,-35.61905 L357.4468,-60.228573" fill="none" stroke="#000000" stroke-linejoin="round" stroke-width="2"/>
</g>
<g>
<circle cx="0" cy="-34.32380952380952" fill="#000000" r="5"/>
<circle cx="10.212765957446809" cy="-41.44761904761905" fill="#000000" r="5"/>
<circle cx="20.425531914893618" cy="-28.495238095238093" fill="#000000" r="5"/>
<circle cx="30.638297872340427" cy="-49.86666666666667" fill="#000000" r="5"/>
<circle cx="40.851063829787236" cy="-7.123809523809523" fill="#000000" r="5"/>
<circle cx="51.06382978723404" cy="-340" fill="#000000" r="5"/>
<circle cx="61.276595744680854" cy="-56.99047619047619" fill="#000000" r="5"/>
<circle cx="71.48936170212765" cy="0" fill="#000000" r="5"/>
<circle cx="81.70212765957447" cy="-143.77142857142857" fill="#000000" r="5"/>
<circle cx="91.91489361702128" cy="-35.61904761904762" fill="#000000" r="5"/>
<circle cx="102.12765957446808" cy="-56.99047619047619" fill="#000000" r="5"/>
<circle cx="112.34042553191489" cy="-49.86666666666667" fill="#000000" r="5"/>
<circle cx="122.55319148936171" cy="-28.495238095238093" fill="#000000" r="5"/>
<circle cx="132.7659574468085" cy="-7.123809523809523" fill="#000000" r="5"/>
<circle cx="142.9787234042553" cy="-28.495238095238093" fill="#000000" r="5"/>
<circle cx="153.19148936170214" cy="-49.86666666666667" fill="#000000" r="5"/>
<circle cx="163.40425531914894" cy="-35.61904761904762" fill="#000000" r="5"/>
<circle cx="173.61702127659575" cy="-14.247619047619047" fill="#000000" r="5"/>
<circle cx="183.82978723404256" cy="-56.99047619047619" fill="#000000" r="5"/>
<circle cx="194.04255319148936" cy="-28.495238095238093" fill="#000000" r="5"/>
<circle cx="204.25531914893617" cy="-7.123809523809523" fill="#000000" r="5"/>
<circle cx="214.46808510638297" cy="-22.01904761904762" fill="#000000" r="5"/>
<circle cx="224.68085106382978" cy="-60.87619047619047" fill="#000000" r="5"/>
<circle cx="234.89361702127658" cy="-41.44761904761905" fill="#000000" r="5"/>
<circle cx="245.10638297872342" cy="-7.123809523809523" fill="#000000" r="5"/>
<circle cx="255.31914893617022" cy="-49.86666666666667" fill="#000000" r="5"/>
<circle cx="265.531914893617" cy="-28.495238095238093" fill="#000000" r="5"/>
<circle cx="275.74468085106383" cy="-60.87619047619047" fill="#000000" r="5"/>
<circle cx="285.9574468085106" cy="-20.076190476190476" fill="#000000" r="5"/>
<circle cx="296.17021276595744" cy="-41.44761904761905" fill="#000000" r="5"/>
<circle cx="306.3829787234043" cy="-80.3047619047619" fill="#000000" r="5"/>
<circle cx="316.59574468085106" cy="-7.123809523809523" fill="#000000" r="5"/>
<circle cx="326.8085106382979" cy="-22.01904761904762" fill="#000000" r="5"/>
<circle cx="337.02127659574467" cy="-49.86666666666667" fill="#000000" r="5"/>
<circle cx="347.2340425531915" cy="-35.61904761904762" fill="#000000" r="5"/>
<circle cx="357.4468085106383" cy="-60.22857142857143" fill="#000000" r="5"/>
</g>
</g>
<g>
<g>
<path d="M10.212766,-34.32381 L10.212766,-34.32381 L20.425531,-37.173332 L30.638298,-33.702095 L40.851063,-40.167923 L51.06383,-26.950277 L61.276596,-152.17017 L71.489365,-114.09829 L81.702126,-68.45898 L91.914894,-98.583954 L102.12766,-73.397995 L112.34042,-66.834984 L122.55319,-60.047657 L132.76596,-47.42669 L142.97873,-31.305538 L153.19148,-30.181417 L163.40425,-38.05552 L173.61702,-37.08093 L183.82979,-27.947605 L194.04256,-39.564754 L204.25533,-35.136948 L214.46808,-23.931692 L224.68085,-23.166634 L234.89362,-38.250458 L245.10638,-39.529324 L255.31915,-26.567118 L265.53192,-35.886936 L275.7447,-32.930256 L285.95746,-44.10863 L296.17023,-34.495655 L306.38297,-37.27644 L316.59573,-54.48777 L326.8085,-35.542187 L337.02127,-30.13293 L347.23404,-38.026424 L357.4468,-37.063473" fill="none" stroke="#af0af6" stroke-linejoin="round" stroke-width="2"/>
</g>
<g>
<circle cx="10.212765957446809" cy="-34.32380952380952" fill="#af0af6" r="5"/>
<circle cx="20.425531914893618" cy="-37.17333333333333" fill="#af0af6" r="5"/>
<circle cx="30.638297872340427" cy="-33.70209523809523" fill="#af0af6" r="5"/>
<circle cx="40.851063829787236" cy="-40.167923809523806" fill="#af0af6" r="5"/>
<circle cx="51.06382978723404" cy="-26.950278095238097" fill="#af0af6" r="5"/>
<circle cx="61.276595744680854" cy="-152.17016685714285" fill="#af0af6" r="5"/>
<circle cx="71.48936170212765" cy="-114.09829059047618" fill="#af0af6" r="5"/>
<circle cx="81.70212765957447" cy="-68.4589743542857" fill="#af0af6" r="5"/>
<circle cx="91.91489361702128" cy="-98.58395604114286" fill="#af0af6" r="5"/>
<circle cx="102.12765957446808" cy="-73.39799267230477" fill="#af0af6" r="5"/>
<circle cx="112.34042553191489" cy="-66.83498607957334" fill="#af0af6" r="5"/>
<circle cx="122.55319148936171" cy="-60.04765831441066" fill="#af0af6" r="5"/>
<circle cx="132.7659574468085" cy="-47.42669022674163" fill="#af0af6" r="5"/>
<circle cx="142.9787234042553" cy="-31.305537945568787" fill="#af0af6" r="5"/>
<circle cx="153.19148936170214" cy="-30.181418005436512" fill="#af0af6" r="5"/>
<circle cx="163.40425531914894" cy="-38.05551746992858" fill="#af0af6" r="5"/>
<circle cx="173.61702127659575" cy="-37.08092952957619" fill="#af0af6" r="5"/>
<circle cx="183.82978723404256" cy="-27.947605336793334" fill="#af0af6" r="5"/>
<circle cx="194.04255319148936" cy="-39.56475367826648" fill="#af0af6" r="5"/>
<circle cx="204.25531914893617" cy="-35.13694744505513" fill="#af0af6" r="5"/>
<circle cx="214.46808510638297" cy="-23.93169227655688" fill="#af0af6" r="5"/>
<circle cx="224.68085106382978" cy="-23.166634413553176" fill="#af0af6" r="5"/>
<circle cx="234.89361702127658" cy="-38.250456838608095" fill="#af0af6" r="5"/>
<circle cx="245.10638297872342" cy="-39.52932172221247" fill="#af0af6" r="5"/>
<circle cx="255.31914893617022" cy="-26.56711684285129" fill="#af0af6" r="5"/>
<circle cx="265.531914893617" cy="-35.886936772377446" fill="#af0af6" r="5"/>
<circle cx="275.74468085106383" cy="-32.9302573015217" fill="#af0af6" r="5"/>
<circle cx="285.9574468085106" cy="-44.10863057138921" fill="#af0af6" r="5"/>
<circle cx="296.17021276595744" cy="-34.49565453330972" fill="#af0af6" r="5"/>
<circle cx="306.3829787234043" cy="-37.27644033903345" fill="#af0af6" r="5"/>
<circle cx="316.59574468085106" cy="-54.48776896532483" fill="#af0af6" r="5"/>
<circle cx="326.8085106382979" cy="-35.54218518871871" fill="#af0af6" r="5"/>
<circle cx="337.02127659574467" cy="-30.13293016085027" fill="#af0af6" r="5"/>
<circle cx="347.2340425531915" cy="-38.026424763176834" fill="#af0af6" r="5"/>
<circle cx="357.4468085106383" cy="-37.06347390552514" fill="#af0af6" r="5"/>
</g>
</g>
<g>
<g>
<path d="M0,-64.53145 L0,-64.53145 L10.212766,-63.523846 L20.425531,-62.516243 L30.638298,-61.50864 L40.851063,-60.501038 L51.06383,-59.493435 L61.276596,-58.485836 L71.489365,-57.478233 L81.702126,-56.47063 L91.914894,-55.463028 L102.12766,-54.455425 L112.34042,-53.447826 L122.55319,-52.440224 L132.76596,-51.43262 L142.97873,-50.42502 L153.19148,-49.417416 L163.40425,-48.409817 L173.61702,-47.402214 L183.82979,-46.39461 L194.04256,-45.38701 L204.25533,-44.37941 L214.46808,-43.371807 L224.68085,-42.364204 L234.89362,-41.3566 L245.10638,-40.349 L255.31915,-39.3414 L265.53192,-38.333797 L275.7447,-37.326195 L285.95746,-36.318592 L296.17023,-35.31099 L306.38297,-34.30339 L316.59573,-33.295788 L326.8085,-32.288185 L337.02127,-31.280584 L347.23404,-30.272982 L357.4468,-29.265379" fill="none" stroke="#87faa4" stroke-linejoin="round" stroke-width="2"/>
</g>
<g>
<circle cx="0" cy="-64.53144573144573" fill="#87faa4" r="5"/>
<circle cx="10.212765957446809" cy="-63.52384384384384" fill="#87faa4" r="5"/>
<circle cx="20.425531914893618" cy="-62.51624195624194" fill="#87faa4" r="5"/>
<circle cx="30.638297872340427" cy="-61.50864006864006" fill="#87faa4" r="5"/>
<circle cx="40.851063829787236" cy="-60.501038181038176" fill="#87faa4" r="5"/>
<circle cx="51.06382978723404" cy="-59.49343629343628" fill="#87faa4" r="5"/>
<circle cx="61.276595744680854" cy="-58.4858344058344" fill="#87faa4" r="5"/>
<circle cx="71.48936170212765" cy="-57.47823251823251" fill="#87faa4" r="5"/>
<circle cx="81.70212765957447" cy="-56.47063063063062" fill="#87faa4" r="5"/>
<circle cx="91.91489361702128" cy="-55.46302874302874" fill="#87faa4" r="5"/>
<circle cx="102.12765957446808" cy="-54.45542685542685" fill="#87faa4" r="5"/>
<circle cx="112.34042553191489" cy="-53.447824967824964" fill="#87faa4" r="5"/>
<circle cx="122.55319148936171" cy="-52.44022308022307" fill="#87faa4" r="5"/>
<circle cx="132.7659574468085" cy="-51.432621192621184" fill="#87faa4" r="5"/>
<circle cx="142.9787234042553" cy="-50.4250193050193" fill="#87faa4" r="5"/>
<circle cx="153.19148936170214" cy="-49.41741741741741" fill="#87faa4" r="5"/>
<circle cx="163.40425531914894" cy="-48.409815529815525" fill="#87faa4" r="5"/>
<circle cx="173.61702127659575" cy="-47.40221364221363" fill="#87faa4" r="5"/>
<circle cx="183.82978723404256" cy="-46.394611754611745" fill="#87faa4" r="5"/>
<circle cx="194.04255319148936" cy="-45.38700986700986" fill="#87faa4" r="5"/>
<circle cx="204.25531914893617" cy="-44.379407979407965" fill="#87faa4" r="5"/>
<circle cx="214.46808510638297" cy="-43.371806091806086" fill="#87faa4" r="5"/>
<circle cx="224.68085106382978" cy="-42.36420420420419" fill="#87faa4" r="5"/>
<circle cx="234.89361702127658" cy="-41.356602316602306" fill="#87faa4" r="5"/>
<circle cx="245.10638297872342" cy="-40.34900042900042" fill="#87faa4" r="5"/>
<circle cx="255.31914893617022" cy="-39.341398541398526" fill="#87faa4" r="5"/>
<circle cx="265.531914893617" cy="-38.33379665379665" fill="#87faa4" r="5"/>
<circle cx="275.74468085106383" cy="-37.32619476619476" fill="#87faa4" r="5"/>
<circle cx="285.9574468085106" cy="-36.318592878592874" fill="#87faa4" r="5"/>
<circle cx="296.17021276595744" cy="-35.31099099099098" fill="#87faa4" r="5"/>
<circle cx="306.3829787234043" cy="-34.303389103389094" fill="#87faa4" r="5"/>
<circle cx="316.59574468085106" cy="-33.29578721578721" fill="#87faa4" r="5"/>
<circle cx="326.8085106382979" cy="-32.28818532818532" fill="#87faa4" r="5"/>
<circle cx="337.02127659574467" cy="-31.28058344058343" fill="#87faa4" r="5"/>
<circle cx="347.2340425531915" cy="-30.272981552981545" fill="#87faa4" r="5"/>
<circle cx="357.4468085106383" cy="-29.26537966537965" fill="#87faa4" r="5"/>
</g>
</g>
<g>
<g>
<path d="M367.65958,-38.026424 L367.65958,-38.026424 L377.87234,-9.066667 L388.0851,-25.257143 L398.29788,-22.666666 L408.51065,-31.085714 L418.72342,-23.961905 L428.93616,-23.961905 L439.14893,-50.514286 L449.3617,-20.72381 L459.57446,-21.37143 L469.78723,-14.895238 L480,-22.666666" fill="none" stroke="#ff00a2" stroke-linejoin="round" stroke-width="2"/>
</g>
<g>
<circle cx="367.6595744680851" cy="-38.026424763176834" fill="#ff00a2" r="5"/>
<circle cx="377.8723404255319" cy="-9.066666666666666" fill="#ff00a2" r="5"/>
<circle cx="388.0851063829787" cy="-25.257142857142856" fill="#ff00a2" r="5"/>
<circle cx="398.29787234042556" cy="-22.666666666666668" fill="#ff00a2" r="5"/>
<circle cx="408.51063829787233" cy="-31.085714285714285" fill="#ff00a2" r="5"/>
<circle cx="418.72340425531917" cy="-23.961904761904762" fill="#ff00a2" r="5"/>
<circle cx="428.93617021276594" cy="-23.961904761904762" fill="#ff00a2" r="5"/>
<circle cx="439.1489361702128" cy="-50.51428571428571" fill="#ff00a2" r="5"/>
<circle cx="449.36170212765956" cy="-20.723809523809525" fill="#ff00a2" r="5"/>
<circle cx="459.5744680851064" cy="-21.37142857142857" fill="#ff00a2" r="5"/>
<circle cx="469.78723404255317" cy="-14.895238095238096" fill="#ff00a2" r="5"/>
<circle cx="480" cy="-22.666666666666668" fill="#ff00a2" r="5"/>
</g>
</g>
<g>
<g>
<line stroke="black" stroke-width="1" x1="0" x2="0" y1="0" y2="10"/>
<line stroke="black" stroke-width="1" x1="102.12765957446808" x2="102.12765957446808" y1="0" y2="10"/>
<line stroke="black" stroke-width="1" x1="204.25531914893617" x2="204.25531914893617" y1="0" y2="10"/>
<line stroke="black" stroke-width="1" x1="306.3829787234043" x2="306.3829787234043" y1="0" y2="10"/>
<line stroke="black" stroke-width="1" x1="408.51063829787233" x2="408.51063829787233" y1="0" y2="10"/>
</g>
<line stroke="black" stroke-width="1" x1="0" x2="480" y1="0" y2="0"/>
<g>
<text font-size="12" text-anchor="middle" x="0" y="20">
1
</text>
<text font-size="12" text-anchor="middle" x="102.12765957446808" y="20">
11
</text>
<text font-size="12" text-anchor="middle" x="204.25531914893617" y="20">
21
</text>
<text font-size="12" text-anchor="middle" x="306.3829787234043" y="20">
31
</text>
<text font-size="12" text-anchor="middle" x="408.51063829787233" y="20">
41
</text>
</g>
<text font-size="12" text-anchor="middle" x="240" y="30">

</text>
</g>
<g>
<g>
<line stroke="black" stroke-width="1" x1="0" x2="-10" y1="0" y2="0"/>
<line stroke="black" stroke-width="1" x1="0" x2="-10" y1="-64.76190476190476" y2="-64.76190476190476"/>
<line stroke="black" stroke-width="1" x1="0" x2="-10" y1="-129.52380952380952" y2="-129.52380952380952"/>
<line stroke="black" stroke-width="1" x1="0" x2="-10" y1="-194.28571428571428" y2="-194.28571428571428"/>
<line stroke="black" stroke-width="1" x1="0" x2="-10" y1="-259.04761904761904" y2="-259.04761904761904"/>
<line stroke="black" stroke-width="1" x1="0" x2="-10" y1="-323.8095238095238" y2="-323.8095238095238"/>
</g>
<line stroke="black" stroke-width="1" x1="0" x2="0" y1="0" y2="-340"/>
<g>
<text dominant-baseline="middle" font-size="12" text-anchor="end" x="-15" y="0">
1
</text>
<text dominant-baseline="middle" font-size="12" text-anchor="end" x="-15" y="-64.76190476190476">
101
</text>
<text dominant-baseline="middle" font-size="12" text-anchor="end" x="-15" y="-129.52380952380952">
201
</text>
<text dominant-baseline="middle" font-size="12" text-anchor="end" x="-15" y="-194.28571428571428">
301
</text>
<text dominant-baseline="middle" font-size="12" text-anchor="end" x="-15" y="-259.04761904761904">
401
</text>
<text dominant-baseline="middle" font-size="12" text-anchor="end" x="-15" y="-323.8095238095238">
501
</text>
</g>
<text font-size="12" text-anchor="middle" transform="rotate(-90 -36 -170)" x="-36" y="-182">

</text>
</g>
</g>
</svg>