<svg viewBox="0 0 600 400" xmlns="http://www.w3.org/2000/svg">
<g transform="translate(72, 364)">
<g>
<g>
<path d="M0,-14.713161 L0,-14.713161 L10.212766,-29.608128 L20.425531,-29.608128 L30.638298,-34.893436 L40.851063,-15.193645 L51.06383,-40.17875 L61.276596,-328.4684 L71.489365,-340 L81.702126,-29.608128 L91.914894,-15.193645 L102.12766,-40.17875 L112.34042,-15.674128 L122.55319,-29.608128 L132.76596,-16.635094 L142.97873,-29.608128 L153.19148,-30.08861 L163.40425,-24.322817 L173.61702,-15.674128 L183.82979,-17.115576 L194.04256,-16.15461 L204.25533,-15.674128 L214.46808,-15.193645 L224.68085,-15.193645 L234.89362,-14.713161 L245.10638,-18.076542 L255.31915,-14.713161 L265.53192,-15.193645 L275.7447,-15.674128 L285.95746,-15.674128 L296.17023,-15.674128 L306.38297,-18.557024 L316.59573,-15.674128 L326.8085,-15.193645 L337.02127,-14.713161 L347.23404,-15.193645 L357.4468,-19.51799" fill="none" stroke="#000000" stroke-linejoin="round" stroke-width="2"/>
</g>
<g>
<circle cx="0" cy="-14.713161714154758" fill="#000000" r="5"/>
<circle cx="10.212765957446809" cy="-29.608127721335265" fill="#000000" r="5"/>
<circle cx="20.425531914893618" cy="-29.608127721335265" fill="#000000" r="5"/>
<circle cx="30.638297872340427" cy="-34.893438240012216" fill="#000000" r="5"/>
<circle cx="40.851063829787236" cy="-15.193644488579935" fill="#000000" r="5"/>
<circle cx="51.06382978723404" cy="-40.178748758689174" fill="#000000" r="5"/>
<circle cx="61.276595744680854" cy="-328.4684134137957" fill="#000000" r="5"/>
<circle cx="71.48936170212765" cy="-340" fill="#000000" r="5"/>
<circle cx="81.70212765957447" cy="-29.608127721335265" fill="#000000" r="5"/>
<circle cx="91.91489361702128" cy="-15.193644488579935" fill="#000000" r="5"/>
<circle cx="102.12765957446808" cy="-40.178748758689174" fill="#000000" r="5"/>
<circle cx="112.34042553191489" cy="-15.674127263005113" fill="#000000" r="5"/>
<circle cx="122.55319148936171" cy="-29.608127721335265" fill="#000000" r="5"/>
<circle cx="132.7659574468085" cy="-16.63509281185547" fill="#000000" r="5"/>
<circle cx="142.9787234042553" cy="-29.608127721335265" fill="#000000" r="5"/>
<circle cx="153.19148936170214" cy="-30.08861049576044" fill="#000000" r="5"/>
<circle cx="163.40425531914894" cy="-24.32281720265831" fill="#000000" r="5"/>
<circle cx="173.61702127659575" cy="-15.674127263005113" fill="#000000" r="5"/>
<circle cx="183.82978723404256" cy="-17.115575586280645" fill="#000000" r="5"/>
<circle cx="194.04255319148936" cy="-16.154610037430288" fill="#000000" r="5"/>
<circle cx="204.25531914893617" cy="-15.674127263005113" fill="#000000" r="5"/>
<circle cx="214.46808510638297" cy="-15.193644488579935" fill="#000000" r="5"/>
<circle cx="224.68085106382978" cy="-15.193644488579935" fill="#000000" r="5"/>
<circle cx="234.89361702127658" cy="-14.713161714154758" fill="#000000" r="5"/>
<circle cx="245.10638297872342" cy="-18.076541135131" fill="#000000" r="5"/>
<circle cx="255.31914893617022" cy="-14.713161714154758" fill="#000000" r="5"/>
<circle cx="265.531914893617" cy="-15.193644488579935" fill="#000000" r="5"/>
<circle cx="275.74468085106383" cy="-15.674127263005113" fill="#000000" r="5"/>
<circle cx="285.9574468085106" cy="-15.674127263005113" fill="#000000" r="5"/>
<circle cx="296.17021276595744" cy="-15.674127263005113" fill="#000000" r="5"/>
<circle cx="306.3829787234043" cy="-18.55702390955618" fill="#000000" r="5"/>
<circle cx="316.59574468085106" cy="-15.674127263005113" fill="#000000" r="5"/>
<circle cx="326.8085106382979" cy="-15.193644488579935" fill="#000000" r="5"/>
<circle cx="337.02127659574467" cy="-14.713161714154758" fill="#000000" r="5"/>
<circle cx="347.2340425531915" cy="-15.193644488579935" fill="#000000" r="5"/>
<circle cx="357.4468085106383" cy="-19.517989458406532" fill="#000000" r="5"/>
</g>
</g>
<g>
<g>
<path d="M10.212766,-14.713161 L10.212766,-14.713161 L20.425531,-20.671148 L30.638298,-24.24594 L40.851063,-28.50494 L51.06383,-23.180422 L61.276596,-29.979752 L71.489365,-149.37521 L81.702126,-225.62514 L91.914894,-147.21832 L102.12766,-94.408455 L112.34042,-72.716576 L122.55319,-49.899593 L132.76596,-41.78301 L142.97873,-31.723843 L153.19148,-30.877556 L163.40425,-30.561977 L173.61702,-28.066313 L183.82979,-23.10944 L194.04256,-20.711893 L204.25533,-18.88898 L214.46808,-17.603039 L224.68085,-16.63928 L234.89362,-16.061026 L245.10638,-15.52188 L255.31915,-16.543745 L265.53192,-15.811512 L275.7447,-15.564364 L285.95746,-15.60827 L296.17023,-15.634613 L306.38297,-15.650418 L316.59573,-16.81306 L326.8085,-16.357487 L337.02127,-15.891951 L347.23404,-15.420435 L357.4468,-15.329719" fill="none" stroke="#af0af6" stroke-linejoin="round" stroke-width="2"/>
</g>
<g>
<circle cx="10.212765957446809" cy="-14.713161714154758" fill="#af0af6" r="5"/>
<circle cx="20.425531914893618" cy="-20.67114811702696" fill="#af0af6" r="5"/>
<circle cx="30.638297872340427" cy="-24.24593995875028" fill="#af0af6" r="5"/>
<circle cx="40.851063829787236" cy="-28.504939271255058" fill="#af0af6" r="5"/>
<circle cx="51.06382978723404" cy="-23.180421358185008" fill="#af0af6" r="5"/>
<circle cx="61.276595744680854" cy="-29.979752318386673" fill="#af0af6" r="5"/>
<circle cx="71.48936170212765" cy="-149.37521675655032" fill="#af0af6" r="5"/>
<circle cx="81.70212765957447" cy="-225.62513005393012" fill="#af0af6" r="5"/>
<circle cx="91.91489361702128" cy="-147.21832912089218" fill="#af0af6" r="5"/>
<circle cx="102.12765957446808" cy="-94.40845526796728" fill="#af0af6" r="5"/>
<circle cx="112.34042553191489" cy="-72.71657266425603" fill="#af0af6" r="5"/>
<circle cx="122.55319148936171" cy="-49.89959450375567" fill="#af0af6" r="5"/>
<circle cx="132.7659574468085" cy="-41.78300779078751" fill="#af0af6" r="5"/>
<circle cx="142.9787234042553" cy="-31.723841799214693" fill="#af0af6" r="5"/>
<circle cx="153.19148936170214" cy="-30.877556168062924" fill="#af0af6" r="5"/>
<circle cx="163.40425531914894" cy="-30.56197789914193" fill="#af0af6" r="5"/>
<circle cx="173.61702127659575" cy="-28.066313620548478" fill="#af0af6" r="5"/>
<circle cx="183.82978723404256" cy="-23.109439077531132" fill="#af0af6" r="5"/>
<circle cx="194.04255319148936" cy="-20.71189368103094" fill="#af0af6" r="5"/>
<circle cx="204.25531914893617" cy="-18.88898022359068" fill="#af0af6" r="5"/>
<circle cx="214.46808510638297" cy="-17.603039039356453" fill="#af0af6" r="5"/>
<circle cx="224.68085106382978" cy="-16.639281219045845" fill="#af0af6" r="5"/>
<circle cx="234.89361702127658" cy="-16.061026526859482" fill="#af0af6" r="5"/>
<circle cx="245.10638297872342" cy="-15.52188060177759" fill="#af0af6" r="5"/>
<circle cx="255.31914893617022" cy="-16.543744815118956" fill="#af0af6" r="5"/>
<circle cx="265.531914893617" cy="-15.811511574733276" fill="#af0af6" r="5"/>
<circle cx="275.74468085106383" cy="-15.564364740271941" fill="#af0af6" r="5"/>
<circle cx="285.9574468085106" cy="-15.60826974936521" fill="#af0af6" r="5"/>
<circle cx="296.17021276595744" cy="-15.634612754821172" fill="#af0af6" r="5"/>
<circle cx="306.3829787234043" cy="-15.65041855809475" fill="#af0af6" r="5"/>
<circle cx="316.59574468085106" cy="-16.813060698679323" fill="#af0af6" r="5"/>
<circle cx="326.8085106382979" cy="-16.357487324409636" fill="#af0af6" r="5"/>
<circle cx="337.02127659574467" cy="-15.891950190077756" fill="#af0af6" r="5"/>
<circle cx="347.2340425531915" cy="-15.420434799708557" fill="#af0af6" r="5"/>
<circle cx="357.4468085106383" cy="-15.329718675257109" fill="#af0af6" r="5"/>
</g>
</g>
<g>
<g>
<path d="M0,-75.95307 L0,-75.95307 L10.212766,-73.78298 L20.425531,-71.6129 L30.638298,-69.44281 L40.851063,-67.27272 L51.06383,-65.10263 L61.276596,-62.932545 L71.489365,-60.76246 L81.702126,-58.59237 L91.914894,-56.422283 L102.12766,-54.252193 L112.34042,-52.082108 L122.55319,-49.912018 L132.76596,-47.741932 L142.97873,-45.571842 L153.19148,-43.401756 L163.40425,-41.231667 L173.61702,-39.06158 L183.82979,-36.89149 L194.04256,-34.721405 L204.25533,-32.551315 L214.46808,-30.38123 L224.68085,-28.211142 L234.89362,-26.041054 L245.10638,-23.870966 L255.31915,-21.700878 L265.53192,-19.53079 L275.7447,-17.360703 L285.95746,-15.190615 L296.17023,-13.020527 L306.38297,-10.850439 L316.59573,-8.680351 L326.8085,-6.5102634 L337.02127,-4.3401756 L347.23404,-2.1700878 L357.4468,0" fill="none" stroke="#87faa4" stroke-linejoin="round" stroke-width="2"/>
</g>
<g>
<circle cx="0" cy="-75.95307208514757" fill="#87faa4" r="5"/>
<circle cx="10.212765957446809" cy="-73.7829843112862" fill="#87faa4" r="5"/>
<circle cx="20.425531914893618" cy="-71.61289653742483" fill="#87faa4" r="5"/>
<circle cx="30.638297872340427" cy="-69.44280876356348" fill="#87faa4" r="5"/>
<circle cx="40.851063829787236" cy="-67.27272098970212" fill="#87faa4" r="5"/>
<circle cx="51.06382978723404" cy="-65.10263321584077" fill="#87faa4" r="5"/>
<circle cx="61.276595744680854" cy="-62.9325454419794" fill="#87faa4" r="5"/>
<circle cx="71.48936170212765" cy="-60.762457668118046" fill="#87faa4" r="5"/>
<circle cx="81.70212765957447" cy="-58.59236989425669" fill="#87faa4" r="5"/>
<circle cx="91.91489361702128" cy="-56.42228212039533" fill="#87faa4" r="5"/>
<circle cx="102.12765957446808" cy="-54.25219434653396" fill="#87faa4" r="5"/>
<circle cx="112.34042553191489" cy="-52.08210657267262" fill="#87faa4" r="5"/>
<circle cx="122.55319148936171" cy="-49.91201879881125" fill="#87faa4" r="5"/>
<circle cx="132.7659574468085" cy="-47.74193102494989" fill="#87faa4" r="5"/>
<circle cx="142.9787234042553" cy="-45.57184325108853" fill="#87faa4" r="5"/>
<circle cx="153.19148936170214" cy="-43.40175547722718" fill="#87faa4" r="5"/>
<circle cx="163.40425531914894" cy="-41.231667703365815" fill="#87faa4" r="5"/>
<circle cx="173.61702127659575" cy="-39.06157992950446" fill="#87faa4" r="5"/>
<circle cx="183.82978723404256" cy="-36.8914921556431" fill="#87faa4" r="5"/>
<circle cx="194.04255319148936" cy="-34.72140438178174" fill="#87faa4" r="5"/>
<circle cx="204.25531914893617" cy="-32.551316607920384" fill="#87faa4" r="5"/>
<circle cx="214.46808510638297" cy="-30.381228834059026" fill="#87faa4" r="5"/>
<circle cx="224.68085106382978" cy="-28.211141060197665" fill="#87faa4" r="5"/>
<circle cx="234.89361702127658" cy="-26.04105328633631" fill="#87faa4" r="5"/>
<circle cx="245.10638297872342" cy="-23.870965512474946" fill="#87faa4" r="5"/>
<circle cx="255.31914893617022" cy="-21.70087773861359" fill="#87faa4" r="5"/>
<circle cx="265.531914893617" cy="-19.53078996475223" fill="#87faa4" r="5"/>
<circle cx="275.74468085106383" cy="-17.360702190890876" fill="#87faa4" r="5"/>
<circle cx="285.9574468085106" cy="-15.190614417029508" fill="#87faa4" r="5"/>
<circle cx="296.17021276595744" cy="-13.020526643168157" fill="#87faa4" r="5"/>
<circle cx="306.3829787234043" cy="-10.85043886930679" fill="#87faa4" r="5"/>
<circle cx="316.59574468085106" cy="-8.680351095445438" fill="#87faa4" r="5"/>
<circle cx="326.8085106382979" cy="-6.510263321584085" fill="#87faa4" r="5"/>
<circle cx="337.02127659574467" cy="-4.340175547722719" fill="#87faa4" r="5"/>
<circle cx="347.2340425531915" cy="-2.170087773861366" fill="#87faa4" r="5"/>
<circle cx="357.4468085106383" cy="0" fill="#87faa4" r="5"/>
</g>
</g>
<g>
<g>
<path d="M367.65958,-15.420435 L367.65958,-15.420435 L377.87234,-35.37392 L388.0851,-33.932472 L398.29788,-34.412956 L408.51065,-35.37392 L418.72342,-36.81537 L428.93616,-37.776337 L439.14893,-41.139713 L449.3617,-42.10068 L459.57446,-44.02261 L469.78723,-46.425026 L480,-49.788403" fill="none" stroke="#ff00a2" stroke-linejoin="round" stroke-width="2"/>
</g>
<g>
<circle cx="367.6595744680851" cy="-15.420434799708557" fill="#ff00a2" r="5"/>
<circle cx="377.8723404255319" cy="-35.37392101443739" fill="#ff00a2" r="5"/>
<circle cx="388.0851063829787" cy="-33.93247269116186" fill="#ff00a2" r="5"/>
<circle cx="398.29787234042556" cy="-34.41295546558704" fill="#ff00a2" r="5"/>
<circle cx="408.51063829787233" cy="-35.37392101443739" fill="#ff00a2" r="5"/>
<circle cx="418.72340425531917" cy="-36.81536933771293" fill="#ff00a2" r="5"/>
<circle cx="428.93617021276594" cy="-37.77633488656328" fill="#ff00a2" r="5"/>
<circle cx="439.1489361702128" cy="-41.13971430753953" fill="#ff00a2" r="5"/>
<circle cx="449.36170212765956" cy="-42.10067985638988" fill="#ff00a2" r="5"/>
<circle cx="459.5744680851064" cy="-44.02261095409059" fill="#ff00a2" r="5"/>
<circle cx="469.78723404255317" cy="-46.42502482621647" fill="#ff00a2" r="5"/>
<circle cx="480" cy="-49.788404247192716" fill="#ff00a2" r="5"/>
</g>
</g>
<g>
<g>
<line stroke="black" stroke-width="1" x1="0" x2="0" y1="0" y2="10"/>
<line stroke="black" stroke-width="1" x1="102.12765957446808" x2="102.12765957446808" y1="0" y2="10"/>
<line stroke="black" stroke-width="1" x1="204.25531914893617" x2="204.25531914893617" y1="0" y2="10"/>
<line stroke="black" stroke-width="1" x1="306.3829787234043" x2="306.3829787234043" y1="0" y2="10"/>
<line stroke="black" stroke-width="1" x1="408.51063829787233" x2="408.51063829787233" y1="0" y2="10"/>
</g>
<line stroke="black" stroke-width="1" x1="0" x2="480" y1="0" y2="0"/>
<g>
<text font-size="12" text-anchor="middle" x="0" y="20">
1
</text>
<text font-size="12" text-anchor="middle" x="102.12765957446808" y="20">
11
</text>
<text font-size="12" text-anchor="middle" x="204.25531914893617" y="20">
21
</text>
<text font-size="12" text-anchor="middle" x="306.3829787234043" y="20">
31
</text>
<text font-size="12" text-anchor="middle" x="408.51063829787233" y="20">
41
</text>
</g>
<text font-size="12" text-anchor="middle" x="240" y="30">

</text>
</g>
<g>
<g>
<line stroke="black" stroke-width="1" x1="0" x2="-10" y1="-14.23267893972958" y2="-14.23267893972958"/>
<line stroke="black" stroke-width="1" x1="0" x2="-10" y1="-110.3292338247651" y2="-110.3292338247651"/>
<line stroke="black" stroke-width="1" x1="0" x2="-10" y1="-206.42578870980063" y2="-206.42578870980063"/>
<line stroke="black" stroke-width="1" x1="0" x2="-10" y1="-302.5223435948361" y2="-302.5223435948361"/>
</g>
<line stroke="black" stroke-width="1" x1="0" x2="0" y1="0" y2="-340"/>
<g>
<text dominant-baseline="middle" font-size="12" text-anchor="end" x="-15" y="-14.23267893972958">
0
</text>
<text dominant-baseline="middle" font-size="12" text-anchor="end" x="-15" y="-110.3292338247651">
200
</text>
<text dominant-baseline="middle" font-size="12" text-anchor="end" x="-15" y="-206.42578870980063">
400
</text>
<text dominant-baseline="middle" font-size="12" text-anchor="end" x="-15" y="-302.5223435948361">
600
</text>
</g>
<text font-size="12" text-anchor="middle" transform="rotate(-90 -36 -170)" x="-36" y="-182">

</text>
</g>
</g>
</svg>