<svg viewBox="0 0 600 400" xmlns="http://www.w3.org/2000/svg">
<g transform="translate(72, 364)">
<g>
<g>
<path d="M0,-52.86219 L0,-52.86219 L10.212766,-46.254417 L20.425531,-46.254417 L30.638298,-340 L40.851063,-33.038868 L51.06383,-52.86219 L61.276596,-45.053005 L71.489365,-31.837456 L81.702126,-18.621908 L91.914894,-31.837456 L102.12766,-18.621908 L112.34042,-45.053005 L122.55319,-18.621908 L132.76596,-31.837456 L142.97873,-38.44523 L153.19148,-45.053005 L163.40425,-31.837456 L173.61702,-25.229683 L183.82979,-18.621908 L194.04256,-45.053005 L204.25533,-31.837456 L214.46808,-25.229683 L224.68085,-6.607774 L234.89362,-18.621908 L245.10638,-38.44523 L255.31915,-31.837456 L265.53192,-19.823322 L275.7447,-13.215548 L285.95746,-12.014134 L296.17023,-37.844524 L306.38297,-51.06007 L316.59573,-38.44523 L326.8085,-31.837456 L337.02127,-25.229683 L347.23404,-58.26855 L357.4468,-51.660778" fill="none" stroke="#000000" stroke-linejoin="round" stroke-width="2"/>
</g>
<g>
<circle cx="0" cy="-52.86219081272085" fill="#000000" r="5"/>
<circle cx="10.212765957446809" cy="-46.254416961130744" fill="#000000" r="5"/>
<circle cx="20.425531914893618" cy="-46.254416961130744" fill="#000000" r="5"/>
<circle cx="30.638297872340427" cy="-340" fill="#000000" r="5"/>
<circle cx="40.851063829787236" cy="-33.03886925795053" fill="#000000" r="5"/>
<circle cx="51.06382978723404" cy="-52.86219081272085" fill="#000000" r="5"/>
<circle cx="61.276595744680854" cy="-45.053003533568905" fill="#000000" r="5"/>
<circle cx="71.48936170212765" cy="-31.83745583038869" fill="#000000" r="5"/>
<circle cx="81.70212765957447" cy="-18.62190812720848" fill="#000000" r="5"/>
<circle cx="91.91489361702128" cy="-31.83745583038869" fill="#000000" r="5"/>
<circle cx="102.12765957446808" cy="-18.62190812720848" fill="#000000" r="5"/>
<circle cx="112.34042553191489" cy="-45.053003533568905" fill="#000000" r="5"/>
<circle cx="122.55319148936171" cy="-18.62190812720848" fill="#000000" r="5"/>
<circle cx="132.7659574468085" cy="-31.83745583038869" fill="#000000" r="5"/>
<circle cx="142.9787234042553" cy="-38.4452296819788" fill="#000000" r="5"/>
<circle cx="153.19148936170214" cy="-45.053003533568905" fill="#000000" r="5"/>
<circle cx="163.40425531914894" cy="-31.83745583038869" fill="#000000" r="5"/>
<circle cx="173.61702127659575" cy="-25.229681978798588" fill="#000000" r="5"/>
<circle cx="183.82978723404256" cy="-18.62190812720848" fill="#000000" r="5"/>
<circle cx="194.04255319148936" cy="-45.053003533568905" fill="#000000" r="5"/>
<circle cx="204.25531914893617" cy="-31.83745583038869" fill="#000000" r="5"/>
<circle cx="214.46808510638297" cy="-25.229681978798588" fill="#000000" r="5"/>
<circle cx="224.68085106382978" cy="-6.607773851590106" fill="#000000" r="5"/>
<circle cx="234.89361702127658" cy="-18.62190812720848" fill="#000000" r="5"/>
<circle cx="245.10638297872342" cy="-38.4452296819788" fill="#000000" r="5"/>
<circle cx="255.31914893617022" cy="-31.83745583038869" fill="#000000" r="5"/>
<circle cx="265.531914893617" cy="-19.823321554770317" fill="#000000" r="5"/>
<circle cx="275.74468085106383" cy="-13.215547703180212" fill="#000000" r="5"/>
<circle cx="285.9574468085106" cy="-12.014134275618375" fill="#000000" r="5"/>
<circle cx="296.17021276595744" cy="-37.84452296819788" fill="#000000" r="5"/>
<circle cx="306.3829787234043" cy="-51.06007067137809" fill="#000000" r="5"/>
<circle cx="316.59574468085106" cy="-38.4452296819788" fill="#000000" r="5"/>
<circle cx="326.8085106382979" cy="-31.83745583038869" fill="#000000" r="5"/>
<circle cx="337.02127659574467" cy="-25.229681978798588" fill="#000000" r="5"/>
<circle cx="347.2340425531915" cy="-58.26855123674912" fill="#000000" r="5"/>
<circle cx="357.4468085106383" cy="-51.66077738515901" fill="#000000" r="5"/>
</g>
</g>
<g>
<g>
<path d="M10.212766,-52.86219 L10.212766,-52.86219 L20.425531,-50.21908 L30.638298,-48.633217 L40.851063,-165.17993 L51.06383,-112.3235 L61.276596,-88.53898 L71.489365,-71.14459 L81.702126,-55.421738 L91.914894,-40.701805 L102.12766,-37.156067 L112.34042,-29.742403 L122.55319,-35.866642 L132.76596,-28.968748 L142.97873,-30.116232 L153.19148,-33.44783 L163.40425,-38.0899 L173.61702,-35.58892 L183.82979,-31.445227 L194.04256,-26.315899 L204.25533,-33.81074 L214.46808,-33.021427 L224.68085,-29.904728 L234.89362,-20.585947 L245.10638,-19.800331 L255.31915,-27.258291 L265.53192,-29.089956 L275.7447,-25.383303 L285.95746,-20.516201 L296.17023,-17.115374 L306.38297,-25.407034 L316.59573,-35.668247 L326.8085,-36.77904 L337.02127,-34.802406 L347.23404,-30.973316 L357.4468,-41.89141" fill="none" stroke="#af0af6" stroke-linejoin="round" stroke-width="2"/>
</g>
<g>
<circle cx="10.212765957446809" cy="-52.86219081272085" fill="#af0af6" r="5"/>
<circle cx="20.425531914893618" cy="-50.2190812720848" fill="#af0af6" r="5"/>
<circle cx="30.638297872340427" cy="-48.63321554770318" fill="#af0af6" r="5"/>
<circle cx="40.851063829787236" cy="-165.1799293286219" fill="#af0af6" r="5"/>
<circle cx="51.06382978723404" cy="-112.32350530035336" fill="#af0af6" r="5"/>
<circle cx="61.276595744680854" cy="-88.53897950530035" fill="#af0af6" r="5"/>
<circle cx="71.48936170212765" cy="-71.14458911660776" fill="#af0af6" r="5"/>
<circle cx="81.70212765957447" cy="-55.42173580212013" fill="#af0af6" r="5"/>
<circle cx="91.91489361702128" cy="-40.70180473215547" fill="#af0af6" r="5"/>
<circle cx="102.12765957446808" cy="-37.156065171448766" fill="#af0af6" r="5"/>
<circle cx="112.34042553191489" cy="-29.74240235375265" fill="#af0af6" r="5"/>
<circle cx="122.55319148936171" cy="-35.86664282567915" fill="#af0af6" r="5"/>
<circle cx="132.7659574468085" cy="-28.968748946290884" fill="#af0af6" r="5"/>
<circle cx="142.9787234042553" cy="-30.116231699930008" fill="#af0af6" r="5"/>
<circle cx="153.19148936170214" cy="-33.44783089274952" fill="#af0af6" r="5"/>
<circle cx="163.40425531914894" cy="-38.08989994907727" fill="#af0af6" r="5"/>
<circle cx="173.61702127659575" cy="-35.58892230160184" fill="#af0af6" r="5"/>
<circle cx="183.82978723404256" cy="-31.44522617248054" fill="#af0af6" r="5"/>
<circle cx="194.04255319148936" cy="-26.31589895437172" fill="#af0af6" r="5"/>
<circle cx="204.25531914893617" cy="-33.810740786050594" fill="#af0af6" r="5"/>
<circle cx="214.46808510638297" cy="-33.021426803785836" fill="#af0af6" r="5"/>
<circle cx="224.68085106382978" cy="-29.904728873790933" fill="#af0af6" r="5"/>
<circle cx="234.89361702127658" cy="-20.5859468649106" fill="#af0af6" r="5"/>
<circle cx="245.10638297872342" cy="-19.800331369829753" fill="#af0af6" r="5"/>
<circle cx="255.31914893617022" cy="-27.25829069468937" fill="#af0af6" r="5"/>
<circle cx="265.531914893617" cy="-29.0899567489691" fill="#af0af6" r="5"/>
<circle cx="275.74468085106383" cy="-25.383302671289584" fill="#af0af6" r="5"/>
<circle cx="285.9574468085106" cy="-20.516200684045838" fill="#af0af6" r="5"/>
<circle cx="296.17021276595744" cy="-17.11537412067485" fill="#af0af6" r="5"/>
<circle cx="306.3829787234043" cy="-25.407033659684064" fill="#af0af6" r="5"/>
<circle cx="316.59574468085106" cy="-35.668248464361675" fill="#af0af6" r="5"/>
<circle cx="326.8085106382979" cy="-36.779040951408525" fill="#af0af6" r="5"/>
<circle cx="337.02127659574467" cy="-34.802406903000595" fill="#af0af6" r="5"/>
<circle cx="347.2340425531915" cy="-30.973316933319786" fill="#af0af6" r="5"/>
<circle cx="357.4468085106383" cy="-41.891410654691526" fill="#af0af6" r="5"/>
</g>
</g>
<g>
<g>
<path d="M0,-65.029655 L0,-65.029655 L10.212766,-63.708878 L20.425531,-62.388096 L30.638298,-61.067314 L40.851063,-59.746532 L51.06383,-58.42575 L61.276596,-57.10497 L71.489365,-55.784187 L81.702126,-54.463406 L91.914894,-53.142624 L102.12766,-51.821842 L112.34042,-50.50106 L122.55319,-49.18028 L132.76596,-47.859497 L142.97873,-46.538715 L153.19148,-45.217934 L163.40425,-43.897152 L173.61702,-42.57637 L183.82979,-41.25559 L194.04256,-39.934807 L204.25533,-38.614025 L214.46808,-37.293243 L224.68085,-35.97246 L234.89362,-34.65168 L245.10638,-33.3309 L255.31915,-32.010117 L265.53192,-30.689335 L275.7447,-29.368553 L285.95746,-28.047771 L296.17023,-26.72699 L306.38297,-25.406208 L316.59573,-24.085426 L326.8085,-22.764645 L337.02127,-21.443863 L347.23404,-20.123083 L357.4468,-18.802301" fill="none" stroke="#87faa4" stroke-linejoin="round" stroke-width="2"/>
</g>
<g>
<circle cx="0" cy="-65.0296586338989" fill="#87faa4" r="5"/>
<circle cx="10.212765957446809" cy="-63.70887697389463" fill="#87faa4" r="5"/>
<circle cx="20.425531914893618" cy="-62.38809531389036" fill="#87faa4" r="5"/>
<circle cx="30.638297872340427" cy="-61.06731365388609" fill="#87faa4" r="5"/>
<circle cx="40.851063829787236" cy="-59.74653199388182" fill="#87faa4" r="5"/>
<circle cx="51.06382978723404" cy="-58.42575033387753" fill="#87faa4" r="5"/>
<circle cx="61.276595744680854" cy="-57.104968673873266" fill="#87faa4" r="5"/>
<circle cx="71.48936170212765" cy="-55.78418701386899" fill="#87faa4" r="5"/>
<circle cx="81.70212765957447" cy="-54.46340535386471" fill="#87faa4" r="5"/>
<circle cx="91.91489361702128" cy="-53.142623693860436" fill="#87faa4" r="5"/>
<circle cx="102.12765957446808" cy="-51.821842033856164" fill="#87faa4" r="5"/>
<circle cx="112.34042553191489" cy="-50.501060373851885" fill="#87faa4" r="5"/>
<circle cx="122.55319148936171" cy="-49.18027871384761" fill="#87faa4" r="5"/>
<circle cx="132.7659574468085" cy="-47.85949705384334" fill="#87faa4" r="5"/>
<circle cx="142.9787234042553" cy="-46.53871539383906" fill="#87faa4" r="5"/>
<circle cx="153.19148936170214" cy="-45.21793373383478" fill="#87faa4" r="5"/>
<circle cx="163.40425531914894" cy="-43.89715207383051" fill="#87faa4" r="5"/>
<circle cx="173.61702127659575" cy="-42.57637041382625" fill="#87faa4" r="5"/>
<circle cx="183.82978723404256" cy="-41.25558875382197" fill="#87faa4" r="5"/>
<circle cx="194.04255319148936" cy="-39.93480709381769" fill="#87faa4" r="5"/>
<circle cx="204.25531914893617" cy="-38.61402543381341" fill="#87faa4" r="5"/>
<circle cx="214.46808510638297" cy="-37.29324377380914" fill="#87faa4" r="5"/>
<circle cx="224.68085106382978" cy="-35.972462113804866" fill="#87faa4" r="5"/>
<circle cx="234.89361702127658" cy="-34.651680453800594" fill="#87faa4" r="5"/>
<circle cx="245.10638297872342" cy="-33.33089879379632" fill="#87faa4" r="5"/>
<circle cx="255.31914893617022" cy="-32.010117133792036" fill="#87faa4" r="5"/>
<circle cx="265.531914893617" cy="-30.689335473787768" fill="#87faa4" r="5"/>
<circle cx="275.74468085106383" cy="-29.368553813783493" fill="#87faa4" r="5"/>
<circle cx="285.9574468085106" cy="-28.047772153779217" fill="#87faa4" r="5"/>
<circle cx="296.17021276595744" cy="-26.726990493774945" fill="#87faa4" r="5"/>
<circle cx="306.3829787234043" cy="-25.406208833770663" fill="#87faa4" r="5"/>
<circle cx="316.59574468085106" cy="-24.085427173766394" fill="#87faa4" r="5"/>
<circle cx="326.8085106382979" cy="-22.76464551376212" fill="#87faa4" r="5"/>
<circle cx="337.02127659574467" cy="-21.443863853757843" fill="#87faa4" r="5"/>
<circle cx="347.2340425531915" cy="-20.12308219375357" fill="#87faa4" r="5"/>
<circle cx="357.4468085106383" cy="-18.802300533749293" fill="#87faa4" r="5"/>
</g>
</g>
<g>
<g>
<path d="M367.65958,-30.973316 L367.65958,-30.973316 L377.87234,-8.409894 L388.0851,-13.816255 L398.29788,-9.611307 L408.51065,-4.204947 L418.72342,0 L428.93616,-12.014134 L439.14893,-5.4063606 L449.3617,-91.30742 L459.57446,-24.628975 L469.78723,-16.219082 L480,-33.038868" fill="none" stroke="#ff00a2" stroke-linejoin="round" stroke-width="2"/>
</g>
<g>
<circle cx="367.6595744680851" cy="-30.973316933319786" fill="#ff00a2" r="5"/>
<circle cx="377.8723404255319" cy="-8.409893992932862" fill="#ff00a2" r="5"/>
<circle cx="388.0851063829787" cy="-13.816254416961131" fill="#ff00a2" r="5"/>
<circle cx="398.29787234042556" cy="-9.6113074204947" fill="#ff00a2" r="5"/>
<circle cx="408.51063829787233" cy="-4.204946996466431" fill="#ff00a2" r="5"/>
<circle cx="418.72340425531917" cy="0" fill="#ff00a2" r="5"/>
<circle cx="428.93617021276594" cy="-12.014134275618375" fill="#ff00a2" r="5"/>
<circle cx="439.1489361702128" cy="-5.406360424028269" fill="#ff00a2" r="5"/>
<circle cx="449.36170212765956" cy="-91.30742049469964" fill="#ff00a2" r="5"/>
<circle cx="459.5744680851064" cy="-24.62897526501767" fill="#ff00a2" r="5"/>
<circle cx="469.78723404255317" cy="-16.219081272084807" fill="#ff00a2" r="5"/>
<circle cx="480" cy="-33.03886925795053" fill="#ff00a2" r="5"/>
</g>
</g>
<g>
<g>
<line stroke="black" stroke-width="1" x1="0" x2="0" y1="0" y2="10"/>
<line stroke="black" stroke-width="1" x1="102.12765957446808" x2="102.12765957446808" y1="0" y2="10"/>
<line stroke="black" stroke-width="1" x1="204.25531914893617" x2="204.25531914893617" y1="0" y2="10"/>
<line stroke="black" stroke-width="1" x1="306.3829787234043" x2="306.3829787234043" y1="0" y2="10"/>
<line stroke="black" stroke-width="1" x1="408.51063829787233" x2="408.51063829787233" y1="0" y2="10"/>
</g>
<line stroke="black" stroke-width="1" x1="0" x2="480" y1="0" y2="0"/>
<g>
<text font-size="12" text-anchor="middle" x="0" y="20">
1
</text>
<text font-size="12" text-anchor="middle" x="102.12765957446808" y="20">
11
</text>
<text font-size="12" text-anchor="middle" x="204.25531914893617" y="20">
21
</text>
<text font-size="12" text-anchor="middle" x="306.3829787234043" y="20">
31
</text>
<text font-size="12" text-anchor="middle" x="408.51063829787233" y="20">
41
</text>
</g>
<text font-size="12" text-anchor="middle" x="240" y="30">

</text>
</g>
<g>
<g>
<line stroke="black" stroke-width="1" x1="0" x2="-10" y1="0" y2="0"/>
<line stroke="black" stroke-width="1" x1="0" x2="-10" y1="-60.07067137809187" y2="-60.07067137809187"/>
<line stroke="black" stroke-width="1" x1="0" x2="-10" y1="-120.14134275618375" y2="-120.14134275618375"/>
<line stroke="black" stroke-width="1" x1="0" x2="-10" y1="-180.21201413427562" y2="-180.21201413427562"/>
<line stroke="black" stroke-width="1" x1="0" x2="-10" y1="-240.2826855123675" y2="-240.2826855123675"/>
<line stroke="black" stroke-width="1" x1="0" x2="-10" y1="-300.35335689045934" y2="-300.35335689045934"/>
</g>
<line stroke="black" stroke-width="1" x1="0" x2="0" y1="0" y2="-340"/>
<g>
<text dominant-baseline="middle" font-size="12" text-anchor="end" x="-15" y="0">
1
</text>
<text dominant-baseline="middle" font-size="12" text-anchor="end" x="-15" y="-60.07067137809187">
101
</text>
<text dominant-baseline="middle" font-size="12" text-anchor="end" x="-15" y="-120.14134275618375">
201
</text>
<text dominant-baseline="middle" font-size="12" text-anchor="end" x="-15" y="-180.21201413427562">
301
</text>
<text dominant-baseline="middle" font-size="12" text-anchor="end" x="-15" y="-240.2826855123675">
401
</text>
<text dominant-baseline="middle" font-size="12" text-anchor="end" x="-15" y="-300.35335689045934">
501
</text>
</g>
<text font-size="12" text-anchor="middle" transform="rotate(-90 -36 -170)" x="-36" y="-182">

</text>
</g>
</g>
</svg>