<svg viewBox="0 0 600 400" xmlns="http://www.w3.org/2000/svg">
<g transform="translate(72, 364)">
<g>
<g>
<path d="M0,-7.056478 L0,-7.056478 L10.212766,-4.1022325 L20.425531,-10.010724 L30.638298,-10.306149 L40.851063,-14.146668 L51.06383,-10.010724 L61.276596,-0.5571371 L71.489365,-16.80549 L81.702126,-19.759735 L91.914894,-23.600256 L102.12766,-4.397657 L112.34042,-16.80549 L122.55319,-13.851244 L132.76596,-23.600256 L142.97873,-7.351903 L153.19148,-3.8068078 L163.40425,-10.010724 L173.61702,-10.306149 L183.82979,-23.30483 L194.04256,-19.759735 L204.25533,-13.851244 L214.46808,-13.260395 L224.68085,-26.554502 L234.89362,-4.1022325 L245.10638,-16.214642 L255.31915,-16.80549 L265.53192,-7.351903 L275.7447,-6.7610536 L285.95746,-4.1022325 L296.17023,-4.1022325 L306.38297,-127.88514 L316.59573,-9.7153 L326.8085,-62.891727 L337.02127,-59.642056 L347.23404,-127.589714 L357.4468,-0.5571371" fill="none" stroke="#000000" stroke-linejoin="round" stroke-width="2"/>
</g>
<g>
<circle cx="0" cy="-7.056478231940401" fill="#000000" r="5"/>
<circle cx="10.212765957446809" cy="-4.102232253519287" fill="#000000" r="5"/>
<circle cx="20.425531914893618" cy="-10.010724210361516" fill="#000000" r="5"/>
<circle cx="30.638297872340427" cy="-10.306148808203629" fill="#000000" r="5"/>
<circle cx="40.851063829787236" cy="-14.146668580151076" fill="#000000" r="5"/>
<circle cx="51.06382978723404" cy="-10.010724210361516" fill="#000000" r="5"/>
<circle cx="61.276595744680854" cy="-0.5571370794139502" fill="#000000" r="5"/>
<circle cx="71.48936170212765" cy="-16.805489960730082" fill="#000000" r="5"/>
<circle cx="81.70212765957447" cy="-19.759735939151195" fill="#000000" r="5"/>
<circle cx="91.91489361702128" cy="-23.600255711098644" fill="#000000" r="5"/>
<circle cx="102.12765957446808" cy="-4.397656851361399" fill="#000000" r="5"/>
<circle cx="112.34042553191489" cy="-16.805489960730082" fill="#000000" r="5"/>
<circle cx="122.55319148936171" cy="-13.851243982308965" fill="#000000" r="5"/>
<circle cx="132.7659574468085" cy="-23.600255711098644" fill="#000000" r="5"/>
<circle cx="142.9787234042553" cy="-7.351902829782514" fill="#000000" r="5"/>
<circle cx="153.19148936170214" cy="-3.8068076556771757" fill="#000000" r="5"/>
<circle cx="163.40425531914894" cy="-10.010724210361516" fill="#000000" r="5"/>
<circle cx="173.61702127659575" cy="-10.306148808203629" fill="#000000" r="5"/>
<circle cx="183.82978723404256" cy="-23.304831113256533" fill="#000000" r="5"/>
<circle cx="194.04255319148936" cy="-19.759735939151195" fill="#000000" r="5"/>
<circle cx="204.25531914893617" cy="-13.851243982308965" fill="#000000" r="5"/>
<circle cx="214.46808510638297" cy="-13.260394786624742" fill="#000000" r="5"/>
<circle cx="224.68085106382978" cy="-26.554501689519757" fill="#000000" r="5"/>
<circle cx="234.89361702127658" cy="-4.102232253519287" fill="#000000" r="5"/>
<circle cx="245.10638297872342" cy="-16.214640765045857" fill="#000000" r="5"/>
<circle cx="255.31914893617022" cy="-16.805489960730082" fill="#000000" r="5"/>
<circle cx="265.531914893617" cy="-7.351902829782514" fill="#000000" r="5"/>
<circle cx="275.74468085106383" cy="-6.76105363409829" fill="#000000" r="5"/>
<circle cx="285.9574468085106" cy="-4.102232253519287" fill="#000000" r="5"/>
<circle cx="296.17021276595744" cy="-4.102232253519287" fill="#000000" r="5"/>
<circle cx="306.3829787234043" cy="-127.88513874936399" fill="#000000" r="5"/>
<circle cx="316.59574468085106" cy="-9.715299612519406" fill="#000000" r="5"/>
<circle cx="326.8085106382979" cy="-62.89172722409946" fill="#000000" r="5"/>
<circle cx="337.02127659574467" cy="-59.642056647836235" fill="#000000" r="5"/>
<circle cx="347.2340425531915" cy="-127.58971415152187" fill="#000000" r="5"/>
<circle cx="357.4468085106383" cy="-0.5571370794139502" fill="#000000" r="5"/>
</g>
</g>
<g>
<g>
<path d="M10.212766,-7.056478 L10.212766,-7.056478 L20.425531,-5.8747797 L30.638298,-7.5291576 L40.851063,-8.639954 L51.06383,-10.84264 L61.276596,-10.509873 L71.489365,-6.528779 L81.702126,-10.639463 L91.914894,-14.287573 L102.12766,-18.012646 L112.34042,-12.56665 L122.55319,-14.262186 L132.76596,-14.097809 L142.97873,-17.898788 L153.19148,-13.680034 L163.40425,-9.730743 L173.61702,-9.842735 L183.82979,-10.028101 L194.04256,-15.338793 L204.25533,-17.10717 L214.46808,-15.8048 L224.68085,-14.787038 L234.89362,-19.494022 L245.10638,-13.337307 L255.31915,-14.48824 L265.53192,-15.41514 L275.7447,-12.189845 L285.95746,-10.018329 L296.17023,-7.6518903 L306.38297,-6.232027 L316.59573,-54.893272 L326.8085,-36.822083 L337.02127,-47.24994 L347.23404,-52.206787 L357.4468,-82.359955" fill="none" stroke="#af0af6" stroke-linejoin="round" stroke-width="2"/>
</g>
<g>
<circle cx="10.212765957446809" cy="-7.056478231940401" fill="#af0af6" r="5"/>
<circle cx="20.425531914893618" cy="-5.874779840571955" fill="#af0af6" r="5"/>
<circle cx="30.638297872340427" cy="-7.529157588487777" fill="#af0af6" r="5"/>
<circle cx="40.851063829787236" cy="-8.639954076374119" fill="#af0af6" r="5"/>
<circle cx="51.06382978723404" cy="-10.842639877884903" fill="#af0af6" r="5"/>
<circle cx="61.276595744680854" cy="-10.509873610875548" fill="#af0af6" r="5"/>
<circle cx="71.48936170212765" cy="-6.528778998290909" fill="#af0af6" r="5"/>
<circle cx="81.70212765957447" cy="-10.639463383266577" fill="#af0af6" r="5"/>
<circle cx="91.91489361702128" cy="-14.287572405620425" fill="#af0af6" r="5"/>
<circle cx="102.12765957446808" cy="-18.012645727811712" fill="#af0af6" r="5"/>
<circle cx="112.34042553191489" cy="-12.566650177231585" fill="#af0af6" r="5"/>
<circle cx="122.55319148936171" cy="-14.262186090630985" fill="#af0af6" r="5"/>
<circle cx="132.7659574468085" cy="-14.097809247302179" fill="#af0af6" r="5"/>
<circle cx="142.9787234042553" cy="-17.898787832820762" fill="#af0af6" r="5"/>
<circle cx="153.19148936170214" cy="-13.680033831605463" fill="#af0af6" r="5"/>
<circle cx="163.40425531914894" cy="-9.73074336123415" fill="#af0af6" r="5"/>
<circle cx="173.61702127659575" cy="-9.842735700885097" fill="#af0af6" r="5"/>
<circle cx="183.82978723404256" cy="-10.02810094381251" fill="#af0af6" r="5"/>
<circle cx="194.04255319148936" cy="-15.338793011590118" fill="#af0af6" r="5"/>
<circle cx="204.25531914893617" cy="-17.107170182614546" fill="#af0af6" r="5"/>
<circle cx="214.46808510638297" cy="-15.804799702492316" fill="#af0af6" r="5"/>
<circle cx="224.68085106382978" cy="-14.787037736145283" fill="#af0af6" r="5"/>
<circle cx="234.89361702127658" cy="-19.494023317495074" fill="#af0af6" r="5"/>
<circle cx="245.10638297872342" cy="-13.337306891904761" fill="#af0af6" r="5"/>
<circle cx="255.31914893617022" cy="-14.4882404411612" fill="#af0af6" r="5"/>
<circle cx="265.531914893617" cy="-15.415140248988752" fill="#af0af6" r="5"/>
<circle cx="275.74468085106383" cy="-12.189845281306255" fill="#af0af6" r="5"/>
<circle cx="285.9574468085106" cy="-10.01832862242307" fill="#af0af6" r="5"/>
<circle cx="296.17021276595744" cy="-7.651890074861556" fill="#af0af6" r="5"/>
<circle cx="306.3829787234043" cy="-6.232026946324648" fill="#af0af6" r="5"/>
<circle cx="316.59574468085106" cy="-54.89327166754038" fill="#af0af6" r="5"/>
<circle cx="326.8085106382979" cy="-36.82208284553199" fill="#af0af6" r="5"/>
<circle cx="337.02127659574467" cy="-47.24994059695898" fill="#af0af6" r="5"/>
<circle cx="347.2340425531915" cy="-52.206787017309885" fill="#af0af6" r="5"/>
<circle cx="357.4468085106383" cy="-82.35995787099468" fill="#af0af6" r="5"/>
</g>
</g>
<g>
<g>
<path d="M0,0 L0,0 L10.212766,-1.1919641 L20.425531,-2.3839283 L30.638298,-3.5758924 L40.851063,-4.7678566 L51.06383,-5.9598207 L61.276596,-7.151785 L71.489365,-8.343749 L81.702126,-9.535713 L91.914894,-10.727677 L102.12766,-11.9196415 L112.34042,-13.111606 L122.55319,-14.30357 L132.76596,-15.495533 L142.97873,-16.687498 L153.19148,-17.879461 L163.40425,-19.071426 L173.61702,-20.26339 L183.82979,-21.455355 L194.04256,-22.647318 L204.25533,-23.839283 L214.46808,-25.031246 L224.68085,-26.223211 L234.89362,-27.415174 L245.10638,-28.60714 L255.31915,-29.799103 L265.53192,-30.991066 L275.7447,-32.18303 L285.95746,-33.374996 L296.17023,-34.56696 L306.38297,-35.758923 L316.59573,-36.950886 L326.8085,-38.142853 L337.02127,-39.334816 L347.23404,-40.52678 L357.4468,-41.718742" fill="none" stroke="#87faa4" stroke-linejoin="round" stroke-width="2"/>
</g>
<g>
<circle cx="0" cy="0" fill="#87faa4" r="5"/>
<circle cx="10.212765957446809" cy="-1.191964110984581" fill="#87faa4" r="5"/>
<circle cx="20.425531914893618" cy="-2.383928221969162" fill="#87faa4" r="5"/>
<circle cx="30.638297872340427" cy="-3.5758923329537424" fill="#87faa4" r="5"/>
<circle cx="40.851063829787236" cy="-4.7678564439383235" fill="#87faa4" r="5"/>
<circle cx="51.06382978723404" cy="-5.959820554922905" fill="#87faa4" r="5"/>
<circle cx="61.276595744680854" cy="-7.151784665907487" fill="#87faa4" r="5"/>
<circle cx="71.48936170212765" cy="-8.343748776892065" fill="#87faa4" r="5"/>
<circle cx="81.70212765957447" cy="-9.535712887876649" fill="#87faa4" r="5"/>
<circle cx="91.91489361702128" cy="-10.727676998861227" fill="#87faa4" r="5"/>
<circle cx="102.12765957446808" cy="-11.91964110984581" fill="#87faa4" r="5"/>
<circle cx="112.34042553191489" cy="-13.111605220830391" fill="#87faa4" r="5"/>
<circle cx="122.55319148936171" cy="-14.30356933181497" fill="#87faa4" r="5"/>
<circle cx="132.7659574468085" cy="-15.495533442799553" fill="#87faa4" r="5"/>
<circle cx="142.9787234042553" cy="-16.68749755378413" fill="#87faa4" r="5"/>
<circle cx="153.19148936170214" cy="-17.879461664768712" fill="#87faa4" r="5"/>
<circle cx="163.40425531914894" cy="-19.071425775753298" fill="#87faa4" r="5"/>
<circle cx="173.61702127659575" cy="-20.263389886737876" fill="#87faa4" r="5"/>
<circle cx="183.82978723404256" cy="-21.455353997722458" fill="#87faa4" r="5"/>
<circle cx="194.04255319148936" cy="-22.647318108707037" fill="#87faa4" r="5"/>
<circle cx="204.25531914893617" cy="-23.83928221969162" fill="#87faa4" r="5"/>
<circle cx="214.46808510638297" cy="-25.031246330676197" fill="#87faa4" r="5"/>
<circle cx="224.68085106382978" cy="-26.22321044166078" fill="#87faa4" r="5"/>
<circle cx="234.89361702127658" cy="-27.415174552645365" fill="#87faa4" r="5"/>
<circle cx="245.10638297872342" cy="-28.60713866362994" fill="#87faa4" r="5"/>
<circle cx="255.31914893617022" cy="-29.79910277461452" fill="#87faa4" r="5"/>
<circle cx="265.531914893617" cy="-30.9910668855991" fill="#87faa4" r="5"/>
<circle cx="275.74468085106383" cy="-32.18303099658368" fill="#87faa4" r="5"/>
<circle cx="285.9574468085106" cy="-33.37499510756826" fill="#87faa4" r="5"/>
<circle cx="296.17021276595744" cy="-34.566959218552846" fill="#87faa4" r="5"/>
<circle cx="306.3829787234043" cy="-35.758923329537424" fill="#87faa4" r="5"/>
<circle cx="316.59574468085106" cy="-36.950887440522" fill="#87faa4" r="5"/>
<circle cx="326.8085106382979" cy="-38.14285155150659" fill="#87faa4" r="5"/>
<circle cx="337.02127659574467" cy="-39.33481566249117" fill="#87faa4" r="5"/>
<circle cx="347.2340425531915" cy="-40.52677977347574" fill="#87faa4" r="5"/>
<circle cx="357.4468085106383" cy="-41.718743884460324" fill="#87faa4" r="5"/>
</g>
</g>
<g>
<g>
<path d="M367.65958,-52.206787 L367.65958,-52.206787 L377.87234,-340 L388.0851,-122.86292 L398.29788,-59.05121 L408.51065,-13.260395 L418.72342,-5.8747797 L428.93616,-20.05516 L439.14893,-228.92035 L449.3617,-50.18847 L459.57446,-43.984554 L469.78723,-46.052525 L480,-44.279976" fill="none" stroke="#ff00a2" stroke-linejoin="round" stroke-width="2"/>
</g>
<g>
<circle cx="367.6595744680851" cy="-52.206787017309885" fill="#ff00a2" r="5"/>
<circle cx="377.8723404255319" cy="-340" fill="#ff00a2" r="5"/>
<circle cx="388.0851063829787" cy="-122.86292058604809" fill="#ff00a2" r="5"/>
<circle cx="398.29787234042556" cy="-59.05120745215201" fill="#ff00a2" r="5"/>
<circle cx="408.51063829787233" cy="-13.260394786624742" fill="#ff00a2" r="5"/>
<circle cx="418.72340425531917" cy="-5.874779840571955" fill="#ff00a2" r="5"/>
<circle cx="428.93617021276594" cy="-20.055160536993306" fill="#ff00a2" r="5"/>
<circle cx="439.1489361702128" cy="-228.92035121136607" fill="#ff00a2" r="5"/>
<circle cx="449.36170212765956" cy="-50.18846951688867" fill="#ff00a2" r="5"/>
<circle cx="459.5744680851064" cy="-43.984552962204326" fill="#ff00a2" r="5"/>
<circle cx="469.78723404255317" cy="-46.05252514709911" fill="#ff00a2" r="5"/>
<circle cx="480" cy="-44.27997756004644" fill="#ff00a2" r="5"/>
</g>
</g>
<g>
<g>
<line stroke="black" stroke-width="1" x1="0" x2="0" y1="0" y2="10"/>
<line stroke="black" stroke-width="1" x1="102.12765957446808" x2="102.12765957446808" y1="0" y2="10"/>
<line stroke="black" stroke-width="1" x1="204.25531914893617" x2="204.25531914893617" y1="0" y2="10"/>
<line stroke="black" stroke-width="1" x1="306.3829787234043" x2="306.3829787234043" y1="0" y2="10"/>
<line stroke="black" stroke-width="1" x1="408.51063829787233" x2="408.51063829787233" y1="0" y2="10"/>
</g>
<line stroke="black" stroke-width="1" x1="0" x2="480" y1="0" y2="0"/>
<g>
<text font-size="12" text-anchor="middle" x="0" y="20">
1
</text>
<text font-size="12" text-anchor="middle" x="102.12765957446808" y="20">
11
</text>
<text font-size="12" text-anchor="middle" x="204.25531914893617" y="20">
21
</text>
<text font-size="12" text-anchor="middle" x="306.3829787234043" y="20">
31
</text>
<text font-size="12" text-anchor="middle" x="408.51063829787233" y="20">
41
</text>
</g>
<text font-size="12" text-anchor="middle" x="240" y="30">

</text>
</g>
<g>
<g>
<line stroke="black" stroke-width="1" x1="0" x2="-10" y1="0.0000012154105092600215" y2="0.0000012154105092600215"/>
<line stroke="black" stroke-width="1" x1="0" x2="-10" y1="-59.08491835301177" y2="-59.08491835301177"/>
<line stroke="black" stroke-width="1" x1="0" x2="-10" y1="-118.16983792143405" y2="-118.16983792143405"/>
<line stroke="black" stroke-width="1" x1="0" x2="-10" y1="-177.25475748985633" y2="-177.25475748985633"/>
<line stroke="black" stroke-width="1" x1="0" x2="-10" y1="-236.3396770582786" y2="-236.3396770582786"/>
<line stroke="black" stroke-width="1" x1="0" x2="-10" y1="-295.42459662670086" y2="-295.42459662670086"/>
</g>
<line stroke="black" stroke-width="1" x1="0" x2="0" y1="0" y2="-340"/>
<g>
<text dominant-baseline="middle" font-size="12" text-anchor="end" x="-15" y="0.0000012154105092600215">
9.11411
</text>
<text dominant-baseline="middle" font-size="12" text-anchor="end" x="-15" y="-59.08491835301177">
209.11411
</text>
<text dominant-baseline="middle" font-size="12" text-anchor="end" x="-15" y="-118.16983792143405">
409.11411
</text>
<text dominant-baseline="middle" font-size="12" text-anchor="end" x="-15" y="-177.25475748985633">
609.11411
</text>
<text dominant-baseline="middle" font-size="12" text-anchor="end" x="-15" y="-236.3396770582786">
809.11411
</text>
<text dominant-baseline="middle" font-size="12" text-anchor="end" x="-15" y="-295.42459662670086">
1009.11411
</text>
</g>
<text font-size="12" text-anchor="middle" transform="rotate(-90 -120 -170)" x="-120" y="-182">

</text>
</g>
</g>
</svg>