<svg viewBox="0 0 600 400" xmlns="http://www.w3.org/2000/svg">
<g transform="translate(72, 364)">
<g>
<g>
<path d="M0,-25.625 L0,-25.625 L10.212766,-12.5 L20.425531,-25.625 L30.638298,-268.75 L40.851063,0 L51.06383,-25.625 L61.276596,-13.125 L71.489365,-26.875 L81.702126,-40 L91.914894,-145 L102.12766,-13.125 L112.34042,-25 L122.55319,-13.75 L132.76596,-14.375 L142.97873,-32.5 L153.19148,-25.625 L163.40425,-39.375 L173.61702,-145 L183.82979,-340 L194.04256,-46.25 L204.25533,-53.125 L214.46808,-13.125 L224.68085,-25.625 L234.89362,-39.375 L245.10638,-32.5 L255.31915,-25.625 L265.53192,-13.125 L275.7447,-53.125 L285.95746,-25.625 L296.17023,-13.125 L306.38297,-25.625 L316.59573,-46.25 L326.8085,-6.25 L337.02127,-25.625 L347.23404,-53.125 L357.4468,-46.25" fill="none" stroke="#000000" stroke-linejoin="round" stroke-width="2"/>
</g>
<g>
<circle cx="0" cy="-25.625" fill="#000000" r="5"/>
<circle cx="10.212765957446809" cy="-12.5" fill="#000000" r="5"/>
<circle cx="20.425531914893618" cy="-25.625" fill="#000000" r="5"/>
<circle cx="30.638297872340427" cy="-268.75" fill="#000000" r="5"/>
<circle cx="40.851063829787236" cy="0" fill="#000000" r="5"/>
<circle cx="51.06382978723404" cy="-25.625" fill="#000000" r="5"/>
<circle cx="61.276595744680854" cy="-13.125" fill="#000000" r="5"/>
<circle cx="71.48936170212765" cy="-26.875" fill="#000000" r="5"/>
<circle cx="81.70212765957447" cy="-40" fill="#000000" r="5"/>
<circle cx="91.91489361702128" cy="-145" fill="#000000" r="5"/>
<circle cx="102.12765957446808" cy="-13.125" fill="#000000" r="5"/>
<circle cx="112.34042553191489" cy="-25" fill="#000000" r="5"/>
<circle cx="122.55319148936171" cy="-13.75" fill="#000000" r="5"/>
<circle cx="132.7659574468085" cy="-14.375" fill="#000000" r="5"/>
<circle cx="142.9787234042553" cy="-32.5" fill="#000000" r="5"/>
<circle cx="153.19148936170214" cy="-25.625" fill="#000000" r="5"/>
<circle cx="163.40425531914894" cy="-39.375" fill="#000000" r="5"/>
<circle cx="173.61702127659575" cy="-145" fill="#000000" r="5"/>
<circle cx="183.82978723404256" cy="-340" fill="#000000" r="5"/>
<circle cx="194.04255319148936" cy="-46.25" fill="#000000" r="5"/>
<circle cx="204.25531914893617" cy="-53.125" fill="#000000" r="5"/>
<circle cx="214.46808510638297" cy="-13.125" fill="#000000" r="5"/>
<circle cx="224.68085106382978" cy="-25.625" fill="#000000" r="5"/>
<circle cx="234.89361702127658" cy="-39.375" fill="#000000" r="5"/>
<circle cx="245.10638297872342" cy="-32.5" fill="#000000" r="5"/>
<circle cx="255.31914893617022" cy="-25.625" fill="#000000" r="5"/>
<circle cx="265.531914893617" cy="-13.125" fill="#000000" r="5"/>
<circle cx="275.74468085106383" cy="-53.125" fill="#000000" r="5"/>
<circle cx="285.9574468085106" cy="-25.625" fill="#000000" r="5"/>
<circle cx="296.17021276595744" cy="-13.125" fill="#000000" r="5"/>
<circle cx="306.3829787234043" cy="-25.625" fill="#000000" r="5"/>
<circle cx="316.59574468085106" cy="-46.25" fill="#000000" r="5"/>
<circle cx="326.8085106382979" cy="-6.25" fill="#000000" r="5"/>
<circle cx="337.02127659574467" cy="-25.625" fill="#000000" r="5"/>
<circle cx="347.2340425531915" cy="-53.125" fill="#000000" r="5"/>
<circle cx="357.4468085106383" cy="-46.25" fill="#000000" r="5"/>
</g>
</g>
<g>
<g>
<path d="M10.212766,-25.625 L10.212766,-25.625 L20.425531,-20.375 L30.638298,-22.475 L40.851063,-120.985 L51.06383,-72.591 L61.276596,-53.8046 L71.489365,-37.53276 L81.702126,-33.269657 L91.914894,-35.961792 L102.12766,-79.57708 L112.34042,-52.996246 L122.55319,-41.79775 L132.76596,-30.578648 L142.97873,-24.097189 L153.19148,-27.458313 L163.40425,-26.724989 L173.61702,-31.784992 L183.82979,-77.071 L194.04256,-182.2426 L204.25533,-127.84556 L214.46808,-97.95734 L224.68085,-64.0244 L234.89362,-48.664642 L245.10638,-44.948784 L255.31915,-39.96927 L265.53192,-34.231564 L275.7447,-25.788937 L285.95746,-36.723362 L296.17023,-32.284016 L306.38297,-24.62041 L316.59573,-25.022245 L326.8085,-33.513348 L337.02127,-22.60801 L347.23404,-23.814806 L357.4468,-35.538883" fill="none" stroke="#af0af6" stroke-linejoin="round" stroke-width="2"/>
</g>
<g>
<circle cx="10.212765957446809" cy="-25.625" fill="#af0af6" r="5"/>
<circle cx="20.425531914893618" cy="-20.375" fill="#af0af6" r="5"/>
<circle cx="30.638297872340427" cy="-22.474999999999998" fill="#af0af6" r="5"/>
<circle cx="40.851063829787236" cy="-120.98500000000001" fill="#af0af6" r="5"/>
<circle cx="51.06382978723404" cy="-72.59100000000001" fill="#af0af6" r="5"/>
<circle cx="61.276595744680854" cy="-53.8046" fill="#af0af6" r="5"/>
<circle cx="71.48936170212765" cy="-37.532759999999996" fill="#af0af6" r="5"/>
<circle cx="81.70212765957447" cy="-33.269656" fill="#af0af6" r="5"/>
<circle cx="91.91489361702128" cy="-35.9617936" fill="#af0af6" r="5"/>
<circle cx="102.12765957446808" cy="-79.57707616" fill="#af0af6" r="5"/>
<circle cx="112.34042553191489" cy="-52.99624569600001" fill="#af0af6" r="5"/>
<circle cx="122.55319148936171" cy="-41.7977474176" fill="#af0af6" r="5"/>
<circle cx="132.7659574468085" cy="-30.57864845056" fill="#af0af6" r="5"/>
<circle cx="142.9787234042553" cy="-24.097189070336" fill="#af0af6" r="5"/>
<circle cx="153.19148936170214" cy="-27.4583134422016" fill="#af0af6" r="5"/>
<circle cx="163.40425531914894" cy="-26.724988065320957" fill="#af0af6" r="5"/>
<circle cx="173.61702127659575" cy="-31.784992839192576" fill="#af0af6" r="5"/>
<circle cx="183.82978723404256" cy="-77.07099570351555" fill="#af0af6" r="5"/>
<circle cx="194.04255319148936" cy="-182.24259742210933" fill="#af0af6" r="5"/>
<circle cx="204.25531914893617" cy="-127.84555845326561" fill="#af0af6" r="5"/>
<circle cx="214.46808510638297" cy="-97.95733507195936" fill="#af0af6" r="5"/>
<circle cx="224.68085106382978" cy="-64.02440104317562" fill="#af0af6" r="5"/>
<circle cx="234.89361702127658" cy="-48.66464062590537" fill="#af0af6" r="5"/>
<circle cx="245.10638297872342" cy="-44.94878437554321" fill="#af0af6" r="5"/>
<circle cx="255.31914893617022" cy="-39.969270625325926" fill="#af0af6" r="5"/>
<circle cx="265.531914893617" cy="-34.23156237519555" fill="#af0af6" r="5"/>
<circle cx="275.74468085106383" cy="-25.788937425117332" fill="#af0af6" r="5"/>
<circle cx="285.9574468085106" cy="-36.7233624550704" fill="#af0af6" r="5"/>
<circle cx="296.17021276595744" cy="-32.28401747304223" fill="#af0af6" r="5"/>
<circle cx="306.3829787234043" cy="-24.62041048382534" fill="#af0af6" r="5"/>
<circle cx="316.59574468085106" cy="-25.022246290295207" fill="#af0af6" r="5"/>
<circle cx="326.8085106382979" cy="-33.51334777417713" fill="#af0af6" r="5"/>
<circle cx="337.02127659574467" cy="-22.608008664506276" fill="#af0af6" r="5"/>
<circle cx="347.2340425531915" cy="-23.814805198703763" fill="#af0af6" r="5"/>
<circle cx="357.4468085106383" cy="-35.538883119222255" fill="#af0af6" r="5"/>
</g>
</g>
<g>
<g>
<path d="M0,-61.5625 L0,-61.5625 L10.212766,-60.863094 L20.425531,-60.16369 L30.638298,-59.464287 L40.851063,-58.76488 L51.06383,-58.065475 L61.276596,-57.36607 L71.489365,-56.666668 L81.702126,-55.967262 L91.914894,-55.267857 L102.12766,-54.56845 L112.34042,-53.86905 L122.55319,-53.169643 L132.76596,-52.470238 L142.97873,-51.770832 L153.19148,-51.07143 L163.40425,-50.372025 L173.61702,-49.67262 L183.82979,-48.973213 L194.04256,-48.27381 L204.25533,-47.574406 L214.46808,-46.875 L224.68085,-46.175594 L234.89362,-45.47619 L245.10638,-44.776787 L255.31915,-44.07738 L265.53192,-43.377975 L275.7447,-42.67857 L285.95746,-41.979168 L296.17023,-41.279762 L306.38297,-40.580357 L316.59573,-39.88095 L326.8085,-39.18155 L337.02127,-38.482143 L347.23404,-37.782738 L357.4468,-37.083332" fill="none" stroke="#87faa4" stroke-linejoin="round" stroke-width="2"/>
</g>
<g>
<circle cx="0" cy="-61.5625" fill="#87faa4" r="5"/>
<circle cx="10.212765957446809" cy="-60.86309523809524" fill="#87faa4" r="5"/>
<circle cx="20.425531914893618" cy="-60.163690476190474" fill="#87faa4" r="5"/>
<circle cx="30.638297872340427" cy="-59.464285714285715" fill="#87faa4" r="5"/>
<circle cx="40.851063829787236" cy="-58.76488095238095" fill="#87faa4" r="5"/>
<circle cx="51.06382978723404" cy="-58.0654761904762" fill="#87faa4" r="5"/>
<circle cx="61.276595744680854" cy="-57.36607142857143" fill="#87faa4" r="5"/>
<circle cx="71.48936170212765" cy="-56.66666666666667" fill="#87faa4" r="5"/>
<circle cx="81.70212765957447" cy="-55.967261904761905" fill="#87faa4" r="5"/>
<circle cx="91.91489361702128" cy="-55.267857142857146" fill="#87faa4" r="5"/>
<circle cx="102.12765957446808" cy="-54.56845238095238" fill="#87faa4" r="5"/>
<circle cx="112.34042553191489" cy="-53.86904761904762" fill="#87faa4" r="5"/>
<circle cx="122.55319148936171" cy="-53.169642857142854" fill="#87faa4" r="5"/>
<circle cx="132.7659574468085" cy="-52.470238095238095" fill="#87faa4" r="5"/>
<circle cx="142.9787234042553" cy="-51.770833333333336" fill="#87faa4" r="5"/>
<circle cx="153.19148936170214" cy="-51.07142857142858" fill="#87faa4" r="5"/>
<circle cx="163.40425531914894" cy="-50.37202380952381" fill="#87faa4" r="5"/>
<circle cx="173.61702127659575" cy="-49.67261904761905" fill="#87faa4" r="5"/>
<circle cx="183.82978723404256" cy="-48.973214285714285" fill="#87faa4" r="5"/>
<circle cx="194.04255319148936" cy="-48.273809523809526" fill="#87faa4" r="5"/>
<circle cx="204.25531914893617" cy="-47.57440476190476" fill="#87faa4" r="5"/>
<circle cx="214.46808510638297" cy="-46.875" fill="#87faa4" r="5"/>
<circle cx="224.68085106382978" cy="-46.17559523809524" fill="#87faa4" r="5"/>
<circle cx="234.89361702127658" cy="-45.476190476190474" fill="#87faa4" r="5"/>
<circle cx="245.10638297872342" cy="-44.776785714285715" fill="#87faa4" r="5"/>
<circle cx="255.31914893617022" cy="-44.07738095238095" fill="#87faa4" r="5"/>
<circle cx="265.531914893617" cy="-43.37797619047619" fill="#87faa4" r="5"/>
<circle cx="275.74468085106383" cy="-42.67857142857142" fill="#87faa4" r="5"/>
<circle cx="285.9574468085106" cy="-41.979166666666664" fill="#87faa4" r="5"/>
<circle cx="296.17021276595744" cy="-41.279761904761905" fill="#87faa4" r="5"/>
<circle cx="306.3829787234043" cy="-40.580357142857146" fill="#87faa4" r="5"/>
<circle cx="316.59574468085106" cy="-39.88095238095238" fill="#87faa4" r="5"/>
<circle cx="326.8085106382979" cy="-39.18154761904762" fill="#87faa4" r="5"/>
<circle cx="337.02127659574467" cy="-38.482142857142854" fill="#87faa4" r="5"/>
<circle cx="347.2340425531915" cy="-37.7827380952381" fill="#87faa4" r="5"/>
<circle cx="357.4468085106383" cy="-37.083333333333336" fill="#87faa4" r="5"/>
</g>
</g>
<g>
<g>
<path d="M367.65958,-23.814806 L367.65958,-23.814806 L377.87234,-33.125 L388.0851,-26.875 L398.29788,-13.75 L408.51065,-35 L418.72342,-39.375 L428.93616,-0.625 L439.14893,-4.375 L449.3617,-23.75 L459.57446,-20 L469.78723,-35 L480,-30.625" fill="none" stroke="#ff00a2" stroke-linejoin="round" stroke-width="2"/>
</g>
<g>
<circle cx="367.6595744680851" cy="-23.814805198703763" fill="#ff00a2" r="5"/>
<circle cx="377.8723404255319" cy="-33.125" fill="#ff00a2" r="5"/>
<circle cx="388.0851063829787" cy="-26.875" fill="#ff00a2" r="5"/>
<circle cx="398.29787234042556" cy="-13.75" fill="#ff00a2" r="5"/>
<circle cx="408.51063829787233" cy="-35" fill="#ff00a2" r="5"/>
<circle cx="418.72340425531917" cy="-39.375" fill="#ff00a2" r="5"/>
<circle cx="428.93617021276594" cy="-0.625" fill="#ff00a2" r="5"/>
<circle cx="439.1489361702128" cy="-4.375" fill="#ff00a2" r="5"/>
<circle cx="449.36170212765956" cy="-23.75" fill="#ff00a2" r="5"/>
<circle cx="459.5744680851064" cy="-20" fill="#ff00a2" r="5"/>
<circle cx="469.78723404255317" cy="-35" fill="#ff00a2" r="5"/>
<circle cx="480" cy="-30.625" fill="#ff00a2" r="5"/>
</g>
</g>
<g>
<g>
<line stroke="black" stroke-width="1" x1="0" x2="0" y1="0" y2="10"/>
<line stroke="black" stroke-width="1" x1="102.12765957446808" x2="102.12765957446808" y1="0" y2="10"/>
<line stroke="black" stroke-width="1" x1="204.25531914893617" x2="204.25531914893617" y1="0" y2="10"/>
<line stroke="black" stroke-width="1" x1="306.3829787234043" x2="306.3829787234043" y1="0" y2="10"/>
<line stroke="black" stroke-width="1" x1="408.51063829787233" x2="408.51063829787233" y1="0" y2="10"/>
</g>
<line stroke="black" stroke-width="1" x1="0" x2="480" y1="0" y2="0"/>
<g>
<text font-size="12" text-anchor="middle" x="0" y="20">
1
</text>
<text font-size="12" text-anchor="middle" x="102.12765957446808" y="20">
11
</text>
<text font-size="12" text-anchor="middle" x="204.25531914893617" y="20">
21
</text>
<text font-size="12" text-anchor="middle" x="306.3829787234043" y="20">
31
</text>
<text font-size="12" text-anchor="middle" x="408.51063829787233" y="20">
41
</text>
</g>
<text font-size="12" text-anchor="middle" x="240" y="30">

</text>
</g>
<g>
<g>
<line stroke="black" stroke-width="1" x1="0" x2="-10" y1="0" y2="0"/>
<line stroke="black" stroke-width="1" x1="0" x2="-10" y1="-62.5" y2="-62.5"/>
<line stroke="black" stroke-width="1" x1="0" x2="-10" y1="-125" y2="-125"/>
<line stroke="black" stroke-width="1" x1="0" x2="-10" y1="-187.5" y2="-187.5"/>
<line stroke="black" stroke-width="1" x1="0" x2="-10" y1="-250" y2="-250"/>
<line stroke="black" stroke-width="1" x1="0" x2="-10" y1="-312.5" y2="-312.5"/>
</g>
<line stroke="black" stroke-width="1" x1="0" x2="0" y1="0" y2="-340"/>
<g>
<text dominant-baseline="middle" font-size="12" text-anchor="end" x="-15" y="0">
2
</text>
<text dominant-baseline="middle" font-size="12" text-anchor="end" x="-15" y="-62.5">
102
</text>
<text dominant-baseline="middle" font-size="12" text-anchor="end" x="-15" y="-125">
202
</text>
<text dominant-baseline="middle" font-size="12" text-anchor="end" x="-15" y="-187.5">
302
</text>
<text dominant-baseline="middle" font-size="12" text-anchor="end" x="-15" y="-250">
402
</text>
<text dominant-baseline="middle" font-size="12" text-anchor="end" x="-15" y="-312.5">
502
</text>
</g>
<text font-size="12" text-anchor="middle" transform="rotate(-90 -36 -170)" x="-36" y="-182">

</text>
</g>
</g>
</svg>