<svg viewBox="0 0 600 400" xmlns="http://www.w3.org/2000/svg">
<g transform="translate(72, 364)">
<g>
<g>
<path d="M0,-1.4808197 L0,-1.4808197 L10.212766,-10.7644205 L20.425531,-86.17232 L30.638298,-0.13289407 L40.851063,-12.017422 L51.06383,-1.006198 L61.276596,-12.093361 L71.489365,-12.093361 L81.702126,-4.2336254 L91.914894,-44.519516 L102.12766,-4.4234743 L112.34042,-0.20883355 L122.55319,-8.6571 L132.76596,-10.536602 L142.97873,-109.884415 L153.19148,-8.201463 L163.40425,-84.14094 L173.61702,-0.77837956 L183.82979,0 L194.04256,-82.09057 L204.25533,-4.442459 L214.46808,-21.320007 L224.68085,-107.54928 L234.89362,-105.441956 L245.10638,-82.033615 L255.31915,-63.238594 L265.53192,-147.37953 L275.7447,-0.4176671 L285.95746,-2.3351388 L296.17023,-10.517617 L306.38297,-65.3649 L316.59573,-2.3351388 L326.8085,-1.0441678 L337.02127,-8.410296 L347.23404,-12.833771 L357.4468,-10.517617" fill="none" stroke="#000000" stroke-linejoin="round" stroke-width="2"/>
</g>
<g>
<circle cx="0" cy="-1.4808196995923837" fill="#000000" r="5"/>
<circle cx="10.212765957446809" cy="-10.76442012396002" fill="#000000" r="5"/>
<circle cx="20.425531914893618" cy="-86.17231559551064" fill="#000000" r="5"/>
<circle cx="30.638297872340427" cy="-0.1328940756044447" fill="#000000" r="5"/>
<circle cx="40.851063829787236" cy="-12.017421408230499" fill="#000000" r="5"/>
<circle cx="51.06382978723404" cy="-1.0061980010050813" fill="#000000" r="5"/>
<circle cx="61.276595744680854" cy="-12.093360880004466" fill="#000000" r="5"/>
<circle cx="71.48936170212765" cy="-12.093360880004466" fill="#000000" r="5"/>
<circle cx="81.70212765957447" cy="-4.233625551398738" fill="#000000" r="5"/>
<circle cx="91.91489361702128" cy="-44.519515327488975" fill="#000000" r="5"/>
<circle cx="102.12765957446808" cy="-4.423474230833659" fill="#000000" r="5"/>
<circle cx="112.34042553191489" cy="-0.2088335473784131" fill="#000000" r="5"/>
<circle cx="122.55319148936171" cy="-8.657099782232397" fill="#000000" r="5"/>
<circle cx="132.7659574468085" cy="-10.536601708638115" fill="#000000" r="5"/>
<circle cx="142.9787234042553" cy="-109.88441565693226" fill="#000000" r="5"/>
<circle cx="153.19148936170214" cy="-8.201462951588587" fill="#000000" r="5"/>
<circle cx="163.40425531914894" cy="-84.14093472555699" fill="#000000" r="5"/>
<circle cx="173.61702127659575" cy="-0.7783795856831761" fill="#000000" r="5"/>
<circle cx="183.82978723404256" cy="0" fill="#000000" r="5"/>
<circle cx="194.04255319148936" cy="-82.09056898765984" fill="#000000" r="5"/>
<circle cx="204.25531914893617" cy="-4.442459098777151" fill="#000000" r="5"/>
<circle cx="214.46808510638297" cy="-21.320006700541626" fill="#000000" r="5"/>
<circle cx="224.68085106382978" cy="-107.54927689988274" fill="#000000" r="5"/>
<circle cx="234.89361702127658" cy="-105.44195655815511" fill="#000000" r="5"/>
<circle cx="245.10638297872342" cy="-82.03361438382936" fill="#000000" r="5"/>
<circle cx="255.31914893617022" cy="-63.23859511977218" fill="#000000" r="5"/>
<circle cx="265.531914893617" cy="-147.37952984532916" fill="#000000" r="5"/>
<circle cx="275.74468085106383" cy="-0.4176670947568262" fill="#000000" r="5"/>
<circle cx="285.9574468085106" cy="-2.335138757049528" fill="#000000" r="5"/>
<circle cx="296.17021276595744" cy="-10.517616840694624" fill="#000000" r="5"/>
<circle cx="306.3829787234043" cy="-65.3649003294433" fill="#000000" r="5"/>
<circle cx="316.59574468085106" cy="-2.335138757049528" fill="#000000" r="5"/>
<circle cx="326.8085106382979" cy="-1.0441677368920654" fill="#000000" r="5"/>
<circle cx="337.02127659574467" cy="-8.410296498967" fill="#000000" r="5"/>
<circle cx="347.2340425531915" cy="-12.833770729800658" fill="#000000" r="5"/>
<circle cx="357.4468085106383" cy="-10.517616840694624" fill="#000000" r="5"/>
</g>
</g>
<g>
<g>
<path d="M10.212766,-1.4808197 L10.212766,-1.4808197 L20.425531,-5.1942596 L30.638298,-37.585484 L40.851063,-22.604446 L51.06383,-18.369637 L61.276596,-11.424261 L71.489365,-11.691901 L81.702126,-11.852485 L91.914894,-8.804941 L102.12766,-23.09077 L112.34042,-15.623852 L122.55319,-9.457845 L132.76596,-9.137547 L142.97873,-9.697168 L153.19148,-49.772068 L163.40425,-33.143826 L173.61702,-53.54267 L183.82979,-32.436954 L194.04256,-19.462172 L204.25533,-44.51353 L214.46808,-28.485102 L224.68085,-25.619064 L234.89362,-58.391148 L245.10638,-77.21147 L255.31915,-79.14033 L265.53192,-72.77963 L275.7447,-102.61959 L285.95746,-61.738823 L296.17023,-37.97735 L306.38297,-26.993456 L316.59573,-42.342033 L326.8085,-26.339275 L337.02127,-16.221233 L347.23404,-13.096858 L357.4468,-12.991623" fill="none" stroke="#af0af6" stroke-linejoin="round" stroke-width="2"/>
</g>
<g>
<circle cx="10.212765957446809" cy="-1.4808196995923837" fill="#af0af6" r="5"/>
<circle cx="20.425531914893618" cy="-5.194259869339439" fill="#af0af6" r="5"/>
<circle cx="30.638297872340427" cy="-37.58548215980792" fill="#af0af6" r="5"/>
<circle cx="40.851063829787236" cy="-22.604446926126528" fill="#af0af6" r="5"/>
<circle cx="51.06382978723404" cy="-18.369636718968117" fill="#af0af6" r="5"/>
<circle cx="61.276595744680854" cy="-11.424261231782902" fill="#af0af6" r="5"/>
<circle cx="71.48936170212765" cy="-11.691901091071529" fill="#af0af6" r="5"/>
<circle cx="81.70212765957447" cy="-11.852485006644702" fill="#af0af6" r="5"/>
<circle cx="91.91489361702128" cy="-8.804941224546317" fill="#af0af6" r="5"/>
<circle cx="102.12765957446808" cy="-23.09077086572338" fill="#af0af6" r="5"/>
<circle cx="112.34042553191489" cy="-15.623852211767492" fill="#af0af6" r="5"/>
<circle cx="122.55319148936171" cy="-9.457844746011858" fill="#af0af6" r="5"/>
<circle cx="132.7659574468085" cy="-9.137546760500074" fill="#af0af6" r="5"/>
<circle cx="142.9787234042553" cy="-9.69716873975529" fill="#af0af6" r="5"/>
<circle cx="153.19148936170214" cy="-49.77206750662609" fill="#af0af6" r="5"/>
<circle cx="163.40425531914894" cy="-33.14382568461108" fill="#af0af6" r="5"/>
<circle cx="173.61702127659575" cy="-53.54266930098945" fill="#af0af6" r="5"/>
<circle cx="183.82978723404256" cy="-32.436953414866935" fill="#af0af6" r="5"/>
<circle cx="194.04255319148936" cy="-19.462172048920163" fill="#af0af6" r="5"/>
<circle cx="204.25531914893617" cy="-44.51353082441604" fill="#af0af6" r="5"/>
<circle cx="214.46808510638297" cy="-28.48510213416048" fill="#af0af6" r="5"/>
<circle cx="224.68085106382978" cy="-25.61906396071294" fill="#af0af6" r="5"/>
<circle cx="234.89361702127658" cy="-58.39114913638086" fill="#af0af6" r="5"/>
<circle cx="245.10638297872342" cy="-77.21147210509055" fill="#af0af6" r="5"/>
<circle cx="255.31914893617022" cy="-79.14032901658608" fill="#af0af6" r="5"/>
<circle cx="265.531914893617" cy="-72.77963545786052" fill="#af0af6" r="5"/>
<circle cx="275.74468085106383" cy="-102.61959321284797" fill="#af0af6" r="5"/>
<circle cx="285.9574468085106" cy="-61.73882276561152" fill="#af0af6" r="5"/>
<circle cx="296.17021276595744" cy="-37.97734916218673" fill="#af0af6" r="5"/>
<circle cx="306.3829787234043" cy="-26.993456233589882" fill="#af0af6" r="5"/>
<circle cx="316.59574468085106" cy="-42.34203387193126" fill="#af0af6" r="5"/>
<circle cx="326.8085106382979" cy="-26.33927582597856" fill="#af0af6" r="5"/>
<circle cx="337.02127659574467" cy="-16.221232590343963" fill="#af0af6" r="5"/>
<circle cx="347.2340425531915" cy="-13.096858153793178" fill="#af0af6" r="5"/>
<circle cx="357.4468085106383" cy="-12.99162318419617" fill="#af0af6" r="5"/>
</g>
</g>
<g>
<g>
<path d="M0,-22.572182 L0,-22.572182 L10.212766,-23.089672 L20.425531,-23.607162 L30.638298,-24.124653 L40.851063,-24.642143 L51.06383,-25.159634 L61.276596,-25.677124 L71.489365,-26.194614 L81.702126,-26.712105 L91.914894,-27.229595 L102.12766,-27.747086 L112.34042,-28.264576 L122.55319,-28.782066 L132.76596,-29.299557 L142.97873,-29.817047 L153.19148,-30.334538 L163.40425,-30.852028 L173.61702,-31.369518 L183.82979,-31.887009 L194.04256,-32.4045 L204.25533,-32.92199 L214.46808,-33.43948 L224.68085,-33.95697 L234.89362,-34.47446 L245.10638,-34.99195 L255.31915,-35.50944 L265.53192,-36.02693 L275.7447,-36.544422 L285.95746,-37.061913 L296.17023,-37.579403 L306.38297,-38.096893 L316.59573,-38.614384 L326.8085,-39.131874 L337.02127,-39.649364 L347.23404,-40.166855 L357.4468,-40.684345" fill="none" stroke="#87faa4" stroke-linejoin="round" stroke-width="2"/>
</g>
<g>
<circle cx="0" cy="-22.57218131638814" fill="#87faa4" r="5"/>
<circle cx="10.212765957446809" cy="-23.089671677532525" fill="#87faa4" r="5"/>
<circle cx="20.425531914893618" cy="-23.60716203867692" fill="#87faa4" r="5"/>
<circle cx="30.638297872340427" cy="-24.124652399821304" fill="#87faa4" r="5"/>
<circle cx="40.851063829787236" cy="-24.642142760965697" fill="#87faa4" r="5"/>
<circle cx="51.06382978723404" cy="-25.159633122110087" fill="#87faa4" r="5"/>
<circle cx="61.276595744680854" cy="-25.677123483254476" fill="#87faa4" r="5"/>
<circle cx="71.48936170212765" cy="-26.194613844398866" fill="#87faa4" r="5"/>
<circle cx="81.70212765957447" cy="-26.71210420554326" fill="#87faa4" r="5"/>
<circle cx="91.91489361702128" cy="-27.229594566687645" fill="#87faa4" r="5"/>
<circle cx="102.12765957446808" cy="-27.747084927832038" fill="#87faa4" r="5"/>
<circle cx="112.34042553191489" cy="-28.264575288976424" fill="#87faa4" r="5"/>
<circle cx="122.55319148936171" cy="-28.782065650120813" fill="#87faa4" r="5"/>
<circle cx="132.7659574468085" cy="-29.299556011265203" fill="#87faa4" r="5"/>
<circle cx="142.9787234042553" cy="-29.817046372409596" fill="#87faa4" r="5"/>
<circle cx="153.19148936170214" cy="-30.334536733553985" fill="#87faa4" r="5"/>
<circle cx="163.40425531914894" cy="-30.85202709469838" fill="#87faa4" r="5"/>
<circle cx="173.61702127659575" cy="-31.369517455842765" fill="#87faa4" r="5"/>
<circle cx="183.82978723404256" cy="-31.887007816987154" fill="#87faa4" r="5"/>
<circle cx="194.04255319148936" cy="-32.40449817813154" fill="#87faa4" r="5"/>
<circle cx="204.25531914893617" cy="-32.92198853927593" fill="#87faa4" r="5"/>
<circle cx="214.46808510638297" cy="-33.439478900420326" fill="#87faa4" r="5"/>
<circle cx="224.68085106382978" cy="-33.956969261564716" fill="#87faa4" r="5"/>
<circle cx="234.89361702127658" cy="-34.4744596227091" fill="#87faa4" r="5"/>
<circle cx="245.10638297872342" cy="-34.991949983853495" fill="#87faa4" r="5"/>
<circle cx="255.31914893617022" cy="-35.509440344997884" fill="#87faa4" r="5"/>
<circle cx="265.531914893617" cy="-36.026930706142274" fill="#87faa4" r="5"/>
<circle cx="275.74468085106383" cy="-36.54442106728666" fill="#87faa4" r="5"/>
<circle cx="285.9574468085106" cy="-37.06191142843105" fill="#87faa4" r="5"/>
<circle cx="296.17021276595744" cy="-37.57940178957544" fill="#87faa4" r="5"/>
<circle cx="306.3829787234043" cy="-38.09689215071983" fill="#87faa4" r="5"/>
<circle cx="316.59574468085106" cy="-38.61438251186422" fill="#87faa4" r="5"/>
<circle cx="326.8085106382979" cy="-39.131872873008604" fill="#87faa4" r="5"/>
<circle cx="337.02127659574467" cy="-39.64936323415301" fill="#87faa4" r="5"/>
<circle cx="347.2340425531915" cy="-40.16685359529739" fill="#87faa4" r="5"/>
<circle cx="357.4468085106383" cy="-40.68434395644178" fill="#87faa4" r="5"/>
</g>
</g>
<g>
<g>
<path d="M367.65958,-13.096858 L367.65958,-13.096858 L377.87234,-123.17382 L388.0851,-109.2769 L398.29788,-340 L408.51065,-286.8044 L418.72342,-44.10185 L428.93616,-147.9111 L439.14893,-47.519123 L449.3617,-52.588085 L459.57446,-78.00882 L469.78723,-84.9383 L480,-54.16383" fill="none" stroke="#ff00a2" stroke-linejoin="round" stroke-width="2"/>
</g>
<g>
<circle cx="367.6595744680851" cy="-13.096858153793178" fill="#ff00a2" r="5"/>
<circle cx="377.8723404255319" cy="-123.17382321737674" fill="#ff00a2" r="5"/>
<circle cx="388.0851063829787" cy="-109.27689988274052" fill="#ff00a2" r="5"/>
<circle cx="398.29787234042556" cy="-340" fill="#ff00a2" r="5"/>
<circle cx="408.51063829787233" cy="-286.80440002233513" fill="#ff00a2" r="5"/>
<circle cx="418.72340425531917" cy="-44.101848232732145" fill="#ff00a2" r="5"/>
<circle cx="428.93617021276594" cy="-147.91110614774695" fill="#ff00a2" r="5"/>
<circle cx="439.1489361702128" cy="-47.519124462560725" fill="#ff00a2" r="5"/>
<circle cx="449.36170212765956" cy="-52.588084203473116" fill="#ff00a2" r="5"/>
<circle cx="459.5744680851064" cy="-78.00882237980903" fill="#ff00a2" r="5"/>
<circle cx="469.78723404255317" cy="-84.93829917918364" fill="#ff00a2" r="5"/>
<circle cx="480" cy="-54.163828242782955" fill="#ff00a2" r="5"/>
</g>
</g>
<g>
<g>
<line stroke="black" stroke-width="1" x1="0" x2="0" y1="0" y2="10"/>
<line stroke="black" stroke-width="1" x1="102.12765957446808" x2="102.12765957446808" y1="0" y2="10"/>
<line stroke="black" stroke-width="1" x1="204.25531914893617" x2="204.25531914893617" y1="0" y2="10"/>
<line stroke="black" stroke-width="1" x1="306.3829787234043" x2="306.3829787234043" y1="0" y2="10"/>
<line stroke="black" stroke-width="1" x1="408.51063829787233" x2="408.51063829787233" y1="0" y2="10"/>
</g>
<line stroke="black" stroke-width="1" x1="0" x2="480" y1="0" y2="0"/>
<g>
<text font-size="12" text-anchor="middle" x="0" y="20">
1
</text>
<text font-size="12" text-anchor="middle" x="102.12765957446808" y="20">
11
</text>
<text font-size="12" text-anchor="middle" x="204.25531914893617" y="20">
21
</text>
<text font-size="12" text-anchor="middle" x="306.3829787234043" y="20">
31
</text>
<text font-size="12" text-anchor="middle" x="408.51063829787233" y="20">
41
</text>
</g>
<text font-size="12" text-anchor="middle" x="240" y="30">

</text>
</g>
<g>
<g>
<line stroke="black" stroke-width="1" x1="0" x2="-10" y1="0" y2="0"/>
<line stroke="black" stroke-width="1" x1="0" x2="-10" y1="-75.93947177396839" y2="-75.93947177396839"/>
<line stroke="black" stroke-width="1" x1="0" x2="-10" y1="-151.87894354793679" y2="-151.87894354793679"/>
<line stroke="black" stroke-width="1" x1="0" x2="-10" y1="-227.81841532190518" y2="-227.81841532190518"/>
<line stroke="black" stroke-width="1" x1="0" x2="-10" y1="-303.75788709587357" y2="-303.75788709587357"/>
</g>
<line stroke="black" stroke-width="1" x1="0" x2="0" y1="0" y2="-340"/>
<g>
<text dominant-baseline="middle" font-size="12" text-anchor="end" x="-15" y="0">
0
</text>
<text dominant-baseline="middle" font-size="12" text-anchor="end" x="-15" y="-75.93947177396839">
4000
</text>
<text dominant-baseline="middle" font-size="12" text-anchor="end" x="-15" y="-151.87894354793679">
8000
</text>
<text dominant-baseline="middle" font-size="12" text-anchor="end" x="-15" y="-227.81841532190518">
12000
</text>
<text dominant-baseline="middle" font-size="12" text-anchor="end" x="-15" y="-303.75788709587357">
16000
</text>
</g>
<text font-size="12" text-anchor="middle" transform="rotate(-90 -60 -170)" x="-60" y="-182">

</text>
</g>
</g>
</svg>