<svg viewBox="0 0 600 400" xmlns="http://www.w3.org/2000/svg">
<g transform="translate(72, 364)">
<g>
<g>
<path d="M0,0 L0,0 L10.212766,-27.272728 L20.425531,-2.4242425 L30.638298,-3.030303 L40.851063,-7.2727275 L51.06383,0 L61.276596,-32.727272 L71.489365,-4.848485 L81.702126,-2.4242425 L91.914894,-3.030303 L102.12766,-3.030303 L112.34042,-0.6060606 L122.55319,-3.6363637 L132.76596,-0.6060606 L142.97873,-340 L153.19148,-39.39394 L163.40425,-0.6060606 L173.61702,-12.727273 L183.82979,-19.39394 L194.04256,0 L204.25533,-194.54546 L214.46808,-1.8181819 L224.68085,-0.6060606 L234.89362,-1.8181819 L245.10638,-1.8181819 L255.31915,-19.39394 L265.53192,-0.6060606 L275.7447,-18.787878 L285.95746,-1.8181819 L296.17023,-7.878788 L306.38297,-0.6060606 L316.59573,-18.787878 L326.8085,-18.787878 L337.02127,-1.8181819 L347.23404,-7.878788 L357.4468,-7.878788" fill="none" stroke="#000000" stroke-linejoin="round" stroke-width="2"/>
</g>
<g>
<circle cx="0" cy="0" fill="#000000" r="5"/>
<circle cx="10.212765957446809" cy="-27.272727272727273" fill="#000000" r="5"/>
<circle cx="20.425531914893618" cy="-2.4242424242424243" fill="#000000" r="5"/>
<circle cx="30.638297872340427" cy="-3.0303030303030303" fill="#000000" r="5"/>
<circle cx="40.851063829787236" cy="-7.2727272727272725" fill="#000000" r="5"/>
<circle cx="51.06382978723404" cy="0" fill="#000000" r="5"/>
<circle cx="61.276595744680854" cy="-32.72727272727273" fill="#000000" r="5"/>
<circle cx="71.48936170212765" cy="-4.848484848484849" fill="#000000" r="5"/>
<circle cx="81.70212765957447" cy="-2.4242424242424243" fill="#000000" r="5"/>
<circle cx="91.91489361702128" cy="-3.0303030303030303" fill="#000000" r="5"/>
<circle cx="102.12765957446808" cy="-3.0303030303030303" fill="#000000" r="5"/>
<circle cx="112.34042553191489" cy="-0.6060606060606061" fill="#000000" r="5"/>
<circle cx="122.55319148936171" cy="-3.6363636363636362" fill="#000000" r="5"/>
<circle cx="132.7659574468085" cy="-0.6060606060606061" fill="#000000" r="5"/>
<circle cx="142.9787234042553" cy="-340" fill="#000000" r="5"/>
<circle cx="153.19148936170214" cy="-39.39393939393939" fill="#000000" r="5"/>
<circle cx="163.40425531914894" cy="-0.6060606060606061" fill="#000000" r="5"/>
<circle cx="173.61702127659575" cy="-12.727272727272727" fill="#000000" r="5"/>
<circle cx="183.82978723404256" cy="-19.393939393939394" fill="#000000" r="5"/>
<circle cx="194.04255319148936" cy="0" fill="#000000" r="5"/>
<circle cx="204.25531914893617" cy="-194.54545454545453" fill="#000000" r="5"/>
<circle cx="214.46808510638297" cy="-1.8181818181818181" fill="#000000" r="5"/>
<circle cx="224.68085106382978" cy="-0.6060606060606061" fill="#000000" r="5"/>
<circle cx="234.89361702127658" cy="-1.8181818181818181" fill="#000000" r="5"/>
<circle cx="245.10638297872342" cy="-1.8181818181818181" fill="#000000" r="5"/>
<circle cx="255.31914893617022" cy="-19.393939393939394" fill="#000000" r="5"/>
<circle cx="265.531914893617" cy="-0.6060606060606061" fill="#000000" r="5"/>
<circle cx="275.74468085106383" cy="-18.78787878787879" fill="#000000" r="5"/>
<circle cx="285.9574468085106" cy="-1.8181818181818181" fill="#000000" r="5"/>
<circle cx="296.17021276595744" cy="-7.878787878787879" fill="#000000" r="5"/>
<circle cx="306.3829787234043" cy="-0.6060606060606061" fill="#000000" r="5"/>
<circle cx="316.59574468085106" cy="-18.78787878787879" fill="#000000" r="5"/>
<circle cx="326.8085106382979" cy="-18.78787878787879" fill="#000000" r="5"/>
<circle cx="337.02127659574467" cy="-1.8181818181818181" fill="#000000" r="5"/>
<circle cx="347.2340425531915" cy="-7.878787878787879" fill="#000000" r="5"/>
<circle cx="357.4468085106383" cy="-7.878787878787879" fill="#000000" r="5"/>
</g>
</g>
<g>
<g>
<path d="M10.212766,0 L10.212766,0 L20.425531,-10.909091 L30.638298,-7.5151515 L40.851063,-5.721212 L51.06383,-6.3418183 L61.276596,-3.805091 L71.489365,-15.373963 L81.702126,-11.163773 L91.914894,-7.66796 L102.12766,-5.812897 L112.34042,-4.6998596 L122.55319,-3.06234 L132.76596,-3.2919495 L142.97873,-2.217594 L153.19148,-137.33055 L163.40425,-98.15591 L173.61702,-59.13597 L183.82979,-40.57249 L194.04256,-32.10107 L204.25533,-19.260643 L214.46808,-89.374565 L224.68085,-54.352013 L234.89362,-32.853634 L245.10638,-20.439451 L255.31915,-12.990944 L265.53192,-15.552142 L275.7447,-9.5737095 L285.95746,-13.2593775 L296.17023,-8.682899 L306.38297,-8.361255 L316.59573,-5.259177 L326.8085,-10.670658 L337.02127,-13.917546 L347.23404,-9.077801 L357.4468,-8.598195" fill="none" stroke="#af0af6" stroke-linejoin="round" stroke-width="2"/>
</g>
<g>
<circle cx="10.212765957446809" cy="0" fill="#af0af6" r="5"/>
<circle cx="20.425531914893618" cy="-10.909090909090908" fill="#af0af6" r="5"/>
<circle cx="30.638297872340427" cy="-7.515151515151514" fill="#af0af6" r="5"/>
<circle cx="40.851063829787236" cy="-5.72121212121212" fill="#af0af6" r="5"/>
<circle cx="51.06382978723404" cy="-6.341818181818181" fill="#af0af6" r="5"/>
<circle cx="61.276595744680854" cy="-3.805090909090908" fill="#af0af6" r="5"/>
<circle cx="71.48936170212765" cy="-15.373963636363635" fill="#af0af6" r="5"/>
<circle cx="81.70212765957447" cy="-11.16377212121212" fill="#af0af6" r="5"/>
<circle cx="91.91489361702128" cy="-7.6679602424242415" fill="#af0af6" r="5"/>
<circle cx="102.12765957446808" cy="-5.812897357575756" fill="#af0af6" r="5"/>
<circle cx="112.34042553191489" cy="-4.699859626666665" fill="#af0af6" r="5"/>
<circle cx="122.55319148936171" cy="-3.062340018424242" fill="#af0af6" r="5"/>
<circle cx="132.7659574468085" cy="-3.2919494655999997" fill="#af0af6" r="5"/>
<circle cx="142.9787234042553" cy="-2.217593921784242" fill="#af0af6" r="5"/>
<circle cx="153.19148936170214" cy="-137.33055635307053" fill="#af0af6" r="5"/>
<circle cx="163.40425531914894" cy="-98.15590956941809" fill="#af0af6" r="5"/>
<circle cx="173.61702127659575" cy="-59.135969984075096" fill="#af0af6" r="5"/>
<circle cx="183.82978723404256" cy="-40.57249108135415" fill="#af0af6" r="5"/>
<circle cx="194.04255319148936" cy="-32.101070406388246" fill="#af0af6" r="5"/>
<circle cx="204.25531914893617" cy="-19.260642243832947" fill="#af0af6" r="5"/>
<circle cx="214.46808510638297" cy="-89.37456716448159" fill="#af0af6" r="5"/>
<circle cx="224.68085106382978" cy="-54.35201302596169" fill="#af0af6" r="5"/>
<circle cx="234.89361702127658" cy="-32.85363205800125" fill="#af0af6" r="5"/>
<circle cx="245.10638297872342" cy="-20.43945196207348" fill="#af0af6" r="5"/>
<circle cx="255.31914893617022" cy="-12.990943904516817" fill="#af0af6" r="5"/>
<circle cx="265.531914893617" cy="-15.552142100285847" fill="#af0af6" r="5"/>
<circle cx="275.74468085106383" cy="-9.57370950259575" fill="#af0af6" r="5"/>
<circle cx="285.9574468085106" cy="-13.259377216708966" fill="#af0af6" r="5"/>
<circle cx="296.17021276595744" cy="-8.682899057298107" fill="#af0af6" r="5"/>
<circle cx="306.3829787234043" cy="-8.361254585894015" fill="#af0af6" r="5"/>
<circle cx="316.59574468085106" cy="-5.259176993960652" fill="#af0af6" r="5"/>
<circle cx="326.8085106382979" cy="-10.670657711527907" fill="#af0af6" r="5"/>
<circle cx="337.02127659574467" cy="-13.91754614206826" fill="#af0af6" r="5"/>
<circle cx="347.2340425531915" cy="-9.077800412513682" fill="#af0af6" r="5"/>
<circle cx="357.4468085106383" cy="-8.598195399023362" fill="#af0af6" r="5"/>
</g>
</g>
<g>
<g>
<path d="M0,-25.393576 L0,-25.393576 L10.212766,-25.224861 L20.425531,-25.056147 L30.638298,-24.887432 L40.851063,-24.71872 L51.06383,-24.550005 L61.276596,-24.38129 L71.489365,-24.212576 L81.702126,-24.043861 L91.914894,-23.875149 L102.12766,-23.706434 L112.34042,-23.53772 L122.55319,-23.369005 L132.76596,-23.20029 L142.97873,-23.031576 L153.19148,-22.862864 L163.40425,-22.694149 L173.61702,-22.525434 L183.82979,-22.35672 L194.04256,-22.188005 L204.25533,-22.019293 L214.46808,-21.850578 L224.68085,-21.681864 L234.89362,-21.51315 L245.10638,-21.344435 L255.31915,-21.175722 L265.53192,-21.007008 L275.7447,-20.838293 L285.95746,-20.669579 L296.17023,-20.500864 L306.38297,-20.33215 L316.59573,-20.163437 L326.8085,-19.994722 L337.02127,-19.826008 L347.23404,-19.657293 L357.4468,-19.488579" fill="none" stroke="#87faa4" stroke-linejoin="round" stroke-width="2"/>
</g>
<g>
<circle cx="0" cy="-25.393575393575393" fill="#87faa4" r="5"/>
<circle cx="10.212765957446809" cy="-25.224861224861225" fill="#87faa4" r="5"/>
<circle cx="20.425531914893618" cy="-25.056147056147058" fill="#87faa4" r="5"/>
<circle cx="30.638297872340427" cy="-24.887432887432887" fill="#87faa4" r="5"/>
<circle cx="40.851063829787236" cy="-24.718718718718716" fill="#87faa4" r="5"/>
<circle cx="51.06382978723404" cy="-24.550004550004548" fill="#87faa4" r="5"/>
<circle cx="61.276595744680854" cy="-24.38129038129038" fill="#87faa4" r="5"/>
<circle cx="71.48936170212765" cy="-24.212576212576213" fill="#87faa4" r="5"/>
<circle cx="81.70212765957447" cy="-24.043862043862045" fill="#87faa4" r="5"/>
<circle cx="91.91489361702128" cy="-23.875147875147878" fill="#87faa4" r="5"/>
<circle cx="102.12765957446808" cy="-23.706433706433707" fill="#87faa4" r="5"/>
<circle cx="112.34042553191489" cy="-23.53771953771954" fill="#87faa4" r="5"/>
<circle cx="122.55319148936171" cy="-23.369005369005365" fill="#87faa4" r="5"/>
<circle cx="132.7659574468085" cy="-23.200291200291197" fill="#87faa4" r="5"/>
<circle cx="142.9787234042553" cy="-23.03157703157703" fill="#87faa4" r="5"/>
<circle cx="153.19148936170214" cy="-22.862862862862862" fill="#87faa4" r="5"/>
<circle cx="163.40425531914894" cy="-22.694148694148694" fill="#87faa4" r="5"/>
<circle cx="173.61702127659575" cy="-22.525434525434523" fill="#87faa4" r="5"/>
<circle cx="183.82978723404256" cy="-22.356720356720356" fill="#87faa4" r="5"/>
<circle cx="194.04255319148936" cy="-22.188006188006188" fill="#87faa4" r="5"/>
<circle cx="204.25531914893617" cy="-22.01929201929202" fill="#87faa4" r="5"/>
<circle cx="214.46808510638297" cy="-21.85057785057785" fill="#87faa4" r="5"/>
<circle cx="224.68085106382978" cy="-21.681863681863682" fill="#87faa4" r="5"/>
<circle cx="234.89361702127658" cy="-21.513149513149514" fill="#87faa4" r="5"/>
<circle cx="245.10638297872342" cy="-21.344435344435347" fill="#87faa4" r="5"/>
<circle cx="255.31914893617022" cy="-21.175721175721176" fill="#87faa4" r="5"/>
<circle cx="265.531914893617" cy="-21.007007007007008" fill="#87faa4" r="5"/>
<circle cx="275.74468085106383" cy="-20.83829283829284" fill="#87faa4" r="5"/>
<circle cx="285.9574468085106" cy="-20.669578669578666" fill="#87faa4" r="5"/>
<circle cx="296.17021276595744" cy="-20.5008645008645" fill="#87faa4" r="5"/>
<circle cx="306.3829787234043" cy="-20.33215033215033" fill="#87faa4" r="5"/>
<circle cx="316.59574468085106" cy="-20.163436163436163" fill="#87faa4" r="5"/>
<circle cx="326.8085106382979" cy="-19.994721994721992" fill="#87faa4" r="5"/>
<circle cx="337.02127659574467" cy="-19.826007826007825" fill="#87faa4" r="5"/>
<circle cx="347.2340425531915" cy="-19.657293657293657" fill="#87faa4" r="5"/>
<circle cx="357.4468085106383" cy="-19.48857948857949" fill="#87faa4" r="5"/>
</g>
</g>
<g>
<g>
<path d="M367.65958,-9.077801 L367.65958,-9.077801 L377.87234,-10.30303 L388.0851,-10.909091 L398.29788,-9.090909 L408.51065,-7.2727275 L418.72342,-12.727273 L428.93616,-22.424242 L439.14893,-35.151516 L449.3617,-13.939394 L459.57446,-8.484848 L469.78723,-13.333333 L480,-26.060606" fill="none" stroke="#ff00a2" stroke-linejoin="round" stroke-width="2"/>
</g>
<g>
<circle cx="367.6595744680851" cy="-9.077800412513682" fill="#ff00a2" r="5"/>
<circle cx="377.8723404255319" cy="-10.303030303030303" fill="#ff00a2" r="5"/>
<circle cx="388.0851063829787" cy="-10.909090909090908" fill="#ff00a2" r="5"/>
<circle cx="398.29787234042556" cy="-9.090909090909092" fill="#ff00a2" r="5"/>
<circle cx="408.51063829787233" cy="-7.2727272727272725" fill="#ff00a2" r="5"/>
<circle cx="418.72340425531917" cy="-12.727272727272727" fill="#ff00a2" r="5"/>
<circle cx="428.93617021276594" cy="-22.424242424242426" fill="#ff00a2" r="5"/>
<circle cx="439.1489361702128" cy="-35.15151515151515" fill="#ff00a2" r="5"/>
<circle cx="449.36170212765956" cy="-13.93939393939394" fill="#ff00a2" r="5"/>
<circle cx="459.5744680851064" cy="-8.484848484848484" fill="#ff00a2" r="5"/>
<circle cx="469.78723404255317" cy="-13.333333333333334" fill="#ff00a2" r="5"/>
<circle cx="480" cy="-26.060606060606062" fill="#ff00a2" r="5"/>
</g>
</g>
<g>
<g>
<line stroke="black" stroke-width="1" x1="0" x2="0" y1="0" y2="10"/>
<line stroke="black" stroke-width="1" x1="102.12765957446808" x2="102.12765957446808" y1="0" y2="10"/>
<line stroke="black" stroke-width="1" x1="204.25531914893617" x2="204.25531914893617" y1="0" y2="10"/>
<line stroke="black" stroke-width="1" x1="306.3829787234043" x2="306.3829787234043" y1="0" y2="10"/>
<line stroke="black" stroke-width="1" x1="408.51063829787233" x2="408.51063829787233" y1="0" y2="10"/>
</g>
<line stroke="black" stroke-width="1" x1="0" x2="480" y1="0" y2="0"/>
<g>
<text font-size="12" text-anchor="middle" x="0" y="20">
1
</text>
<text font-size="12" text-anchor="middle" x="102.12765957446808" y="20">
11
</text>
<text font-size="12" text-anchor="middle" x="204.25531914893617" y="20">
21
</text>
<text font-size="12" text-anchor="middle" x="306.3829787234043" y="20">
31
</text>
<text font-size="12" text-anchor="middle" x="408.51063829787233" y="20">
41
</text>
</g>
<text font-size="12" text-anchor="middle" x="240" y="30">

</text>
</g>
<g>
<g>
<line stroke="black" stroke-width="1" x1="0" x2="-10" y1="0" y2="0"/>
<line stroke="black" stroke-width="1" x1="0" x2="-10" y1="-60.60606060606061" y2="-60.60606060606061"/>
<line stroke="black" stroke-width="1" x1="0" x2="-10" y1="-121.21212121212122" y2="-121.21212121212122"/>
<line stroke="black" stroke-width="1" x1="0" x2="-10" y1="-181.8181818181818" y2="-181.8181818181818"/>
<line stroke="black" stroke-width="1" x1="0" x2="-10" y1="-242.42424242424244" y2="-242.42424242424244"/>
<line stroke="black" stroke-width="1" x1="0" x2="-10" y1="-303.030303030303" y2="-303.030303030303"/>
</g>
<line stroke="black" stroke-width="1" x1="0" x2="0" y1="0" y2="-340"/>
<g>
<text dominant-baseline="middle" font-size="12" text-anchor="end" x="-15" y="0">
0
</text>
<text dominant-baseline="middle" font-size="12" text-anchor="end" x="-15" y="-60.60606060606061">
100
</text>
<text dominant-baseline="middle" font-size="12" text-anchor="end" x="-15" y="-121.21212121212122">
200
</text>
<text dominant-baseline="middle" font-size="12" text-anchor="end" x="-15" y="-181.8181818181818">
300
</text>
<text dominant-baseline="middle" font-size="12" text-anchor="end" x="-15" y="-242.42424242424244">
400
</text>
<text dominant-baseline="middle" font-size="12" text-anchor="end" x="-15" y="-303.030303030303">
500
</text>
</g>
<text font-size="12" text-anchor="middle" transform="rotate(-90 -36 -170)" x="-36" y="-182">

</text>
</g>
</g>
</svg>