<svg viewBox="0 0 600 400" xmlns="http://www.w3.org/2000/svg">
<g transform="translate(72, 364)">
<g>
<g>
<path d="M0,-28.813559 L0,-28.813559 L10.212766,-95.08475 L20.425531,-60.508476 L30.638298,-46.101696 L40.851063,-15.847458 L51.06383,0 L61.276596,0 L71.489365,-46.101696 L81.702126,-48.98305 L91.914894,-108.05085 L102.12766,-31.694916 L112.34042,-15.847458 L122.55319,-159.91525 L132.76596,-46.101696 L142.97873,-46.101696 L153.19148,-125.33898 L163.40425,-108.05085 L173.61702,-60.508476 L183.82979,-125.33898 L194.04256,-28.813559 L204.25533,-92.20339 L214.46808,-109.49152 L224.68085,-129.66101 L234.89362,-31.694916 L245.10638,-79.23729 L255.31915,-90.76271 L265.53192,-319.8305 L275.7447,-46.101696 L285.95746,-159.91525 L296.17023,-46.101696 L306.38297,-108.05085 L316.59573,-44.66102 L326.8085,-155.59322 L337.02127,-60.508476 L347.23404,-123.89831 L357.4468,-93.644066" fill="none" stroke="#000000" stroke-linejoin="round" stroke-width="2"/>
</g>
<g>
<circle cx="0" cy="-28.8135593220339" fill="#000000" r="5"/>
<circle cx="10.212765957446809" cy="-95.08474576271186" fill="#000000" r="5"/>
<circle cx="20.425531914893618" cy="-60.50847457627118" fill="#000000" r="5"/>
<circle cx="30.638297872340427" cy="-46.101694915254235" fill="#000000" r="5"/>
<circle cx="40.851063829787236" cy="-15.847457627118644" fill="#000000" r="5"/>
<circle cx="51.06382978723404" cy="0" fill="#000000" r="5"/>
<circle cx="61.276595744680854" cy="0" fill="#000000" r="5"/>
<circle cx="71.48936170212765" cy="-46.101694915254235" fill="#000000" r="5"/>
<circle cx="81.70212765957447" cy="-48.983050847457626" fill="#000000" r="5"/>
<circle cx="91.91489361702128" cy="-108.05084745762711" fill="#000000" r="5"/>
<circle cx="102.12765957446808" cy="-31.694915254237287" fill="#000000" r="5"/>
<circle cx="112.34042553191489" cy="-15.847457627118644" fill="#000000" r="5"/>
<circle cx="122.55319148936171" cy="-159.91525423728814" fill="#000000" r="5"/>
<circle cx="132.7659574468085" cy="-46.101694915254235" fill="#000000" r="5"/>
<circle cx="142.9787234042553" cy="-46.101694915254235" fill="#000000" r="5"/>
<circle cx="153.19148936170214" cy="-125.33898305084746" fill="#000000" r="5"/>
<circle cx="163.40425531914894" cy="-108.05084745762711" fill="#000000" r="5"/>
<circle cx="173.61702127659575" cy="-60.50847457627118" fill="#000000" r="5"/>
<circle cx="183.82978723404256" cy="-125.33898305084746" fill="#000000" r="5"/>
<circle cx="194.04255319148936" cy="-28.8135593220339" fill="#000000" r="5"/>
<circle cx="204.25531914893617" cy="-92.20338983050847" fill="#000000" r="5"/>
<circle cx="214.46808510638297" cy="-109.49152542372882" fill="#000000" r="5"/>
<circle cx="224.68085106382978" cy="-129.66101694915255" fill="#000000" r="5"/>
<circle cx="234.89361702127658" cy="-31.694915254237287" fill="#000000" r="5"/>
<circle cx="245.10638297872342" cy="-79.23728813559322" fill="#000000" r="5"/>
<circle cx="255.31914893617022" cy="-90.76271186440678" fill="#000000" r="5"/>
<circle cx="265.531914893617" cy="-319.8305084745763" fill="#000000" r="5"/>
<circle cx="275.74468085106383" cy="-46.101694915254235" fill="#000000" r="5"/>
<circle cx="285.9574468085106" cy="-159.91525423728814" fill="#000000" r="5"/>
<circle cx="296.17021276595744" cy="-46.101694915254235" fill="#000000" r="5"/>
<circle cx="306.3829787234043" cy="-108.05084745762711" fill="#000000" r="5"/>
<circle cx="316.59574468085106" cy="-44.66101694915254" fill="#000000" r="5"/>
<circle cx="326.8085106382979" cy="-155.59322033898306" fill="#000000" r="5"/>
<circle cx="337.02127659574467" cy="-60.50847457627118" fill="#000000" r="5"/>
<circle cx="347.2340425531915" cy="-123.89830508474576" fill="#000000" r="5"/>
<circle cx="357.4468085106383" cy="-93.64406779661017" fill="#000000" r="5"/>
</g>
</g>
<g>
<g>
<path d="M10.212766,-28.813559 L10.212766,-28.813559 L20.425531,-55.322033 L30.638298,-57.39661 L40.851063,-52.878643 L51.06383,-38.06617 L61.276596,-22.839703 L71.489365,-13.703821 L81.702126,-26.662971 L91.914894,-35.591003 L102.12766,-64.57494 L112.34042,-51.42293 L122.55319,-37.19274 L132.76596,-86.281746 L142.97873,-70.209724 L153.19148,-60.566513 L163.40425,-86.4755 L173.61702,-95.10564 L183.82979,-81.26678 L194.04256,-98.89566 L204.25533,-70.862816 L214.46808,-79.39905 L224.68085,-91.436035 L234.89362,-106.72603 L245.10638,-76.713585 L255.31915,-77.72307 L265.53192,-82.93893 L275.7447,-177.69556 L285.95746,-125.058014 L296.17023,-139.00092 L306.38297,-101.841225 L316.59573,-104.32507 L326.8085,-80.45945 L337.02127,-110.512955 L347.23404,-90.51116 L357.4468,-103.86602" fill="none" stroke="#af0af6" stroke-linejoin="round" stroke-width="2"/>
</g>
<g>
<circle cx="10.212765957446809" cy="-28.8135593220339" fill="#af0af6" r="5"/>
<circle cx="20.425531914893618" cy="-55.322033898305094" fill="#af0af6" r="5"/>
<circle cx="30.638297872340427" cy="-57.396610169491524" fill="#af0af6" r="5"/>
<circle cx="40.851063829787236" cy="-52.878644067796614" fill="#af0af6" r="5"/>
<circle cx="51.06382978723404" cy="-38.06616949152543" fill="#af0af6" r="5"/>
<circle cx="61.276595744680854" cy="-22.83970169491526" fill="#af0af6" r="5"/>
<circle cx="71.48936170212765" cy="-13.703821016949156" fill="#af0af6" r="5"/>
<circle cx="81.70212765957447" cy="-26.662970576271192" fill="#af0af6" r="5"/>
<circle cx="91.91489361702128" cy="-35.59100268474576" fill="#af0af6" r="5"/>
<circle cx="102.12765957446808" cy="-64.57494059389832" fill="#af0af6" r="5"/>
<circle cx="112.34042553191489" cy="-51.4229304580339" fill="#af0af6" r="5"/>
<circle cx="122.55319148936171" cy="-37.192741325667804" fill="#af0af6" r="5"/>
<circle cx="132.7659574468085" cy="-86.28174649031592" fill="#af0af6" r="5"/>
<circle cx="142.9787234042553" cy="-70.20972586029126" fill="#af0af6" r="5"/>
<circle cx="153.19148936170214" cy="-60.56651348227644" fill="#af0af6" r="5"/>
<circle cx="163.40425531914894" cy="-86.47550130970485" fill="#af0af6" r="5"/>
<circle cx="173.61702127659575" cy="-95.10563976887377" fill="#af0af6" r="5"/>
<circle cx="183.82978723404256" cy="-81.26677369183274" fill="#af0af6" r="5"/>
<circle cx="194.04255319148936" cy="-98.89565743543864" fill="#af0af6" r="5"/>
<circle cx="204.25531914893617" cy="-70.86281819007674" fill="#af0af6" r="5"/>
<circle cx="214.46808510638297" cy="-79.39904684624943" fill="#af0af6" r="5"/>
<circle cx="224.68085106382978" cy="-91.4360382772412" fill="#af0af6" r="5"/>
<circle cx="234.89361702127658" cy="-106.72602974600574" fill="#af0af6" r="5"/>
<circle cx="245.10638297872342" cy="-76.71358394929835" fill="#af0af6" r="5"/>
<circle cx="255.31914893617022" cy="-77.72306562381631" fill="#af0af6" r="5"/>
<circle cx="265.531914893617" cy="-82.9389241200525" fill="#af0af6" r="5"/>
<circle cx="275.74468085106383" cy="-177.69555786186206" fill="#af0af6" r="5"/>
<circle cx="285.9574468085106" cy="-125.0580126832189" fill="#af0af6" r="5"/>
<circle cx="296.17021276595744" cy="-139.0009093048466" fill="#af0af6" r="5"/>
<circle cx="306.3829787234043" cy="-101.84122354900965" fill="#af0af6" r="5"/>
<circle cx="316.59574468085106" cy="-104.32507311245664" fill="#af0af6" r="5"/>
<circle cx="326.8085106382979" cy="-80.459450647135" fill="#af0af6" r="5"/>
<circle cx="337.02127659574467" cy="-110.51295852387423" fill="#af0af6" r="5"/>
<circle cx="347.2340425531915" cy="-90.51116494483301" fill="#af0af6" r="5"/>
<circle cx="357.4468085106383" cy="-103.86602100079813" fill="#af0af6" r="5"/>
</g>
</g>
<g>
<g>
<path d="M0,-39.63595 L0,-39.63595 L10.212766,-41.956055 L20.425531,-44.276157 L30.638298,-46.59626 L40.851063,-48.916363 L51.06383,-51.236465 L61.276596,-53.55657 L71.489365,-55.876675 L81.702126,-58.196777 L91.914894,-60.51688 L102.12766,-62.836983 L112.34042,-65.15709 L122.55319,-67.47719 L132.76596,-69.797295 L142.97873,-72.11739 L153.19148,-74.4375 L163.40425,-76.75761 L173.61702,-79.077705 L183.82979,-81.39781 L194.04256,-83.71791 L204.25533,-86.03802 L214.46808,-88.35812 L224.68085,-90.67822 L234.89362,-92.99833 L245.10638,-95.31843 L255.31915,-97.638535 L265.53192,-99.95864 L275.7447,-102.27874 L285.95746,-104.59885 L296.17023,-106.918945 L306.38297,-109.23905 L316.59573,-111.55916 L326.8085,-113.87926 L337.02127,-116.19936 L347.23404,-118.51946 L357.4468,-120.83957" fill="none" stroke="#87faa4" stroke-linejoin="round" stroke-width="2"/>
</g>
<g>
<circle cx="0" cy="-39.63594950883086" fill="#87faa4" r="5"/>
<circle cx="10.212765957446809" cy="-41.95605290520544" fill="#87faa4" r="5"/>
<circle cx="20.425531914893618" cy="-44.276156301580016" fill="#87faa4" r="5"/>
<circle cx="30.638297872340427" cy="-46.596259697954615" fill="#87faa4" r="5"/>
<circle cx="40.851063829787236" cy="-48.91636309432919" fill="#87faa4" r="5"/>
<circle cx="51.06382978723404" cy="-51.236466490703776" fill="#87faa4" r="5"/>
<circle cx="61.276595744680854" cy="-53.55656988707835" fill="#87faa4" r="5"/>
<circle cx="71.48936170212765" cy="-55.87667328345294" fill="#87faa4" r="5"/>
<circle cx="81.70212765957447" cy="-58.19677667982753" fill="#87faa4" r="5"/>
<circle cx="91.91489361702128" cy="-60.51688007620211" fill="#87faa4" r="5"/>
<circle cx="102.12765957446808" cy="-62.83698347257669" fill="#87faa4" r="5"/>
<circle cx="112.34042553191489" cy="-65.15708686895127" fill="#87faa4" r="5"/>
<circle cx="122.55319148936171" cy="-67.47719026532585" fill="#87faa4" r="5"/>
<circle cx="132.7659574468085" cy="-69.79729366170044" fill="#87faa4" r="5"/>
<circle cx="142.9787234042553" cy="-72.11739705807501" fill="#87faa4" r="5"/>
<circle cx="153.19148936170214" cy="-74.43750045444959" fill="#87faa4" r="5"/>
<circle cx="163.40425531914894" cy="-76.75760385082418" fill="#87faa4" r="5"/>
<circle cx="173.61702127659575" cy="-79.07770724719877" fill="#87faa4" r="5"/>
<circle cx="183.82978723404256" cy="-81.39781064357337" fill="#87faa4" r="5"/>
<circle cx="194.04255319148936" cy="-83.71791403994793" fill="#87faa4" r="5"/>
<circle cx="204.25531914893617" cy="-86.03801743632252" fill="#87faa4" r="5"/>
<circle cx="214.46808510638297" cy="-88.35812083269708" fill="#87faa4" r="5"/>
<circle cx="224.68085106382978" cy="-90.67822422907169" fill="#87faa4" r="5"/>
<circle cx="234.89361702127658" cy="-92.99832762544627" fill="#87faa4" r="5"/>
<circle cx="245.10638297872342" cy="-95.31843102182084" fill="#87faa4" r="5"/>
<circle cx="255.31914893617022" cy="-97.63853441819543" fill="#87faa4" r="5"/>
<circle cx="265.531914893617" cy="-99.95863781457003" fill="#87faa4" r="5"/>
<circle cx="275.74468085106383" cy="-102.2787412109446" fill="#87faa4" r="5"/>
<circle cx="285.9574468085106" cy="-104.59884460731918" fill="#87faa4" r="5"/>
<circle cx="296.17021276595744" cy="-106.91894800369377" fill="#87faa4" r="5"/>
<circle cx="306.3829787234043" cy="-109.23905140006833" fill="#87faa4" r="5"/>
<circle cx="316.59574468085106" cy="-111.55915479644294" fill="#87faa4" r="5"/>
<circle cx="326.8085106382979" cy="-113.8792581928175" fill="#87faa4" r="5"/>
<circle cx="337.02127659574467" cy="-116.1993615891921" fill="#87faa4" r="5"/>
<circle cx="347.2340425531915" cy="-118.51946498556666" fill="#87faa4" r="5"/>
<circle cx="357.4468085106383" cy="-120.83956838194128" fill="#87faa4" r="5"/>
</g>
</g>
<g>
<g>
<path d="M367.65958,-90.51116 L367.65958,-90.51116 L377.87234,-123.89831 L388.0851,-331.35593 L398.29788,-331.35593 L408.51065,-204.57628 L418.72342,-217.54237 L428.93616,-142.62712 L439.14893,-133.98305 L449.3617,-50.42373 L459.57446,-136.86441 L469.78723,-340 L480,-148.38983" fill="none" stroke="#ff00a2" stroke-linejoin="round" stroke-width="2"/>
</g>
<g>
<circle cx="367.6595744680851" cy="-90.51116494483301" fill="#ff00a2" r="5"/>
<circle cx="377.8723404255319" cy="-123.89830508474576" fill="#ff00a2" r="5"/>
<circle cx="388.0851063829787" cy="-331.35593220338984" fill="#ff00a2" r="5"/>
<circle cx="398.29787234042556" cy="-331.35593220338984" fill="#ff00a2" r="5"/>
<circle cx="408.51063829787233" cy="-204.57627118644066" fill="#ff00a2" r="5"/>
<circle cx="418.72340425531917" cy="-217.54237288135593" fill="#ff00a2" r="5"/>
<circle cx="428.93617021276594" cy="-142.6271186440678" fill="#ff00a2" r="5"/>
<circle cx="439.1489361702128" cy="-133.98305084745763" fill="#ff00a2" r="5"/>
<circle cx="449.36170212765956" cy="-50.42372881355932" fill="#ff00a2" r="5"/>
<circle cx="459.5744680851064" cy="-136.864406779661" fill="#ff00a2" r="5"/>
<circle cx="469.78723404255317" cy="-340" fill="#ff00a2" r="5"/>
<circle cx="480" cy="-148.38983050847457" fill="#ff00a2" r="5"/>
</g>
</g>
<g>
<g>
<line stroke="black" stroke-width="1" x1="0" x2="0" y1="0" y2="10"/>
<line stroke="black" stroke-width="1" x1="102.12765957446808" x2="102.12765957446808" y1="0" y2="10"/>
<line stroke="black" stroke-width="1" x1="204.25531914893617" x2="204.25531914893617" y1="0" y2="10"/>
<line stroke="black" stroke-width="1" x1="306.3829787234043" x2="306.3829787234043" y1="0" y2="10"/>
<line stroke="black" stroke-width="1" x1="408.51063829787233" x2="408.51063829787233" y1="0" y2="10"/>
</g>
<line stroke="black" stroke-width="1" x1="0" x2="480" y1="0" y2="0"/>
<g>
<text font-size="12" text-anchor="middle" x="0" y="20">
1
</text>
<text font-size="12" text-anchor="middle" x="102.12765957446808" y="20">
11
</text>
<text font-size="12" text-anchor="middle" x="204.25531914893617" y="20">
21
</text>
<text font-size="12" text-anchor="middle" x="306.3829787234043" y="20">
31
</text>
<text font-size="12" text-anchor="middle" x="408.51063829787233" y="20">
41
</text>
</g>
<text font-size="12" text-anchor="middle" x="240" y="30">

</text>
</g>
<g>
<g>
<line stroke="black" stroke-width="1" x1="0" x2="-10" y1="0" y2="0"/>
<line stroke="black" stroke-width="1" x1="0" x2="-10" y1="-57.6271186440678" y2="-57.6271186440678"/>
<line stroke="black" stroke-width="1" x1="0" x2="-10" y1="-115.2542372881356" y2="-115.2542372881356"/>
<line stroke="black" stroke-width="1" x1="0" x2="-10" y1="-172.88135593220338" y2="-172.88135593220338"/>
<line stroke="black" stroke-width="1" x1="0" x2="-10" y1="-230.5084745762712" y2="-230.5084745762712"/>
<line stroke="black" stroke-width="1" x1="0" x2="-10" y1="-288.135593220339" y2="-288.135593220339"/>
</g>
<line stroke="black" stroke-width="1" x1="0" x2="0" y1="0" y2="-340"/>
<g>
<text dominant-baseline="middle" font-size="12" text-anchor="end" x="-15" y="0">
12
</text>
<text dominant-baseline="middle" font-size="12" text-anchor="end" x="-15" y="-57.6271186440678">
52
</text>
<text dominant-baseline="middle" font-size="12" text-anchor="end" x="-15" y="-115.2542372881356">
92
</text>
<text dominant-baseline="middle" font-size="12" text-anchor="end" x="-15" y="-172.88135593220338">
132
</text>
<text dominant-baseline="middle" font-size="12" text-anchor="end" x="-15" y="-230.5084745762712">
172
</text>
<text dominant-baseline="middle" font-size="12" text-anchor="end" x="-15" y="-288.135593220339">
212
</text>
</g>
<text font-size="12" text-anchor="middle" transform="rotate(-90 -36 -170)" x="-36" y="-182">

</text>
</g>
</g>
</svg>